<?xml version="1.0" encoding="UTF-8"?>
<svg width="47px" height="49px" viewBox="0 0 47 49" version="1.1" xmlns="http://www.w3.org/2000/svg" xmlns:xlink="http://www.w3.org/1999/xlink">
    <title>certificate</title>
    <g id="Page-1" stroke="none" stroke-width="1" fill="none" fill-rule="evenodd">
        <g id="Home-12" transform="translate(-184.000000, -5424.000000)" fill-rule="nonzero">
            <g id="certificate" transform="translate(184.000000, 5424.314961)">
                <path d="M23.3115377,16.792878 L5.68837054,16.792878 C5.30815574,16.792878 5,17.1035591 5,17.4866831 C5,17.8698996 5.30815574,18.1804882 5.68837054,18.1804882 L23.3116295,18.1804882 C23.6918443,18.1804882 24,17.8698071 24,17.4866831 C24,17.1035591 23.6918443,16.792878 23.3115377,16.792878 Z" id="Path" fill="#164A84"></path>
                <path d="M23.3115377,21.6682953 L5.68837054,21.6682953 C5.30815574,21.6682953 5,21.9789764 5,22.3621004 C5,22.7452244 5.30815574,23.0559055 5.68837054,23.0559055 L23.3116295,23.0559055 C23.6918443,23.0559055 24,22.7452244 24,22.3621004 C24,21.9789764 23.6918443,21.6682953 23.3115377,21.6682953 Z" id="Path" fill="#164A84"></path>
                <path d="M23.3115377,26.5436201 L5.68837054,26.5436201 C5.30815574,26.5436201 5,26.8543012 5,27.2374252 C5,27.6205492 5.30815574,27.9312303 5.68837054,27.9312303 L23.3116295,27.9312303 C23.6918443,27.9312303 24,27.6205492 24,27.2374252 C24,26.8543012 23.6918443,26.5436201 23.3115377,26.5436201 Z" id="Path" fill="#164A84"></path>
                <path d="M24,32.112935 C24,31.7297185 23.6918443,31.4191299 23.3116295,31.4191299 L5.68837054,31.4191299 C5.30815574,31.4191299 5,31.729811 5,32.112935 C5,32.4960591 5.30815574,32.8067402 5.68837054,32.8067402 L23.3116295,32.8067402 C23.6918443,32.8067402 24,32.4961516 24,32.112935 Z" id="Path" fill="#164A84"></path>
                <path d="M5.74156748,38.5641476 C5.33196987,38.5641476 5,38.8748287 5,39.2579528 C5,39.6410768 5.33196987,39.9517579 5.74156748,39.9517579 L15.2584325,39.9517579 C15.6680301,39.9517579 16,39.6410768 16,39.2579528 C16,38.8748287 15.6680301,38.5641476 15.2584325,38.5641476 L5.74156748,38.5641476 Z" id="Path" fill="#164A84"></path>
                <path d="M32,8.59073031 L32,6.3393563 C32,5.48169882 31.2764113,4.78391535 30.3868223,4.78391535 L15.6130817,4.78391535 C14.7235887,4.78391535 14,5.48169882 14,6.3393563 L14,8.59073031 C14,9.4483878 14.7235887,10.1460787 15.6130817,10.1460787 L16.8606749,10.1460787 C17.2581161,10.1460787 17.5802335,9.83539764 17.5802335,9.45227362 C17.5802335,9.06905709 17.2581161,8.7584685 16.8606749,8.7584685 L15.6130817,8.7584685 C15.5172237,8.7584685 15.4392132,8.68325 15.4392132,8.59082283 L15.4392132,6.3393563 C15.4392132,6.24692913 15.5172237,6.17161811 15.6130817,6.17161811 L30.3868223,6.17161811 C30.4827763,6.17161811 30.5607868,6.24683661 30.5607868,6.3393563 L30.5607868,8.59073031 C30.5607868,8.68315748 30.4827763,8.75837598 30.3868223,8.75837598 L20.2248201,8.75837598 C19.8273789,8.75837598 19.5052615,9.06905709 19.5052615,9.4521811 C19.5052615,9.83539764 19.8273789,10.1459862 20.2248201,10.1459862 L30.3869183,10.1459862 C31.2764113,10.1461713 32,9.4483878 32,8.59073031 Z" id="Path" fill="#164A84"></path>
                <path d="M37.2980765,42.3088819 C36.9103758,42.3088819 36.5961529,42.619563 36.5961529,43.002687 L36.5961529,43.9370433 C36.5961529,45.0647657 35.6678991,45.982376 34.5267937,45.982376 L3.47311274,45.982376 C2.33219451,45.982376 1.40384705,45.0648583 1.40384705,43.9370433 L1.40384705,10.5868425 C1.40384705,10.4366831 1.42163149,10.2893917 1.45336266,10.1460787 L7.84480741,10.1460787 C9.17920157,10.1460787 10.2648009,9.07303543 10.2648009,7.7540748 L10.2648009,1.43664567 C10.4097908,1.4052815 10.558712,1.38770276 10.7106285,1.38770276 L34.5267001,1.38770276 C35.6677119,1.38770276 36.5960593,2.30522047 36.5960593,3.43303543 L36.5960593,12.6703858 C36.5960593,13.0536024 36.9102822,13.3641909 37.2979829,13.3641909 C37.6856835,13.3641909 38,13.0535098 38,12.6703858 L38,3.43294291 C38,1.54008268 36.4418964,2.84217094e-13 34.5267937,2.84217094e-13 L10.7107221,2.84217094e-13 C9.78302991,2.84217094e-13 8.91075022,0.357125984 8.25478542,1.00550394 L1.01717602,8.15940354 C0.361211214,8.8077815 0,9.66987992 0,10.586935 L0,43.9371358 C0,45.8300886 1.55801002,47.3700787 3.47311274,47.3700787 L34.5267937,47.3700787 C36.4418964,47.3700787 38,45.8299961 38,43.9371358 L38,43.0027795 C38,42.619563 37.6857771,42.3088819 37.2980765,42.3088819 Z M9,2.36887402 L9,7.7540748 C9,8.30789764 8.50638557,8.7584685 7.89965538,8.7584685 L2,8.7584685 L9,2.36887402 Z" id="Shape" fill="#164A84"></path>
                <path d="M46.5157894,24.5750472 C47.0034722,23.8601476 47.1296545,22.9783425 46.8620034,22.1556575 C46.5943523,21.3329724 45.9731682,20.6936614 45.1578931,20.4016693 C44.6170322,20.2079331 44.2561803,19.7120276 44.2389483,19.1384055 C44.2127298,18.2738091 43.7957351,17.4862815 43.0948764,16.9777933 C42.3942031,16.4693976 41.5151882,16.3168327 40.6839782,16.5590492 C40.1319999,16.7198484 39.5486149,16.5303681 39.1969349,16.0765591 C38.6669134,15.392376 37.8660909,15 36.999861,15 C36.1337239,15 35.3328087,15.392376 34.8026946,16.0765591 C34.4510145,16.5304606 33.867259,16.7196634 33.3157439,16.5590492 C32.4844412,16.3166476 31.605519,16.4693976 30.9046603,16.9777933 C30.2038943,17.4862815 29.7870849,18.2737165 29.7607737,19.138313 C29.7434491,19.711935 29.3826899,20.207748 28.8417363,20.4015768 C28.0264612,20.6935689 27.4052771,21.3329724 27.1377187,22.155565 C26.8700675,22.97825 26.9962499,23.8601476 27.4839326,24.5749547 C27.8074486,25.0493031 27.8074486,25.6621535 27.4839326,26.1364094 C26.9962499,26.8513091 26.8700675,27.7331142 27.1377187,28.5557992 C27.4052771,29.3784843 28.0264612,30.0177953 28.8417363,30.3098799 C29.3826899,30.5037087 29.7435418,30.9995217 29.7607737,31.5731437 C29.7849541,32.3684429 30.1498823,33.1157244 30.7622651,33.6231949 C31.1662895,33.9581161 31.6516562,34.1676732 32.1596282,34.2377106 L32.1596282,40.5547697 C32.1596282,41.0877756 32.4491435,41.5804429 32.9150547,41.8403307 C33.38041,42.1000335 33.9524923,42.0884685 34.4072861,41.8087815 L36.9554841,40.2422382 C36.996989,40.2166102 37.0217252,40.2281752 37.0446085,40.2422382 L39.5926212,41.8087815 C40.0472298,42.0881909 40.6191267,42.1002185 41.0849453,41.8402382 C41.5509492,41.5802579 41.8403718,41.0875906 41.8403718,40.5546772 L41.8403718,34.2375256 C42.3481585,34.1675807 42.8335252,33.9580236 43.2375496,33.6231949 C43.850025,33.1157244 44.2150459,32.3685354 44.2392263,31.5730512 C44.2564582,30.9994291 44.6173101,30.5035236 45.158171,30.3097874 C45.9735388,30.0177953 46.5947229,29.3783917 46.8622813,28.5557067 C47.1299325,27.7330217 47.0037501,26.8512165 46.5160674,26.1363169 C46.1921808,25.6622461 46.1921808,25.0493957 46.5157894,24.5750472 L46.5157894,24.5750472 Z M39.8684458,40.6271201 L37.2839692,39.0605768 C36.8035144,38.7694173 36.1968615,38.7689547 35.7159369,39.0605768 L33.1314603,40.6270276 C33.0726367,40.6622776 33,40.6216614 33,40.5546772 L33,34.1059626 C33.4844954,34.0507283 33.9648562,34.2448346 34.2714715,34.6349902 C34.8092464,35.3190807 35.6214997,35.7114567 36.500094,35.7114567 C37.3785942,35.7114567 38.1908476,35.3190807 38.7284345,34.6349902 C39.0351438,34.2447421 39.5155986,34.0507283 40,34.1059626 L40,40.5546772 C40,40.622124 39.9264236,40.6623701 39.8684458,40.6271201 L39.8684458,40.6271201 Z M45.7471184,26.9179232 C46.0020167,27.2752343 46.0678719,27.7159055 45.9280265,28.127063 C45.788181,28.5382205 45.4636506,28.8577835 45.0376256,29.0037795 C43.9062722,29.391437 43.1518429,30.3835256 43.1155257,31.5312323 C43.1026452,31.9347106 42.9169917,32.2984055 42.5928486,32.5554252 C42.2284176,32.8443642 41.7348911,32.9533524 41.2582158,32.8204941 C40.104491,32.4988957 38.8835552,32.8778563 38.147914,33.7858445 C37.8710317,34.1277047 37.4525607,34.3238465 37,34.3238465 C36.5475361,34.3238465 36.1290651,34.1277972 35.8519891,33.7858445 C35.29038,33.0923169 34.4457872,32.707435 33.5641993,32.707435 C33.2912877,32.707435 33.0146959,32.7443504 32.7419779,32.8204016 C32.260654,32.9543701 31.7685801,32.8420512 31.4070545,32.5553327 C31.0829114,32.298313 30.8972579,31.9346181 30.8845711,31.5312323 C30.8481571,30.3835256 30.0937278,29.391437 28.9622776,29.003687 C28.5363494,28.8576909 28.2119158,28.5382205 28.0719735,28.127063 C27.9321281,27.7159055 27.9979833,27.2751417 28.2528816,26.9178307 C28.9295437,25.9688563 28.9295437,24.7426929 28.2528816,23.7937185 C27.9979833,23.4364075 27.9321281,22.9956437 28.0719735,22.5843937 C28.211819,22.1732362 28.5363494,21.8536732 28.9622776,21.7077697 C30.0937278,21.3200197 30.8481571,20.3279311 30.8845711,19.1802244 C30.8982264,18.748065 31.1159359,18.3544862 31.4821101,18.1004272 C31.8480906,17.8462756 32.30714,17.7700394 32.7418811,17.8910551 C33.8953153,18.2127461 35.1165416,17.8336929 35.8519891,16.9257047 C36.1289683,16.583752 36.5473424,16.3876102 37,16.3876102 C37.4525607,16.3876102 37.8709349,16.5836594 38.147914,16.9256122 C38.8834584,17.8336929 40.1041036,18.2126535 41.2581189,17.8910551 C41.6925695,17.7698543 42.1516189,17.8461831 42.5177931,18.1003346 C42.8839673,18.3543937 43.1018705,18.748065 43.1154289,19.1801319 C43.1518429,20.3278386 43.9062722,21.3200197 45.0376256,21.7076772 C45.4636506,21.8535807 45.7880842,22.1731437 45.9280265,22.5843012 C46.0678719,22.9954587 46.0020167,23.436315 45.7471184,23.7935335 C45.0702627,24.7426004 45.0702627,25.9689488 45.7471184,26.9179232 L45.7471184,26.9179232 Z" id="Shape" fill="#84BF41"></path>
                <path d="M37.5000438,20 C34.467293,20 32,22.4672734 32,25.5 C32,28.5327266 34.467293,31 37.5000438,31 C40.532707,31 43,28.5327266 43,25.5 C43,22.4672734 40.532707,20 37.5000438,20 L37.5000438,20 Z M37.500047,30 C35.0187021,30 33,27.9812979 33,25.500047 C33,23.0187962 35.0187021,21 37.500047,21 C39.9813919,21 42,23.0187021 42,25.500047 C42,27.9813919 39.9812979,30 37.500047,30 Z" id="Shape" fill="#164A84"></path>
            </g>
        </g>
    </g>
</svg>