<?xml version="1.0" encoding="UTF-8"?>
<svg width="50px" height="51px" viewBox="0 0 50 51" version="1.1" xmlns="http://www.w3.org/2000/svg" xmlns:xlink="http://www.w3.org/1999/xlink">
    <title>digital-money</title>
    <g id="Page-1" stroke="none" stroke-width="1" fill="none" fill-rule="evenodd">
        <g id="Home-12" transform="translate(-179.000000, -5559.000000)" fill-rule="nonzero">
            <g id="WE-DELIVER" transform="translate(-1.000000, 5169.000000)">
                <g id="5-points" transform="translate(178.000000, 258.000000)">
                    <g id="digital-money" transform="translate(2.000000, 132.500000)">
                        <path d="M26.2136542,16.0250491 C26.1963654,16.0204322 25.9134578,15.9479371 25.9134578,15.9479371 L25.9134578,9.56630648 C26.5346758,9.67642436 27.108055,9.9694499 27.5663065,10.4197446 C27.8566798,10.7048134 28.322888,10.7008841 28.6081532,10.410609 C28.8933202,10.120334 28.8891945,9.65392927 28.5990177,9.36876228 C27.8628684,8.64528487 26.924558,8.19833006 25.9133595,8.07760314 L25.9133595,6.17200393 C25.9133595,5.76502947 25.5835953,5.43526523 25.1766208,5.43526523 C24.7696464,5.43526523 24.4398821,5.76502947 24.4398821,6.17200393 L24.4398821,8.13467583 C22.3247544,8.56119843 20.7270138,10.4335953 20.7270138,12.6723969 C20.7270138,14.9054028 22.3268173,16.7807466 24.4398821,17.2082515 L24.4398821,23.597446 C24.3479371,23.5808448 24.2562868,23.5607073 24.1650295,23.5358546 C23.3462672,23.3124754 22.6662083,22.7830059 22.25,22.0451866 C22.0501965,21.6907662 21.6007859,21.5656189 21.2463654,21.7654224 C20.8920432,21.9653242 20.7666994,22.4146365 20.9666012,22.769057 C21.5776031,23.8522593 22.5757367,24.6294695 23.7770138,24.9572692 C23.9965619,25.0171906 24.2179764,25.0592338 24.4397839,25.0865422 L24.4397839,26.9927308 C24.4397839,27.3997053 24.7695481,27.7294695 25.1765226,27.7294695 C25.5834971,27.7294695 25.9132613,27.3997053 25.9132613,26.9927308 L25.9132613,25.0304519 C26.3912574,24.9333988 26.8560904,24.7601179 27.2918468,24.5111002 C28.3655206,23.8979371 29.1360511,22.9031434 29.4616896,21.7101179 C29.7873281,20.5170923 29.6288802,19.2687623 29.0157171,18.1951866 C28.4027505,17.1218075 27.408055,16.3511788 26.2136542,16.0250491 L26.2136542,16.0250491 Z M22.2006876,12.6723969 C22.2006876,11.2509823 23.1455796,10.0464637 24.4400786,9.65284872 L24.4400786,15.6909627 C23.1465619,15.2965619 22.2006876,14.0901768 22.2006876,12.6723969 Z M28.0404715,21.3222986 C27.8184676,22.1355599 27.293222,22.8137525 26.5612967,23.2317289 C26.353831,23.3501965 26.1365422,23.4428291 25.9134578,23.5111002 L25.9134578,17.472888 C26.6881139,17.7077603 27.3333988,18.2206287 27.736444,18.9262279 C28.1545187,19.658055 28.2624754,20.5090373 28.0404715,21.3222986 L28.0404715,21.3222986 Z" id="Shape" fill="#84BF41"></path>
                        <path d="M46.93222,42.7020629 L46.93222,14.1178782 C46.93222,12.7160118 45.7913556,11.5756385 44.388998,11.5756385 L40.9069745,11.5756385 C40.1188605,9.08958743 38.7417485,6.81159136 36.8446955,4.91444008 C30.4109037,-1.51915521 19.9426326,-1.51915521 13.5088409,4.91444008 C11.6117878,6.81159136 10.2346758,9.08958743 9.44656189,11.5756385 L5.96463654,11.5756385 C4.56237721,11.5756385 3.42141454,12.7160118 3.42141454,14.1178782 L3.42141454,19.8192534 C3.42141454,20.2262279 3.75117878,20.5559921 4.15815324,20.5559921 C4.5651277,20.5559921 4.89489194,20.2262279 4.89489194,19.8192534 L4.89489194,14.1178782 C4.89489194,13.5285855 5.37475442,13.0491159 5.96463654,13.0491159 L9.05383104,13.0491159 C8.80471513,14.1969548 8.6759332,15.3797642 8.6759332,16.5824165 C8.6759332,20.9898821 10.3923379,25.1336935 13.5088409,28.2501965 C16.7257367,31.4669941 20.951277,33.075442 25.1767191,33.075442 C29.4021611,33.075442 33.6277014,31.4669941 36.8445972,28.2501965 C39.9611984,25.1335953 41.6775049,20.9898821 41.6775049,16.5824165 C41.6775049,15.3797642 41.548723,14.197053 41.2996071,13.0491159 L44.3888016,13.0491159 C44.9786837,13.0491159 45.4585462,13.5285855 45.4585462,14.1178782 L45.4585462,42.6866405 L4.89489194,42.6866405 L4.89489194,23.1591356 C4.89489194,22.7521611 4.5651277,22.4223969 4.15815324,22.4223969 C3.75117878,22.4223969 3.42141454,22.7521611 3.42141454,23.1591356 L3.42141454,42.6866405 L3.34479371,42.6866405 C1.50039293,42.6867387 -2.79191645e-15,44.1871316 -2.79191645e-15,46.0314342 L-2.79191645e-15,46.3300589 C-2.79191645e-15,48.1743615 1.50039293,49.6748527 3.34479371,49.6748527 L32.3968566,49.6748527 C32.803831,49.6748527 33.1335953,49.3450884 33.1335953,48.9381139 C33.1335953,48.5311395 32.803831,48.2013752 32.3968566,48.2013752 L3.34479371,48.2013752 C2.3129666,48.2013752 1.47347741,47.3618861 1.47347741,46.3300589 L1.47347741,46.0314342 C1.47347741,44.9996071 2.3129666,44.1601179 3.34479371,44.1601179 L46.6159136,44.1601179 C47.6477407,44.1601179 48.4872299,44.9996071 48.4872299,46.0314342 L48.4872299,46.3300589 C48.4872299,47.3618861 47.6477407,48.2013752 46.6159136,48.2013752 L35.7367387,48.2013752 C35.3297642,48.2013752 35,48.5311395 35,48.9381139 C35,49.3450884 35.3297642,49.6748527 35.7367387,49.6748527 L46.6159136,49.6748527 C48.4602161,49.6748527 49.9607073,48.1744597 49.9607073,46.3300589 L49.9607073,46.0314342 C49.9607073,44.2938114 48.6286837,42.8619843 46.93222,42.7020629 Z M35.8027505,27.2082515 C29.9436149,33.067387 20.4099214,33.067387 14.5508841,27.2082515 C11.7124754,24.3700393 10.1494106,20.5963654 10.1494106,16.5824165 C10.1494106,15.2083497 10.3327112,13.8625737 10.6875246,12.5726916 C10.7022593,12.5336935 10.7141454,12.4933202 10.7222004,12.4514735 C11.4130648,10.0205305 12.7146365,7.79263261 14.5508841,5.9564833 C17.4804519,3.02691552 21.3285855,1.56208251 25.1768173,1.56208251 C29.0250491,1.56208251 32.8731827,3.02691552 35.8027505,5.9564833 C37.638998,7.79263261 38.9405697,10.0206287 39.6314342,12.4514735 C39.6394892,12.4933202 39.6513752,12.5335953 39.66611,12.5725933 C40.0209234,13.8624754 40.204224,15.2082515 40.204224,16.5823183 C40.204224,20.5964637 38.6410609,24.3701375 35.8027505,27.2082515 Z" id="Shape" fill="#164A84"></path>
                    </g>
                </g>
            </g>
        </g>
    </g>
</svg>