<?xml version="1.0" encoding="UTF-8"?>
<svg width="50px" height="46px" viewBox="0 0 50 46" version="1.1" xmlns="http://www.w3.org/2000/svg" xmlns:xlink="http://www.w3.org/1999/xlink">
    <title>mortarboard</title>
    <g id="Page-1" stroke="none" stroke-width="1" fill="none" fill-rule="evenodd">
        <g id="Home-12" transform="translate(-769.000000, -5430.000000)" fill-rule="nonzero">
            <g id="WE-DELIVER" transform="translate(-1.000000, 5169.000000)">
                <g id="5-points" transform="translate(178.000000, 258.000000)">
                    <g id="row-1" transform="translate(2.000000, 0.000000)">
                        <g id="d-2" transform="translate(590.000000, 0.000000)">
                            <g id="mortarboard" transform="translate(0.000000, 3.000000)">
                                <path d="M47.3405273,0.0686523437 L2.65947266,0.0686523437 C1.19306641,0.0686523437 0,1.26162109 0,2.728125 L0,35.4950195 C0,36.9615234 1.19306641,38.1544922 2.65947266,38.1544922 L10.4210938,38.1544922 C10.8255859,38.1544922 11.1535156,37.8265625 11.1535156,37.4220703 C11.1535156,37.0175781 10.8255859,36.6896484 10.4210938,36.6896484 L2.65947266,36.6896484 C2.00068359,36.6896484 1.46484375,36.1537109 1.46484375,35.4950195 L1.46484375,8.34335937 L39.7460938,8.34335937 C40.1505859,8.34335937 40.4785156,8.01542969 40.4785156,7.6109375 C40.4785156,7.20644531 40.1505859,6.87851562 39.7460938,6.87851562 L1.46484375,6.87851562 L1.46484375,2.728125 C1.46484375,2.06933594 2.00078125,1.53349609 2.65947266,1.53349609 L47.3404297,1.53349609 C47.9992187,1.53349609 48.5350586,2.06943359 48.5350586,2.728125 L48.5350586,6.87851562 L43.1961914,6.87851562 C42.7916992,6.87851562 42.4637695,7.20644531 42.4637695,7.6109375 C42.4637695,8.01542969 42.7916992,8.34335937 43.1961914,8.34335937 L48.5351562,8.34335937 L48.5351562,35.4950195 C48.5351562,36.1538086 47.9992187,36.6896484 47.3405273,36.6896484 L39.6455078,36.6896484 C39.2410156,36.6896484 38.9130859,37.0175781 38.9130859,37.4220703 C38.9130859,37.8265625 39.2410156,38.1544922 39.6455078,38.1544922 L47.3405273,38.1544922 C48.8070313,38.1544922 50,36.9614258 50,35.4950195 L50,2.728125 C50,1.26162109 48.8069336,0.0686523437 47.3405273,0.0686523437 Z" id="Path" fill="#164A84"></path>
                                <path d="M4.08955078,3.47470703 C3.68505859,3.47470703 3.35712891,3.80263672 3.35712891,4.20712891 C3.35712891,4.61162109 3.68505859,4.93955078 4.08955078,4.93955078 L7.09667969,4.93955078 C7.50117187,4.93955078 7.82910156,4.61162109 7.82910156,4.20712891 C7.82910156,3.80263672 7.50117187,3.47470703 7.09667969,3.47470703 L4.08955078,3.47470703 Z" id="Path" fill="#84BF41"></path>
                                <path d="M10.5147461,3.47470703 C10.1102539,3.47470703 9.78232422,3.80263672 9.78232422,4.20712891 C9.78232422,4.61162109 10.1102539,4.93955078 10.5147461,4.93955078 L13.521875,4.93955078 C13.9263672,4.93955078 14.2542969,4.61162109 14.2542969,4.20712891 C14.2542969,3.80263672 13.9263672,3.47470703 13.521875,3.47470703 L10.5147461,3.47470703 Z" id="Path" fill="#84BF41"></path>
                                <path d="M16.9600586,3.47470703 C16.5555664,3.47470703 16.2276367,3.80263672 16.2276367,4.20712891 C16.2276367,4.61162109 16.5555664,4.93955078 16.9600586,4.93955078 L19.9671875,4.93955078 C20.3716797,4.93955078 20.6996094,4.61162109 20.6996094,4.20712891 C20.6996094,3.80263672 20.3716797,3.47470703 19.9671875,3.47470703 L16.9600586,3.47470703 Z" id="Path" fill="#84BF41"></path>
                                <path d="M42.2879883,21.8097656 C42.5637695,21.6974609 42.744043,21.4292969 42.744043,21.131543 C42.744043,20.8337891 42.5637695,20.565625 42.2879883,20.4533203 L25.2763672,13.5209961 C25.0992187,13.4488281 24.9007812,13.4488281 24.7236328,13.5209961 L7.71201172,20.4532227 C7.43623047,20.5655273 7.25595703,20.8336914 7.25595703,21.1314453 C7.25595703,21.4291992 7.43623047,21.6973633 7.71201172,21.809668 L12.5488281,23.7806641 L12.5488281,39.2240234 C12.5488281,39.5217773 12.7291016,39.7899414 13.0048828,39.9022461 L16.2304688,41.2166992 L16.2304688,44.3160156 C16.2304688,44.7205078 16.5583984,45.0484375 16.9628906,45.0484375 C17.3673828,45.0484375 17.6953125,44.7205078 17.6953125,44.3160156 L17.6953125,41.8135742 L24.7236328,44.6776367 C24.812207,44.7137695 24.9061523,44.7318359 25,44.7318359 C25.0938477,44.7318359 25.187793,44.7137695 25.2763672,44.6776367 L36.9951172,39.9022461 C37.2708984,39.7899414 37.4511719,39.5217773 37.4511719,39.2240234 L37.4511719,23.7806641 L42.2879883,21.8097656 Z M16.2304688,25.2810547 L16.2304688,33.9239258 L14.0136719,33.0206055 L14.0136719,24.3777344 L16.2304688,25.2810547 Z M14.0136719,38.7316406 L14.0136719,34.6022461 L16.2304688,35.5055664 L16.2304688,39.6349609 L14.0136719,38.7316406 Z M25,43.2086914 L17.6953125,40.2320313 L17.6953125,36.1025391 L24.7236328,38.9666016 C24.812207,39.0027344 24.9061523,39.0208008 25,39.0208008 C25.0938477,39.0208008 25.187793,39.0027344 25.2763672,38.9666016 L35.9863281,34.6023438 L35.9863281,38.7317383 L25,43.2086914 Z M35.9863281,33.0206055 L25,37.4974609 L17.6953125,34.5208008 L17.6953125,25.8779297 L24.7236328,28.7419922 C24.812207,28.778125 24.9061523,28.7961914 25,28.7961914 C25.0938477,28.7961914 25.187793,28.778125 25.2763672,28.7419922 L29.6316406,26.9671875 C30.0061523,26.8145508 30.1861328,26.3871094 30.0334961,26.0125977 C29.8808594,25.6378906 29.4533203,25.4581055 29.0788086,25.6107422 L25,27.2728516 L18.9037109,24.7885742 L25.2763672,22.1916992 C25.6509766,22.0390625 25.830957,21.6116211 25.6782227,21.2371094 C25.5255859,20.8625 25.0978516,20.6825195 24.7236328,20.8352539 L16.9628906,23.9977539 L9.92919922,21.131543 L25,14.9901367 L40.0708008,21.131543 L32.2550781,24.3164063 C31.8804687,24.469043 31.7004883,24.8964844 31.8532227,25.2709961 C32.0058594,25.6456055 32.4333984,25.8255859 32.8078125,25.6728516 L35.9862305,24.3776367 L35.9862305,33.0206055 L35.9863281,33.0206055 Z" id="Shape" fill="#164A84"></path>
                            </g>
                        </g>
                    </g>
                </g>
            </g>
        </g>
    </g>
</svg>