<?xml version="1.0" encoding="UTF-8"?>
<svg width="48px" height="45px" viewBox="0 0 48 45" version="1.1" xmlns="http://www.w3.org/2000/svg" xmlns:xlink="http://www.w3.org/1999/xlink">
    <title>globe</title>
    <g id="Page-1" stroke="none" stroke-width="1" fill="none" fill-rule="evenodd">
        <g id="Home-12" transform="translate(-769.000000, -5696.000000)" fill-rule="nonzero">
            <g id="WE-DELIVER" transform="translate(-1.000000, 5169.000000)">
                <g id="5-points" transform="translate(178.000000, 258.000000)">
                    <g id="row-3" transform="translate(0.000000, 267.000000)">
                        <g id="globe" transform="translate(592.000000, 2.000000)">
                            <path d="M43.7291242,18.3568071 C43.2933925,18.4236585 42.994357,18.831153 43.0613082,19.2668847 C44.9667738,31.6807982 35.5832262,42.8285255 23.248337,43.2952882 L23.248337,23.2566186 L33.7700554,23.2566186 C33.5291907,30.5049113 30.0559091,35.8180044 27.1247228,39.0373503 C26.6561641,39.5519069 27.028337,40.3729823 27.7147118,40.3729823 C27.9315299,40.3729823 28.1476497,40.2850776 28.3051996,40.1121619 C31.426663,36.6838803 35.127439,31.0146785 35.3679047,23.2566186 L39.2128603,23.2566186 C39.6536807,23.2566186 40.0110865,22.8992129 40.0110865,22.4583925 C40.0110865,22.0175721 39.6536807,21.6601663 39.2128603,21.6601663 L35.3674058,21.6601663 C35.0513082,11.3232373 28.6472395,4.66822616 25.1271619,1.77725055 C27.7647007,2.11789357 30.3217184,2.95872506 32.6385698,4.25863636 C33.0231153,4.47465632 33.5096341,4.33756098 33.7253548,3.95301552 C33.9410754,3.56856984 33.8042794,3.082051 33.4197339,2.86633038 C30.0872395,0.996585366 26.293969,0.00828159645 22.4501109,0.00828159645 C10.0419845,0.00828159645 -1.1343476e-14,10.0491685 -1.1343476e-14,22.4583925 C-1.1343476e-14,34.8641242 10.0381929,44.9070067 22.4474169,44.9085033 C36.1838914,44.9085033 46.7371397,32.6900554 44.6392018,19.0247228 C44.5722506,18.5888914 44.1646563,18.2895565 43.7291242,18.3568071 Z M21.6518847,42.5831707 C20.4731042,41.6959424 18.5997672,40.1164523 16.7589579,37.8585698 C13.1922838,33.4838914 11.3016851,28.5749002 11.1300665,23.2565188 L21.6518847,23.2565188 L21.6518847,42.5831707 Z M28.1449557,7.05961197 C31.7096341,11.4343902 33.5989357,16.3428825 33.770255,21.6601663 L23.248337,21.6601663 L23.248337,2.32982262 C24.4266186,3.21675166 26.3024501,4.79823725 28.1449557,7.05961197 Z M21.6518847,1.62149667 L21.6518847,21.6601663 L11.1303659,21.6601663 C11.363847,14.6509424 14.6313858,9.46596452 17.3897561,6.31127494 C17.6799113,5.97941242 17.6460865,5.47513304 17.3143237,5.18497783 C16.9823614,4.89472284 16.4781818,4.92854767 16.1879268,5.26050998 C13.2490576,8.6216408 9.76579823,14.1564412 9.53261641,21.6601663 L1.61321508,21.6601663 C2.02440133,10.7950111 10.7867295,2.03258315 21.6518847,1.62149667 Z M1.61321508,23.2566186 L9.53281596,23.2566186 C9.84971175,33.5977384 16.2586696,40.2522506 19.7798448,43.1416297 C9.79603104,41.8599778 2.00045455,33.4903769 1.61321508,23.2566186 L1.61321508,23.2566186 Z" id="Shape" fill="#164A84"></path>
                            <path d="M42.1014412,15.4641353 C42.6863415,14.8793348 42.686541,13.9326386 42.101541,13.3475388 C42.1017406,13.3478381 42.1014412,13.347439 42.1014412,13.347439 C41.8187694,13.0647672 41.4430044,12.9090133 41.0431929,12.9090133 C39.7045676,12.9090133 39.0511197,14.5304102 39.9849446,15.4640355 C40.5684479,16.0475388 41.5179379,16.0476386 42.1014412,15.4641353 Z" id="Path" fill="#84BF41"></path>
                            <path d="M44.7120399,10.7369401 C45.023847,11.0487472 45.0237472,11.5541242 44.7120399,11.8658315 C44.4002328,12.1775388 43.8949557,12.177439 43.5832483,11.8658315 C42.1794678,10.462051 39.9074169,10.4617517 38.5034368,11.8657317 C38.1916297,12.1775388 37.6862528,12.177439 37.3745455,11.8658315 C37.0628381,11.5541242 37.0627384,11.0487472 37.3745455,10.7370399 C39.4019401,8.7093459 42.6840466,8.70894678 44.7120399,10.7369401 L44.7120399,10.7369401 Z" id="Path" fill="#84BF41"></path>
                            <path d="M47.1109091,9.1363969 C46.9065632,9.1363969 46.7023171,9.05847007 46.5464634,8.90261641 C43.5050222,5.86097561 38.5819623,5.86047672 35.5400222,8.90261641 C35.2283149,9.21422395 34.7229379,9.21422395 34.4112306,8.90261641 C34.0994235,8.59090909 34.0994235,8.08553215 34.4112306,7.77372506 C38.0768847,4.10807095 44.0095011,4.10797118 47.6753548,7.77372506 C48.1797339,8.27820399 47.8155432,9.1363969 47.1109091,9.1363969 L47.1109091,9.1363969 Z" id="Path" fill="#84BF41"></path>
                        </g>
                    </g>
                </g>
            </g>
        </g>
    </g>
</svg>