<?xml version="1.0" encoding="UTF-8"?>
<svg width="56px" height="49px" viewBox="0 0 56 49" version="1.1" xmlns="http://www.w3.org/2000/svg" xmlns:xlink="http://www.w3.org/1999/xlink">
    <title>friend</title>
    <g id="Page-1" stroke="none" stroke-width="1" fill="none" fill-rule="evenodd">
        <g id="Home-12" transform="translate(-768.000000, -5559.000000)" fill-rule="nonzero">
            <g id="WE-DELIVER" transform="translate(-1.000000, 5169.000000)">
                <g id="5-points" transform="translate(178.000000, 258.000000)">
                    <g id="row-2" transform="translate(2.000000, 132.500000)">
                        <g id="d-4" transform="translate(589.000000, 0.250000)">
                            <g id="friend" transform="translate(-0.000000, 0.000000)">
                                <path d="M55.938517,46.0092863 L53.8406983,35.0594508 C53.3136208,32.3086592 51.3301134,30.0662576 48.6642356,29.2075027 L42.8015777,27.3188539 L42.8015777,25.0238865 C43.5200117,24.6653252 44.1962621,24.204911 44.8137176,23.6499661 C47.7558657,23.5210108 50.1098465,21.0880176 50.1098465,18.1146142 L50.1098465,17.2654763 C50.5062201,16.7610206 50.743476,16.1259704 50.743476,15.4361688 C50.743476,14.7463672 50.5062201,14.1113169 50.1098465,13.6068612 L50.1098465,11.173103 C50.1098465,9.02348365 49.4967623,6.93593766 48.3369296,5.13613686 C48.0915866,4.75560943 47.5845081,4.64588813 47.2039807,4.89123107 C46.8235625,5.13646472 46.7138412,5.64365249 46.9590749,6.02417993 C47.9479872,7.5586388 48.4706934,9.3390963 48.4706934,11.173103 L48.4706934,12.5519413 C48.247863,12.4982827 48.0156341,12.4691039 47.7765204,12.4691039 L47.7592535,12.4691039 C47.7901809,12.3827694 47.807885,12.2902057 47.807885,12.1932707 C47.807885,11.7406157 47.4409088,11.3736395 46.9882538,11.3736395 L43.5241645,11.3736395 C41.0919363,11.3736395 39.1131281,9.39483122 39.1131281,6.962603 L39.1131281,5.72124425 C39.1131281,5.26858926 38.7461518,4.90161306 38.2934969,4.90161306 C37.9363562,4.90161306 37.6333113,5.13045409 37.5210764,5.44934526 C33.8310968,6.04636462 30.9674148,8.88425564 30.2630784,12.4694317 L30.1263639,12.4694317 C29.8873594,12.4694317 29.6550213,12.4986106 29.4321909,12.5522691 L29.4321909,11.1734309 C29.4321909,5.92451278 33.7024694,1.6542343 38.9513875,1.6542343 C40.9590468,1.6542343 42.8789509,2.27201765 44.5036784,3.440921 C44.8712011,3.70527938 45.3833066,3.621677 45.647665,3.25426366 C45.9120234,2.88685032 45.828421,2.37463547 45.4610077,2.11027709 C43.5557476,0.739635182 41.3047126,0.0150812138 38.9514968,0.0150812138 C32.7986894,0.0150812138 27.7930378,5.02073279 27.7930378,11.1735402 L27.7930378,13.210269 C27.2692388,12.7460299 26.5809672,12.4632025 25.8276715,12.4632025 L25.7746687,12.4632025 C25.7690952,12.422986 25.7630846,12.3828787 25.7570739,12.3427714 C25.9665717,12.2663818 26.1629553,12.1514148 26.3357336,11.999182 C26.7515598,11.6328615 26.9757016,11.1054562 26.9507848,10.5519319 L26.8581118,8.4933462 C26.8310094,7.88966051 26.5037033,7.35078033 26.0121432,7.03877406 C25.5456091,5.09395318 24.4285064,3.33119971 22.8497875,2.06088065 C21.2052795,0.737668067 19.1287712,0.00885201681 17.003085,0.00885201681 C14.8768524,0.00885201681 12.8001256,0.737558783 11.155399,2.06077137 C9.57646149,3.33109042 8.45935883,5.09406246 7.99282476,7.03899263 C7.50159247,7.3509989 7.1743957,7.88987908 7.14729323,8.4933462 L7.05462026,10.5519319 C7.02970347,11.1053469 7.25384528,11.6328615 7.6696715,11.999182 C7.84234047,12.1513055 8.03927053,12.2646332 8.24854969,12.3410228 C8.24232049,12.3816765 8.23630986,12.4224395 8.23062709,12.4632025 L8.17762427,12.4632025 C6.54164042,12.4632025 5.21066866,13.7941743 5.21066866,15.4301581 C5.21066866,17.066142 6.54164042,18.3971137 8.17762427,18.3971137 L8.24079051,18.3971137 C8.36242378,19.1851618 8.60110038,19.9618443 8.95638318,20.7173257 C9.09604833,21.0142508 9.39089699,21.1884497 9.69864118,21.1884497 C9.81546595,21.1884497 9.93414854,21.1633144 10.0469298,21.1103115 C10.4566361,20.9176436 10.6324743,20.4294712 10.4399156,20.0197649 C10.0057297,19.0964231 9.78563137,18.1398588 9.78563137,17.176519 L9.78563137,13.6846716 C9.78563137,13.221416 9.83218642,12.7603462 9.91917661,12.3090026 C11.9162353,12.0246452 14.64823,11.8408293 17.0028665,11.8408293 C19.3575029,11.8408293 22.0896069,12.0246452 24.0866656,12.3090026 C24.1736558,12.7601276 24.2202108,13.2211975 24.2202108,13.6846716 L24.2202108,17.176519 C24.2202108,20.966275 20.8477017,24.2906991 17.0028665,24.2906991 C15.4325624,24.2906991 13.9228017,23.7612174 12.6369643,22.7594095 C12.2797144,22.481172 11.7647675,22.5452125 11.4866393,22.9022439 C11.2085111,23.2593845 11.2724423,23.7743315 11.6294737,24.0525689 C12.112619,24.4289436 12.6224295,24.7503483 13.1526763,25.0159088 L13.1526763,27.3126247 L11.958419,27.6973049 C11.4041298,27.2375464 10.6446049,27.0405071 9.8957898,27.2345958 L4.97286633,28.5117997 C3.68626394,28.8455535 2.91100212,30.1639576 3.24475594,31.45056 L3.39961159,32.0475794 C2.76335922,32.9409774 2.31977482,33.9758983 2.11333705,35.0532216 L0.0147533613,46.0031664 C-0.0703789978,46.4477343 0.220972568,46.8772211 0.665540523,46.9623534 C0.717669067,46.9722983 0.769469757,46.9771068 0.820614743,46.9771068 C1.20595069,46.9771068 1.54943079,46.7040057 1.62472758,46.3115663 L3.72265556,35.3616215 C3.79915447,34.9621879 3.91936705,34.5710599 4.07509697,34.1945759 C4.27268273,34.5053801 4.54108462,34.7679899 4.86773497,34.9600022 C5.23471117,35.1758384 5.64354321,35.2862154 6.05838587,35.2862154 C6.25695519,35.2862154 6.4569452,35.2608615 6.65431239,35.2097165 L9.26030242,34.533794 C9.86967089,34.3756598 10.3810115,33.9897774 10.7001212,33.4470723 C10.9179245,33.076599 11.0255694,32.663177 11.023493,32.2442909 L11.3476298,32.1601421 C11.5383307,32.1106363 11.7174474,32.035121 11.8836686,31.9392788 C13.0522441,33.585426 14.9404558,34.5766334 17.00232,34.5766334 C19.9116829,34.5766334 22.4432504,32.5438387 23.1118509,29.7626662 L26.2125703,30.7615234 C28.3082033,31.4366809 29.8674697,33.1993251 30.2816567,35.3616215 L32.3795846,46.3115663 C32.4547721,46.704115 32.7983615,46.9771068 33.1836975,46.9771068 C33.2348425,46.9771068 33.2867524,46.9722983 33.3387717,46.9623534 C33.7833397,46.8771118 34.0746912,46.4477343 33.9895589,46.0031664 L32.9204319,40.4228987 L46.2704754,40.4228987 C46.7231304,40.4228987 47.0901066,40.0559225 47.0901066,39.6032675 C47.0901066,39.1506125 46.7231304,38.7836363 46.2704754,38.7836363 L32.6064586,38.7836363 L31.8917402,35.0532216 C31.5750347,33.4001894 30.7319074,31.931301 29.5312023,30.8353995 L32.8417474,29.7690047 C33.5104571,32.5500679 36.0419154,34.5828626 38.9512782,34.5828626 C41.8617339,34.5828626 44.3920993,32.5503958 45.0606998,29.7688954 L48.1615285,30.7677526 C50.2571615,31.4428008 51.8163186,33.205445 52.2306148,35.3678507 L52.8850084,38.783527 L50.1385882,38.783527 C49.6859332,38.783527 49.318957,39.1505032 49.318957,39.6031582 C49.318957,40.0558132 49.6859332,40.4227894 50.1385882,40.4227894 L53.199091,40.4227894 L54.3284335,46.3175769 C54.403621,46.7101256 54.7472104,46.9831174 55.1325464,46.9831174 C55.1836914,46.9831174 55.2356013,46.9783089 55.2876206,46.9683641 C55.7324071,46.883341 56.0237587,46.4538542 55.938517,46.0092863 L55.938517,46.0092863 Z M49.1041044,15.4363873 C49.1041044,16.1578813 48.5252262,16.7457208 47.8076664,16.7625506 L47.8076664,14.1903294 C47.8076664,14.163664 47.8067921,14.1369987 47.8065735,14.1102241 C48.5246797,14.1265074 49.1041044,14.7144562 49.1041044,15.4363873 Z M46.6245561,21.4292027 C47.1757854,20.4831298 47.5483351,19.4541101 47.7120427,18.4033429 L47.7765204,18.4033429 C48.0135577,18.4033429 48.2439287,18.3746012 48.4650106,18.321817 C48.3960523,19.6330083 47.6766347,20.7741535 46.6245561,21.4292027 Z M31.7339338,14.1902201 C31.7339338,10.734655 34.1598236,7.80704169 37.4776906,7.12314143 C37.5632601,10.3852735 40.2415963,13.0131204 43.523946,13.0131204 L46.0728897,13.0131204 C46.1362745,13.4005328 46.168404,13.7949393 46.168404,14.1902201 L46.168404,17.1829668 C46.168404,20.9727228 42.7958949,24.2970376 38.9511689,24.2970376 C35.106443,24.2970376 31.7339338,20.9727228 31.7339338,17.1829668 L31.7339338,14.1902201 L31.7339338,14.1902201 Z M30.1261453,18.4033429 L30.190623,18.4033429 C30.3542213,19.4542194 30.726771,20.4831298 31.2781096,21.4292027 C30.226031,20.7740442 29.5066134,19.632899 29.4376551,18.321817 C29.658737,18.3746012 29.889108,18.4033429 30.1261453,18.4033429 Z M30.0947808,14.1902201 L30.0947808,16.7624413 C29.377221,16.7456116 28.7983428,16.1578813 28.7983428,15.4362781 C28.7983428,14.7141283 29.3782045,14.125961 30.0966386,14.1101148 C30.09642,14.1368894 30.0947808,14.1634455 30.0947808,14.1902201 L30.0947808,14.1902201 Z M27.1550369,15.4300489 C27.1550369,16.1515429 26.5761587,16.7392731 25.8587082,16.7562121 L25.8587082,14.1038856 C26.576268,14.1208246 27.1550369,14.7085548 27.1550369,15.4300489 L27.1550369,15.4300489 Z M23.3364298,8.59487119 C22.8837749,8.59487119 22.5167987,8.96184739 22.5167987,9.41450237 L22.5167987,10.4727009 C22.0249107,10.4245066 21.5158651,10.3821043 20.9968746,10.3459313 L20.9968746,9.02872929 C20.9968746,8.57607431 20.6298984,8.20909811 20.1772434,8.20909811 C19.7245884,8.20909811 19.3576122,8.57607431 19.3576122,9.02872929 L19.3576122,10.2540233 C18.8428838,10.2321664 18.3288112,10.2169759 17.8219512,10.2089982 L17.8219512,8.9583503 C17.8219512,8.50569531 17.454975,8.13871911 17.00232,8.13871911 C16.5496651,8.13871911 16.1826889,8.50569531 16.1826889,8.9583503 L16.1826889,10.2089982 C15.6758289,10.2169759 15.1617562,10.2321664 14.6469186,10.2540233 L14.6469186,9.02872929 C14.6469186,8.57607431 14.2799424,8.20909811 13.8272874,8.20909811 C13.3746324,8.20909811 13.0076562,8.57607431 13.0076562,9.02872929 L13.0076562,10.3459313 C12.4886657,10.3822136 11.9795108,10.4246158 11.4877321,10.4727009 L11.4877321,9.41450237 C11.4877321,8.96184739 11.1207559,8.59487119 10.6681009,8.59487119 C10.215446,8.59487119 9.84846976,8.96184739 9.84846976,9.41450237 L9.84846976,10.6637296 C9.51395096,10.7098475 9.19407622,10.7585882 8.89638618,10.8101704 C8.82961356,10.8215359 8.78130996,10.7942149 8.75278679,10.7690795 C8.72317079,10.7429606 8.68852771,10.696952 8.69169695,10.6255894 L8.78436992,8.56689444 C8.78797629,8.48711701 8.84469477,8.41870512 8.92217724,8.40067324 C11.2640275,7.85578242 13.9069555,7.59076834 17.00232,7.59076834 C20.0976845,7.59076834 22.7406126,7.85567314 25.0823536,8.40067324 C25.1599453,8.41881441 25.2166638,8.48711701 25.2202702,8.56700372 L25.3129431,10.6255894 C25.3161124,10.6968427 25.2814693,10.7429606 25.2518533,10.7690795 C25.2232208,10.7942149 25.174808,10.8215359 25.1082539,10.8101704 C24.8105639,10.7585882 24.4906891,10.7099568 24.1561703,10.6637296 L24.1561703,9.41450237 C24.156061,8.96184739 23.7890848,8.59487119 23.3364298,8.59487119 L23.3364298,8.59487119 Z M17.0026479,1.6480051 C20.2004116,1.6480051 23.0496682,3.64910732 24.1446955,6.53300697 C22.0168236,6.14275324 19.6662307,5.95150597 17.0022108,5.95150597 C14.3381908,5.95150597 11.9874886,6.14275324 9.85950746,6.53311626 C10.954644,3.64910732 13.8042284,1.6480051 17.0026479,1.6480051 L17.0026479,1.6480051 Z M6.84938461,15.4300489 C6.84938461,14.7085548 7.4282628,14.1208246 8.1457133,14.1038856 L8.1457133,16.7562121 C7.42815351,16.7392731 6.84938461,16.1515429 6.84938461,15.4300489 L6.84938461,15.4300489 Z M9.28707704,32.6161848 C9.18992343,32.7814225 9.03430279,32.898903 8.84873828,32.946988 L6.24263897,33.6231291 C6.05707446,33.6713234 5.86407864,33.6443302 5.69873171,33.5471766 C5.53349406,33.450023 5.41601359,33.2944023 5.36792856,33.1088378 L4.83090621,31.0391052 C4.7240263,30.6274317 4.97210134,30.2055949 5.38388405,30.0988243 L8.63257422,29.2560248 L9.3632481,32.0723869 C9.41111456,32.2577328 9.38423066,32.4509472 9.28707704,32.6161848 Z M10.9359564,30.5734454 L10.6847121,30.638688 L10.2191616,28.8442421 L10.3068075,28.821511 C10.6685381,28.7275267 11.0390114,28.9455485 11.1328865,29.3071698 L11.3005284,29.9536949 C11.334625,30.0851637 11.3155003,30.2220968 11.2466513,30.3390308 C11.1778023,30.4560742 11.0675345,30.5393487 10.9359564,30.5734454 L10.9359564,30.5734454 Z M17.0022108,32.937371 C15.2825152,32.937371 13.727511,32.0031007 12.9145461,30.4941051 C12.9758545,30.1823174 12.9694068,29.858727 12.8872251,29.5420215 L12.7862465,29.1527513 L13.1519113,29.034943 L13.1519113,29.186848 C13.1519113,29.6395029 13.5188875,30.0064792 13.9715425,30.0064792 C14.4241975,30.0064792 14.7911737,29.6395029 14.7911737,29.186848 L14.7911737,25.6389378 C15.508187,25.8307315 16.2489151,25.9299615 17.0021015,25.9299615 C17.7555065,25.9299615 18.4967809,25.830185 19.2131386,25.6391563 L19.2131386,29.186848 C19.2131386,29.6395029 19.5801148,30.0064792 20.0327697,30.0064792 C20.4854247,30.0064792 20.8524009,29.6395029 20.8524009,29.186848 L20.8524009,29.034943 L21.5442789,29.2577734 C21.0967603,31.3750447 19.1953252,32.937371 17.0022108,32.937371 L17.0022108,32.937371 Z M26.7152774,29.2012735 L20.8525102,27.3126247 L20.8525102,25.017548 C21.7302806,24.5794279 22.5463054,23.9909327 23.2676901,23.2621166 C24.6098089,21.9061188 25.4850657,20.1817241 25.7629753,18.3970045 L25.8273437,18.3970045 C26.5807486,18.3970045 27.268911,18.1142863 27.79271,17.649938 L27.79271,18.1147235 C27.79271,21.0880176 30.1466907,23.5211201 33.0888388,23.6500754 C33.7062943,24.2050203 34.3825447,24.6654345 35.1009788,25.0239958 L35.1009788,27.3189631 L27.830413,29.6611412 C27.4745838,29.4807131 27.1023619,29.3259667 26.7152774,29.2012735 L26.7152774,29.2012735 Z M38.9512782,32.9436002 C36.758273,32.9436002 34.8568379,31.3812739 34.40921,29.2640026 L35.101088,29.0411722 L35.101088,29.1930772 C35.101088,29.6457321 35.4680642,30.0127083 35.9207192,30.0127083 C36.3733742,30.0127083 36.7403504,29.6457321 36.7403504,29.1930772 L36.7403504,25.6454948 C37.4565988,25.8365235 38.1979825,25.9363 38.9512782,25.9363 C39.7045739,25.9363 40.4459576,25.8365235 41.162206,25.6454948 L41.162206,29.1930772 C41.162206,29.6457321 41.5291822,30.0127083 41.9818372,30.0127083 C42.4344922,30.0127083 42.8014684,29.6457321 42.8014684,29.1930772 L42.8014684,29.0411722 L43.4933464,29.2640026 C43.0457185,31.3816017 41.1451577,32.9436002 38.9512782,32.9436002 Z" id="Shape" fill="#164A84"></path>
                                <path d="M35.7284884,16.3364517 C36.1811434,16.3364517 36.5481196,15.9694755 36.5481196,15.5168205 L36.5481196,14.889748 C36.5481196,14.437093 36.1811434,14.0701168 35.7284884,14.0701168 C35.2758334,14.0701168 34.9088572,14.437093 34.9088572,14.889748 L34.9088572,15.5168205 C34.9088572,15.9694755 35.2758334,16.3364517 35.7284884,16.3364517 Z" id="Path" fill="#84BF41"></path>
                                <path d="M42.174068,16.3364517 C42.626723,16.3364517 42.9936992,15.9694755 42.9936992,15.5168205 L42.9936992,14.889748 C42.9936992,14.437093 42.626723,14.0701168 42.174068,14.0701168 C41.7214131,14.0701168 41.3544368,14.437093 41.3544368,14.889748 L41.3544368,15.5168205 C41.3544368,15.9694755 41.7214131,16.3364517 42.174068,16.3364517 Z" id="Path" fill="#84BF41"></path>
                                <path d="M14.5990521,15.510482 L14.5990521,14.8835188 C14.5990521,14.4308638 14.2320759,14.0638876 13.7794209,14.0638876 C13.3267659,14.0638876 12.9597897,14.4308638 12.9597897,14.8835188 L12.9597897,15.510482 C12.9597897,15.963137 13.3267659,16.3301132 13.7794209,16.3301132 C14.2320759,16.3301132 14.5990521,15.963137 14.5990521,15.510482 Z" id="Path" fill="#164A84"></path>
                                <path d="M21.0445225,15.510482 L21.0445225,14.8835188 C21.0445225,14.4308638 20.6775463,14.0638876 20.2248913,14.0638876 C19.7722363,14.0638876 19.4052601,14.4308638 19.4052601,14.8835188 L19.4052601,15.510482 C19.4052601,15.963137 19.7722363,16.3301132 20.2248913,16.3301132 C20.6775463,16.3301132 21.0445225,15.963137 21.0445225,15.510482 Z" id="Path" fill="#164A84"></path>
                                <path d="M21.12124,37.3842527 L12.8831816,37.3842527 C12.4305266,37.3842527 12.0635504,37.7512289 12.0635504,38.2038839 L12.0635504,46.1251275 C12.0635504,46.5777825 12.4305266,46.9447587 12.8831816,46.9447587 C13.3358365,46.9447587 13.7028127,46.5777825 13.7028127,46.1251275 L13.7028127,42.0870778 L20.3016088,42.0870778 L20.3016088,46.1251275 C20.3016088,46.5777825 20.668585,46.9447587 21.12124,46.9447587 C21.5738949,46.9447587 21.9408711,46.5777825 21.9408711,46.1251275 L21.9408711,38.2038839 C21.9408711,37.7511196 21.5738949,37.3842527 21.12124,37.3842527 Z M13.7028127,40.4478155 L13.7028127,39.0234058 L20.3016088,39.0234058 L20.3016088,40.4478155 L13.7028127,40.4478155 Z" id="Shape" fill="#84BF41"></path>
                            </g>
                        </g>
                    </g>
                </g>
            </g>
        </g>
    </g>
</svg>