<?xml version="1.0" encoding="UTF-8"?>
<svg width="50px" height="46px" viewBox="0 0 50 46" version="1.1" xmlns="http://www.w3.org/2000/svg" xmlns:xlink="http://www.w3.org/1999/xlink">
    <title>medal</title>
    <g id="Page-1" stroke="none" stroke-width="1" fill="none" fill-rule="evenodd">
        <g id="Home-12" transform="translate(-177.000000, -5694.000000)" fill-rule="nonzero">
            <g id="WE-DELIVER" transform="translate(-1.000000, 5169.000000)">
                <g id="5-points" transform="translate(178.000000, 258.000000)">
                    <g id="medal" transform="translate(0.000000, 267.000000)">
                        <path d="M25.021875,4.37880859 C24.3952148,4.37880859 23.7642578,4.41601562 23.146582,4.48935547 C22.7449219,4.53691406 22.4579102,4.90126953 22.5056641,5.30292969 C22.553418,5.70458984 22.9183594,5.99257813 23.3192383,5.94384766 C23.8798828,5.87734375 24.4527344,5.84365234 25.0219727,5.84365234 C32.9083984,5.84365234 39.3244141,12.2671875 39.3244141,20.162793 C39.3244141,28.0584961 32.9083984,34.4820312 25.0219727,34.4820312 C22.0734375,34.4820312 19.2425781,33.5912109 16.8354492,31.905957 C14.481543,30.2578125 12.6945313,27.9739258 11.6677734,25.3013672 C11.5227539,24.9238281 11.0993164,24.7350586 10.7214844,24.8802734 C10.3438477,25.025293 10.1553711,25.4490234 10.3003906,25.8265625 C11.4321289,28.7725586 13.4013672,31.2896484 15.9953125,33.1057617 C18.6499023,34.9643555 21.7712891,35.9467773 25.0219727,35.9467773 C33.7160156,35.9467773 40.7892578,28.8660156 40.7892578,20.1626953 C40.7892578,11.459375 33.715918,4.37880859 25.021875,4.37880859 Z" id="Path" fill="#164A84"></path>
                        <path d="M10.8698242,22.2473633 C10.7701172,21.562207 10.7194336,20.8608398 10.7194336,20.1626953 C10.7194336,17.2152344 11.6066406,14.384668 13.2851562,11.9771484 C14.9263672,9.62314453 17.2014648,7.83369141 19.8643555,6.80263672 C20.2416016,6.65654297 20.4289062,6.23232422 20.2829102,5.85517578 C20.1368164,5.47802734 19.7126953,5.29052734 19.3354492,5.43662109 C16.3996094,6.5734375 13.8920898,8.54541016 12.0834961,11.1393555 C10.2328125,13.794043 9.25449219,16.9142578 9.25449219,20.1626953 C9.25449219,20.93125 9.31015625,21.7036133 9.42011719,22.4584961 C9.47324219,22.8229492 9.78623047,23.0854492 10.1439453,23.0854492 C10.1791016,23.0854492 10.2147461,23.0829102 10.2504883,23.0777344 C10.6508789,23.0195312 10.928125,22.6476563 10.8698242,22.2473633 L10.8698242,22.2473633 Z" id="Path" fill="#84BF41"></path>
                        <path d="M35.7754883,25.612793 C36.1469727,25.7733398 36.5779297,25.6024414 36.7383789,25.2310547 C37.4311523,23.6282227 37.7824219,21.9230469 37.7824219,20.162793 C37.7824219,13.1191406 32.0580078,7.38876953 25.0217773,7.38876953 C17.9855469,7.38876953 12.2612305,13.1191406 12.2612305,20.162793 C12.2612305,27.2064453 17.9856445,32.9368164 25.021875,32.9368164 C28.8443359,32.9368164 32.4333008,31.2424805 34.8685547,28.2881836 C35.1258789,27.9760742 35.0814453,27.5144531 34.7692383,27.2571289 C34.4571289,26.999707 33.9954102,27.0442383 33.7381836,27.3564453 C31.5821289,29.971875 28.4051758,31.4719727 25.0217773,31.4719727 C18.7932617,31.4719727 13.7259766,26.3987305 13.7259766,20.162793 C13.7259766,13.9268555 18.7932617,8.85361328 25.0217773,8.85361328 C31.250293,8.85361328 36.3175781,13.9268555 36.3175781,20.162793 C36.3175781,21.7219727 36.0067383,23.2316406 35.3936523,24.6499023 C35.2332031,25.0211914 35.4041016,25.4523437 35.7754883,25.612793 L35.7754883,25.612793 Z" id="Path" fill="#164A84"></path>
                        <path d="M49.7858398,36.4109375 L42.8167969,29.434082 C44.2682617,26.659375 45.0896484,23.5051758 45.0896484,20.162793 C45.0896484,9.09736328 36.087207,0.0950195313 25.021875,0.0950195313 C13.956543,0.0950195313 4.95410156,9.09736328 4.95410156,20.162793 C4.95410156,23.4936523 5.76982422,26.6375977 7.21201172,29.4053711 L0.214257813,36.4109375 C0.0315429688,36.5939453 -0.0412109375,36.8598633 0.0229492188,37.1104492 C0.0872070313,37.3609375 0.278808594,37.5591797 0.527148438,37.6316406 L5.98515625,39.2256836 L7.57763672,44.6901367 C7.65,44.9386719 7.84824219,45.1305664 8.09912109,45.1947266 C8.15927734,45.2100586 8.22021484,45.2175781 8.28076172,45.2175781 C8.47265625,45.2175781 8.65986328,45.1420898 8.79902344,45.002832 L15.8071289,37.9870117 C18.5681641,39.4202148 21.7022461,40.2305664 25.0219727,40.2305664 C28.3302734,40.2305664 31.4541016,39.4258789 34.2081055,38.0019531 L41.2012695,45.002832 C41.3404297,45.1420898 41.5276367,45.2175781 41.7195313,45.2175781 C41.7800781,45.2175781 41.8410156,45.2100586 41.9011719,45.1947266 C42.1519531,45.1305664 42.350293,44.9386719 42.4226563,44.6901367 L44.0151367,39.2256836 L49.4731445,37.6316406 C49.7214844,37.5591797 49.9130859,37.3610352 49.9773438,37.1104492 C50.0413086,36.8597656 49.9685547,36.5939453 49.7858398,36.4109375 Z M2.12382813,36.5719727 L7.96445312,30.725 C8.65488281,31.8358398 9.45068359,32.874707 10.337793,33.8274414 L6.36425781,37.8103516 L2.12382813,36.5719727 Z M8.6375,43.0916992 L7.40019531,38.8459961 L11.3742187,34.8625 C12.3298828,35.7503906 13.371875,36.5463867 14.4861328,37.2365234 L8.6375,43.0916992 Z M6.41894531,20.162793 C6.41894531,9.90507812 14.7641602,1.55986328 25.021875,1.55986328 C35.2795898,1.55986328 43.6248047,9.90507812 43.6248047,20.162793 C43.6248047,30.4205078 35.2795898,38.7657227 25.021875,38.7657227 C14.7641602,38.7657227 6.41894531,30.4205078 6.41894531,20.162793 Z M41.3625977,43.0916992 L35.5307617,37.2532227 C36.6462891,36.5647461 37.6897461,35.7701172 38.646875,34.8835938 L42.5999023,38.8459961 L41.3625977,43.0916992 Z M43.6358398,37.8103516 L39.6848633,33.8499023 C40.5733398,32.8987305 41.3706055,31.8613281 42.0625,30.7517578 L47.8761719,36.571875 L43.6358398,37.8103516 Z" id="Shape" fill="#164A84"></path>
                        <path d="M32.2824219,18.2279297 C32.1962891,17.9626953 31.9670898,17.7694336 31.6911133,17.7293945 L27.5400391,17.1264648 L25.6804687,13.3036133 C25.5579102,13.0515625 25.3021484,12.8915039 25.021875,12.8915039 C24.7416016,12.8915039 24.4858398,13.0515625 24.3632812,13.3036133 L22.5037109,17.1264648 L18.3526367,17.7293945 C18.0767578,17.7694336 17.8474609,17.962793 17.7613281,18.227832 C17.6750977,18.4930664 17.7470703,18.7841797 17.9467773,18.9787109 L20.9538086,21.9083008 L20.2444336,26.0444336 C20.1972656,26.3191406 20.3102539,26.596875 20.5357422,26.7607422 C20.7612305,26.9246094 21.0601562,26.9462891 21.3070312,26.8165039 L25.0216797,24.8635742 L28.7363281,26.8165039 C28.8435547,26.8728516 28.9605469,26.9006547 29.0770508,26.9006547 C29.2289062,26.9006547 29.3800781,26.853418 29.5076172,26.7606445 C29.7332031,26.5967773 29.8461914,26.3191406 29.7989258,26.0443359 L29.0895508,21.9081055 L32.096582,18.9786133 C32.296582,18.7841797 32.3685547,18.4930664 32.2824219,18.2279297 L32.2824219,18.2279297 Z M27.7917969,21.1277344 C27.619043,21.2959961 27.5402344,21.5384766 27.5810547,21.7761719 L28.1045898,24.8293945 L25.3626953,23.387793 C25.255957,23.3317383 25.1389648,23.3037109 25.021875,23.3037109 C24.9047852,23.3037109 24.787793,23.3317383 24.6810547,23.387793 L21.9391602,24.8293945 L22.4626953,21.7762695 C22.5035156,21.5385742 22.4246094,21.2960937 22.2519531,21.127832 L20.0324219,18.9655273 L23.0980469,18.5202148 C23.3380859,18.4854492 23.5453125,18.3339844 23.6513672,18.1157227 L25.021875,15.2981445 L26.3923828,18.1157227 C26.4984375,18.3338867 26.7056641,18.4853516 26.9457031,18.5202148 L30.0112305,18.9655273 L27.7917969,21.1277344 Z" id="Shape" fill="#84BF41"></path>
                    </g>
                </g>
            </g>
        </g>
    </g>
</svg>