<?xml version="1.0" encoding="UTF-8"?>
<svg width="60px" height="52px" viewBox="0 0 60 52" version="1.1" xmlns="http://www.w3.org/2000/svg" xmlns:xlink="http://www.w3.org/1999/xlink">
    <title>blinder</title>
    <g id="Page-1" stroke="none" stroke-width="1" fill="none" fill-rule="evenodd">
        <g id="Application-(Final)" transform="translate(-203.000000, -1670.000000)" fill="#164A84" fill-rule="nonzero">
            <g id="APPLY-STEPS" transform="translate(0.000000, 1328.000000)">
                <g id="4-steps" transform="translate(99.000000, 303.000000)">
                    <g id="oval+icon" transform="translate(69.000000, 0.000000)">
                        <g id="blinder" transform="translate(35.000000, 39.000000)">
                            <path d="M11.7584167,6.51068333 L6.42508333,6.51068333 C5.83601667,6.51068333 5.35841667,6.98828333 5.35841667,7.57735 L5.35841667,23.57735 C5.35841667,24.1664167 5.83601667,24.6440167 6.42508333,24.6440167 L11.7584167,24.6440167 C12.3474833,24.6440167 12.8250833,24.1664167 12.8250833,23.57735 L12.8250833,7.57735 C12.8250833,6.98828333 12.3474833,6.51068333 11.7584167,6.51068333 Z M10.69175,22.5106833 L7.49175,22.5106833 L7.49175,8.64401667 L10.69175,8.64401667 L10.69175,22.5106833 Z" id="Shape"></path>
                            <path d="M9.09175,34.2440167 C7.03308333,34.2440167 5.35841667,35.9186833 5.35841667,37.97735 C5.35841667,40.0360167 7.03308333,41.7106833 9.09175,41.7106833 C11.1504167,41.7106833 12.8250833,40.0360167 12.8250833,37.97735 C12.8250833,35.9186833 11.1504167,34.2440167 9.09175,34.2440167 Z M9.09175,39.57735 C8.20935,39.57735 7.49175,38.85975 7.49175,37.97735 C7.49175,37.09495 8.20935,36.37735 9.09175,36.37735 C9.97415,36.37735 10.69175,37.09495 10.69175,37.97735 C10.69175,38.85975 9.97415,39.57735 9.09175,39.57735 Z" id="Shape"></path>
                            <path d="M22.4250833,24.6440167 L27.7584167,24.6440167 C28.3474833,24.6440167 28.8250833,24.1664167 28.8250833,23.57735 L28.8250833,7.57735 C28.8250833,6.98828333 28.3474833,6.51068333 27.7584167,6.51068333 L22.4250833,6.51068333 C21.8360167,6.51068333 21.3584167,6.98828333 21.3584167,7.57735 L21.3584167,23.57735 C21.3584167,24.1664167 21.8360167,24.6440167 22.4250833,24.6440167 Z M23.49175,8.64401667 L26.69175,8.64401667 L26.69175,22.5106833 L23.49175,22.5106833 L23.49175,8.64401667 Z" id="Shape"></path>
                            <path d="M25.09175,41.7106833 C27.1504167,41.7106833 28.8250833,40.0360167 28.8250833,37.97735 C28.8250833,35.9186833 27.1504167,34.2440167 25.09175,34.2440167 C23.0330833,34.2440167 21.3584167,35.9186833 21.3584167,37.97735 C21.3584167,40.0360167 23.03335,41.7106833 25.09175,41.7106833 Z M25.09175,36.37735 C25.97415,36.37735 26.69175,37.09495 26.69175,37.97735 C26.69175,38.85975 25.97415,39.57735 25.09175,39.57735 C24.20935,39.57735 23.49175,38.85975 23.49175,37.97735 C23.49175,37.09495 24.2096167,36.37735 25.09175,36.37735 Z" id="Shape"></path>
                            <path d="M59.9080167,46.9496167 L50.7250833,0.92375 C50.6096167,0.34615 50.0482833,-0.0295833333 49.47015,0.08615 L34.1584167,3.14108333 L34.1584167,2.24401667 C34.1584167,1.65495 33.6808167,1.17735 33.09175,1.17735 L1.09175,1.17735 C0.502683333,1.17735 0.0250833333,1.65495 0.0250833333,2.24401667 L0.0250833333,49.17735 C0.0250833333,49.7664167 0.502683333,50.2440167 1.09175,50.2440167 L33.09175,50.2440167 C33.6808167,50.2440167 34.1584167,49.7664167 34.1584167,49.17735 L34.1584167,10.5680167 L42.1250833,50.4976167 C42.18055,50.7752167 42.34375,51.0192167 42.5792167,51.1762833 C42.75575,51.29415 42.96215,51.35575 43.1712167,51.35575 C43.2408167,51.35575 43.3106833,51.3490833 43.3800167,51.3352167 L59.0706833,48.20455 C59.64855,48.0890833 60.0234833,47.5272167 59.9080167,46.9496167 L59.9080167,46.9496167 Z M2.15841667,3.31068333 L16.0250833,3.31068333 L16.0250833,48.1106833 L2.15841667,48.1106833 L2.15841667,3.31068333 Z M32.0250833,48.1106833 L18.1584167,48.1106833 L18.1584167,3.31068333 L32.0250833,3.31068333 L32.0250833,48.1106833 Z M44.0088167,49.0344167 L35.24295,5.10001667 L48.8416167,2.38695 L57.6074833,46.3210833 L44.0088167,49.0344167 Z" id="Shape"></path>
                            <path d="M45.2834833,6.35975 L40.05335,7.40321667 C39.7760167,7.45868333 39.53175,7.62188333 39.37495,7.85708333 C39.2178833,8.09255 39.1608167,8.38055 39.2160167,8.65788333 L42.3466833,24.3488167 C42.40215,24.6264167 42.56535,24.8704167 42.8008167,25.0274833 C42.97735,25.14535 43.18375,25.20695 43.3928167,25.20695 C43.4624167,25.20695 43.5322833,25.2002833 43.6016167,25.1864167 L48.83175,24.1426833 C49.4096167,24.0272167 49.7842833,23.4656167 49.6690833,22.8880167 L46.5384167,7.19735 C46.42295,6.61975 45.86135,6.24401667 45.2834833,6.35975 L45.2834833,6.35975 Z M44.23015,22.8856167 L41.5170833,9.28668333 L44.6552167,8.66055 L47.36855,22.2592167 L44.23015,22.8856167 Z" id="Shape"></path>
                            <path d="M48.09495,34.07895 C46.0762833,34.4818833 44.7616167,36.4520167 45.1642833,38.4706833 C45.3594833,39.4488167 45.92375,40.2920167 46.7530833,40.8456167 C47.3738833,41.2600167 48.08775,41.4746833 48.81735,41.4746833 C49.0626833,41.4746833 49.3096167,41.45015 49.55575,41.40135 C50.5336167,41.2064167 51.3770833,40.6418833 51.9306833,39.81255 C52.4842833,38.9832167 52.6816167,37.98775 52.4864167,37.0098833 C52.08375,34.99095 50.11255,33.6752167 48.09495,34.07895 L48.09495,34.07895 Z M50.3944167,37.42695 C50.47815,37.84615 50.3936167,38.2728167 50.1562833,38.6282833 C49.91895,38.98375 49.5576167,39.22535 49.1384167,39.3090833 C48.71975,39.3930833 48.2930833,39.30855 47.93735,39.07095 C47.5818833,38.8336167 47.3400167,38.4722833 47.25655,38.05335 C47.0840167,37.1880167 47.6472167,36.34375 48.5122833,36.17095 C48.6176167,36.1498833 48.7224167,36.1400167 48.8258833,36.1400167 C49.5728167,36.1400167 50.2426833,36.6672167 50.3944167,37.42695 L50.3944167,37.42695 Z" id="Shape"></path>
                        </g>
                    </g>
                </g>
            </g>
        </g>
    </g>
</svg>