<?xml version="1.0" encoding="UTF-8"?>
<svg width="60px" height="66px" viewBox="0 0 60 66" version="1.1" xmlns="http://www.w3.org/2000/svg" xmlns:xlink="http://www.w3.org/1999/xlink">
    <title>data-storage</title>
    <g id="Page-1" stroke="none" stroke-width="1" fill="none" fill-rule="evenodd">
        <g id="Application-(Final)" transform="translate(-529.000000, -1663.000000)" fill="#84BF41" fill-rule="nonzero">
            <g id="APPLY-STEPS" transform="translate(0.000000, 1328.000000)">
                <g id="4-steps" transform="translate(99.000000, 303.000000)">
                    <g id="b---2" transform="translate(326.000000, 0.000000)">
                        <g id="oval+icon" transform="translate(69.000000, 0.000000)">
                            <g id="data-storage" transform="translate(35.000000, 32.000000)">
                                <path d="M56.5203112,48.3622751 C55.9707178,48.0766773 55.292914,48.2910159 55.0073162,48.8408899 C50.4604756,57.5965107 41.5123989,63.0357742 31.6550663,63.0357742 C17.1552263,63.0357742 5.35902685,51.2392942 5.35902685,36.7397348 C5.35902685,31.1329841 7.07822466,25.8325918 10.3409973,21.3359693 L9.86294356,24.2034499 C9.76110466,24.8147638 10.1740712,25.3926926 10.7853852,25.4948121 C10.8479474,25.5051923 10.9099485,25.5105227 10.9713885,25.5105227 C11.5100405,25.5105227 11.9855693,25.1214027 12.0770279,24.5723704 L13.1992197,17.8392197 C13.2637458,17.4509414 13.1203858,17.0573326 12.8213216,16.8017534 C12.521977,16.5458937 12.1109742,16.4659375 11.7372844,16.5902203 L5.0041337,18.8346038 C4.41610521,19.0307068 4.09852493,19.6661479 4.2943474,20.2541764 C4.49045041,20.8422049 5.12533041,21.1597852 5.71392,20.9639627 L8.51631342,20.0297381 C4.97860384,24.9087474 3.11464329,30.6588581 3.11464329,36.7400153 C3.11464329,52.4773523 15.9180099,65.2804384 31.6550663,65.2804384 C42.3534816,65.2804384 52.0649293,59.3777096 56.9992066,49.8758312 C57.2848044,49.3251156 57.0704658,48.6475923 56.5203112,48.3622751 L56.5203112,48.3622751 Z" id="Path"></path>
                                <path d="M46.2679671,15.8535014 C46.4158159,15.9542181 46.5625425,16.0566181 46.7084274,16.1607014 C46.9062137,16.301817 47.1337381,16.369429 47.3592986,16.369429 C47.709703,16.369429 48.054777,16.2058696 48.2738849,15.8989501 C48.6338279,15.3942444 48.5165589,14.6934356 48.0121337,14.3337732 C47.8533436,14.2204318 47.6934312,14.1087737 47.5326773,13.99936 C47.0203967,13.6500778 46.322674,13.7819353 45.9731112,14.2942159 C45.623829,14.8059353 45.7556866,15.5042192 46.2679671,15.8535014 L46.2679671,15.8535014 Z" id="Path"></path>
                                <path d="M56.0206553,28.1998553 C56.1511101,28.5418433 56.2762345,28.8908449 56.3921008,29.2373216 C56.5492077,29.7072395 56.9868625,30.0037786 57.4562192,30.0037786 C57.5740493,30.0037786 57.6944044,29.9852625 57.8122345,29.9454247 C58.3999825,29.7490411 58.7172822,29.1130389 58.5206181,28.525291 C58.3946521,28.1487956 58.2588668,27.7697753 58.1171901,27.3983299 C57.8958378,26.81984 57.2477721,26.5294729 56.66816,26.7505447 C56.0893896,26.9721775 55.7995836,27.6208044 56.0206553,28.1998553 L56.0206553,28.1998553 Z" id="Path"></path>
                                <path d="M50.828274,19.8092274 C51.0496263,20.0510597 51.3526181,20.1739397 51.6564515,20.1739397 C51.9268997,20.1739397 52.1984701,20.0765896 52.4136504,19.8796449 C52.8709436,19.4613479 52.9023649,18.7515616 52.4840679,18.2942685 C52.2158641,18.0013764 51.9381216,17.7101677 51.6578542,17.4284975 C51.2207605,16.9891595 50.5104132,16.9871956 50.0707945,17.4242893 C49.6314564,17.8616636 49.6297732,18.572011 50.0668668,19.011349 C50.3252515,19.2708559 50.5813918,19.5393403 50.828274,19.8092274 L50.828274,19.8092274 Z" id="Path"></path>
                                <path d="M57.4329337,33.5170805 C57.4893238,33.8795485 57.5384197,34.2473468 57.5793797,34.6100953 C57.6439058,35.1832548 58.1295342,35.6066016 58.6931551,35.6066016 C58.7349567,35.6066016 58.7776,35.6043573 58.8202433,35.5995879 C59.436046,35.5302926 59.8790312,34.9745271 59.8094553,34.3587244 C59.7651288,33.9653962 59.7115441,33.5661764 59.6506652,33.1725677 C59.5555595,32.5601315 58.9815584,32.1384679 58.3694027,32.2360986 C57.7569666,32.3309238 57.3378279,32.9043638 57.4329337,33.5170805 L57.4329337,33.5170805 Z" id="Path"></path>
                                <path d="M54.1070378,24.2334685 C54.3166071,24.5878005 54.690297,24.7847452 55.0740866,24.7847452 C55.2682258,24.7847452 55.4648899,24.7342466 55.64416,24.6281995 C56.1777622,24.3128636 56.3545074,23.6246795 56.0391715,23.0910773 C55.8368964,22.7488088 55.6248022,22.4068208 55.4087803,22.074091 C55.0712811,21.5542356 54.3766444,21.4061063 53.8565085,21.7436055 C53.3366532,22.0811047 53.1888044,22.7760219 53.526023,23.2958773 C53.7252121,23.6025162 53.9204734,23.9178521 54.1070378,24.2334685 L54.1070378,24.2334685 Z" id="Path"></path>
                                <path d="M58.8881359,37.9547879 C58.2675638,37.9272942 57.7401337,38.3952482 57.7061874,39.0138564 C57.6862685,39.3805326 57.6582137,39.7502948 57.6228647,40.1133238 C57.5631079,40.7299682 58.0145096,41.27872 58.6314345,41.3384767 C58.6681863,41.3421238 58.7049381,41.3438071 58.7411288,41.3438071 C59.3120438,41.3438071 59.8004778,40.9097995 59.8568679,40.3299068 C59.8950225,39.9360175 59.9256022,39.5345534 59.9472044,39.1367364 C59.9811507,38.5178477 59.5070247,37.9887342 58.8881359,37.9547879 L58.8881359,37.9547879 Z" id="Path"></path>
                                <path d="M58.209771,43.6628164 C57.6113622,43.5006597 56.9952789,43.8552723 56.8336833,44.4534005 C56.7868318,44.6264986 56.7385775,44.7990356 56.6883595,44.9712921 C56.5144197,45.5660537 56.8558466,46.1894312 57.4506082,46.3630904 C57.5558137,46.3939507 57.6615803,46.4085392 57.7662247,46.4085392 C58.2518532,46.4085392 58.6996077,46.0906784 58.8426871,45.6008416 C58.897394,45.4139967 58.9498564,45.2265907 59.0006356,45.0386236 C59.1622312,44.4402148 58.8081797,43.8244121 58.209771,43.6628164 L58.209771,43.6628164 Z" id="Path"></path>
                                <circle id="Oval" cx="1.43135562" cy="1.38255781" r="1.34298301"></circle>
                                <circle id="Oval" cx="1.43135562" cy="6.99351671" r="1.34298301"></circle>
                                <circle id="Oval" cx="1.43135562" cy="12.6044756" r="1.34298301"></circle>
                                <path d="M21.0694312,18.7765304 L42.3910751,18.7765304 C43.0108055,18.7765304 43.5132668,18.274069 43.5132668,17.6543386 L43.5132668,4.18803726 C43.5132668,3.56830685 43.0108055,3.06584548 42.3910751,3.06584548 L21.0694312,3.06584548 C20.4497008,3.06584548 19.9472395,3.56830685 19.9472395,4.18803726 L19.9472395,17.6543386 C19.9472395,18.274069 20.4497008,18.7765304 21.0694312,18.7765304 Z M41.2688833,16.5321468 L22.191623,16.5321468 L22.191623,12.0433797 L41.2688833,12.0433797 L41.2688833,16.5321468 Z M22.191623,5.31022904 L41.2688833,5.31022904 L41.2688833,9.79899616 L22.191623,9.79899616 L22.191623,5.31022904 Z" id="Shape"></path>
                                <path d="M25.5581984,15.4099551 L27.8553249,15.4099551 C28.4750553,15.4099551 28.9775167,14.9074937 28.9775167,14.2877633 C28.9775167,13.6680329 28.4750553,13.1655715 27.8553249,13.1655715 L25.5581984,13.1655715 C24.9384679,13.1655715 24.4360066,13.6680329 24.4360066,14.2877633 C24.4360066,14.9074937 24.9384679,15.4099551 25.5581984,15.4099551 Z" id="Path"></path>
                                <path d="M26.6032395,42.0002893 L23.2958597,42.5089227 C20.7678422,42.8977622 18.9327781,45.0366597 18.9327781,47.5944153 L18.9327781,51.6357085 C18.9327781,52.1443419 19.2750466,52.589291 19.7665666,52.7200263 C23.5096373,53.715691 27.3191978,54.2131025 31.1714016,54.2131025 C35.0188362,54.2131025 38.9083529,53.7162521 42.8110553,52.7228318 C43.3081863,52.5963047 43.6563463,52.1485501 43.6563463,51.6354279 L43.6563463,47.5941348 C43.6563463,45.0363792 41.8212822,42.8974816 39.2932647,42.5086422 L35.9858849,42.0000088 C35.1358247,41.8689929 34.4515682,41.2456153 34.2428405,40.4109852 L34.1682148,40.1127627 L34.6532822,39.9191847 C36.3980099,39.2228647 37.5255321,37.5586542 37.5255321,35.6801052 L37.5255321,30.8597304 C37.5255321,27.4238597 34.7304329,24.6287605 31.2945622,24.6287605 C27.8586915,24.6287605 25.0635923,27.4238597 25.0635923,30.8597304 L25.0635923,35.6831912 C25.0635923,37.5594959 26.1888701,39.2223036 27.9302312,39.9203068 L28.4197874,40.1166904 L28.3460033,40.4112658 C28.1378367,41.2456153 27.4535803,41.8692734 26.6032395,42.0002893 L26.6032395,42.0002893 Z M35.6447386,44.2183014 L38.9521184,44.7269348 C40.3775825,44.9463233 41.4122433,46.1521184 41.4122433,47.5944153 L41.4122433,50.755349 C34.5550904,52.3699025 27.7565721,52.3727079 21.1777227,50.764046 L21.1777227,47.5944153 C21.1777227,46.1521184 22.2123836,44.9466038 23.6378477,44.7269348 L26.9452274,44.2183014 C28.6910773,43.949817 30.0957808,42.6691156 30.5241775,40.9552482 L30.5418521,40.8848307 C30.7884537,40.9316822 31.0381414,40.9555288 31.287829,40.9555288 C31.542286,40.9555288 31.796743,40.9308405 32.048114,40.8823058 L32.0663496,40.9552482 C32.4941852,42.6691156 33.8991693,43.949817 35.6447386,44.2183014 L35.6447386,44.2183014 Z M27.3082564,35.6831912 L27.3082564,30.8597304 C27.3082564,28.6616373 29.0967496,26.8731441 31.2948427,26.8731441 C33.4929359,26.8731441 35.281429,28.6616373 35.281429,30.8597304 L35.281429,35.6801052 C35.281429,36.6350904 34.7085501,37.4809425 33.8214575,37.834994 L32.1272285,38.5116756 L30.3272329,38.4634214 L29.9642038,38.317817 L28.7654225,37.8372384 C27.8800132,37.4820647 27.3082564,36.6370542 27.3082564,35.6831912 L27.3082564,35.6831912 Z" id="Shape"></path>
                                <path d="M39.1928285,28.8756953 C39.1928285,29.4954258 39.6952899,29.9978871 40.3150203,29.9978871 C41.8333458,29.9978871 43.0683178,31.2328592 43.0683178,32.7509041 L43.0683178,36.4072855 C43.0683178,37.0202827 42.7005195,37.563143 42.1312877,37.7903868 L40.7103123,38.3579353 C40.4513666,38.461177 40.1663299,38.4608964 39.9073841,38.3573742 C39.3319803,38.1270444 38.6788647,38.4064701 38.4482542,38.9815934 C38.2176438,39.5569973 38.4970696,40.2103934 39.0724734,40.4407233 C39.4711321,40.6003551 39.8899901,40.6803112 40.3091288,40.6803112 C40.439303,40.6803112 40.5691967,40.669931 40.6988099,40.6542203 C41.1117764,41.9713929 42.2569732,42.9440526 43.6661655,43.1530608 L46.2716142,43.5388142 C47.2742926,43.6872241 48.0017534,44.4893107 48.0017534,45.4454181 L48.0017534,48.511246 C48.0017534,49.1309764 48.5042148,49.6334378 49.1239452,49.6334378 C49.7436756,49.6334378 50.246137,49.1309764 50.246137,48.511246 L50.246137,45.4454181 C50.246137,43.3673995 48.7129425,41.6319299 46.6004164,41.3185578 L43.9946871,40.9328044 C43.4220888,40.8477984 42.9636734,40.4547507 42.8231189,39.9304066 L42.9631123,39.8745775 C44.3899792,39.3047847 45.3121403,37.9438466 45.3121403,36.4072855 L45.3121403,32.7509041 C45.3121403,29.9953622 43.0702816,27.7535036 40.3144592,27.7535036 C39.6952899,27.7535036 39.1928285,28.2559649 39.1928285,28.8756953 L39.1928285,28.8756953 Z" id="Path"></path>
                                <path d="M12.091897,48.5115266 C12.091897,49.131257 12.5943584,49.6337184 13.2140888,49.6337184 C13.8338192,49.6337184 14.3362805,49.131257 14.3362805,48.5115266 L14.3362805,45.4456986 C14.3362805,44.4895912 15.0640219,43.6875047 16.0664197,43.5390948 L18.6724296,43.1533414 C20.0813414,42.9443332 21.2265381,41.9716734 21.6395047,40.6545008 C21.7691178,40.669931 21.8990115,40.6805918 22.0291858,40.6805918 C22.4483244,40.6805918 22.8671825,40.6006356 23.2658411,40.4410038 C23.8412449,40.210674 24.1206707,39.5572778 23.8900603,38.981874 C23.6597304,38.4067507 23.0066148,38.1276055 22.4309304,38.3576548 C22.1722652,38.461177 21.8872285,38.461177 21.6282827,38.3582159 L20.2070268,37.7906674 C19.6377951,37.5634236 19.2699967,37.0205633 19.2699967,36.407566 L19.2699967,32.7511847 C19.2699967,31.2331397 20.5049688,29.9981677 22.0232942,29.9981677 C22.6430247,29.9981677 23.145486,29.4957063 23.145486,28.8759759 C23.145486,28.2562455 22.6430247,27.7537841 22.0232942,27.7537841 C19.2674718,27.7537841 17.0256132,29.9956427 17.0256132,32.7511847 L17.0256132,36.407566 C17.0256132,37.9444077 17.9477742,39.3050652 19.3746411,39.8748581 L19.5146345,39.9306871 C19.37408,40.4550312 18.9156647,40.8483595 18.3430663,40.9330849 L15.7370564,41.3188384 C13.624811,41.6322104 12.0916164,43.36768 12.0916164,45.4456986 L12.0916164,48.5115266 L12.091897,48.5115266 Z" id="Path"></path>
                                <path d="M27.8553249,6.43242082 L25.5581984,6.43242082 C24.9384679,6.43242082 24.4360066,6.93488219 24.4360066,7.5546126 C24.4360066,8.17434301 24.9384679,8.67680438 25.5581984,8.67680438 L27.8553249,8.67680438 C28.4750553,8.67680438 28.9775167,8.17434301 28.9775167,7.5546126 C28.9775167,6.93488219 28.4750553,6.43242082 27.8553249,6.43242082 L27.8553249,6.43242082 Z" id="Path"></path>
                            </g>
                        </g>
                    </g>
                </g>
            </g>
        </g>
    </g>
</svg>