<?xml version="1.0" encoding="UTF-8"?>
<svg width="60px" height="57px" viewBox="0 0 60 57" version="1.1" xmlns="http://www.w3.org/2000/svg" xmlns:xlink="http://www.w3.org/1999/xlink">
    <title>envelope</title>
    <g id="Page-1" stroke="none" stroke-width="1" fill="none" fill-rule="evenodd">
        <g id="Application-(Final)" transform="translate(-855.000000, -1668.000000)" fill="#D8232A" fill-rule="nonzero">
            <g id="APPLY-STEPS" transform="translate(0.000000, 1328.000000)">
                <g id="4-steps" transform="translate(99.000000, 303.000000)">
                    <g id="b---3" transform="translate(652.000000, 0.000000)">
                        <g id="oval+icon" transform="translate(69.000000, 0.000000)">
                            <g id="envelope" transform="translate(35.000000, 37.000000)">
                                <path d="M54.828032,49.619968 C52.851968,49.619968 51.244032,51.227904 51.244032,53.203968 C51.244032,55.180032 52.851968,56.787968 54.828032,56.787968 C56.804096,56.787968 58.412032,55.180032 58.412032,53.203968 C58.412032,51.227904 56.804096,49.619968 54.828032,49.619968 L54.828032,49.619968 Z M54.828032,54.739968 C53.980928,54.739968 53.292032,54.051072 53.292032,53.203968 C53.292032,52.356864 53.980928,51.667968 54.828032,51.667968 C55.675136,51.667968 56.364032,52.356864 56.364032,53.203968 C56.364032,54.051072 55.67488,54.739968 54.828032,54.739968 Z" id="Shape"></path>
                                <path d="M47.148032,2.515968 L12.332032,2.515968 C11.766528,2.515968 11.308032,2.974464 11.308032,3.539968 L11.308032,17.486336 L7.353088,21.935616 C4.621056,25.009664 3.116032,28.96768 3.116032,33.080576 L3.116032,43.327488 C3.116032,45.61152 2.735616,47.862528 1.984512,50.01856 L0.10112,55.427584 C-0.007936,55.740672 0.041216,56.08704 0.233728,56.35712 C0.425728,56.627712 0.736768,56.788224 1.068288,56.788224 L10.993408,56.788224 C11.450368,56.788224 11.852288,56.48512 11.977984,56.045824 L13.81376,49.620224 L47.148288,49.620224 C47.713792,49.620224 48.172288,49.161728 48.172288,48.596224 L48.172288,3.540224 C48.172288,2.974464 47.713536,2.515968 47.148032,2.515968 Z M45.572608,4.563968 L42.386432,11.731968 L17.093376,11.731968 L13.907456,4.563968 L45.572608,4.563968 Z M10.220544,54.739968 L2.509056,54.739968 L3.918592,50.692096 C4.745216,48.318976 5.164032,45.841664 5.164032,43.327488 L5.164032,33.080576 C5.164032,29.469952 6.484992,25.995008 8.883968,23.296512 L11.308032,20.5696 L11.308032,32.802048 C11.308032,32.850688 11.329024,32.89216 11.33568,32.939008 L10.076928,35.456256 C9.824,35.962368 10.0288,36.57728 10.534912,36.830208 C11.041536,37.083136 11.655936,36.8768 11.908864,36.372224 L16.64,26.909952 C16.859392,26.4704 17.375488,26.254848 17.843456,26.41152 C18.313984,26.568448 18.594048,27.036416 18.509568,27.52512 L17.467136,33.533696 C17.457152,33.591808 17.452032,33.650176 17.452032,33.7088 L17.452032,41.550848 C17.452032,44.192256 15.57504,46.501888 12.988928,47.042304 C12.61696,47.120384 12.318464,47.397888 12.214016,47.7632 L10.220544,54.739968 Z M16.52864,47.571968 C18.341888,46.152704 19.500032,43.960576 19.500032,41.550592 L19.500032,33.796608 L20.527616,27.875072 C20.786688,26.381056 19.930112,24.94848 18.491136,24.46848 C17.065216,23.992064 15.480064,24.64896 14.808064,25.994496 L13.356032,28.898304 L13.356032,8.3648 L15.492608,13.171968 C15.656704,13.541376 16.023552,13.779968 16.428032,13.779968 L43.052032,13.779968 C43.456512,13.779968 43.823616,13.541376 43.987456,13.171968 L46.124032,8.3648 L46.124032,47.571968 L16.52864,47.571968 Z" id="Shape"></path>
                                <path d="M58.835968,2.515968 L59.559936,1.792 C59.959808,1.392128 59.959808,0.743936 59.559936,0.344064 C59.160064,-0.055808 58.511872,-0.055808 58.112,0.344064 L57.388032,1.068032 L56.664064,0.344064 C56.264192,-0.055808 55.616,-0.055808 55.216128,0.344064 C54.816256,0.743936 54.816256,1.392128 55.216128,1.792 L55.940096,2.515968 L55.216128,3.239936 C54.816256,3.639808 54.816256,4.288 55.216128,4.687872 C55.416064,4.887808 55.678208,4.987904 55.940096,4.987904 C56.201984,4.987904 56.464128,4.887808 56.664064,4.687872 L57.388032,3.963904 L58.112,4.687872 C58.311936,4.887808 58.57408,4.987904 58.835968,4.987904 C59.097856,4.987904 59.36,4.887808 59.559936,4.687872 C59.959808,4.288 59.959808,3.639808 59.559936,3.239936 L58.835968,2.515968 Z" id="Path"></path>
                                <path d="M53.376,12.414976 C53.980672,12.414976 54.470656,11.924736 54.470656,11.320064 C54.470656,10.715392 53.980672,10.225408 53.376,10.225408 C52.771328,10.225408 52.281344,10.715648 52.281344,11.320064 C52.281344,11.924736 52.771328,12.414976 53.376,12.414976 Z" id="Path"></path>
                                <path d="M42.028032,40.403968 C41.462528,40.403968 41.004032,40.862464 41.004032,41.427968 L41.004032,42.451968 L39.980032,42.451968 C39.414528,42.451968 38.956032,42.910464 38.956032,43.475968 C38.956032,44.041472 39.414528,44.499968 39.980032,44.499968 L42.028032,44.499968 C42.593536,44.499968 43.052032,44.041472 43.052032,43.475968 L43.052032,41.427968 C43.052032,40.862464 42.593536,40.403968 42.028032,40.403968 Z" id="Path"></path>
                                <path d="M36.225536,42.451968 L32.47104,42.451968 C31.905536,42.451968 31.44704,42.910464 31.44704,43.475968 C31.44704,44.041472 31.905536,44.499968 32.47104,44.499968 L36.225536,44.499968 C36.79104,44.499968 37.249536,44.041472 37.249536,43.475968 C37.249536,42.910464 36.79104,42.451968 36.225536,42.451968 Z" id="Path"></path>
                                <path d="M28.716032,42.451968 L27.692032,42.451968 L27.692032,41.427968 C27.692032,40.862464 27.233536,40.403968 26.668032,40.403968 C26.102528,40.403968 25.644032,40.862464 25.644032,41.427968 L25.644032,43.475968 C25.644032,44.041472 26.102528,44.499968 26.668032,44.499968 L28.716032,44.499968 C29.281536,44.499968 29.740032,44.041472 29.740032,43.475968 C29.740032,42.910464 29.281536,42.451968 28.716032,42.451968 Z" id="Path"></path>
                                <path d="M28.716032,33.235968 L26.668032,33.235968 C26.102528,33.235968 25.644032,33.694464 25.644032,34.259968 L25.644032,36.307968 C25.644032,36.873472 26.102528,37.331968 26.668032,37.331968 C27.233536,37.331968 27.692032,36.873472 27.692032,36.307968 L27.692032,35.283968 L28.716032,35.283968 C29.281536,35.283968 29.740032,34.825472 29.740032,34.259968 C29.740032,33.694464 29.281536,33.235968 28.716032,33.235968 Z" id="Path"></path>
                                <path d="M31.446528,34.259968 C31.446528,34.825472 31.905024,35.283968 32.470528,35.283968 L36.225024,35.283968 C36.790528,35.283968 37.249024,34.825472 37.249024,34.259968 C37.249024,33.694464 36.790528,33.235968 36.225024,33.235968 L32.470528,33.235968 C31.905024,33.235968 31.446528,33.694464 31.446528,34.259968 Z" id="Path"></path>
                                <path d="M42.028032,33.235968 L39.980032,33.235968 C39.414528,33.235968 38.956032,33.694464 38.956032,34.259968 C38.956032,34.825472 39.414528,35.283968 39.980032,35.283968 L41.004032,35.283968 L41.004032,36.307968 C41.004032,36.873472 41.462528,37.331968 42.028032,37.331968 C42.593536,37.331968 43.052032,36.873472 43.052032,36.307968 L43.052032,34.259968 C43.052032,33.694464 42.593536,33.235968 42.028032,33.235968 Z" id="Path"></path>
                                <path d="M42.028032,15.827968 L29.740032,15.827968 C29.174528,15.827968 28.716032,16.286464 28.716032,16.851968 C28.716032,17.417472 29.174528,17.875968 29.740032,17.875968 L42.028032,17.875968 C42.593536,17.875968 43.052032,17.417472 43.052032,16.851968 C43.052032,16.286464 42.593536,15.827968 42.028032,15.827968 Z" id="Path"></path>
                                <path d="M41.004032,20.947968 C41.569536,20.947968 42.028032,20.489472 42.028032,19.923968 C42.028032,19.358464 41.569536,18.899968 41.004032,18.899968 L34.860032,18.899968 C34.294528,18.899968 33.836032,19.358464 33.836032,19.923968 C33.836032,20.489472 34.294528,20.947968 34.860032,20.947968 L41.004032,20.947968 Z" id="Path"></path>
                            </g>
                        </g>
                    </g>
                </g>
            </g>
        </g>
    </g>
</svg>