<?xml version="1.0" encoding="UTF-8"?>
<svg width="170px" height="31px" viewBox="0 0 170 31" version="1.1" xmlns="http://www.w3.org/2000/svg" xmlns:xlink="http://www.w3.org/1999/xlink">
    <title>arrow</title>
    <g id="Page-1" stroke="none" stroke-width="1" fill="none" fill-rule="evenodd">
        <g id="Enterprise-(Final)" transform="translate(-420.000000, -2473.000000)" fill="#999999" fill-rule="nonzero">
            <g id="ROADMAP" transform="translate(0.000000, 2123.000000)">
                <g id="process" transform="translate(207.000000, 246.000000)">
                    <g id="arrow" transform="translate(298.000000, 119.545455) rotate(90.000000) translate(-298.000000, -119.545455) translate(283.000000, 35.000000)">
                        <path d="M11.6181818,167.809091 C10.3798619,166.249209 9.23250373,164.619232 8.18181818,162.927273 L10.5545455,161.509091 C11.5178657,163.106118 12.5742332,164.645136 13.7181818,166.118182 L11.6181818,167.809091 Z M5.23636364,157.145455 C4.3717613,155.160863 3.61609257,153.130572 2.97272727,151.063636 L5.7,150.245455 C6.29485148,152.216465 7.0144865,154.147637 7.85454545,156.027273 L5.23636364,157.145455 Z M1.39090909,144.790909 C0.981818182,142.718182 0.654545455,140.590909 0.436363636,138.409091 L3.16363636,138.109091 C3.38181818,140.209091 3.70909091,142.281818 4.09090909,144.245455 L1.39090909,144.790909 Z M0,131.972727 C0,131.290909 0,130.581818 0,129.9 C0,128.454545 0,126.981818 0,125.536364 L2.72727273,125.536364 C2.72727273,126.954545 2.72727273,128.263636 2.72727273,129.763636 C2.72727273,130.445455 2.72727273,131.1 2.72727273,131.754545 L0,131.972727 Z M3.35454545,119.454545 L0.627272727,119.127273 C0.872727273,117.054545 1.17272727,114.9 1.55454545,112.772727 L4.28181818,113.263636 C3.9,115.336364 3.6,117.409091 3.35454545,119.454545 Z M5.45454545,107.1 L2.72727273,106.5 C3.19090909,104.427273 3.70909091,102.354545 4.25454545,100.309091 L6.98181818,101.018182 C6.46363636,103.036364 5.97272727,105.054545 5.45454545,107.1 Z M8.61818182,94.9363636 L5.89090909,94.1727273 C6.49090909,92.1272727 7.09090909,90.1090909 7.71818182,88.0909091 L10.4454545,88.8818182 C9.87272727,90.9 9.27272727,92.9181818 8.67272727,94.9363636 L8.61818182,94.9363636 Z M12.3272727,82.8545455 L9.6,82.0090909 L11.5090909,75.9818182 L14.2363636,76.8 L12.3272727,82.8545455 Z M16.0636364,70.7181818 L13.3363636,69.9272727 C13.9090909,67.9090909 14.5090909,65.8909091 15.0545455,63.8727273 L17.7818182,64.5818182 C17.2727273,66.6363636 16.7181818,68.6818182 16.1181818,70.7181818 L16.0636364,70.7181818 Z M19.3363636,58.3909091 L16.6090909,57.7636364 L17.1,55.6636364 C17.3727273,54.3272727 17.6454545,52.9363636 17.8909091,51.6272727 L20.6181818,52.1454545 C20.3454545,53.5090909 20.0727273,54.8727273 19.7727273,56.2636364 C19.7181818,56.9727273 19.5818182,57.6818182 19.3909091,58.3909091 L19.3363636,58.3909091 Z M21.8181818,45.7909091 L19.0909091,45.4636364 C19.3636364,43.3636364 19.5545455,41.2636364 19.6909091,39.2454545 L22.4181818,39.4090909 C22.2,41.5090909 21.9818182,43.6363636 21.8181818,45.7909091 Z M19.7727273,33 C19.7727273,30.8727273 19.7727273,28.8 19.5,26.7818182 L22.2272727,26.5363636 C22.3909091,28.6363636 22.5,30.7909091 22.5,32.9727273 L19.7727273,33 Z M18.7090909,20.6181818 C18.3513777,18.5861087 17.8871008,16.5742424 17.3181818,14.5909091 L20.0454545,13.8272727 C20.6262457,15.9106803 21.099597,18.0225556 21.4636364,20.1545455 L18.7090909,20.6181818 Z M15.3,8.75454545 C14.5092782,6.87954887 13.5982914,5.05757543 12.5727273,3.3 L15,1.85454545 C16.0274015,3.74249147 16.9381978,5.69159552 17.7272727,7.69090909 L15.3,8.75454545 Z" id="Shape"></path>
                        <polygon id="Path" points="7.60909091 15.8727273 10.2545455 16.6636364 14.0727273 3.6 26.7818182 8.37272727 27.7636364 5.78181818 12.2454545 0"></polygon>
                    </g>
                </g>
            </g>
        </g>
    </g>
</svg>