<?xml version="1.0"?>
<svg xmlns="http://www.w3.org/2000/svg" id="Capa_1" enable-background="new 0 0 512 512" height="512px" viewBox="0 0 512 512" width="512px"><g><path d="m485.205 79.088h-183.54v-19.235c0-11.581-9.421-21.002-21.002-21.002h-49.324c-11.581 0-21.002 9.421-21.002 21.002v19.235h-69.217c-4.138 0-7.492 3.354-7.492 7.492s3.354 7.492 7.492 7.492h69.217v24.199h-32.105c-13.277 0-24.079 10.801-24.079 24.078s10.802 24.078 24.079 24.078h39.597 76.344 39.597c13.277 0 24.079-10.801 24.079-24.078s-10.802-24.078-24.079-24.078h-32.105v-24.199h183.54c6.512 0 11.811 5.298 11.811 11.811v340.472c0 6.512-5.298 11.811-11.811 11.811h-458.41c-6.512 0-11.811-5.298-11.811-11.811v-340.472c0-6.512 5.298-11.811 11.811-11.811h79.859c4.138 0 7.492-3.354 7.492-7.492s-3.354-7.492-7.492-7.492h-79.859c-14.775 0-26.795 12.02-26.795 26.795v340.472c0 14.775 12.02 26.795 26.795 26.795h458.41c14.775 0 26.795-12.02 26.795-26.795v-340.472c0-14.775-12.02-26.795-26.795-26.795zm-274.869 72.355h-32.105c-5.014 0-9.094-4.079-9.094-9.094 0-5.014 4.08-9.094 9.094-9.094h32.105zm76.344 0h-61.36v-91.59c0-3.318 2.699-6.018 6.018-6.018h49.324c3.318 0 6.018 2.699 6.018 6.018zm47.09-18.187c5.014 0 9.094 4.079 9.094 9.094 0 5.014-4.08 9.094-9.094 9.094h-32.105v-18.187h32.105z" data-original="#000000" class="active-path" data-old_color="#000000" fill="#FFFFFF"/><path d="m111.852 345.284c4.142 0 7.5-3.358 7.5-7.5v-8.889c0-4.142-3.358-7.5-7.5-7.5s-7.5 3.358-7.5 7.5v8.889c0 4.142 3.357 7.5 7.5 7.5z" data-original="#000000" class="active-path" data-old_color="#000000" fill="#FFFFFF"/><path d="m159.528 345.284c4.142 0 7.5-3.358 7.5-7.5v-8.889c0-4.142-3.358-7.5-7.5-7.5s-7.5 3.358-7.5 7.5v8.889c0 4.142 3.358 7.5 7.5 7.5z" data-original="#000000" class="active-path" data-old_color="#000000" fill="#FFFFFF"/><path d="m154.625 212.981h-35.367c-36.099 0-65.467 29.369-65.467 65.467v19.767c-.032-.011-.064-.02-.096-.031v84.238c0 20.397 16.594 36.992 36.991 36.992h92.412c20.397 0 36.992-16.594 36.992-36.992v-72.629c0-.017.002-.033.002-.05v-31.293c.001-36.1-29.368-65.469-65.467-65.469zm50.465 169.441c0 12.126-9.865 21.992-21.992 21.992h-92.411c-12.126 0-21.991-9.865-21.991-21.992v-24.487c9.509 17.565 28.104 29.522 49.441 29.522h37.512c21.337 0 39.932-11.958 49.441-29.523zm-128.134-51.146v-14.336c27.109-2.549 48.362-15.056 59.986-23.586 11.611 8.52 32.825 21.009 59.888 23.576v14.345c0 22.708-18.474 41.181-41.181 41.181h-37.512c-22.708.002-41.181-18.472-41.181-41.18zm128.137-34.292c-.001 0-.002 0-.002 0v5.417c-27.509-.517-49.2-13.589-60.135-21.777-4.792-3.589-11.233-3.589-16.027 0-10.937 8.19-32.625 21.263-60.137 21.778v-23.953c0-27.828 22.64-50.467 50.467-50.467h35.367c27.828 0 50.467 22.64 50.467 50.467z" data-original="#000000" class="active-path" data-old_color="#000000" fill="#FFFFFF"/><path d="m444.76 232.083h-177.914c-7.467 0-13.542 6.075-13.542 13.542v38.079c0 7.467 6.075 13.542 13.542 13.542h36.292c4.142 0 7.5-3.358 7.5-7.5s-3.358-7.5-7.5-7.5h-34.833v-35.162h174.997v35.162h-106.164c-4.142 0-7.5 3.358-7.5 7.5s3.358 7.5 7.5 7.5h107.622c7.467 0 13.542-6.075 13.542-13.542v-38.079c-.001-7.467-6.075-13.542-13.542-13.542z" data-original="#000000" class="active-path" data-old_color="#000000" fill="#FFFFFF"/><path d="m450.801 317.979h-189.997c-4.142 0-7.5 3.358-7.5 7.5s3.358 7.5 7.5 7.5h189.997c4.142 0 7.5-3.358 7.5-7.5s-3.358-7.5-7.5-7.5z" data-original="#000000" class="active-path" data-old_color="#000000" fill="#FFFFFF"/><path d="m450.801 351.646h-189.997c-4.142 0-7.5 3.358-7.5 7.5s3.358 7.5 7.5 7.5h189.997c4.142 0 7.5-3.358 7.5-7.5s-3.358-7.5-7.5-7.5z" data-original="#000000" class="active-path" data-old_color="#000000" fill="#FFFFFF"/><path d="m355.803 385.312h-94.999c-4.142 0-7.5 3.358-7.5 7.5s3.358 7.5 7.5 7.5h94.999c4.142 0 7.5-3.358 7.5-7.5s-3.358-7.5-7.5-7.5z" data-original="#000000" class="active-path" data-old_color="#000000" fill="#FFFFFF"/></g> </svg>
