<?xml version="1.0" encoding="UTF-8"?>
<svg width="121px" height="123px" viewBox="0 0 121 123" version="1.1" xmlns="http://www.w3.org/2000/svg" xmlns:xlink="http://www.w3.org/1999/xlink">
    <title>Fill 19</title>
    <g id="Page-1" stroke="none" stroke-width="1" fill="none" fill-rule="evenodd">
        <g id="Home-12" transform="translate(-241.000000, -2083.000000)" fill="#D8232A">
            <g id="PROGRAMS" transform="translate(-664.000000, 1685.000000)">
                <g id="p-box-1" transform="translate(0.000000, 289.650000)">
                    <path d="M965.065495,200 C948.474967,200 935.030315,186.345835 935.030315,169.494564 C935.030315,152.654165 948.474967,139 965.065495,139 C981.646292,139 995.090945,152.654165 995.090945,169.494564 C995.090945,186.345835 981.646292,200 965.065495,200 Z M965.065495,109 C931.896856,109 905,136.309863 905,170 C905,203.690137 931.896856,231 965.065495,231 C998.235106,231 1025.12126,203.690137 1025.12126,170 C1025.12126,136.309863 998.235106,109 965.065495,109 L965.065495,109 Z" id="Fill-19"></path>
                </g>
            </g>
        </g>
    </g>
</svg>