<?xml version="1.0"?>
<svg xmlns="http://www.w3.org/2000/svg" id="_x31_" enable-background="new 0 0 24 24" height="512px" viewBox="0 0 24 24" width="512px"><g><g><g><path d="m16.5 20c-.132 0-.26-.053-.354-.146l-2-2c-.195-.195-.195-.512 0-.707s.512-.195.707 0l1.622 1.622 3.148-3.598c.182-.209.498-.229.706-.047s.229.498.047.706l-3.5 4c-.091.104-.222.166-.36.17-.005 0-.011 0-.016 0z" data-original="#000000" class="active-path" data-old_color="#000000" fill="#FFFFFF"/></g></g><g><g><path d="m17.5 24c-3.584 0-6.5-2.916-6.5-6.5s2.916-6.5 6.5-6.5 6.5 2.916 6.5 6.5-2.916 6.5-6.5 6.5zm0-12c-3.033 0-5.5 2.467-5.5 5.5s2.467 5.5 5.5 5.5 5.5-2.467 5.5-5.5-2.467-5.5-5.5-5.5z" data-original="#000000" class="active-path" data-old_color="#000000" fill="#FFFFFF"/></g></g><g><g><path d="m4.129 20c-.101 0-.202-.031-.288-.091-.156-.11-.236-.3-.206-.489l1.081-6.625-4.574-4.689c-.131-.134-.176-.33-.116-.508s.213-.307.398-.335l6.301-.963 2.822-6.013c.165-.352.74-.352.905 0l2.823 6.013 6.301.963c.185.028.339.158.398.335s.015.374-.116.508l-.847.868c-.193.199-.51.202-.707.009-.198-.193-.202-.509-.009-.707l.167-.171-5.602-.856c-.165-.025-.306-.131-.377-.282l-2.483-5.29-2.483 5.29c-.071.151-.212.257-.377.282l-5.602.855 4.07 4.172c.111.114.161.273.136.43l-.956 5.858 3.501-1.935c.243-.134.545-.046.679.196s.046.546-.196.679l-4.402 2.433c-.075.042-.158.063-.241.063z" data-original="#000000" class="active-path" data-old_color="#000000" fill="#FFFFFF"/></g></g></g> </svg>
