<?xml version="1.0" encoding="UTF-8"?>
<svg width="36px" height="36px" viewBox="0 0 36 36" version="1.1" xmlns="http://www.w3.org/2000/svg" xmlns:xlink="http://www.w3.org/1999/xlink">
    <title>icon+oval</title>
    <g id="Page-1" stroke="none" stroke-width="1" fill="none" fill-rule="evenodd">
        <g id="Academic-Team-Final" transform="translate(-141.000000, -973.000000)" fill="#164A84">
            <g id="ACEDEMIC-MEMBERS" transform="translate(-385.000000, 860.000000)">
                <g id="Filter" transform="translate(485.000000, 54.000000)">
                    <g id="icon+oval" transform="translate(41.000000, 59.000000)">
                        <circle id="Oval" fill-opacity="0.12" cx="18" cy="18" r="18"></circle>
                        <g id="selective" transform="translate(9.000000, 6.000000)" fill-rule="nonzero">
                            <path d="M17.8840455,7.66359091 C17.7257727,7.36640909 17.4183636,7.18181818 17.0816818,7.18181818 L14.4994091,7.18181818 C14.2838182,5.96931818 13.2227273,5.04545455 11.9492273,5.04545455 C10.6757273,5.04545455 9.61463636,5.96931818 9.39904545,7.18181818 L6.78290909,7.18181818 C6.98809091,6.86781818 7.10790909,6.49318182 7.10790909,6.09090909 C7.10790909,4.98809091 6.21072727,4.09090909 5.10790909,4.09090909 C4.00509091,4.09090909 3.10790909,4.98809091 3.10790909,6.09090909 C3.10790909,6.49318182 3.22772727,6.86781818 3.43290909,7.18181818 L1.29990909,7.18181818 C0.963227273,7.18181818 0.655818182,7.36640909 0.497545455,7.66359091 C0.339318182,7.96072727 0.357681818,8.31886364 0.545545455,8.59822727 L6.64536364,17.6689545 L6.64536364,22.8181818 C6.64536364,22.9714545 6.72259091,23.1144091 6.85081818,23.1983636 C6.92595455,23.2475909 7.01272727,23.2727273 7.09995455,23.2727273 C7.1615,23.2727273 7.22327273,23.2602273 7.28140909,23.2349091 L11.4632273,21.4138636 C11.6290455,21.3416364 11.7362727,21.178 11.7362727,20.9971364 L11.7362727,17.6689091 L17.8360455,8.59818182 C18.0239091,8.31886364 18.0423182,7.96072727 17.8840455,7.66359091 Z M11.9492273,5.95454545 C12.7190909,5.95454545 13.3692727,6.47468182 13.5681364,7.18181818 L10.3303636,7.18181818 C10.5291818,6.47468182 11.1794091,5.95454545 11.9492273,5.95454545 Z M5.10795455,5 C5.70945455,5 6.19886364,5.48940909 6.19886364,6.09090909 C6.19886364,6.69240909 5.70945455,7.18181818 5.10795455,7.18181818 C4.50645455,7.18181818 4.01704545,6.69240909 4.01704545,6.09090909 C4.01704545,5.48940909 4.50645455,5 5.10795455,5 Z M10.9045,17.2766364 C10.8540909,17.3515909 10.8271364,17.4399091 10.8271364,17.5302727 L10.8271364,20.6993182 L7.55440909,22.1244545 L7.55440909,17.9848182 L9.19654545,17.9848182 C9.44759091,17.9848182 9.65109091,17.7813182 9.65109091,17.5302727 C9.65109091,17.2792273 9.44759091,17.0757273 9.19654545,17.0757273 L7.34195455,17.0757273 L2.76727273,10.2727273 L11.9492273,10.2727273 C12.2002727,10.2727273 12.4037727,10.0692273 12.4037727,9.81818182 C12.4037727,9.56713636 12.2002727,9.36363636 11.9492273,9.36363636 L2.15595455,9.36363636 L1.30009091,8.09090909 L17.0816364,8.09090909 L10.9045,17.2766364 Z" id="Shape"></path>
                            <path d="M10.742,0 C9.63918182,0 8.742,0.897181818 8.742,2 C8.742,3.10281818 9.63922727,4 10.742,4 C11.8448182,4 12.742,3.10281818 12.742,2 C12.742,0.897181818 11.8448182,0 10.742,0 Z M10.742,3.09090909 C10.1405,3.09090909 9.65109091,2.6015 9.65109091,2 C9.65109091,1.3985 10.1405,0.909090909 10.742,0.909090909 C11.3435,0.909090909 11.8329091,1.3985 11.8329091,2 C11.8329091,2.6015 11.3435,3.09090909 10.742,3.09090909 Z" id="Shape"></path>
                            <path d="M15.5998636,2.19695455 C15.3488182,2.19695455 15.1453182,2.40045455 15.1453182,2.6515 L15.1453182,5.23486364 C15.1453182,5.48595455 15.3488182,5.68945455 15.5998636,5.68945455 C15.8509091,5.68945455 16.0544091,5.48595455 16.0544091,5.23490909 L16.0544091,2.6515 C16.0544091,2.40045455 15.8509091,2.19695455 15.5998636,2.19695455 Z" id="Path"></path>
                            <path d="M15.9212273,0.837727273 C15.8366818,0.753181818 15.7194091,0.704545455 15.5998636,0.704545455 C15.4803182,0.704545455 15.3630455,0.753181818 15.2785,0.837727273 C15.1939545,0.922272727 15.1453182,1.03954545 15.1453182,1.15909091 C15.1453182,1.27863636 15.1939545,1.39590909 15.2785,1.48045455 C15.3630455,1.565 15.4803182,1.61363636 15.5998636,1.61363636 C15.7194091,1.61363636 15.8366818,1.565 15.9212273,1.48045455 C16.0057727,1.39590909 16.0544091,1.27863636 16.0544091,1.15909091 C16.0544091,1.03954545 16.0057727,0.922272727 15.9212273,0.837727273 Z" id="Path"></path>
                            <path d="M6.65340909,0.579772727 C6.40236364,0.579772727 6.19886364,0.783272727 6.19886364,1.03431818 L6.19886364,2.89795455 C6.19886364,3.149 6.40236364,3.3525 6.65340909,3.3525 C6.90445455,3.3525 7.10795455,3.149 7.10795455,2.89795455 L7.10795455,1.03431818 C7.10795455,0.783272727 6.90445455,0.579772727 6.65340909,0.579772727 Z" id="Path"></path>
                            <path d="M0.4635,0 C0.212454545,0 0.00895454545,0.2035 0.00895454545,0.454545455 L0.00895454545,3.41672727 C0.00895454545,3.66777273 0.212454545,3.87127273 0.4635,3.87127273 C0.714545455,3.87127273 0.918045455,3.66777273 0.918045455,3.41672727 L0.918045455,0.454545455 C0.918045455,0.2035 0.714545455,0 0.4635,0 Z" id="Path"></path>
                            <path d="M0.784863636,4.8 C0.700318182,4.715 0.583045455,4.66681818 0.4635,4.66681818 C0.343954545,4.66681818 0.226681818,4.715 0.142136364,4.8 C0.0575909091,4.88454545 0.00895454545,5.00136364 0.00895454545,5.12136364 C0.00895454545,5.24090909 0.0575909091,5.35818182 0.142136364,5.44272727 C0.226681818,5.52727273 0.343954545,5.57590909 0.4635,5.57590909 C0.583045455,5.57590909 0.700318182,5.52727273 0.784863636,5.44272727 C0.869409091,5.35818182 0.918045455,5.24090909 0.918045455,5.12136364 C0.918045455,5.00136364 0.869409091,4.88454545 0.784863636,4.8 Z" id="Path"></path>
                            <path d="M14.2916818,9.49681818 C14.2071364,9.41227273 14.0898636,9.36363636 13.9703182,9.36363636 C13.8503182,9.36363636 13.7330455,9.41227273 13.6489545,9.49681818 C13.5639545,9.58136364 13.5157727,9.69863636 13.5157727,9.81818182 C13.5157727,9.93772727 13.5639545,10.055 13.6489545,10.1395455 C13.7335,10.2240909 13.8503182,10.2727273 13.9703182,10.2727273 C14.0898636,10.2727273 14.2066818,10.2240909 14.2916818,10.1395455 C14.3762273,10.055 14.4248636,9.93772727 14.4248636,9.81818182 C14.4248636,9.69863636 14.3762273,9.58136364 14.2916818,9.49681818 Z" id="Path"></path>
                        </g>
                    </g>
                </g>
            </g>
        </g>
    </g>
</svg>