<?xml version="1.0" encoding="UTF-8"?>
<svg width="660px" height="77px" viewBox="0 0 660 77" version="1.1" xmlns="http://www.w3.org/2000/svg" xmlns:xlink="http://www.w3.org/1999/xlink">
    <title>hilite1</title>
    <g id="Page-1" stroke="none" stroke-width="1" fill="none" fill-rule="evenodd" opacity="0.718424479">
        <g id="Agents-Final" transform="translate(-370.000000, -2316.000000)">
            <g id="GREAT-OPPORTUNITIES" transform="translate(0.000000, 2025.000000)">
                <g id="highlight" transform="translate(349.000000, 291.000000)">
                    <g id="hilite1" transform="translate(21.000000, 0.224138)">
                        <path d="M3.35938188,51.7758621 C2.8235883,51.7758621 2.42744305,51.763348 2.17379609,51.7358169 C-3.83393191,50.5444737 3.96357464,24.1472121 9.23031152,20.0350759 C10.6153949,18.9538569 12.2028259,18.460801 15.0470918,18.460801 C16.03318,18.460801 17.1703164,18.5208687 18.5041004,18.6334957 C18.8460963,18.6635295 19.3847398,18.6785465 20.1086311,18.6785465 C30.5936555,18.6785465 79.9864136,15.7177083 132.123689,12.701808 C132.123689,12.701808 296.36152,6.47979297 326.551209,5.56626301 C327.206701,5.54624044 327.773844,5.53622915 328.269738,5.53622915 C330.734959,5.53622915 331.384751,5.75898029 331.880645,5.98423425 C332.379389,6.20698539 332.724235,6.42973654 334.579562,6.42973654 C335.528601,6.42973654 336.873785,6.37217163 338.837411,6.22450515 C361.018696,4.56513429 409.425365,5.25591311 426.211664,3.70916923 C433.809673,3.01088194 438.044722,2.68301229 442.616068,2.68301229 C446.144325,2.68301229 449.872081,2.87823239 455.503613,3.24614719 C457.934634,3.40632779 463.26407,3.48141244 470.198037,3.48141244 C495.078239,3.48141244 540.614993,2.51782605 546.967567,1.043664 C547.754158,0.863460832 548.463799,0.775862069 549.033792,0.775862069 C549.891632,0.775862069 550.433126,0.97108217 550.433126,1.32147722 C550.980319,1.34900826 599.931332,2.23250436 600.14223,2.66549253 C600.398727,3.06594402 601.182467,3.31872903 602.105856,3.31872903 C602.524801,3.31872903 602.975096,3.26616977 603.416841,3.15103997 C605.10117,2.71054333 628.291342,1.94467985 644.3338,1.94467985 C652.789649,1.94467985 659.256221,2.15741971 659.544068,2.74308001 C661.952289,7.61607407 654.32863,27.9014448 648.206904,32.8645405 C646.209078,34.4838662 641.506634,34.9794249 635.13411,34.9794249 C631.329406,34.9794249 626.931909,34.8042274 622.155366,34.5839791 C609.145272,33.9883075 602.293954,33.7880817 597.60861,33.7880817 C592.871967,33.7880817 590.346897,33.9908103 585.9095,34.1960417 C581.472104,34.4012731 575.11668,34.6040016 562.719328,34.6040016 C561.881438,34.6040016 561.017899,34.6040016 560.123009,34.6014988 C532.196194,34.5414311 511.593791,34.4988831 496.078577,34.4988831 C489.230109,34.4988831 483.376279,34.5063916 478.31474,34.5264142 C476.125966,34.3862561 474.695283,34.2961546 474.578435,34.2886461 C473.575247,34.2260755 469.796192,33.9883075 468.804404,33.883189 C468.818654,33.5102685 468.365509,33.2825117 467.644468,33.2825117 C467.242623,33.2825117 466.758128,33.3525907 466.225185,33.5102685 C463.697265,34.1184542 453.195141,34.3512166 441.097036,34.3512166 C423.393048,34.3512166 402.274801,33.8531551 397.774705,33.3075399 C392.738815,32.6943486 389.740651,32.4115297 386.585739,32.4115297 C383.701574,32.4115297 380.68916,32.6492978 375.864168,33.0872916 C372.30741,33.4101556 366.866825,33.5052629 360.511402,33.5052629 C355.817508,33.5052629 350.62487,33.4527036 345.332484,33.4001443 C340.037247,33.3475851 334.636562,33.2950258 329.526573,33.2950258 C322.199311,33.2950258 315.464842,33.4026472 310.485951,33.7755676 C309.271866,33.8656692 308.374126,33.9032115 307.695835,33.9032115 C305.937406,33.9032115 305.683759,33.6479237 305.276214,33.3901331 C304.865819,33.1323424 304.304375,32.8745518 301.927504,32.8745518 C301.730856,32.8745518 301.525659,32.8770546 301.306211,32.8820602 C228.458234,34.0759062 155.849654,37.2995407 155.849654,37.2995407 C110.28725,40.3079325 79.6358678,42.4828847 72.2972057,42.4828847 C71.6616633,42.4828847 71.1999689,42.4653649 70.9178222,42.4328283 C69.8832846,42.31019 69.0026452,42.2451166 68.2474042,42.2451166 C66.1669292,42.2451166 65.009843,42.7306641 64.0209049,43.7918605 C63.2856137,44.5827522 62.510423,46.2095864 61.7751318,48.3244708 C57.5685822,48.5722502 53.3705825,48.8300408 49.2609318,49.0878314 C27.7921391,50.4318468 8.73441746,51.7758621 3.35938188,51.7758621" id="Fill-41" fill="#FEF474"></path>
                        <path d="M60.8129015,75.7758621 C60.3714585,75.7758621 60.0439362,75.7608171 59.8360308,75.7332347 C56.1905657,74.7528054 58.5971422,57.4235289 61.6559153,48.5996649 C79.4161655,47.5515333 97.3387529,46.6714036 109.474164,46.6714036 C115.580318,46.6714036 120.22259,46.8945704 122.637711,47.4311737 C132.11592,46.7666883 198.047574,41.0771892 231.195674,41.0771892 C236.780641,41.0771892 241.437153,41.2376687 244.735159,41.611285 C257.101261,37.5591781 368.396171,38.1634836 371.876451,37.2056217 C374.442516,36.498509 381.821735,36.1349227 388.628502,36.1349227 C394.609343,36.1349227 400.151589,36.4157618 401.595535,36.9899774 C403.546429,37.7647924 405.824844,38.0280791 408.180156,38.0280791 C410.672174,38.0280791 413.246783,37.732195 415.61064,37.4388185 C417.974496,37.1429344 420.121903,36.8470504 421.759514,36.8470504 C422.776257,36.8470504 423.596487,36.9598875 424.146154,37.2607865 C446.058817,35.5105572 443.162381,34.9012367 477.911068,34.7758621 C486.193109,35.3074504 505.343193,36.5737338 505.457114,36.952365 C505.636539,37.3811461 506.263104,37.6720152 507.003589,37.6720152 C507.282695,37.6720152 507.581737,37.6293878 507.877931,37.5366106 C508.490255,37.3460413 512.822093,37.2407266 518.481108,37.2407266 C530.804488,37.2407266 549.439081,37.7397175 549.795083,38.9232537 C551.284597,43.8655202 544.326886,63.9405003 539.505188,68.68969 C538.189403,69.9860633 535.549289,70.4424268 531.994961,70.4424268 C528.699802,70.4424268 524.621438,70.0487506 520.078847,69.5723271 C507.539016,68.2508789 502.791368,67.9675323 499.071854,67.9675323 C497.662084,67.9675323 496.397564,68.0076522 494.913745,68.047772 C493.429927,68.0903994 491.721115,68.1305193 489.425612,68.1305193 C486.013684,68.1305193 481.300212,68.0402496 474.071938,67.7243056 C432.055105,65.896344 411.028176,65.284516 398.636443,65.284516 C385.376063,65.284516 382.004008,65.9841062 373.383053,66.6410691 C372.938762,66.2925277 372.240997,66.1671531 371.366655,66.1671531 C370.207511,66.1671531 368.735085,66.3903199 367.125954,66.6134867 C365.516823,66.834146 363.768139,67.0573127 362.062175,67.0573127 C360.119826,67.0573127 358.225893,66.7689512 356.642394,65.8662541 C355.349393,65.131559 349.488168,64.7153153 344.034211,64.7153153 C339.961543,64.7153153 336.116716,64.9460046 334.567394,65.4500104 C334.086078,65.6079824 331.377612,65.6606398 327.159695,65.6606398 C322.443374,65.6606398 315.835969,65.5929375 308.339981,65.5252352 C300.843994,65.4575329 292.456576,65.3898306 284.185927,65.3898306 C263.859611,65.3898306 244.211124,65.7985518 240.067255,67.6164834 C236.854689,67.0698502 232.0928,66.8416684 226.379673,66.8416684 C202.689846,66.8416684 162.678019,70.7458333 149.374919,71.9544444 C147.301561,71.320049 143.197565,71.0642848 137.84044,71.0642848 C126.362921,71.0642848 109.132402,72.242806 93.7559442,73.4188197 C78.3823344,74.5973409 64.8627854,75.7758621 60.8129015,75.7758621" id="Fill-42" fill="#FEF474"></path>
                        <path d="M61,47.7758621 C61.7361039,45.6494072 62.5121514,44.0136727 63.2482553,43.2184541 C64.2382865,42.1514519 65.3966515,41.663248 67.4794261,41.663248 C68.2355018,41.663248 69.1171146,41.7286774 70.1527956,41.8519866 C70.4352541,41.8847013 70.8974589,41.9023169 71.5337037,41.9023169 C78.880477,41.9023169 109.565738,39.7154657 155.178501,36.6906151 C155.178501,36.6906151 227.867334,33.4493443 300.795828,32.2489668 C301.015518,32.2439338 301.220942,32.2414173 301.417807,32.2414173 C303.797306,32.2414173 304.359369,32.5006183 304.770218,32.7598193 C305.178214,33.0190203 305.432141,33.2757048 307.192513,33.2757048 C307.871555,33.2757048 308.770287,33.2379571 309.985714,33.1473625 C314.970107,32.7724019 321.71202,32.6641917 329.047381,32.6641917 C334.163018,32.6641917 339.569672,32.7170385 344.870761,32.7698853 C350.168998,32.8227322 355.367375,32.875579 360.066456,32.875579 C366.428905,32.875579 371.875503,32.7799514 375.436191,32.455321 C380.266517,32.014931 383.28226,31.7758621 386.169613,31.7758621 C389.328013,31.7758621 392.32949,32.0602282 397.370946,32.6767743 C401.876016,33.2253745 423.017604,33.7261609 440.74116,33.7261609 C452.852637,33.7261609 463.366369,33.492125 465.897083,32.880612 C466.430615,32.7220716 466.915645,32.6516092 467.317934,32.6516092 C468.039773,32.6516092 468.493418,32.880612 468.479152,33.2555727 C469.472037,33.3612663 473.255268,33.6003352 474.259565,33.663248 C474.376543,33.6707976 475.808807,33.7613921 478,33.9023169 C443.189134,34.0281427 446.090752,34.6396557 424.138879,36.3961829 C423.588228,36.0942012 422.76653,35.980958 421.747968,35.980958 C420.107426,35.980958 417.956177,36.2779067 415.588091,36.5748555 C413.220005,36.8692877 410.640788,37.1662364 408.144312,37.1662364 C405.784785,37.1662364 403.502292,36.9020024 401.547908,36.1243993 C400.101378,35.5481175 394.549215,35.2662679 388.557671,35.2662679 C381.738724,35.2662679 374.346301,35.6311625 371.775644,36.3408196 C368.289136,37.3021282 256.795075,36.6956482 244.406846,40.7623358 C241.102938,40.3873751 236.438094,40.2263182 230.843133,40.2263182 C197.635718,40.2263182 131.586086,45.9362899 122.090917,46.6031663 C119.671474,46.0646321 115.020895,45.8406623 108.903815,45.8406623 C96.7466885,45.8406623 78.7920304,46.723959 61,47.7758621" id="Fill-43" fill="#FEF14A"></path>
                    </g>
                </g>
            </g>
        </g>
    </g>
</svg>