<?xml version="1.0" encoding="UTF-8"?>
<svg width="1191px" height="454px" viewBox="0 0 1191 454" version="1.1" xmlns="http://www.w3.org/2000/svg" xmlns:xlink="http://www.w3.org/1999/xlink">
    <title>Colour Logo - Black Text - Full Text</title>
    <g id="Colour-Logo---Black-Text---Full-Text" stroke="none" stroke-width="1" fill="none" fill-rule="evenodd">
        <path d="M341.83,120.621 L360.89,120.621 L378.001,165.831 L393.749,120.621 L413.244,120.621 L413.244,123.525 L408.483,123.525 C406.806,123.525 405.677,123.77 405.096,124.26 C404.516,124.75 404.226,125.602 404.226,126.815 L404.226,172.14 C404.226,173.044 404.574,173.741 405.271,174.231 C405.967,174.721 407.167,174.966 408.87,174.966 L413.244,174.966 L413.244,177.869 L387.04,177.869 L387.04,174.966 L391.938,174.966 C393.337,174.966 394.375,174.701 395.047,174.173 C395.721,173.643 396.058,172.966 396.058,172.14 L396.058,123.525 L377.129,177.869 L374.521,177.869 L354.139,123.757 L354.139,165.367 C354.139,167.844 354.448,169.696 355.067,170.921 C355.687,172.147 356.571,173.089 357.719,173.747 C358.867,174.405 360.771,174.811 363.428,174.966 L363.428,177.869 L341.83,177.869 L341.83,174.966 C345.365,174.734 347.765,173.972 349.029,172.682 C350.294,171.392 350.926,169.108 350.926,165.831 L350.926,126.35 C350.926,125.369 350.629,124.654 350.036,124.202 C349.442,123.75 348.333,123.525 346.707,123.525 L341.83,123.525 L341.83,120.621" id="Fill-1" fill="#FFFFFF"></path>
        <path d="M443.552,158.593 C436.997,159.496 432.353,160.967 429.617,163.006 C427.579,164.554 426.559,166.747 426.559,169.586 C426.559,171.573 427.088,173.127 428.146,174.25 C429.204,175.372 430.585,175.934 432.288,175.934 C435.333,175.934 437.971,174.779 440.204,172.47 C442.436,170.16 443.552,167.263 443.552,163.78 L443.552,158.593 Z M456.248,173.882 L457.641,176.05 C455.757,177.985 453.667,178.953 451.371,178.953 C449.616,178.953 448.139,178.475 446.938,177.521 C445.739,176.566 444.687,174.888 443.784,172.489 C441.333,175.069 439.178,176.792 437.32,177.656 C435.462,178.521 433.23,178.953 430.624,178.953 C426.908,178.953 424.082,178.153 422.147,176.553 C420.211,174.953 419.244,172.902 419.244,170.399 C419.244,166.631 421.457,163.502 425.882,161.012 C430.308,158.522 436.197,156.864 443.552,156.038 L443.552,150.542 C443.552,148.581 442.765,146.904 441.19,145.51 C439.617,144.117 437.617,143.42 435.191,143.42 C432.946,143.42 431.011,143.885 429.385,144.813 C428.224,145.51 427.643,146.194 427.643,146.865 C427.643,147.252 427.953,147.858 428.572,148.684 C429.32,149.716 429.695,150.632 429.695,151.432 C429.695,152.594 429.32,153.542 428.572,154.277 C427.824,155.012 426.843,155.38 425.63,155.38 C424.34,155.38 423.263,154.942 422.398,154.064 C421.534,153.187 421.102,152.064 421.102,150.697 C421.102,148.142 422.54,145.807 425.417,143.691 C428.295,141.575 432.069,140.517 436.739,140.517 C441.049,140.517 444.339,141.446 446.609,143.304 C448.88,145.187 450.016,147.471 450.016,150.155 L450.016,169.973 C450.016,171.727 450.3,173.018 450.867,173.844 C451.435,174.695 452.17,175.121 453.074,175.121 C454.08,175.121 455.138,174.708 456.248,173.882 L456.248,173.882 Z" id="Fill-2" fill="#FFFFFF"></path>
        <path d="M475.717,119.964 L475.717,172.528 C475.717,173.25 475.937,173.805 476.375,174.192 C477.021,174.708 477.807,174.966 478.736,174.966 L482.568,174.966 L482.568,177.869 L462.015,177.869 L462.015,174.966 L465.653,174.966 C466.84,174.966 467.724,174.682 468.305,174.115 C468.885,173.547 469.176,172.747 469.176,171.715 L469.176,127.589 C469.176,126.299 468.827,125.357 468.13,124.763 C467.176,123.937 466.001,123.525 464.608,123.525 L461.357,123.525 L461.357,120.621 L475.717,119.964" id="Fill-3" fill="#FFFFFF"></path>
        <path d="M496.542,126.815 L499.135,126.815 L499.135,141.601 L510.863,141.601 L510.863,145.162 L499.135,145.162 L499.135,168.425 C499.135,170.437 499.612,171.979 500.567,173.05 C501.522,174.121 502.734,174.657 504.206,174.657 C505.96,174.657 507.457,173.844 508.695,172.218 C509.934,170.592 510.657,167.908 510.863,164.167 L513.457,164.167 C513.302,168.992 512.205,172.573 510.167,174.908 C508.128,177.243 505.483,178.411 502.231,178.411 C499.238,178.411 496.896,177.592 495.206,175.953 C493.516,174.314 492.671,172.166 492.671,169.509 L492.671,145.162 L486.361,145.162 L486.361,142.452 C489.237,141.962 491.426,140.762 492.927,138.852 C495.154,135.988 496.361,131.975 496.542,126.815" id="Fill-4" fill="#FFFFFF"></path>
        <path d="M543.454,158.593 C536.9,159.496 532.255,160.967 529.52,163.006 C527.481,164.554 526.462,166.747 526.462,169.586 C526.462,171.573 526.991,173.127 528.049,174.25 C529.107,175.372 530.487,175.934 532.19,175.934 C535.235,175.934 537.874,174.779 540.106,172.47 C542.338,170.16 543.454,167.263 543.454,163.78 L543.454,158.593 Z M556.15,173.882 L557.543,176.05 C555.66,177.985 553.57,178.953 551.273,178.953 C549.519,178.953 548.041,178.475 546.841,177.521 C545.641,176.566 544.59,174.888 543.687,172.489 C541.235,175.069 539.081,176.792 537.223,177.656 C535.365,178.521 533.132,178.953 530.526,178.953 C526.811,178.953 523.985,178.153 522.049,176.553 C520.114,174.953 519.146,172.902 519.146,170.399 C519.146,166.631 521.359,163.502 525.785,161.012 C530.21,158.522 536.1,156.864 543.454,156.038 L543.454,150.542 C543.454,148.581 542.667,146.904 541.093,145.51 C539.519,144.117 537.519,143.42 535.094,143.42 C532.849,143.42 530.913,143.885 529.288,144.813 C528.126,145.51 527.546,146.194 527.546,146.865 C527.546,147.252 527.855,147.858 528.475,148.684 C529.223,149.716 529.597,150.632 529.597,151.432 C529.597,152.594 529.223,153.542 528.475,154.277 C527.727,155.012 526.746,155.38 525.533,155.38 C524.243,155.38 523.166,154.942 522.301,154.064 C521.437,153.187 521.004,152.064 521.004,150.697 C521.004,148.142 522.443,145.807 525.32,143.691 C528.197,141.575 531.971,140.517 536.642,140.517 C540.951,140.517 544.241,141.446 546.512,143.304 C548.783,145.187 549.918,147.471 549.918,150.155 L549.918,169.973 C549.918,171.727 550.202,173.018 550.77,173.844 C551.337,174.695 552.073,175.121 552.976,175.121 C553.982,175.121 555.041,174.708 556.15,173.882 L556.15,173.882 Z" id="Fill-5" fill="#FFFFFF"></path>
        <path d="M344.617,194.831 L391.181,194.831 L391.955,214.649 L389.285,214.649 C388.098,207.836 386.433,203.398 384.292,201.334 C381.84,198.934 378.343,197.734 373.802,197.734 L364.628,197.734 C363.725,197.734 363.067,197.947 362.654,198.372 C362.241,198.798 362.035,199.437 362.035,200.288 L362.035,220.997 L366.951,220.997 C369.686,220.997 371.866,220.094 373.492,218.287 C375.118,216.481 375.995,213.694 376.124,209.927 L378.911,209.927 L378.911,235.744 L376.124,235.744 C375.943,231.46 375.066,228.403 373.492,226.571 C371.918,224.739 369.737,223.822 366.951,223.822 L362.035,223.822 L362.035,245.653 C362.035,246.944 362.345,247.853 362.964,248.382 C363.583,248.91 364.654,249.175 366.176,249.175 L372.137,249.175 L372.137,252.078 L344.617,252.078 L344.617,249.175 L350.5,249.175 C351.687,249.175 352.532,248.937 353.036,248.459 C353.539,247.982 353.79,247.201 353.79,246.117 L353.79,200.598 C353.79,199.566 353.526,198.83 352.997,198.392 C352.468,197.953 351.545,197.734 350.229,197.734 L344.617,197.734 L344.617,194.831" id="Fill-6" fill="#FFFFFF"></path>
        <path d="M408.406,215.152 L408.406,239.189 C408.406,242.131 409.146,244.402 410.626,246.001 C412.107,247.601 414.02,248.402 416.363,248.402 C419.247,248.402 421.698,247.234 423.721,244.898 C425.742,242.563 426.753,239.64 426.753,236.131 L426.753,222.545 C426.753,221.306 426.308,220.345 425.417,219.661 C424.527,218.977 422.818,218.597 420.289,218.519 L420.289,215.81 L433.023,215.152 L433.023,244.917 C433.023,246.285 433.411,247.337 434.185,248.073 C434.958,248.808 436.042,249.175 437.436,249.175 L439.72,249.175 L439.72,251.769 L427.527,252.039 L426.753,244.917 C424.588,247.472 422.411,249.395 420.221,250.685 C418.031,251.975 415.815,252.62 413.575,252.62 C410.302,252.62 407.559,251.524 405.343,249.33 C403.101,247.162 401.98,243.486 401.98,238.299 L401.98,222.545 C401.98,221.152 401.426,220.094 400.316,219.371 C399.542,218.855 397.955,218.571 395.555,218.519 L395.555,215.81 L408.406,215.152" id="Fill-7" fill="#FFFFFF"></path>
        <path d="M443.823,215.81 L456.867,215.152 L456.867,229.822 C458.26,224.996 459.938,221.345 461.899,218.868 C463.86,216.39 466.286,215.152 469.176,215.152 C471.137,215.152 472.705,215.752 473.878,216.952 C475.053,218.152 475.64,219.758 475.64,221.771 C475.64,223.396 475.246,224.661 474.459,225.564 C473.672,226.467 472.685,226.919 471.498,226.919 C470.337,226.919 469.401,226.532 468.692,225.758 C467.982,224.984 467.627,223.938 467.627,222.622 C467.627,221.771 467.834,220.971 468.247,220.222 C468.634,219.552 468.827,219.152 468.827,219.023 C468.827,218.636 468.582,218.442 468.092,218.442 C467.034,218.442 465.834,219.061 464.492,220.3 C462.634,222.029 461.202,224.403 460.196,227.422 C458.647,232.118 457.873,235.873 457.873,238.686 L457.873,246.466 C457.873,247.343 458.183,248.014 458.802,248.479 C459.421,248.943 460.479,249.175 461.976,249.175 L466.583,249.175 L466.583,252.078 L444.055,252.078 L444.055,249.175 L447.655,249.175 C448.867,249.175 449.784,248.937 450.403,248.459 C451.022,247.982 451.332,247.408 451.332,246.737 L451.332,223.629 C451.332,221.874 450.958,220.59 450.209,219.778 C449.461,218.965 448.39,218.558 446.997,218.558 L443.823,218.558 L443.823,215.81" id="Fill-8" fill="#FFFFFF"></path>
        <path d="M489.148,201.024 L491.742,201.024 L491.742,215.81 L503.47,215.81 L503.47,219.371 L491.742,219.371 L491.742,242.634 C491.742,244.647 492.219,246.189 493.174,247.259 C494.129,248.33 495.342,248.866 496.813,248.866 C498.567,248.866 500.064,248.053 501.302,246.427 C502.541,244.801 503.264,242.118 503.47,238.376 L506.063,238.376 C505.909,243.201 504.812,246.782 502.773,249.117 C500.735,251.452 498.09,252.62 494.838,252.62 C491.845,252.62 489.503,251.801 487.813,250.162 C486.123,248.524 485.278,246.375 485.278,243.718 L485.278,219.371 L478.969,219.371 L478.969,216.661 C481.844,216.171 484.033,214.971 485.534,213.062 C487.761,210.198 488.968,206.185 489.148,201.024" id="Fill-9" fill="#FFFFFF"></path>
        <path d="M509.508,194.831 L523.25,194.173 L523.25,222.119 C525.159,219.642 527.21,217.79 529.404,216.565 C531.597,215.339 533.919,214.726 536.371,214.726 C538.693,214.726 540.784,215.281 542.642,216.39 C544.086,217.268 545.319,218.804 546.338,220.997 C547.357,223.19 547.867,225.783 547.867,228.777 L547.867,246.001 C547.867,247.111 548.151,247.917 548.718,248.42 C549.286,248.924 550.176,249.175 551.389,249.175 L554.486,249.175 L554.486,252.078 L534.9,252.078 L534.9,249.175 L537.068,249.175 C538.719,249.175 539.861,248.91 540.493,248.382 C541.125,247.853 541.441,247.059 541.441,246.001 L541.441,228.777 C541.441,225.758 540.712,223.403 539.254,221.713 C537.797,220.023 535.932,219.178 533.662,219.178 C531.881,219.178 530.229,219.655 528.707,220.61 C527.185,221.564 525.894,223.016 524.836,224.964 C523.778,226.912 523.25,228.971 523.25,231.138 L523.25,245.615 C523.25,246.905 523.52,247.821 524.062,248.363 C524.604,248.905 525.494,249.175 526.733,249.175 L529.83,249.175 L529.83,252.078 L510.669,252.078 L510.669,249.175 L512.837,249.175 C514.308,249.175 515.353,248.885 515.972,248.304 C516.592,247.724 516.901,246.827 516.901,245.615 L516.901,202.34 C516.901,200.792 516.495,199.637 515.682,198.876 C514.869,198.115 513.688,197.734 512.14,197.734 L509.508,197.734 L509.508,194.831" id="Fill-10" fill="#FFFFFF"></path>
        <path d="M566.911,231.448 L582.625,231.448 C583.555,231.448 584.277,231.132 584.793,230.499 C585.31,229.867 585.567,228.79 585.567,227.267 C585.567,224.429 584.684,222.016 582.916,220.029 C581.148,218.042 579.064,217.049 576.665,217.049 C573.981,217.049 571.704,218.248 569.833,220.648 C567.962,223.048 566.988,226.648 566.911,231.448 Z M592.883,234.196 L566.911,234.196 C567.04,239.718 568.072,243.615 570.007,245.885 C572.227,248.44 575.052,249.717 578.484,249.717 C583.542,249.717 587.606,246.84 590.677,241.086 L593.193,242.169 C589.425,249.498 583.98,253.162 576.858,253.162 C572.007,253.162 567.923,251.408 564.607,247.898 C561.292,244.389 559.634,239.899 559.634,234.428 C559.634,228.545 561.266,223.79 564.53,220.164 C567.794,216.539 571.813,214.726 576.587,214.726 C580.097,214.726 583.129,215.629 585.684,217.436 C588.238,219.242 590.161,221.835 591.451,225.216 C592.354,227.59 592.832,230.583 592.883,234.196 L592.883,234.196 Z" id="Fill-11" fill="#FFFFFF"></path>
        <path d="M597.915,215.81 L610.959,215.152 L610.959,229.822 C612.353,224.996 614.03,221.345 615.991,218.868 C617.953,216.39 620.377,215.152 623.268,215.152 C625.229,215.152 626.796,215.752 627.971,216.952 C629.145,218.152 629.732,219.758 629.732,221.771 C629.732,223.396 629.338,224.661 628.551,225.564 C627.764,226.467 626.778,226.919 625.59,226.919 C624.429,226.919 623.494,226.532 622.785,225.758 C622.075,224.984 621.72,223.938 621.72,222.622 C621.72,221.771 621.926,220.971 622.339,220.222 C622.726,219.552 622.919,219.152 622.919,219.023 C622.919,218.636 622.674,218.442 622.184,218.442 C621.126,218.442 619.926,219.061 618.584,220.3 C616.726,222.029 615.294,224.403 614.288,227.422 C612.74,232.118 611.965,235.873 611.965,238.686 L611.965,246.466 C611.965,247.343 612.275,248.014 612.895,248.479 C613.514,248.943 614.572,249.175 616.069,249.175 L620.674,249.175 L620.674,252.078 L598.147,252.078 L598.147,249.175 L601.747,249.175 C602.959,249.175 603.875,248.937 604.496,248.459 C605.115,247.982 605.424,247.408 605.424,246.737 L605.424,223.629 C605.424,221.874 605.05,220.59 604.301,219.778 C603.553,218.965 602.482,218.558 601.089,218.558 L597.915,218.558 L597.915,215.81" id="Fill-12" fill="#FFFFFF"></path>
        <path d="M678.851,216.119 C682.567,214.494 685.122,212.759 686.515,210.913 C687.909,209.069 688.605,206.856 688.605,204.275 C688.605,201.849 687.966,199.927 686.689,198.508 C685.412,197.089 683.78,196.379 681.792,196.379 C679.832,196.379 678.207,197.056 676.916,198.411 C675.625,199.766 674.981,201.566 674.981,203.811 C674.981,207.088 676.271,211.191 678.851,216.119 Z M673.548,222.119 C668.104,225.138 665.381,228.764 665.381,232.996 C665.381,236.247 666.652,239.66 669.194,243.234 C671.736,246.808 674.903,248.595 678.697,248.595 C681.922,248.595 685.212,247.291 688.567,244.685 C686.064,241.692 683.819,238.731 681.832,235.802 C679.844,232.873 677.083,228.312 673.548,222.119 Z M680.322,219.1 C683.671,224.777 686.236,228.919 688.015,231.525 C689.792,234.131 691.738,236.686 693.852,239.189 C697.888,234.183 699.908,230.106 699.908,226.957 C699.908,225.538 699.405,224.416 698.398,223.59 C697.392,222.764 695.882,222.351 693.87,222.351 L691.818,222.351 L691.818,219.68 L713.339,219.68 L713.339,222.351 L711.713,222.351 C710.32,222.351 709.171,222.558 708.268,222.971 C707.366,223.384 706.533,224.022 705.772,224.887 C705.01,225.751 704.088,227.345 703.004,229.667 C700.801,234.338 698.444,238.26 695.929,241.434 C699.462,245.046 702.544,246.853 705.175,246.853 C706.773,246.853 708.109,246.221 709.178,244.956 C710.249,243.692 710.965,241.512 711.327,238.415 L713.765,238.415 C713.765,243.241 712.726,246.905 710.649,249.408 C708.572,251.91 705.946,253.162 702.772,253.162 C700.992,253.162 699.179,252.71 697.333,251.807 C695.489,250.905 693.263,249.266 690.657,246.892 C687.664,249.266 684.993,250.905 682.644,251.807 C680.296,252.71 677.781,253.162 675.096,253.162 C670.219,253.162 666.188,251.601 663,248.479 C659.814,245.356 658.22,241.512 658.22,236.944 C658.22,233.434 659.233,230.273 661.259,227.461 C663.285,224.648 666.929,221.861 672.194,219.1 C669.742,214.068 668.516,209.875 668.516,206.52 C668.516,202.882 669.839,199.785 672.484,197.231 C675.128,194.676 678.374,193.399 682.218,193.399 C685.883,193.399 688.773,194.341 690.889,196.224 C693.005,198.108 694.063,200.611 694.063,203.733 C694.063,206.701 693.05,209.417 691.025,211.881 C688.999,214.346 685.431,216.752 680.322,219.1 L680.322,219.1 Z" id="Fill-13" fill="#FFFFFF"></path>
        <path d="M743.453,194.831 L767.916,194.831 L767.916,197.734 L763.426,197.734 C761.852,197.734 760.826,198.011 760.349,198.566 C759.872,199.121 759.632,200.469 759.632,202.611 L759.632,220.261 L785.798,220.261 L785.798,202.611 C785.798,200.392 785.573,199.024 785.122,198.508 C784.669,197.992 783.605,197.734 781.928,197.734 L777.748,197.734 L777.748,194.831 L802.055,194.831 L802.055,197.734 L797.604,197.734 C796.495,197.734 795.714,197.876 795.262,198.159 C794.811,198.444 794.443,198.934 794.16,199.631 C794.004,200.069 793.927,201.218 793.927,203.075 L793.927,244.259 C793.927,246.246 794.094,247.447 794.43,247.86 C795.101,248.737 796.327,249.175 798.107,249.175 L802.055,249.175 L802.055,252.078 L777.748,252.078 L777.748,249.175 L781.928,249.175 C783.58,249.175 784.702,248.724 785.295,247.821 C785.63,247.33 785.798,246.04 785.798,243.95 L785.798,224.054 L759.632,224.054 L759.632,244.259 C759.632,246.273 759.788,247.485 760.097,247.898 C760.743,248.749 761.852,249.175 763.426,249.175 L767.916,249.175 L767.916,252.078 L743.453,252.078 L743.453,249.175 L748.136,249.175 C748.962,249.175 749.621,249.007 750.111,248.672 C750.601,248.336 750.962,247.86 751.195,247.24 C751.324,246.827 751.388,245.731 751.388,243.95 L751.388,202.611 C751.388,200.469 751.149,199.121 750.672,198.566 C750.195,198.011 749.156,197.734 747.556,197.734 L743.453,197.734 L743.453,194.831" id="Fill-14" fill="#FFFFFF"></path>
        <path d="M817.732,194.173 C818.893,194.173 819.913,194.612 820.79,195.489 C821.667,196.366 822.106,197.398 822.106,198.585 C822.106,199.746 821.68,200.753 820.829,201.604 C819.977,202.456 818.958,202.882 817.77,202.882 C816.583,202.882 815.558,202.45 814.693,201.585 C813.829,200.721 813.397,199.708 813.397,198.547 C813.397,197.386 813.835,196.366 814.712,195.489 C815.59,194.612 816.596,194.173 817.732,194.173 Z M807.667,215.81 L822.106,215.384 L822.106,246.582 C822.106,247.434 822.312,248.04 822.725,248.402 C823.319,248.917 824.067,249.175 824.97,249.175 L829.073,249.175 L829.073,252.078 L808.442,252.078 L808.442,249.175 L812.274,249.175 C813.41,249.175 814.242,248.898 814.771,248.343 C815.299,247.788 815.564,246.982 815.564,245.924 L815.564,223.087 C815.564,221.642 815.151,220.552 814.326,219.816 C813.5,219.081 812.274,218.713 810.648,218.713 L807.667,218.713 L807.667,215.81 L807.667,215.81 Z" id="Fill-15" fill="#FFFFFF"></path>
        <path d="M850.942,217.203 C848.646,217.203 846.749,218.049 845.253,219.739 C843.755,221.429 843.007,223.797 843.007,226.842 C843.007,230.093 843.755,232.615 845.253,234.408 C846.749,236.202 848.659,237.099 850.981,237.099 C853.303,237.099 855.207,236.228 856.69,234.486 C858.174,232.744 858.916,230.248 858.916,226.996 C858.916,223.977 858.161,221.59 856.652,219.835 C855.142,218.081 853.239,217.203 850.942,217.203 Z M853.226,252.117 C848.478,252.117 845.091,252.775 843.065,254.091 C841.04,255.408 840.027,256.994 840.027,258.852 C840.027,260.607 840.789,261.988 842.311,262.993 C844.324,264.335 847.188,265.006 850.904,265.006 C855.342,265.006 858.684,264.271 860.928,262.8 C863.173,261.329 864.297,259.691 864.297,257.884 C864.297,256.826 863.948,255.839 863.252,254.923 C862.554,254.007 861.445,253.311 859.922,252.833 C858.4,252.356 856.168,252.117 853.226,252.117 Z M861.123,217.862 C863.703,215.255 866.077,213.952 868.245,213.952 C869.535,213.952 870.605,214.365 871.457,215.191 C872.308,216.016 872.734,217.023 872.734,218.21 C872.734,219.164 872.444,219.958 871.864,220.59 C871.283,221.222 870.605,221.538 869.832,221.538 C868.361,221.538 867.367,220.636 866.851,218.829 C866.644,218.055 866.297,217.668 865.806,217.668 C864.928,217.668 863.973,218.248 862.942,219.409 C864.051,220.932 864.812,222.255 865.225,223.377 C865.638,224.5 865.844,225.706 865.844,226.996 C865.844,229.241 865.302,231.222 864.219,232.938 C863.135,234.654 861.336,236.17 858.819,237.486 C856.303,238.802 853.897,239.46 851.6,239.46 L847.381,239.46 C844.388,239.46 842.401,239.769 841.421,240.389 C840.44,241.034 839.95,241.976 839.95,243.214 C839.95,244.221 840.349,244.995 841.15,245.536 C841.95,246.078 843.459,246.35 845.678,246.35 L855.239,246.157 C860.064,246.157 863.542,246.962 865.671,248.575 C867.799,250.188 868.864,252.401 868.864,255.213 C868.864,258.31 867.651,260.916 865.225,263.033 C861.845,266.026 856.8,267.523 850.09,267.523 C844.543,267.523 840.427,266.503 837.744,264.464 C835.628,262.865 834.569,261.072 834.569,259.084 C834.569,257.562 835.247,256.168 836.601,254.904 C837.957,253.64 840.233,252.698 843.433,252.078 C840.879,251.459 838.956,250.549 837.666,249.35 C836.376,248.15 835.73,246.659 835.73,244.879 C835.73,243.228 836.254,241.789 837.298,240.563 C838.343,239.337 840.156,238.286 842.737,237.408 C840.544,236.196 838.891,234.731 837.782,233.015 C836.672,231.299 836.118,229.331 836.118,227.113 C836.118,223.603 837.499,220.661 840.259,218.287 C843.02,215.913 846.607,214.726 851.02,214.726 C852.826,214.726 854.568,214.984 856.246,215.5 C857.922,216.016 859.548,216.804 861.123,217.862 L861.123,217.862 Z" id="Fill-16" fill="#FFFFFF"></path>
        <path d="M874.979,194.831 L888.72,194.173 L888.72,222.119 C890.63,219.642 892.681,217.79 894.875,216.565 C897.068,215.339 899.39,214.726 901.842,214.726 C904.165,214.726 906.255,215.281 908.113,216.39 C909.557,217.268 910.79,218.804 911.809,220.997 C912.829,223.19 913.338,225.783 913.338,228.777 L913.338,246.001 C913.338,247.111 913.622,247.917 914.189,248.42 C914.757,248.924 915.647,249.175 916.86,249.175 L919.957,249.175 L919.957,252.078 L900.371,252.078 L900.371,249.175 L902.539,249.175 C904.19,249.175 905.332,248.91 905.964,248.382 C906.596,247.853 906.913,247.059 906.913,246.001 L906.913,228.777 C906.913,225.758 906.183,223.403 904.725,221.713 C903.268,220.023 901.403,219.178 899.132,219.178 C897.352,219.178 895.701,219.655 894.178,220.61 C892.656,221.564 891.365,223.016 890.307,224.964 C889.25,226.912 888.72,228.971 888.72,231.138 L888.72,245.615 C888.72,246.905 888.991,247.821 889.533,248.363 C890.075,248.905 890.965,249.175 892.204,249.175 L895.3,249.175 L895.3,252.078 L876.14,252.078 L876.14,249.175 L878.308,249.175 C879.779,249.175 880.824,248.885 881.443,248.304 C882.063,247.724 882.373,246.827 882.373,245.615 L882.373,202.34 C882.373,200.792 881.966,199.637 881.153,198.876 C880.34,198.115 879.16,197.734 877.612,197.734 L874.979,197.734 L874.979,194.831" id="Fill-17" fill="#FFFFFF"></path>
        <path d="M932.381,231.448 L948.097,231.448 C949.026,231.448 949.749,231.132 950.264,230.499 C950.781,229.867 951.039,228.79 951.039,227.267 C951.039,224.429 950.155,222.016 948.387,220.029 C946.62,218.042 944.536,217.049 942.136,217.049 C939.453,217.049 937.175,218.248 935.304,220.648 C933.433,223.048 932.46,226.648 932.381,231.448 Z M958.354,234.196 L932.381,234.196 C932.51,239.718 933.543,243.615 935.478,245.885 C937.698,248.44 940.523,249.717 943.955,249.717 C949.013,249.717 953.077,246.84 956.148,241.086 L958.664,242.169 C954.896,249.498 949.452,253.162 942.33,253.162 C937.478,253.162 933.394,251.408 930.079,247.898 C926.763,244.389 925.105,239.899 925.105,234.428 C925.105,228.545 926.737,223.79 930.002,220.164 C933.265,216.539 937.285,214.726 942.058,214.726 C945.568,214.726 948.6,215.629 951.155,217.436 C953.71,219.242 955.631,221.835 956.922,225.216 C957.825,227.59 958.302,230.583 958.354,234.196 L958.354,234.196 Z" id="Fill-18" fill="#FFFFFF"></path>
        <path d="M963.386,215.81 L976.43,215.152 L976.43,229.822 C977.824,224.996 979.501,221.345 981.463,218.868 C983.423,216.39 985.849,215.152 988.739,215.152 C990.7,215.152 992.268,215.752 993.442,216.952 C994.616,218.152 995.203,219.758 995.203,221.771 C995.203,223.396 994.809,224.661 994.023,225.564 C993.236,226.467 992.249,226.919 991.061,226.919 C989.9,226.919 988.964,226.532 988.255,225.758 C987.546,224.984 987.191,223.938 987.191,222.622 C987.191,221.771 987.397,220.971 987.81,220.222 C988.197,219.552 988.391,219.152 988.391,219.023 C988.391,218.636 988.145,218.442 987.655,218.442 C986.597,218.442 985.397,219.061 984.055,220.3 C982.198,222.029 980.765,224.403 979.759,227.422 C978.211,232.118 977.437,235.873 977.437,238.686 L977.437,246.466 C977.437,247.343 977.747,248.014 978.366,248.479 C978.985,248.943 980.043,249.175 981.54,249.175 L986.146,249.175 L986.146,252.078 L963.619,252.078 L963.619,249.175 L967.218,249.175 C968.431,249.175 969.347,248.937 969.966,248.459 C970.586,247.982 970.895,247.408 970.895,246.737 L970.895,223.629 C970.895,221.874 970.521,220.59 969.773,219.778 C969.024,218.965 967.954,218.558 966.56,218.558 L963.386,218.558 L963.386,215.81" id="Fill-19" fill="#FFFFFF"></path>
        <path d="M345.701,269.038 L391.065,269.038 L392.149,288.353 L389.556,288.353 C388.525,282.263 386.895,278.005 384.666,275.58 C382.437,273.155 379.532,271.942 375.95,271.942 L364.741,271.942 C363.838,271.942 363.156,272.187 362.691,272.677 C362.229,273.167 361.996,273.915 361.996,274.922 L361.996,295.321 L366.897,295.321 C369.523,295.321 371.652,294.378 373.286,292.494 C374.921,290.611 375.802,287.721 375.931,283.824 L378.602,283.824 L378.602,310.339 L375.931,310.339 C375.802,305.952 374.908,302.81 373.247,300.913 C371.589,299.017 369.33,298.069 366.473,298.069 L361.996,298.069 L361.996,320.828 C361.996,321.654 362.273,322.286 362.827,322.725 C363.381,323.163 364.302,323.383 365.591,323.383 L374.444,323.383 C384.056,323.383 389.596,317.241 391.065,304.958 L393.852,304.958 L392.884,326.286 L345.701,326.286 L345.701,323.383 L349.61,323.383 C351.132,323.383 352.203,323.118 352.823,322.589 C353.442,322.061 353.751,321.293 353.751,320.286 L353.751,274.922 C353.751,273.915 353.48,273.167 352.938,272.677 C352.397,272.187 351.545,271.942 350.384,271.942 L345.701,271.942 L345.701,269.038" id="Fill-20" fill="#FFFFFF"></path>
        <path d="M418.663,292.147 C415.876,292.147 413.664,293.295 412.025,295.591 C410.386,297.888 409.567,301.759 409.567,307.203 C409.567,313.113 410.406,317.274 412.083,319.687 C413.76,322.099 415.915,323.306 418.547,323.306 C421.36,323.306 423.766,321.957 425.766,319.261 C427.766,316.564 428.766,312.622 428.766,307.436 C428.766,302.533 427.695,298.675 425.553,295.863 C423.695,293.385 421.398,292.147 418.663,292.147 Z M420.908,269.038 L435.075,268.38 L435.075,318.002 C435.075,319.938 435.442,321.319 436.178,322.145 C436.914,322.97 438.017,323.383 439.487,323.383 L442.003,323.383 L442.003,326.286 L429.617,326.286 L428.688,318.893 C427.217,321.525 425.495,323.505 423.521,324.834 C421.547,326.163 419.334,326.827 416.883,326.827 C412.754,326.827 409.238,325.099 406.335,321.641 C403.432,318.183 401.98,313.616 401.98,307.939 C401.98,301.797 403.838,296.895 407.554,293.231 C410.47,290.366 413.825,288.934 417.618,288.934 C419.94,288.934 422.024,289.514 423.869,290.676 C425.714,291.837 427.321,293.591 428.688,295.94 L428.688,275.464 C428.688,274.38 428.269,273.522 427.43,272.89 C426.592,272.257 425.282,271.942 423.501,271.942 L420.908,271.942 L420.908,269.038 L420.908,269.038 Z" id="Fill-21" fill="#FFFFFF"></path>
        <path d="M458.299,289.36 L458.299,313.397 C458.299,316.338 459.039,318.609 460.52,320.209 C462,321.809 463.913,322.609 466.256,322.609 C469.14,322.609 471.592,321.441 473.614,319.106 C475.635,316.771 476.646,313.848 476.646,310.339 L476.646,296.752 C476.646,295.514 476.201,294.553 475.311,293.869 C474.42,293.185 472.711,292.805 470.182,292.727 L470.182,290.018 L482.917,289.36 L482.917,319.125 C482.917,320.492 483.304,321.544 484.078,322.28 C484.852,323.015 485.936,323.383 487.329,323.383 L489.613,323.383 L489.613,325.976 L477.42,326.247 L476.646,319.125 C474.482,321.68 472.305,323.602 470.114,324.893 C467.924,326.183 465.708,326.827 463.468,326.827 C460.196,326.827 457.452,325.731 455.236,323.537 C452.995,321.37 451.874,317.693 451.874,312.506 L451.874,296.752 C451.874,295.359 451.319,294.301 450.209,293.578 C449.435,293.063 447.848,292.779 445.448,292.727 L445.448,290.018 L458.299,289.36" id="Fill-22" fill="#FFFFFF"></path>
        <path d="M522.011,315.526 L524.526,316.261 C522.514,323.667 518.076,327.369 511.211,327.369 C506.18,327.369 502.063,325.705 498.864,322.376 C495.664,319.048 494.064,314.622 494.064,309.1 C494.064,302.7 495.819,297.74 499.329,294.217 C502.838,290.695 506.966,288.934 511.715,288.934 C515.276,288.934 518.217,289.914 520.54,291.875 C522.862,293.836 524.023,296.017 524.023,298.417 C524.023,299.862 523.591,301.056 522.727,301.997 C521.862,302.94 520.836,303.41 519.649,303.41 C518.488,303.41 517.508,303.012 516.708,302.215 C515.908,301.417 515.508,300.452 515.508,299.321 C515.508,298.19 515.947,297.109 516.824,296.08 C517.237,295.591 517.443,295.206 517.443,294.922 C517.443,294.177 516.94,293.449 515.934,292.743 C514.927,292.035 513.56,291.682 511.831,291.682 C508.683,291.682 506.295,292.828 504.67,295.122 C502.348,298.448 501.187,302.829 501.187,308.268 C501.187,313.449 502.218,317.372 504.283,320.039 C506.347,322.707 508.979,324.041 512.179,324.041 C516.592,324.041 519.869,321.202 522.011,315.526" id="Fill-23" fill="#FFFFFF"></path>
        <path d="M555.105,307.01 C548.551,307.913 543.906,309.384 541.17,311.422 C539.132,312.971 538.113,315.164 538.113,318.002 C538.113,319.99 538.642,321.544 539.7,322.667 C540.758,323.789 542.138,324.351 543.841,324.351 C546.886,324.351 549.525,323.196 551.757,320.886 C553.989,318.576 555.105,315.68 555.105,312.197 L555.105,307.01 Z M567.801,322.299 L569.194,324.467 C567.311,326.402 565.221,327.369 562.924,327.369 C561.169,327.369 559.692,326.893 558.492,325.938 C557.292,324.983 556.241,323.306 555.337,320.906 C552.886,323.487 550.731,325.208 548.873,326.074 C547.015,326.938 544.783,327.369 542.177,327.369 C538.461,327.369 535.635,326.57 533.7,324.97 C531.765,323.37 530.797,321.319 530.797,318.816 C530.797,315.048 533.01,311.919 537.436,309.429 C541.861,306.939 547.751,305.281 555.105,304.455 L555.105,298.959 C555.105,296.997 554.318,295.321 552.744,293.927 C551.17,292.533 549.17,291.837 546.745,291.837 C544.5,291.837 542.564,292.301 540.938,293.231 C539.777,293.927 539.197,294.611 539.197,295.282 C539.197,295.669 539.506,296.276 540.125,297.101 C540.874,298.133 541.248,299.049 541.248,299.849 C541.248,301.01 540.874,301.958 540.125,302.694 C539.377,303.43 538.396,303.797 537.184,303.797 C535.894,303.797 534.816,303.359 533.952,302.481 C533.087,301.604 532.655,300.482 532.655,299.114 C532.655,296.559 534.094,294.224 536.971,292.108 C539.848,289.991 543.622,288.934 548.292,288.934 C552.602,288.934 555.892,289.863 558.163,291.721 C560.434,293.605 561.569,295.888 561.569,298.572 L561.569,318.39 C561.569,320.145 561.853,321.435 562.421,322.26 C562.988,323.112 563.724,323.537 564.627,323.537 C565.633,323.537 566.691,323.125 567.801,322.299 L567.801,322.299 Z" id="Fill-24" fill="#FFFFFF"></path>
        <path d="M583.129,275.232 L585.722,275.232 L585.722,290.018 L597.451,290.018 L597.451,293.578 L585.722,293.578 L585.722,316.841 C585.722,318.854 586.2,320.396 587.154,321.467 C588.109,322.538 589.322,323.074 590.793,323.074 C592.548,323.074 594.044,322.26 595.283,320.635 C596.522,319.009 597.244,316.325 597.451,312.583 L600.043,312.583 C599.889,317.409 598.792,320.99 596.753,323.324 C594.715,325.66 592.07,326.827 588.819,326.827 C585.826,326.827 583.484,326.009 581.793,324.37 C580.104,322.732 579.258,320.583 579.258,317.925 L579.258,293.578 L572.949,293.578 L572.949,290.869 C575.825,290.379 578.013,289.179 579.515,287.27 C581.742,284.406 582.948,280.393 583.129,275.232" id="Fill-25" fill="#FFFFFF"></path>
        <path d="M613.785,268.38 C614.946,268.38 615.965,268.819 616.842,269.697 C617.72,270.574 618.159,271.606 618.159,272.793 C618.159,273.954 617.733,274.96 616.881,275.812 C616.03,276.663 615.01,277.089 613.824,277.089 C612.636,277.089 611.611,276.658 610.747,275.793 C609.882,274.928 609.45,273.915 609.45,272.754 C609.45,271.593 609.888,270.574 610.766,269.697 C611.643,268.819 612.65,268.38 613.785,268.38 Z M603.721,290.018 L618.159,289.592 L618.159,320.789 C618.159,321.641 618.365,322.247 618.778,322.609 C619.372,323.125 620.12,323.383 621.023,323.383 L625.125,323.383 L625.125,326.286 L604.496,326.286 L604.496,323.383 L608.327,323.383 C609.462,323.383 610.294,323.106 610.824,322.551 C611.353,321.996 611.618,321.19 611.618,320.131 L611.618,297.294 C611.618,295.85 611.205,294.759 610.378,294.024 C609.553,293.288 608.327,292.92 606.702,292.92 L603.721,292.92 L603.721,290.018 L603.721,290.018 Z" id="Fill-26" fill="#FFFFFF"></path>
        <path d="M646.493,291.682 C643.602,291.682 641.228,292.991 639.37,295.611 C637.512,298.23 636.583,302.366 636.583,308.016 C636.583,313.771 637.505,317.977 639.351,320.635 C641.196,323.292 643.577,324.621 646.493,324.621 C649.511,324.621 651.957,323.292 653.828,320.635 C655.698,317.977 656.633,313.629 656.633,307.59 C656.633,301.991 655.71,297.94 653.866,295.437 C652.021,292.934 649.563,291.682 646.493,291.682 Z M646.493,288.934 C651.37,288.934 655.465,290.695 658.782,294.217 C662.097,297.74 663.755,302.378 663.755,308.132 C663.755,312.107 663.013,315.493 661.53,318.293 C660.046,321.093 657.93,323.306 655.182,324.931 C652.434,326.557 649.472,327.369 646.298,327.369 C641.602,327.369 637.622,325.589 634.358,322.029 C631.093,318.467 629.461,313.848 629.461,308.171 C629.461,302.468 631.1,297.836 634.376,294.276 C637.654,290.714 641.693,288.934 646.493,288.934 L646.493,288.934 Z" id="Fill-27" fill="#FFFFFF"></path>
        <path d="M669.02,290.018 L681.057,289.283 C681.547,291.553 681.909,294.211 682.141,297.256 C683.767,294.623 685.683,292.65 687.889,291.333 C690.095,290.018 692.592,289.36 695.379,289.36 C697.779,289.36 699.792,289.83 701.417,290.773 C703.043,291.714 704.346,293.204 705.327,295.243 C706.307,297.282 706.797,299.566 706.797,302.094 L706.797,319.744 C706.797,321.061 707.094,321.996 707.688,322.551 C708.282,323.106 709.275,323.383 710.668,323.383 L713.223,323.383 L713.223,326.286 L694.102,326.286 L694.102,323.383 L695.921,323.383 C697.625,323.383 698.811,323.112 699.482,322.571 C700.153,322.029 700.489,321.215 700.489,320.131 L700.489,304.61 C700.489,301.23 699.972,298.727 698.94,297.101 C697.495,294.779 695.301,293.617 692.36,293.617 C689.444,293.617 687.012,294.791 685.064,297.14 C683.116,299.488 682.141,302.546 682.141,306.313 L682.141,319.744 C682.141,321.061 682.445,321.996 683.051,322.551 C683.658,323.106 684.658,323.383 686.05,323.383 L688.567,323.383 L688.567,326.286 L669.368,326.286 L669.368,323.383 L671.884,323.383 C673.148,323.383 674.11,323.125 674.768,322.609 C675.425,322.093 675.754,321.448 675.754,320.673 L675.754,297.256 C675.754,295.707 675.335,294.533 674.497,293.734 C673.658,292.934 672.452,292.533 670.877,292.533 L669.02,292.533 L669.02,290.018" id="Fill-28" fill="#FFFFFF"></path>
        <path d="M763.445,278.87 L753.167,304.378 L773.383,304.378 L763.445,278.87 Z M764.574,267.838 L767.166,267.838 L787.695,320.209 C788.521,322.325 790.211,323.383 792.766,323.383 L794.546,323.383 L794.546,326.286 L771.709,326.286 L771.709,323.383 L773.529,323.383 C775.903,323.383 777.58,323.125 778.56,322.609 C779.231,322.247 779.567,321.693 779.567,320.945 C779.567,320.506 779.476,320.041 779.295,319.551 L774.561,307.397 L751.917,307.397 L749.259,314.365 C748.562,316.222 748.214,317.693 748.214,318.777 C748.214,320.041 748.801,321.125 749.975,322.029 C751.149,322.931 752.859,323.383 755.104,323.383 L757.04,323.383 L757.04,326.286 L736.292,326.286 L736.292,323.383 C738.511,323.383 740.264,322.899 741.555,321.932 C742.845,320.964 744.032,319.125 745.116,316.415 L764.574,267.838 L764.574,267.838 Z" id="Fill-29" fill="#FFFFFF"></path>
        <path d="M809.139,289.36 L809.139,313.397 C809.139,316.338 809.879,318.609 811.36,320.209 C812.84,321.809 814.752,322.609 817.096,322.609 C819.98,322.609 822.431,321.441 824.454,319.106 C826.475,316.771 827.486,313.848 827.486,310.339 L827.486,296.752 C827.486,295.514 827.041,294.553 826.151,293.869 C825.26,293.185 823.55,292.805 821.022,292.727 L821.022,290.018 L833.756,289.36 L833.756,319.125 C833.756,320.492 834.143,321.544 834.918,322.28 C835.692,323.015 836.776,323.383 838.17,323.383 L840.453,323.383 L840.453,325.976 L828.26,326.247 L827.486,319.125 C825.322,321.68 823.144,323.602 820.954,324.893 C818.764,326.183 816.548,326.827 814.308,326.827 C811.036,326.827 808.292,325.731 806.076,323.537 C803.834,321.37 802.713,317.693 802.713,312.506 L802.713,296.752 C802.713,295.359 802.159,294.301 801.049,293.578 C800.275,293.063 798.688,292.779 796.288,292.727 L796.288,290.018 L809.139,289.36" id="Fill-30" fill="#FFFFFF"></path>
        <path d="M854.697,275.232 L857.291,275.232 L857.291,290.018 L869.018,290.018 L869.018,293.578 L857.291,293.578 L857.291,316.841 C857.291,318.854 857.768,320.396 858.722,321.467 C859.677,322.538 860.89,323.074 862.361,323.074 C864.116,323.074 865.612,322.26 866.851,320.635 C868.089,319.009 868.812,316.325 869.018,312.583 L871.612,312.583 C871.457,317.409 870.36,320.99 868.322,323.324 C866.283,325.66 863.638,326.827 860.387,326.827 C857.393,326.827 855.051,326.009 853.362,324.37 C851.672,322.732 850.826,320.583 850.826,317.925 L850.826,293.578 L844.517,293.578 L844.517,290.869 C847.392,290.379 849.582,289.179 851.083,287.27 C853.31,284.406 854.516,280.393 854.697,275.232" id="Fill-31" fill="#FFFFFF"></path>
        <path d="M875.057,269.038 L888.797,268.38 L888.797,296.326 C890.708,293.85 892.758,291.998 894.952,290.773 C897.145,289.546 899.468,288.934 901.92,288.934 C904.242,288.934 906.332,289.489 908.19,290.598 C909.635,291.476 910.867,293.011 911.886,295.204 C912.906,297.398 913.416,299.991 913.416,302.985 L913.416,320.209 C913.416,321.319 913.699,322.125 914.267,322.628 C914.835,323.131 915.725,323.383 916.938,323.383 L920.034,323.383 L920.034,326.286 L900.449,326.286 L900.449,323.383 L902.616,323.383 C904.267,323.383 905.41,323.118 906.042,322.589 C906.673,322.061 906.99,321.267 906.99,320.209 L906.99,302.985 C906.99,299.965 906.261,297.611 904.803,295.92 C903.345,294.23 901.481,293.385 899.21,293.385 C897.429,293.385 895.778,293.863 894.255,294.818 C892.733,295.772 891.443,297.224 890.384,299.172 C889.327,301.12 888.797,303.178 888.797,305.346 L888.797,319.822 C888.797,321.113 889.069,322.029 889.611,322.571 C890.153,323.112 891.043,323.383 892.282,323.383 L895.378,323.383 L895.378,326.286 L876.218,326.286 L876.218,323.383 L878.385,323.383 C879.856,323.383 880.902,323.093 881.521,322.512 C882.14,321.932 882.45,321.034 882.45,319.822 L882.45,276.547 C882.45,274.999 882.044,273.845 881.23,273.083 C880.418,272.323 879.237,271.942 877.689,271.942 L875.057,271.942 L875.057,269.038" id="Fill-32" fill="#FFFFFF"></path>
        <path d="M941.516,291.682 C938.627,291.682 936.253,292.991 934.394,295.611 C932.537,298.23 931.608,302.366 931.608,308.016 C931.608,313.771 932.53,317.977 934.376,320.635 C936.22,323.292 938.601,324.621 941.516,324.621 C944.536,324.621 946.981,323.292 948.851,320.635 C950.722,317.977 951.658,313.629 951.658,307.59 C951.658,301.991 950.735,297.94 948.89,295.437 C947.046,292.934 944.588,291.682 941.516,291.682 Z M941.516,288.934 C946.394,288.934 950.49,290.695 953.806,294.217 C957.122,297.74 958.78,302.378 958.78,308.132 C958.78,312.107 958.038,315.493 956.554,318.293 C955.071,321.093 952.955,323.306 950.207,324.931 C947.459,326.557 944.497,327.369 941.323,327.369 C936.627,327.369 932.646,325.589 929.382,322.029 C926.118,318.467 924.486,313.848 924.486,308.171 C924.486,302.468 926.125,297.836 929.401,294.276 C932.678,290.714 936.717,288.934 941.516,288.934 L941.516,288.934 Z" id="Fill-33" fill="#FFFFFF"></path>
        <path d="M963.464,290.018 L976.507,289.36 L976.507,304.03 C977.901,299.204 979.579,295.553 981.54,293.075 C983.501,290.598 985.926,289.36 988.817,289.36 C990.778,289.36 992.345,289.959 993.519,291.159 C994.694,292.36 995.281,293.966 995.281,295.979 C995.281,297.604 994.887,298.868 994.1,299.772 C993.313,300.675 992.326,301.126 991.139,301.126 C989.978,301.126 989.043,300.74 988.333,299.965 C987.623,299.191 987.268,298.146 987.268,296.83 C987.268,295.979 987.474,295.179 987.887,294.43 C988.275,293.759 988.468,293.36 988.468,293.231 C988.468,292.843 988.223,292.65 987.733,292.65 C986.674,292.65 985.475,293.269 984.133,294.507 C982.275,296.237 980.843,298.611 979.837,301.63 C978.289,306.326 977.514,310.08 977.514,312.894 L977.514,320.673 C977.514,321.551 977.824,322.222 978.443,322.686 C979.062,323.151 980.121,323.383 981.617,323.383 L986.223,323.383 L986.223,326.286 L963.696,326.286 L963.696,323.383 L967.296,323.383 C968.508,323.383 969.424,323.144 970.044,322.667 C970.663,322.19 970.972,321.616 970.972,320.945 L970.972,297.836 C970.972,296.081 970.598,294.798 969.85,293.985 C969.102,293.172 968.031,292.766 966.637,292.766 L963.464,292.766 L963.464,290.018" id="Fill-34" fill="#FFFFFF"></path>
        <path d="M1008.6,268.38 C1009.76,268.38 1010.78,268.819 1011.65,269.697 C1012.53,270.574 1012.97,271.606 1012.97,272.793 C1012.97,273.954 1012.54,274.96 1011.69,275.812 C1010.84,276.663 1009.82,277.089 1008.63,277.089 C1007.45,277.089 1006.42,276.658 1005.56,275.793 C1004.69,274.928 1004.26,273.915 1004.26,272.754 C1004.26,271.593 1004.7,270.574 1005.58,269.697 C1006.45,268.819 1007.46,268.38 1008.6,268.38 Z M998.532,290.018 L1012.97,289.592 L1012.97,320.789 C1012.97,321.641 1013.18,322.247 1013.59,322.609 C1014.18,323.125 1014.93,323.383 1015.83,323.383 L1019.94,323.383 L1019.94,326.286 L999.306,326.286 L999.306,323.383 L1003.14,323.383 C1004.27,323.383 1005.11,323.106 1005.63,322.551 C1006.16,321.996 1006.43,321.19 1006.43,320.131 L1006.43,297.294 C1006.43,295.85 1006.02,294.759 1005.19,294.024 C1004.36,293.288 1003.14,292.92 1001.51,292.92 L998.532,292.92 L998.532,290.018 L998.532,290.018 Z" id="Fill-35" fill="#FFFFFF"></path>
        <path d="M1033.76,275.232 L1036.35,275.232 L1036.35,290.018 L1048.08,290.018 L1048.08,293.578 L1036.35,293.578 L1036.35,316.841 C1036.35,318.854 1036.83,320.396 1037.78,321.467 C1038.74,322.538 1039.95,323.074 1041.42,323.074 C1043.17,323.074 1044.67,322.26 1045.91,320.635 C1047.15,319.009 1047.87,316.325 1048.08,312.583 L1050.67,312.583 C1050.52,317.409 1049.42,320.99 1047.38,323.324 C1045.34,325.66 1042.7,326.827 1039.44,326.827 C1036.45,326.827 1034.11,326.009 1032.42,324.37 C1030.73,322.732 1029.88,320.583 1029.88,317.925 L1029.88,293.578 L1023.58,293.578 L1023.58,290.869 C1026.45,290.379 1028.64,289.179 1030.14,287.27 C1032.37,284.406 1033.57,280.393 1033.76,275.232" id="Fill-36" fill="#FFFFFF"></path>
        <path d="M1054.23,290.018 L1071.61,290.018 L1071.61,292.65 L1069.98,292.65 C1068.46,292.65 1067.42,292.85 1066.87,293.249 C1066.31,293.65 1066.04,294.224 1066.04,294.972 C1066.04,295.308 1066.11,295.643 1066.27,295.979 L1076.37,317.771 L1083.88,299.695 C1084.42,298.405 1084.69,297.14 1084.69,295.901 C1084.69,294.947 1084.32,294.204 1083.57,293.675 C1082.82,293.147 1081.33,292.805 1079.08,292.65 L1079.08,290.018 L1094.18,290.018 L1094.18,292.65 C1091.26,292.934 1089.3,294.237 1088.29,296.559 L1074.87,327.777 C1072.59,333.079 1070.31,336.724 1068.01,338.711 C1065.69,340.724 1063.2,341.73 1060.54,341.73 C1058.61,341.73 1057.05,341.201 1055.88,340.143 C1054.7,339.085 1054.11,337.782 1054.11,336.234 C1054.11,335.073 1054.48,334.117 1055.2,333.369 C1055.92,332.621 1056.82,332.247 1057.91,332.247 C1058.89,332.247 1059.71,332.57 1060.39,333.214 C1061.06,333.86 1061.39,334.634 1061.39,335.537 C1061.39,335.821 1061.34,336.208 1061.24,336.699 C1061.13,337.085 1061.08,337.369 1061.08,337.55 C1061.08,338.169 1061.48,338.479 1062.28,338.479 C1063.13,338.479 1064.1,338.169 1065.17,337.55 C1066.24,336.93 1067.24,335.937 1068.17,334.57 C1069.09,333.201 1070.72,330.171 1073.05,325.48 L1059.29,295.979 C1058.8,294.947 1058.19,294.179 1057.45,293.675 C1056.72,293.172 1055.65,292.83 1054.23,292.65 L1054.23,290.018" id="Fill-37" fill="#FFFFFF"></path>
        <polyline id="Fill-38" fill="#FAD038" points="175.579 257.512 313.127 326.286 106.804 326.286 175.579 257.512"></polyline>
        <polyline id="Fill-39" fill="#ED9F36" points="175.579 257.512 313.127 326.286 244.353 188.738 175.579 257.512"></polyline>
        <polyline id="Fill-40" fill="#E05E29" points="313.127 119.964 313.127 326.286 244.353 188.738 313.127 119.964"></polyline>
        <polyline id="Fill-41" fill="#21A0BD" points="175.579 257.512 106.804 119.964 106.804 326.286 175.579 257.512"></polyline>
        <polyline id="Fill-42" fill="#742A79" points="175.579 257.512 106.804 119.964 244.353 188.738 175.579 257.512"></polyline>
        <polyline id="Fill-43" fill="#B32530" points="313.127 119.964 106.804 119.964 244.353 188.738 313.127 119.964"></polyline>
    </g>
</svg>