<?xml version="1.0" encoding="UTF-8"?>
<svg width="34px" height="39px" viewBox="0 0 34 39" version="1.1" xmlns="http://www.w3.org/2000/svg" xmlns:xlink="http://www.w3.org/1999/xlink">
    <title>microsoft</title>
    <g id="Page-1" stroke="none" stroke-width="1" fill="none" fill-rule="evenodd">
        <g id="Methodology-Final" transform="translate(-967.000000, -1274.000000)" fill="#D8232A" fill-rule="nonzero">
            <g id="METHODOLOGY" transform="translate(0.000000, 719.000000)">
                <g id="methods" transform="translate(102.000000, 532.000000)">
                    <g id="m---4" transform="translate(787.500000, 0.000000)">
                        <g id="oval+icon" transform="translate(52.000000, 0.000000)">
                            <g id="microsoft" transform="translate(26.153846, 23.538462)">
                                <path d="M20.0072236,21.9996967 L12.5674387,21.9996967 C12.3087124,21.9996967 12.0987317,22.2092087 12.0987317,22.4684036 L12.0987317,27.9639923 C12.0987317,28.1974083 12.2702785,28.3952026 12.501351,28.4280121 L19.9411359,29.4905707 C19.9636339,29.4938517 19.9856631,29.4952578 20.0076923,29.4952578 C20.1197133,29.4952578 20.228922,29.454949 20.3142266,29.3808933 C20.4168734,29.2913703 20.4759305,29.1624759 20.4759305,29.0265509 L20.4759305,22.4684036 C20.4759305,22.2092087 20.2659498,21.9996967 20.0072236,21.9996967 Z M19.5385167,28.4856631 L13.0361456,27.5576234 L13.0361456,22.9371106 L19.5385167,22.9371106 L19.5385167,28.4856631 Z" id="Shape"></path>
                                <path d="M12.1024814,21.999228 L6.05803695,21.999228 C5.79931073,21.999228 5.58933002,22.20874 5.58933002,22.4679349 L5.58933002,27.1053212 C5.58933002,27.3401434 5.76322029,27.5388751 5.99569892,27.5698098 L12.0401434,28.3825476 C12.0607665,28.3853598 12.0818583,28.3867659 12.1024814,28.3867659 C12.2154398,28.3867659 12.3251172,28.3464571 12.4108905,28.2709953 C12.5125999,28.1814723 12.5711883,28.0530466 12.5711883,27.918059 L12.5711883,22.4679349 C12.5711883,22.20874 12.3612076,21.999228 12.1024814,21.999228 Z M11.6337745,27.382327 L6.52674387,26.6952026 L6.52674387,22.9371106 L11.6337745,22.9371106 L11.6337745,27.382327 Z" id="Shape"></path>
                                <path d="M12.4113593,16.0218087 C12.3091811,15.933223 12.1737248,15.8924455 12.0401434,15.9102564 L5.99569892,16.7234629 C5.76322029,16.7548663 5.58933002,16.9531293 5.58933002,17.1879515 L5.58933002,21.5380204 C5.58933002,21.7972153 5.79931073,22.0067273 6.05803695,22.0067273 L12.1024814,22.0067273 C12.3616763,22.0067273 12.5711883,21.7972153 12.571657,21.5384891 L12.571657,16.374745 C12.571657,16.2397574 12.5130687,16.110863 12.4113593,16.0218087 Z M11.6337745,21.0693135 L6.52674387,21.0693135 L6.52674387,17.5976013 L11.6337745,16.910477 L11.6337745,21.0693135 Z" id="Shape"></path>
                                <path d="M20.3142266,14.9119107 C20.2115798,14.8233251 20.0761235,14.783485 19.9406672,14.8022333 L12.5008823,15.866198 C12.2702785,15.8990074 12.0987317,16.0968018 12.0987317,16.3302178 L12.0987317,21.5380204 C12.0987317,21.7972153 12.3087124,22.0067273 12.5674387,22.0067273 L20.0076923,22.0067273 C20.2664185,22.0067273 20.4763992,21.7972153 20.4759313,21.5380204 L20.4759313,15.2662531 C20.4759313,15.1303281 20.4168734,15.000965 20.3142266,14.9119107 Z M19.5385167,21.0693135 L13.0361456,21.0693135 L13.0361456,16.7365867 L19.5385167,15.8071409 L19.5385167,21.0693135 Z" id="Shape"></path>
                                <g id="Group">
                                    <path d="M32.0970499,18.2795699 C31.8383237,18.2795699 31.628343,18.4890819 31.628343,18.7482768 L31.628343,34.807582 L26.8133168,36.5413289 L0.946787979,31.4432037 L0.946787979,13.3094017 L26.8287841,8.21221395 L31.962531,10.0570444 C32.2057899,10.1442239 32.474359,10.0181417 32.5620072,9.77394541 C32.6496554,9.53068652 32.5231045,9.26258616 32.2793769,9.17446926 L27.0242349,7.28604908 C26.944086,7.25745795 26.8583127,7.25089606 26.7748828,7.2673008 L0.387620623,12.4643231 C0.167797077,12.5074442 0.00937413841,12.7000827 0.00937413841,12.9241246 L0.00937413841,31.8294183 C0.00937413841,32.0529915 0.167797077,32.24563 0.387620623,32.2892197 L26.7594155,37.4867108 C26.7894127,37.492804 26.8198787,37.4956162 26.8498759,37.4956162 C26.9037772,37.4956162 26.9576785,37.4867108 27.0087676,37.4674938 L32.2559415,35.5781362 C32.4415495,35.5115798 32.5657568,35.335346 32.5657568,35.1375517 L32.5657568,18.7482768 C32.5657568,18.4890819 32.3557761,18.2795699 32.0970499,18.2795699 Z" id="Path"></path>
                                    <path d="M7.45290874,10.8341605 C7.4838434,10.8341605 7.51477805,10.8308795 7.54571271,10.825255 L8.47562724,10.638241 C8.69451337,10.5946512 8.8519989,10.4024814 8.8519989,10.1789082 L8.8519989,5.83540116 C8.8519989,3.45671354 10.052826,2.76068376 12.5763441,2.17854977 C13.9079404,1.87014061 14.8823821,1.95403915 15.4752964,2.4246209 C15.8324511,2.709126 16.033995,3.12111938 16.1469534,3.56029777 C16.1071133,3.50686518 16.0560243,3.46140061 15.9964985,3.42859112 C15.8797905,3.36484698 15.7419906,3.35219189 15.6163772,3.39671905 C13.7729529,4.03556658 12.5646264,4.69269369 12.5646264,7.87896333 L12.5646264,9.32820513 C12.5646264,9.4683485 12.6279018,9.60239868 12.7366419,9.69098428 C12.8453819,9.7800386 12.9883375,9.81519162 13.1270747,9.7870692 L14.0569892,9.59771161 C14.2754067,9.55365316 14.4319548,9.36195203 14.4319548,9.13884753 L14.4319548,7.88552523 C14.4319548,6.01772815 14.8144196,5.76603253 16.0232148,5.25186104 C16.1492969,5.19842845 16.2430383,5.09390681 16.2847532,4.96829336 L16.2847532,8.57124345 C16.2847532,8.71185553 16.3480287,8.845437 16.4572374,8.93449132 C16.5664461,9.02307692 16.7098704,9.05869865 16.848139,9.03010753 L17.7780535,8.8384064 C17.9960022,8.79387924 18.1520816,8.60217811 18.1520816,8.37954232 L18.1520816,4.9715743 C18.1520816,4.75690653 18.1469258,4.54973808 18.1361456,4.34960022 C18.1666115,4.41287565 18.2111387,4.46912049 18.2673835,4.51317894 C18.3676868,4.5919217 18.4956438,4.62801213 18.6231321,4.60926385 C19.4377447,4.49396195 19.9636339,4.53427075 20.1862696,4.72784671 C20.4745244,4.97860491 20.4721809,5.71072512 20.4693686,6.63782741 L20.4688999,7.72054039 C20.4688999,7.86115247 20.5326441,7.99520265 20.6418528,8.08378825 C20.7505928,8.17237386 20.8940171,8.20752688 21.0327543,8.17940447 L21.9622002,7.98723463 C22.1796802,7.94223876 22.3357596,7.75100634 22.3357596,7.52837055 L22.3357596,6.93405018 C22.3357596,5.04797353 22.1838985,3.82558588 21.4086573,3.15580369 C20.7960573,2.62710229 19.864268,2.49961401 18.292225,2.73115522 C18.164268,2.7499035 18.0499035,2.82067825 17.9758478,2.92707472 C17.9664737,2.94066722 17.9580369,2.95472843 17.9500689,2.96878963 C17.7236835,1.99669148 17.3046595,1.27253929 16.6864351,0.776647367 C15.675903,-0.0337468983 14.2004136,-0.20857458 12.1779432,0.243727599 C9.86393714,0.759773918 6.98420182,1.40237111 6.98420182,5.74681555 L6.98420182,10.3654535 C6.98420182,10.5055969 7.04747725,10.6391784 7.15621726,10.727764 C7.24058451,10.7971326 7.34557486,10.8341605 7.45290874,10.8341605 Z M13.6370278,6.37863248 C13.8966915,5.20874001 14.5144472,4.8084643 15.3642128,4.48177557 C15.3646816,4.49396195 15.3651503,4.50567963 15.3651503,4.5173973 C14.4014888,4.96313758 13.8690378,5.4318445 13.6370278,6.37863248 Z M20.7965261,3.86495726 C20.9718224,4.0163496 21.0983733,4.25070306 21.188365,4.55676868 C21.0997794,4.35006893 20.9755721,4.17149159 20.8021505,4.02009926 C20.4824924,3.74215605 20.0372208,3.60763717 19.4058726,3.60763717 C19.2619796,3.60763717 19.1091811,3.61466777 18.9460711,3.62826027 C18.9432589,3.6170113 18.9409154,3.60529363 18.9381031,3.59404467 C19.8891095,3.49561621 20.4712435,3.58373311 20.7965261,3.86495726 Z M12.3818307,1.1581748 C13.0328646,1.01287565 13.6182796,0.940694789 14.1352633,0.940694789 C14.9709677,0.940694789 15.6285636,1.12958368 16.099614,1.50736146 C16.6475324,1.94700855 16.9901572,2.67069203 17.1345189,3.70372208 C17.011249,2.97253929 16.7211194,2.21792115 16.0578991,1.69062586 C15.2306314,1.03256135 13.9880893,0.889137028 12.3649573,1.26457127 C9.77956989,1.86170389 8.11940998,2.76912049 7.93192721,5.33154122 C8.09456851,2.11527433 10.1793769,1.64984836 12.3818307,1.1581748 Z" id="Shape"></path>
                                </g>
                            </g>
                        </g>
                    </g>
                </g>
            </g>
        </g>
    </g>
</svg>