<?xml version="1.0" encoding="UTF-8"?>
<svg width="41px" height="35px" viewBox="0 0 41 35" version="1.1" xmlns="http://www.w3.org/2000/svg" xmlns:xlink="http://www.w3.org/1999/xlink">
    <title>database</title>
    <g id="Page-1" stroke="none" stroke-width="1" fill="none" fill-rule="evenodd">
        <g id="Methodology-Final" transform="translate(-1233.000000, -1277.000000)" fill="#00A3DA" fill-rule="nonzero">
            <g id="METHODOLOGY" transform="translate(0.000000, 719.000000)">
                <g id="methods" transform="translate(102.000000, 532.000000)">
                    <g id="m---5" transform="translate(1066.000000, 0.000000)">
                        <g id="oval+icon" transform="translate(43.000000, 0.000000)">
                            <g id="database" transform="translate(22.884615, 26.153846)">
                                <path d="M14.8779586,12.6501479 C13.8128467,12.7620297 12.7425691,12.8175805 11.6715976,12.816568 C10.3318302,12.8192832 8.9934155,12.731301 7.66553254,12.5532249 C7.47647164,12.5262685 7.28745071,12.6026104 7.17013929,12.7533044 C7.05282787,12.9039985 7.02518805,13.1059713 7.0976998,13.2826425 C7.17021155,13.4593137 7.33177226,13.5836324 7.52112426,13.6084615 C8.89686335,13.7931016 10.2835261,13.8843755 11.6715976,13.8816568 C12.7803666,13.8827554 13.8884196,13.8252789 14.9911243,13.7094675 C15.2835982,13.6783156 15.4954417,13.4159651 15.4642899,13.1234911 C15.4331381,12.8310171 15.1707876,12.6191736 14.8783136,12.6503254 L14.8779586,12.6501479 Z" id="Path"></path>
                                <path d="M18.3661243,10.9823077 C17.5655401,10.9823077 16.9165385,11.6313094 16.9165385,12.4318935 C16.9165385,13.2324776 17.5655401,13.8814793 18.3661243,13.8814793 C19.1667084,13.8814793 19.8157101,13.2324776 19.8157101,12.4318935 C19.8148296,11.6316744 19.1663434,10.9831882 18.3661243,10.9823077 L18.3661243,10.9823077 Z M18.3661243,12.8163905 C18.1537724,12.8163905 17.9816272,12.6442453 17.9816272,12.4318935 C17.9816272,12.2195416 18.1537724,12.0473964 18.3661243,12.0473964 C18.5784761,12.0473964 18.7506213,12.2195416 18.7506213,12.4318935 C18.7505234,12.6442335 18.5784642,12.8163722 18.3661243,12.816568 L18.3661243,12.8163905 Z" id="Shape"></path>
                                <path d="M7.52121302,21.4033136 C8.89692429,21.5879343 10.2835562,21.6792081 11.6715976,21.6765089 C12.7803682,21.677578 13.8884211,21.6200718 14.9911243,21.5042308 C15.1816392,21.4856896 15.3475476,21.3663296 15.4256888,21.1915907 C15.5038299,21.0168519 15.4821815,20.8136187 15.3689849,20.6592612 C15.2557883,20.5049037 15.0684594,20.4231706 14.8783136,20.4451775 C13.8131986,20.557 12.742921,20.6124915 11.6719527,20.6114201 C10.3321531,20.614124 8.99370771,20.5261121 7.66579882,20.3479882 C7.37437874,20.3081599 7.10584894,20.5121154 7.06602071,20.8035355 C7.02619248,21.0949556 7.23014797,21.3634854 7.52156805,21.4033136 L7.52121302,21.4033136 Z" id="Path"></path>
                                <path d="M18.3661243,21.6765089 C19.1667084,21.6765089 19.8157101,21.0275072 19.8157101,20.2269231 C19.8157101,19.4263389 19.1667084,18.7773373 18.3661243,18.7773373 C17.5655401,18.7773373 16.9165385,19.4263389 16.9165385,20.2269231 C16.917419,21.0271422 17.5659051,21.6756284 18.3661243,21.6765089 L18.3661243,21.6765089 Z M18.3661243,19.842426 C18.5784761,19.842426 18.7506213,20.0145712 18.7506213,20.2269231 C18.7506213,20.4392749 18.5784761,20.6114201 18.3661243,20.6114201 C18.1537724,20.6114201 17.9816272,20.4392749 17.9816272,20.2269231 C17.9818718,20.0146726 18.1538738,19.8426706 18.3661243,19.842426 L18.3661243,19.842426 Z" id="Shape"></path>
                                <path d="M14.8779586,28.2401183 C13.8128476,28.3520017 12.7425683,28.4075229 11.6715976,28.4064497 C10.3318287,28.4091183 8.99341519,28.3211066 7.66553254,28.1430178 C7.47647164,28.1160614 7.28745071,28.1924033 7.17013929,28.3430973 C7.05282787,28.4937914 7.02518805,28.6957642 7.0976998,28.8724354 C7.17021155,29.0491066 7.33177226,29.1734253 7.52112426,29.1982544 C8.89686287,29.3829088 10.2835246,29.4742122 11.6715976,29.4715385 C12.7803706,29.4726087 13.8884251,29.4150728 14.9911243,29.2991716 C15.1816392,29.2806304 15.3475476,29.1612704 15.4256888,28.9865316 C15.5038299,28.8117927 15.4821815,28.6085595 15.3689849,28.454202 C15.2557883,28.2998445 15.0684594,28.2181115 14.8783136,28.2401183 L14.8779586,28.2401183 Z" id="Path"></path>
                                <path d="M18.3661243,26.5722781 C17.7797695,26.5722422 17.2511327,26.9254309 17.0267278,27.4671452 C16.802323,28.0088595 16.9263454,28.6324119 17.3409608,29.0470274 C17.7555762,29.4616428 18.3791286,29.5856652 18.9208429,29.3612603 C19.4625572,29.1368555 19.815746,28.6082187 19.8157101,28.0218639 C19.8148296,27.2216448 19.1663434,26.5731586 18.3661243,26.5722781 L18.3661243,26.5722781 Z M18.3661243,28.4064497 C18.2105658,28.4064856 18.0703046,28.312807 18.01075,28.1691 C17.9511955,28.025393 17.9840771,27.8599612 18.0940609,27.7499521 C18.2040447,27.6399429 18.3694688,27.6070231 18.5131896,27.6665445 C18.6569104,27.7260658 18.7506213,27.8663054 18.7506213,28.0218639 C18.7504257,28.234149 18.5784093,28.4062051 18.3661243,28.4064497 Z" id="Shape"></path>
                                <path d="M34.6337574,2.92899408 C34.8748225,3.90532544 35.7895562,4.70174556 36.8786982,4.70174556 C37.7120704,4.71542113 38.4880576,4.27865214 38.9087415,3.55912361 C39.3294254,2.83959508 39.3294254,1.94913273 38.9087415,1.2296042 C38.4880576,0.510075674 37.7120704,0.0733066856 36.8786982,0.0866702654 C35.8030824,0.0701944533 34.8644089,0.813176514 34.6337574,1.86390533 L27.647929,1.86390533 C27.3538757,1.86390533 27.0710059,2.09751479 27.0710059,2.3916568 L27.0710059,16.0650888 L23.2544379,16.0650888 L23.2544379,5.68739645 C23.2544379,4.37378698 21.9978107,3.18781065 19.6757396,2.34736686 C17.5236391,1.56852071 14.6842012,1.13955621 11.6609467,1.13955621 C8.63769231,1.13955621 5.77011834,1.56852071 3.61801775,2.34736686 C1.29585799,3.18781065 0,4.3739645 0,5.68739645 L0,28.5634615 C0,29.8775148 1.3008284,31.0638462 3.62263314,31.9040237 C5.77428994,32.6825148 8.63600592,33.1111243 11.660503,33.1111243 C14.685,33.1111243 17.5190237,32.6823373 19.6705917,31.9040237 C21.9923964,31.0638462 23.2544379,29.8775148 23.2544379,28.5634615 L23.2544379,17.1301775 L27.0710059,17.1301775 L27.0710059,30.7940237 C27.0710059,31.0881657 27.3538757,31.3313609 27.647929,31.3313609 L34.6337574,31.3313609 C34.8748225,32.3076923 35.7895562,33.1041124 36.8786982,33.1041124 C37.7120704,33.117788 38.4880576,32.681019 38.9087415,31.9614905 C39.3294254,31.2419619 39.3294254,30.3514996 38.9087415,29.6319711 C38.4880576,28.9124425 37.7120704,28.4756735 36.8786982,28.4893491 C35.8030824,28.4725613 34.8644089,29.2155434 34.6337574,30.2662722 L28.1360947,30.2662722 L28.1360947,17.1301775 L34.6337574,17.1301775 C34.8748225,18.1065089 35.7895562,18.902929 36.8786982,18.902929 C37.7120704,18.9166046 38.4880576,18.4798356 38.9087415,17.760307 C39.3294254,17.0407785 39.3294254,16.1503162 38.9087415,15.4307876 C38.4880576,14.7112591 37.7120704,14.2744901 36.8786982,14.2881657 C35.8030824,14.2713779 34.8644089,15.0143599 34.6337574,16.0650888 L28.1360947,16.0650888 L28.1360947,2.92899408 L34.6337574,2.92899408 Z M36.8786982,1.14905325 C37.5649692,1.14905325 38.1213018,1.70538581 38.1213018,2.3916568 C38.1213018,3.0779278 37.5649692,3.63426036 36.8786982,3.63426036 C36.1924272,3.63426036 35.6360947,3.0779278 35.6360947,2.3916568 C35.6368773,1.70571024 36.1927517,1.14983585 36.8786982,1.14905325 L36.8786982,1.14905325 Z M22.1893491,13.2951479 C22.1893491,14.9423964 17.8516864,16.7778107 11.6272189,16.7778107 C5.40275148,16.7778107 1.06508876,14.9423964 1.06508876,13.2951479 L1.06508876,7.6547929 C1.68639053,8.17224852 2.54494083,8.63707101 3.62307692,9.02733728 C5.77517751,9.80609467 8.63680473,10.2350592 11.660503,10.2350592 C14.6842012,10.2350592 17.5184911,9.80609467 19.6701479,9.02733728 C20.7483728,8.63680473 21.6568047,8.17224852 22.1893491,7.6547929 L22.1893491,13.2951479 Z M1.06508876,20.7443787 L1.06508876,15.2632544 C1.68639053,15.7807101 2.54467456,16.2455325 3.62263314,16.6356213 C5.77428994,17.4141124 8.63600592,17.8427219 11.660503,17.8427219 C14.685,17.8427219 17.5190237,17.4139349 19.6705917,16.6356213 C20.7486391,16.2455325 21.6568047,15.7810651 22.1893491,15.2632544 L22.1893491,20.9028994 C22.1893491,22.5501479 17.8516864,24.3855621 11.6272189,24.3855621 C5.40275148,24.3855621 1.06508876,22.5501479 1.06508876,20.9028994 L1.06508876,20.7443787 Z M11.6715976,2.20464497 C17.8960651,2.20464497 22.2337278,4.04014793 22.2337278,5.68739645 C22.2337278,7.33464497 17.8960651,9.16997041 11.6715976,9.16997041 C5.44713018,9.16997041 1.10946746,7.33464497 1.10946746,5.68739645 C1.10946746,4.04014793 5.44713018,2.20464497 11.6715976,2.20464497 Z M11.6272189,32.046213 C5.40275148,32.046213 1.06508876,30.2107988 1.06508876,28.5634615 L1.06508876,22.8710947 C1.68639053,23.3885503 2.54467456,23.853284 3.62263314,24.2433728 C5.77428994,25.0219527 8.63600592,25.4504734 11.660503,25.4504734 C14.685,25.4504734 17.5190237,25.0217751 19.6705917,24.2433728 C20.7486391,23.853284 21.6568047,23.3885503 22.1893491,22.8710947 L22.1893491,28.5634615 C22.1893491,30.2107988 17.8516864,32.046213 11.6272189,32.046213 Z M36.8786982,29.5514201 C37.5649692,29.5514201 38.1213018,30.1077527 38.1213018,30.7940237 C38.1213018,31.4802947 37.5649692,32.0366272 36.8786982,32.0366272 C36.1924272,32.0366272 35.6360947,31.4802947 35.6360947,30.7940237 C35.6368773,30.1080771 36.1927517,29.5522027 36.8786982,29.5514201 L36.8786982,29.5514201 Z M36.8786982,15.3502367 C37.5649692,15.3502367 38.1213018,15.9065692 38.1213018,16.5928402 C38.1213018,17.2791112 37.5649692,17.8354438 36.8786982,17.8354438 C36.1924272,17.8354438 35.6360947,17.2791112 35.6360947,16.5928402 C35.6368773,15.9068937 36.1927517,15.3510193 36.8786982,15.3502367 L36.8786982,15.3502367 Z" id="Shape"></path>
                            </g>
                        </g>
                    </g>
                </g>
            </g>
        </g>
    </g>
</svg>