<?xml version="1.0" encoding="UTF-8"?>
<svg width="41px" height="39px" viewBox="0 0 41 39" version="1.1" xmlns="http://www.w3.org/2000/svg" xmlns:xlink="http://www.w3.org/1999/xlink">
    <title>book</title>
    <g id="Page-1" stroke="none" stroke-width="1" fill="none" fill-rule="evenodd">
        <g id="Methodology-Final" transform="translate(-165.000000, -1274.000000)" fill="#84BF41" fill-rule="nonzero">
            <g id="METHODOLOGY" transform="translate(0.000000, 719.000000)">
                <g id="methods" transform="translate(102.000000, 532.000000)">
                    <g id="oval+icon" transform="translate(41.000000, 0.000000)">
                        <g id="book" transform="translate(22.884615, 23.538462)">
                            <path d="M37.137425,11.8393996 L36.0947795,11.8393996 L36.0947795,11.6594325 C36.0929772,10.5043417 35.1565271,9.56867636 34.0014353,9.5678424 L31.5649015,9.5678424 C31.1041173,8.01233265 29.881019,6.79975887 28.3215854,6.35243433 C28.1627338,5.01920914 27.4454453,3.81606831 26.3481603,3.04231835 C25.2508754,2.2685684 23.8767329,1.99693767 22.5675797,2.295 C20.750053,0.324631569 17.9019529,-0.313611926 15.4173734,0.692678236 C13.4564978,-0.444043532 10.9589133,0.0263466244 9.5458899,1.79850187 C8.13286653,3.57065711 8.23042608,6.11027867 9.77523921,7.76880863 C9.34974778,8.31064717 9.03787367,8.932714 8.85825985,9.59782364 L5.33243433,9.5678424 C4.17731138,9.56863242 3.24081273,10.5043106 3.23901032,11.6594325 L3.23901032,11.8393996 L2.09334428,11.8393996 C0.938252454,11.8402336 0.00180233206,12.775899 0,13.9309897 L0,32.3574109 C0.00166980814,33.5121831 0.937614706,34.4477713 2.09238743,34.4490009 L13.4008959,34.4724437 L13.4008959,36.934334 C13.401215,37.1827607 13.5493383,37.407169 13.7776437,37.5051108 C14.0059491,37.6030525 14.2706395,37.5555009 14.4508771,37.3847702 L15.406848,36.4761632 L16.3626595,37.3846904 C16.5428808,37.5555009 16.8075882,37.6030576 17.0359202,37.5051292 C17.2642523,37.4072007 17.4123997,37.1827799 17.4127205,36.934334 L17.4127205,34.4487617 L37.137425,34.4487617 C38.2924236,34.447928 39.2288352,33.5124082 39.2307692,32.3574109 L39.2307692,13.9309897 C39.2289669,12.775899 38.2925168,11.8402336 37.137425,11.8393996 L37.137425,11.8393996 Z M34.0014353,10.524531 C34.6283296,10.5249091 35.1367444,11.0325393 35.1379315,11.6594325 L35.1379315,30.197167 L21.4085178,30.197167 C21.2187011,30.1967391 21.0362944,30.2708069 20.9005113,30.4034475 L20.1339165,31.149151 L19.9784287,15.6285178 L27.0248171,15.6285178 C29.6371665,15.6289149 31.7557091,13.5124424 31.7578659,10.9000938 C31.7578659,10.7738696 31.7525235,10.648682 31.7425563,10.524531 L34.0014353,10.524531 Z M13.1309053,1.03657134 C14.5717078,1.0325861 15.8774007,1.88429947 16.4544005,3.20452645 C17.0314002,4.52475342 16.7695903,6.06153746 15.7879925,7.11623827 C15.3996473,6.26178422 14.5481326,5.71278787 13.6095685,5.71174484 L12.6527205,5.71174484 C11.7140986,5.71258168 10.8624706,6.26159983 10.4742167,7.11615854 C9.49272354,6.0615054 9.23092046,4.52485292 9.80781136,3.20469423 C10.3847023,1.88453555 11.6902084,1.03277528 13.1309053,1.03657134 L13.1309053,1.03657134 Z M15.0015432,7.75605066 C13.8508671,8.44966507 12.4108636,8.44966507 11.2601876,7.75605066 C11.4202023,7.11730788 11.9940006,6.66913992 12.6524812,6.66859287 L13.6093293,6.66859287 C14.2677409,6.66929035 14.8414347,7.11740238 15.0015432,7.75605066 L15.0015432,7.75605066 Z M10.4979784,8.39889306 C12.4473637,9.77601096 15.1278334,9.42336448 16.6546991,7.58890597 C18.1815647,5.75444746 18.0418516,3.05449232 16.3337946,1.38742964 C18.4140319,0.796594268 20.6472764,1.48296097 22.0366088,3.14013602 C22.1593736,3.28672893 22.3576332,3.34614722 22.540788,3.29123827 C23.6573777,2.95827646 24.8651443,3.15935438 25.8136263,3.83612462 C26.7621083,4.51289486 27.3451037,5.58957906 27.3934428,6.75375235 C27.4020442,6.97439081 27.5605259,7.16048321 27.7769794,7.20410882 C29.6750995,7.58995804 30.9723633,9.35087998 30.7782492,11.2780695 C30.584135,13.2052589 28.9617578,14.6721031 27.0248171,14.6716699 L13.4097467,14.6716699 C11.3264548,14.6705739 9.6371591,12.9833827 9.63346623,10.9000938 C9.64679391,9.99537124 9.94978941,9.11874676 10.4979784,8.39889306 L10.4979784,8.39889306 Z M4.19545966,11.6594325 C4.19615866,11.0339857 4.70228611,10.5267534 5.32772983,10.5246904 L8.69113039,10.5533161 C8.68243902,10.6691745 8.67645872,10.7850328 8.67645872,10.9002533 C8.68094248,13.5117032 10.7982935,15.6268071 13.4097467,15.6285178 L19.0215009,15.6285178 L19.1768293,31.1270638 L18.4328002,30.4034475 C18.2970558,30.2707972 18.1146692,30.1967259 17.9248734,30.197167 L5.33203565,30.197167 C4.70512838,30.1969484 4.19669066,29.689331 4.19545966,29.062425 L4.19545966,11.6594325 Z M2.09334428,33.4919137 C1.46654317,33.4916953 0.958166833,32.9842106 0.95684803,32.3574109 L0.95684803,13.9309897 C0.958035125,13.3040965 1.46644999,12.7964664 2.09334428,12.7962477 L3.23861163,12.7962477 L3.23861163,29.0626642 C3.24058962,30.2176743 4.17702408,31.1531814 5.33203565,31.154015 L13.4008959,31.154015 L13.4008959,33.5153565 L2.09334428,33.4919137 Z M15.8351173,35.5633302 C15.5951997,35.3349827 15.2183368,35.3349827 14.9784193,35.5633302 L14.3577439,36.1533865 L14.3577439,31.1538555 L16.4558724,31.1538555 L16.4558724,36.1533865 L15.8351173,35.5633302 Z M38.2739212,32.3574109 C38.2727341,32.9843041 37.7643192,33.4919342 37.137425,33.4921529 L17.4127205,33.4921529 L17.4127205,31.1542542 L17.8321388,31.1542542 L19.1586492,32.4444841 C19.440635,32.7216708 19.8927561,32.7216708 20.174742,32.4444841 L21.5012523,31.1542542 L35.4566417,31.1542542 C35.808743,31.1537711 36.0940572,30.8684569 36.0945403,30.5163555 L36.0945403,12.7962477 L37.1371857,12.7962477 C37.7641734,12.7962477 38.2727339,13.3040031 38.2739212,13.9309897 L38.2739212,32.3574109 Z" id="Shape"></path>
                            <path d="M11.26553,19.3681989 L15.943879,19.3681989 C16.2081053,19.3681989 16.422303,19.1540011 16.422303,18.8897749 C16.422303,18.6255486 16.2081053,18.4113508 15.943879,18.4113508 L11.26553,18.4113508 C11.0013037,18.4113508 10.787106,18.6255486 10.787106,18.8897749 C10.787106,19.1540011 11.0013037,19.3681989 11.26553,19.3681989 L11.26553,19.3681989 Z" id="Path"></path>
                            <path d="M6.84648687,19.3681989 L9.51266417,19.3681989 C9.77689045,19.3681989 9.99108818,19.1540011 9.99108818,18.8897749 C9.99108818,18.6255486 9.77689045,18.4113508 9.51266417,18.4113508 L6.84648687,18.4113508 C6.58226058,18.4113508 6.36806285,18.6255486 6.36806285,18.8897749 C6.36806285,19.1540011 6.58226058,19.3681989 6.84648687,19.3681989 L6.84648687,19.3681989 Z" id="Path"></path>
                            <path d="M15.943879,22.4443856 L14.7667964,22.4443856 C14.5025701,22.4443856 14.2883724,22.6585833 14.2883724,22.9228096 C14.2883724,23.1870359 14.5025701,23.4012336 14.7667964,23.4012336 L15.943879,23.4012336 C16.2081053,23.4012336 16.422303,23.1870359 16.422303,22.9228096 C16.422303,22.6585833 16.2081053,22.4443856 15.943879,22.4443856 L15.943879,22.4443856 Z" id="Path"></path>
                            <path d="M6.84648687,23.4012336 L12.9899296,23.4012336 C13.2541559,23.4012336 13.4683537,23.1870359 13.4683537,22.9228096 C13.4683537,22.6585833 13.2541559,22.4443856 12.9899296,22.4443856 L6.84648687,22.4443856 C6.58226058,22.4443856 6.36806285,22.6585833 6.36806285,22.9228096 C6.36806285,23.1870359 6.58226058,23.4012336 6.84648687,23.4012336 Z" id="Path"></path>
                            <path d="M15.943879,26.4772608 L10.1708959,26.4772608 C9.90666958,26.4772608 9.69247186,26.6914585 9.69247186,26.9556848 C9.69247186,27.2199111 9.90666958,27.4341088 10.1708959,27.4341088 L15.943879,27.4341088 C16.2081053,27.4341088 16.422303,27.2199111 16.422303,26.9556848 C16.422303,26.6914585 16.2081053,26.4772608 15.943879,26.4772608 L15.943879,26.4772608 Z" id="Path"></path>
                            <path d="M6.84648687,27.4341088 L8.40750469,27.4341088 C8.67173098,27.4341088 8.88592871,27.2199111 8.88592871,26.9556848 C8.88592871,26.6914585 8.67173098,26.4772608 8.40750469,26.4772608 L6.84648687,26.4772608 C6.58226058,26.4772608 6.36806285,26.6914585 6.36806285,26.9556848 C6.36806285,27.2199111 6.58226058,27.4341088 6.84648687,27.4341088 Z" id="Path"></path>
                            <path d="M30.450333,18.8897749 C30.450333,19.1540011 30.6645307,19.3681989 30.928757,19.3681989 L32.0929221,19.3681989 C32.3571484,19.3681989 32.5713462,19.1540011 32.5713462,18.8897749 C32.5713462,18.6255486 32.3571484,18.4113508 32.0929221,18.4113508 L30.928757,18.4113508 C30.6645307,18.4113508 30.450333,18.6255486 30.450333,18.8897749 L30.450333,18.8897749 Z" id="Path"></path>
                            <path d="M22.9957692,19.3681989 L29.1979784,19.3681989 C29.4622047,19.3681989 29.6764024,19.1540011 29.6764024,18.8897749 C29.6764024,18.6255486 29.4622047,18.4113508 29.1979784,18.4113508 L22.9957692,18.4113508 C22.7315429,18.4113508 22.5173452,18.6255486 22.5173452,18.8897749 C22.5173452,19.1540011 22.7315429,19.3681989 22.9957692,19.3681989 Z" id="Path"></path>
                            <path d="M32.0932411,22.4443856 L26.3420263,22.4443856 C26.0778,22.4443856 25.8636023,22.6585833 25.8636023,22.9228096 C25.8636023,23.1870359 26.0778,23.4012336 26.3420263,23.4012336 L32.0932411,23.4012336 C32.3574674,23.4012336 32.5716651,23.1870359 32.5716651,22.9228096 C32.5716651,22.6585833 32.3574674,22.4443856 32.0932411,22.4443856 L32.0932411,22.4443856 Z" id="Path"></path>
                            <path d="M22.9957692,23.4012336 L24.4481848,23.4012336 C24.7124111,23.4012336 24.9266088,23.1870359 24.9266088,22.9228096 C24.9266088,22.6585833 24.7124111,22.4443856 24.4481848,22.4443856 L22.9957692,22.4443856 C22.7315429,22.4443856 22.5173452,22.6585833 22.5173452,22.9228096 C22.5173452,23.1870359 22.7315429,23.4012336 22.9957692,23.4012336 L22.9957692,23.4012336 Z" id="Path"></path>
                            <path d="M32.0932411,26.4772608 L29.0676876,26.4772608 C28.8034613,26.4772608 28.5892636,26.6914585 28.5892636,26.9556848 C28.5892636,27.2199111 28.8034613,27.4341088 29.0676876,27.4341088 L32.0932411,27.4341088 C32.3574674,27.4341088 32.5716651,27.2199111 32.5716651,26.9556848 C32.5716651,26.6914585 32.3574674,26.4772608 32.0932411,26.4772608 L32.0932411,26.4772608 Z" id="Path"></path>
                            <path d="M27.1393996,26.4772608 L22.9957692,26.4772608 C22.7315429,26.4772608 22.5173452,26.6914585 22.5173452,26.9556848 C22.5173452,27.2199111 22.7315429,27.4341088 22.9957692,27.4341088 L27.1393996,27.4341088 C27.4036259,27.4341088 27.6178236,27.2199111 27.6178236,26.9556848 C27.6178236,26.6914585 27.4036259,26.4772608 27.1393996,26.4772608 Z" id="Path"></path>
                            <path d="M13.1309053,5.37429644 C14.1437727,5.37429644 14.964864,4.55320515 14.964864,3.54033771 C14.964864,2.52747028 14.1437727,1.70637899 13.1309053,1.70637899 C12.1180378,1.70637899 11.2969465,2.52747028 11.2969465,3.54033771 C11.298089,4.55273153 12.1185114,5.37315393 13.1309053,5.37429644 L13.1309053,5.37429644 Z M13.1309053,2.66322702 C13.6153201,2.66322702 14.0080159,3.05592285 14.0080159,3.54033771 C14.0080159,4.02475257 13.6153201,4.41744841 13.1309053,4.41744841 C12.6464904,4.41744841 12.2537946,4.02475257 12.2537946,3.54033771 C12.2543219,3.05614146 12.646709,2.66375437 13.1309053,2.66322702 L13.1309053,2.66322702 Z" id="Shape"></path>
                        </g>
                    </g>
                </g>
            </g>
        </g>
    </g>
</svg>