<?xml version="1.0" encoding="UTF-8"?>
<svg width="34px" height="37px" viewBox="0 0 34 37" version="1.1" xmlns="http://www.w3.org/2000/svg" xmlns:xlink="http://www.w3.org/1999/xlink">
    <title>headphone</title>
    <g id="Page-1" stroke="none" stroke-width="1" fill="none" fill-rule="evenodd">
        <g id="Methodology-Final" transform="translate(-689.000000, -1276.000000)" fill="#4A4D4D" fill-rule="nonzero">
            <g id="METHODOLOGY" transform="translate(0.000000, 719.000000)">
                <g id="methods" transform="translate(102.000000, 532.000000)">
                    <g id="m---3" transform="translate(506.000000, 0.000000)">
                        <g id="oval+icon" transform="translate(55.000000, 0.000000)">
                            <g id="headphone" transform="translate(26.000000, 25.000000)">
                                <path d="M5.21281465,19.4974828 C4.95499751,19.4974828 4.74599542,19.7064849 4.74599542,19.9643021 L4.74599542,20.4544622 C4.74599542,20.7122794 4.95499751,20.9212815 5.21281465,20.9212815 C5.47063178,20.9212815 5.67963387,20.7122794 5.67963387,20.4544622 L5.67963387,19.9643021 C5.67963387,19.7064849 5.47063178,19.4974828 5.21281465,19.4974828 L5.21281465,19.4974828 Z" id="Path"></path>
                                <path d="M5.21281465,21.4659039 C4.95499751,21.4659039 4.74599542,21.674906 4.74599542,21.9327231 L4.74599542,26.9899314 C4.74599542,27.2477485 4.95499751,27.4567506 5.21281465,27.4567506 C5.47063178,27.4567506 5.67963387,27.2477485 5.67963387,26.9899314 L5.67963387,21.9327231 C5.67963387,21.674906 5.47063178,21.4659039 5.21281465,21.4659039 Z" id="Path"></path>
                                <path d="M30.1098398,18.2688146 L30.1098398,13.2265446 C30.1098398,5.97271854 24.2150023,0.0712677346 16.9610984,0.0712677346 C9.70719451,0.0712677346 3.81235698,5.97232952 3.81235698,13.2265446 L3.81235698,18.2692037 C1.15333514,19.2658986 -0.411897389,22.0221028 0.0942957663,24.8163051 C0.600488922,27.6105073 3.03313657,29.6424621 5.87281922,29.6430206 L6.9215286,29.6430206 C7.25562037,30.2864506 7.91501869,30.695477 8.63989016,30.7089245 C9.17626019,30.713756 9.69211721,30.5030591 10.0717325,30.1241021 C10.4513477,29.7451451 10.6629395,29.2296545 10.6590389,28.6932769 L10.6590389,18.7858947 C10.6619794,18.252441 10.4491267,17.7404574 10.0688623,17.3663178 C9.68859788,16.9921782 9.17322579,16.7876663 8.63989016,16.7992677 C7.88955606,16.8121831 7.24799085,17.2723112 6.9215286,17.8947368 L6.84668192,17.8947368 L6.84668192,13.3412265 C6.84668192,7.76273684 11.3826087,3.22377574 16.9610984,3.22377574 C22.5395881,3.22377574 27.0755149,7.76250343 27.0755149,13.3412265 L27.0755149,17.8947368 L27.0349016,17.8947368 C26.7011259,17.194508 26.033341,16.7989565 25.2614554,16.7989565 C24.7326658,16.7964117 24.2246352,17.0045681 23.8496559,17.3774158 C23.4746767,17.7502635 23.2636276,18.2570993 23.2631579,18.7858947 L23.2631579,28.6932769 C23.2565277,29.6159469 23.8813959,30.4236341 24.7761592,30.6489399 C25.6709225,30.8742457 26.6037812,30.4588019 27.0349016,29.6430206 L28.0493776,29.6430206 C28.4939657,29.6427218 28.9370768,29.5918486 29.3701648,29.4913822 C29.0560732,32.0850297 26.8226545,34.1556064 24.1210938,34.1556064 L19.6842105,34.1556064 L19.6842105,33.4158535 C19.6842105,33.1580915 19.4847231,32.9107551 19.2269611,32.9107551 L15.4713227,32.9107551 C14.5259932,32.9107551 13.7596522,33.6770961 13.7596522,34.6224256 C13.7596522,35.5677551 14.5259932,36.3341176 15.4713227,36.3341176 L19.2269611,36.3341176 C19.3490524,36.3352854 19.4664519,36.2871278 19.5525382,36.2005435 C19.6386245,36.1139591 19.6861041,35.9962838 19.6842105,35.8742014 L19.6842105,35.0892449 L24.1210938,35.0892449 C27.4329785,35.0819141 30.1615802,32.4872606 30.3354691,29.1799359 C32.550759,28.2440245 33.971738,26.052241 33.9220186,23.6478767 C33.8722991,21.2435125 32.3619265,19.1123459 30.1098398,18.2688146 Z M26.2974828,28.6932769 C26.2974828,29.2733654 25.8272281,29.7436201 25.2471396,29.7436201 C24.667051,29.7436201 24.1967963,29.2733654 24.1967963,28.6932769 L24.1967963,18.7858947 C24.1967963,18.2058062 24.667051,17.7355515 25.2471396,17.7355515 C25.8272281,17.7355515 26.2974828,18.2058062 26.2974828,18.7858947 L26.2974828,28.6932769 Z M16.4942792,35.4004577 L15.4713227,35.4004577 C15.0416274,35.4004577 14.6932906,35.0521209 14.6932906,34.6224256 C14.6932906,34.1927304 15.0416274,33.8443936 15.4713227,33.8443936 L16.4942792,33.8443936 L16.4942792,35.4004577 Z M18.7505721,35.4004577 L17.4279176,35.4004577 L17.4279176,33.8443936 L18.7505721,33.8443936 L18.7505721,35.4004577 Z M7.15789474,20.6956522 C7.41571187,20.6956522 7.62471396,20.4866501 7.62471396,20.228833 L7.62471396,18.797254 C7.61889633,18.2212294 8.07048257,17.7441498 8.64595881,17.718357 C8.93224918,17.7113978 9.2090452,17.8212402 9.41266248,18.022612 C9.61627975,18.2239838 9.72918469,18.4995448 9.72540046,18.7858947 L9.72540046,28.681762 C9.73121812,29.2577437 9.27966668,29.7347884 8.70423341,29.7605812 C8.41797075,29.7675601 8.1411911,29.6577589 7.93756391,29.4564358 C7.73393672,29.2551127 7.62099301,28.9796004 7.62471396,28.6932769 L7.62471396,23.3409611 C7.62471396,23.083144 7.41571187,22.8741419 7.15789474,22.8741419 C6.9000776,22.8741419 6.69107551,23.083144 6.69107551,23.3409611 L6.69107551,28.6693135 L6.69107551,28.7093822 L5.87258581,28.7093822 C3.14402111,28.7093822 0.93208238,26.4974434 0.93208238,23.7688787 C0.93208238,21.040314 3.14402111,18.8283753 5.87258581,18.8283753 L6.69107551,18.8283753 L6.69107551,20.228833 C6.69107551,20.4866501 6.9000776,20.6956522 7.15789474,20.6956522 L7.15789474,20.6956522 Z M16.9610984,2.2901373 C10.8674737,2.2901373 5.91304348,7.24760183 5.91304348,13.3412265 L5.91304348,17.8947368 L5.87281922,17.8947368 C5.49455908,17.8949393 5.11720152,17.9316511 4.74599542,18.0043616 L4.74599542,13.2265446 C4.74599542,6.48746453 10.2220183,1.00490618 16.9610984,1.00490618 C23.7001785,1.00490618 29.1762014,6.48707551 29.1762014,13.2265446 L29.1762014,18.0047506 C28.805008,17.9319095 28.4276503,17.8950675 28.0493776,17.8947368 L28.0091533,17.8947368 L28.0091533,13.3412265 C28.0091533,7.24760183 23.0547231,2.2901373 16.9610984,2.2901373 Z M28.0493776,28.7093822 L27.2311213,28.7093822 L27.2311213,18.8283753 L28.0493776,18.8283753 C30.7779423,18.8283753 32.989881,21.040314 32.989881,23.7688787 C32.989881,26.4974434 30.7779423,28.7093822 28.0493776,28.7093822 Z" id="Shape"></path>
                            </g>
                        </g>
                    </g>
                </g>
            </g>
        </g>
    </g>
</svg>