<?xml version="1.0" encoding="UTF-8"?>
<svg width="34px" height="36px" viewBox="0 0 34 36" version="1.1" xmlns="http://www.w3.org/2000/svg" xmlns:xlink="http://www.w3.org/1999/xlink">
    <title>mail (1)</title>
    <g id="Page-1" stroke="none" stroke-width="1" fill="none" fill-rule="evenodd">
        <g id="Methodology-Final" transform="translate(-423.000000, -1275.000000)" fill="#164A84" fill-rule="nonzero">
            <g id="METHODOLOGY" transform="translate(0.000000, 719.000000)">
                <g id="methods" transform="translate(102.000000, 532.000000)">
                    <g id="m---2" transform="translate(245.500000, 0.000000)">
                        <g id="oval+icon" transform="translate(50.000000, 0.000000)">
                            <g id="mail-(1)" transform="translate(26.153846, 24.846154)">
                                <path d="M32.3488908,13.3341781 L26.3326322,8.23985242 L26.3326322,7.28960914 C26.33294,7.14313381 26.2744729,7.00281291 26.1707708,6.89941857 L19.4325982,0.175093383 C19.4310596,0.173554796 19.4292133,0.172631613 19.4276747,0.171093026 C19.3239726,0.0618519555 19.1796513,0 19.0291756,0 C19.0082506,0 18.9876332,0.00123088508 18.9670159,0.00369265524 L18.9574766,0.00276948749 C18.9390132,0.000923167748 18.92055,0 18.9020867,0 L9.37318987,0 C7.68964679,0.00184632762 6.32551842,1.36628244 6.32336435,3.04982552 L6.32336435,8.24323737 L0.339724282,13.3181766 C0.145552141,13.4086466 0.0212327479,13.6031265 0.0212327479,13.8173005 L0.0212327479,30.9232181 C0.0236945181,32.9671028 1.67985043,34.6232587 3.72373506,34.6257204 L28.9322615,34.6257204 C30.9761462,34.6232587 32.6326098,32.9671028 32.6347638,30.9232181 L32.6347638,13.8173005 C32.6347638,13.6160507 32.525215,13.4308026 32.3488908,13.3341781 Z M31.2303239,13.8320711 L26.3326322,17.9860005 L26.3326322,9.6849115 L31.2303239,13.8320711 Z M19.5806121,1.8804847 L24.4623024,6.75202014 L21.5272568,6.75202014 C20.4526942,6.75078918 19.581843,5.87993802 19.5806121,4.80506765 L19.5806121,1.8804847 Z M9.37318987,1.10287303 L18.4777391,1.10287303 L18.4777391,4.80537535 C18.4795854,6.48891843 19.8437138,7.8533545 21.5272568,7.85520087 L25.2297592,7.85520087 L25.2297592,18.9214731 L18.0140031,25.0414337 C17.045912,25.8670499 15.6214702,25.8676654 14.6527637,25.0429724 L7.42623738,18.9242426 L7.42623738,3.04982552 C7.42746827,1.97495507 8.2986272,1.10410392 9.37318987,1.10287303 Z M6.32336435,9.68921964 L6.32336435,17.9903086 L1.42567262,13.843149 L6.32336435,9.68921964 Z M3.72373506,33.5228478 C3.15475846,33.5231551 2.60147565,33.3360606 2.14974075,32.9901819 L9.68860416,25.2789946 C9.8984701,25.0608202 9.89293108,24.714326 9.67660309,24.5026138 C9.46027501,24.2912093 9.11347312,24.2936711 8.9002223,24.5081528 L1.43151935,32.1473333 C1.22934649,31.7709903 1.12379808,31.3503353 1.12410511,30.9232181 L1.12410511,15.0327995 L6.52369092,19.6052298 L6.52430632,19.6058452 L13.9397735,25.8848978 C15.3195957,27.0597776 17.348402,27.0588544 18.7269933,25.8827437 L31.5318934,15.0226447 L31.5318934,30.9232181 C31.5325062,31.3518738 31.4263424,31.7740674 31.2229386,32.1516414 L23.7096161,24.5069219 C23.4960576,24.2899784 23.1467939,24.2869012 22.9295427,24.5004598 C22.7125992,24.7140183 22.709522,25.0629743 22.9230805,25.2802254 L30.5034863,32.9923359 C30.0520592,33.3369838 29.5000072,33.5231551 28.9322615,33.5228478 L3.72373506,33.5228478 Z" id="Shape"></path>
                                <path d="M14.8998639,16.7461915 C15.0943437,16.9739052 15.4349912,17.0046774 15.6673207,16.8157365 L19.2033458,13.9388503 C19.3575142,13.8148387 19.4335213,13.6178971 19.4027492,13.4224941 C19.3716694,13.2270911 19.2384261,13.0633833 19.0534856,12.9932229 C18.8685451,12.9230624 18.6599101,12.9575272 18.5072803,13.0833852 L15.388833,15.6205471 L14.2201076,14.2518028 C14.092711,14.0997886 13.8936154,14.0280895 13.69852,14.0634775 C13.5037325,14.0991731 13.3427943,14.2364168 13.2772496,14.4235114 C13.2113973,14.6106059 13.2514011,14.8183178 13.3812594,14.9678703 L14.8998639,16.7461915 Z" id="Path"></path>
                                <path d="M16.3279983,21.0152087 C19.1648807,21.0152087 21.6226505,19.0488698 22.2454783,16.2812246 C22.8683062,13.5135796 21.4897149,10.6840825 18.9263967,9.46858343 C16.3633862,8.25339215 13.300021,8.97653718 11.5515488,11.2102859 C10.1209525,13.0372271 9.8581586,15.52023 10.874562,17.6059648 C11.8906576,19.6920072 14.0077799,21.0155164 16.3279983,21.0152087 L16.3279983,21.0152087 Z M12.4196304,11.8906576 C13.9136172,9.9809394 16.5692517,9.43011829 18.6996061,10.5883811 C20.8299605,11.7463363 21.811899,14.2742666 21.0216708,16.56679 C20.2314426,18.8593135 17.900454,20.2452901 15.509152,19.8449446 C13.1175423,19.4442916 11.3653774,17.3742506 11.3650628,14.949407 C11.3632233,13.8403795 11.7343352,12.7630474 12.4196304,11.8906576 Z" id="Shape"></path>
                            </g>
                        </g>
                    </g>
                </g>
            </g>
        </g>
    </g>
</svg>