<?xml version="1.0" encoding="UTF-8"?>
<svg width="57px" height="80px" viewBox="0 0 57 80" version="1.1" xmlns="http://www.w3.org/2000/svg" xmlns:xlink="http://www.w3.org/1999/xlink">
    <title>offer</title>
    <defs>
        <linearGradient x1="-411.40182%" y1="959.756823%" x2="100%" y2="100%" id="linearGradient-1">
            <stop stop-color="#164A84" offset="0%"></stop>
            <stop stop-color="#4478B2" offset="46.6%"></stop>
            <stop stop-color="#8CB0D8" offset="75.2%"></stop>
            <stop stop-color="#8FB0D3" offset="100%"></stop>
        </linearGradient>
        <linearGradient x1="-411.40182%" y1="959.756823%" x2="100%" y2="100%" id="linearGradient-2">
            <stop stop-color="#164A84" offset="0%"></stop>
            <stop stop-color="#4478B2" offset="46.6%"></stop>
            <stop stop-color="#8CB0D8" offset="75.2%"></stop>
            <stop stop-color="#8FB0D3" offset="100%"></stop>
        </linearGradient>
        <linearGradient x1="-405.408556%" y1="959.756823%" x2="99.3505374%" y2="100%" id="linearGradient-3">
            <stop stop-color="#164A84" offset="0%"></stop>
            <stop stop-color="#4478B2" offset="46.6%"></stop>
            <stop stop-color="#8CB0D8" offset="75.2%"></stop>
            <stop stop-color="#8FB0D3" offset="100%"></stop>
        </linearGradient>
        <linearGradient x1="-181.161219%" y1="959.756823%" x2="75.0498815%" y2="100%" id="linearGradient-4">
            <stop stop-color="#164A84" offset="0%"></stop>
            <stop stop-color="#4478B2" offset="46.6%"></stop>
            <stop stop-color="#8CB0D8" offset="75.2%"></stop>
            <stop stop-color="#8FB0D3" offset="100%"></stop>
        </linearGradient>
        <linearGradient x1="-411.40182%" y1="959.756823%" x2="100%" y2="100%" id="linearGradient-5">
            <stop stop-color="#164A84" offset="0%"></stop>
            <stop stop-color="#4478B2" offset="46.6%"></stop>
            <stop stop-color="#8CB0D8" offset="75.2%"></stop>
            <stop stop-color="#8FB0D3" offset="100%"></stop>
        </linearGradient>
        <linearGradient x1="-116.508763%" y1="959.756823%" x2="68.0437913%" y2="100%" id="linearGradient-6">
            <stop stop-color="#164A84" offset="0%"></stop>
            <stop stop-color="#4478B2" offset="46.6%"></stop>
            <stop stop-color="#8CB0D8" offset="75.2%"></stop>
            <stop stop-color="#8FB0D3" offset="100%"></stop>
        </linearGradient>
        <linearGradient x1="11.469995%" y1="959.756823%" x2="54.17532%" y2="100%" id="linearGradient-7">
            <stop stop-color="#164A84" offset="0%"></stop>
            <stop stop-color="#4478B2" offset="46.6%"></stop>
            <stop stop-color="#8CB0D8" offset="75.2%"></stop>
            <stop stop-color="#8FB0D3" offset="100%"></stop>
        </linearGradient>
    </defs>
    <g id="Page-1" stroke="none" stroke-width="1" fill="none" fill-rule="evenodd">
        <g id="Agents-Final" transform="translate(-218.000000, -2487.000000)" fill-rule="nonzero">
            <g id="GREAT-OPPORTUNITIES" transform="translate(0.000000, 2025.000000)">
                <g id="row-1" transform="translate(100.000000, 427.000000)">
                    <g id="offer" transform="translate(118.000000, 35.000000)">
                        <path d="M32.5024,14.07344 C31.2343656,14.0733106 30.091118,14.8370565 29.6057726,16.0085304 C29.1204271,17.1800043 29.3885688,18.5284934 30.2851588,19.4251749 C31.1817488,20.3218564 32.5302105,20.5901358 33.7017339,20.1049099 C34.8732574,19.619684 35.63712,18.4765144 35.63712,17.20848 C35.6351805,15.4779741 34.2329057,14.0755562 32.5024,14.07344 L32.5024,14.07344 Z M32.5024,18.42336 C32.0109185,18.4234894 31.5677625,18.1275192 31.379606,17.6734805 C31.1914494,17.2194418 31.2953534,16.6967664 31.6428604,16.3492136 C31.9903674,16.0016608 32.5130291,15.897688 32.9670926,16.0857848 C33.4211561,16.2738815 33.7171847,16.7169985 33.71712,17.20848 C33.7165027,17.8791214 33.1730413,18.4226543 32.5024,18.42336 L32.5024,18.42336 Z" id="Shape" fill="url(#linearGradient-1)"></path>
                        <path d="M36.32704,24.168 C36.32704,25.8993464 37.7305736,27.30288 39.46192,27.30288 C41.1932664,27.30288 42.5968,25.8993464 42.5968,24.168 C42.5968,22.4366536 41.1932664,21.03312 39.46192,21.03312 C37.7313777,21.0350599 36.3289799,22.4374577 36.32704,24.168 Z M40.6768,24.168 C40.6768,24.8389597 40.1328797,25.38288 39.46192,25.38288 C38.7909603,25.38288 38.24704,24.8389597 38.24704,24.168 C38.24704,23.4970403 38.7909603,22.95312 39.46192,22.95312 C40.1326238,22.9537375 40.6761825,23.4972962 40.6768,24.168 L40.6768,24.168 Z" id="Shape" fill="url(#linearGradient-2)"></path>
                        <path d="M40.15376,15.15904 L30.45296,24.85984 C30.204932,25.1011973 30.1060106,25.4573713 30.1940498,25.7920658 C30.282089,26.1267602 30.5434597,26.3881617 30.8781437,26.4762403 C31.2128278,26.564319 31.5690134,26.4654396 31.8104,26.21744 L41.5112,16.51664 C41.8774598,16.1403461 41.8734188,15.5396016 41.50213,15.1682689 C41.1308411,14.7969363 40.530097,14.7928245 40.15376,15.15904 L40.15376,15.15904 Z" id="Path" fill="url(#linearGradient-2)"></path>
                        <path d="M36.82144,6.39168 C29.37744,5.95968 23.06144,11.32704 21.87872,18.28096 C21.8342756,18.5503787 21.9107434,18.8256976 22.087762,19.0336066 C22.2647806,19.2415156 22.5243816,19.3609107 22.79744,19.36 L22.85536,19.36 C23.3057058,19.3624245 23.6921544,19.0397193 23.77008,18.59616 C24.8072784,12.4086551 30.3017253,7.9701477 36.5689996,8.25697561 C42.8362739,8.54380353 47.9023363,13.4656229 48.3700283,19.7220006 C48.8377202,25.9783783 44.5597302,31.5987071 38.4047575,32.8141531 C32.2497849,34.029599 26.1564966,30.4573262 24.21088,24.4928 C24.0875948,24.1059148 23.7292465,23.8423854 23.3232,23.84 L23.25584,23.84 C22.9570277,23.8410051 22.6767902,23.9851288 22.5021659,24.2276081 C22.3275416,24.4700873 22.2796777,24.7815575 22.37344,25.06528 C24.5915385,31.9325621 31.5782191,36.0715632 38.6666842,34.7176113 C45.7551493,33.3636594 50.7244651,26.9409702 50.2553454,19.7396196 C49.7862258,12.538269 44.0256538,6.81455984 36.82144,6.39168 Z" id="Path" fill="url(#linearGradient-3)"></path>
                        <path d="M54.54816,16.4432 C54.2846364,16.0416729 54.1562127,15.5664883 54.1816,15.08688 L54.31168,12.72224 C54.4025001,11.0725499 53.5084517,9.52547 52.03376,8.78048 L49.93776,7.72176 C49.5114589,7.50521971 49.1650203,7.15878107 48.94848,6.73248 L47.88976,4.63648 C47.1452508,3.16125611 45.5977479,2.26699955 43.94784,2.35856 L41.5832,2.48864 C41.1036754,2.51418366 40.6285446,2.38574416 40.2272,2.12208 L38.272,0.83312 C36.8831515,-0.0840791787 35.0810085,-0.0840791787 33.69216,0.83312 L31.73696,2.12224 C31.3353653,2.38534762 30.8604202,2.51373692 30.38096,2.4888 L28.01616,2.35872 C26.3663792,2.26752025 24.8191064,3.16168017 24.0744,4.63664 L23.01568,6.73264 C22.8008532,7.16018152 22.4539415,7.50709322 22.0264,7.72192 L19.9304,8.78064 C18.4557705,9.52567618 17.5617906,11.0727463 17.65264,12.7224 L17.78272,15.08688 C17.8080173,15.5664788 17.679601,16.0416358 17.41616,16.4432 L16.12688,18.3984 C15.2097655,19.787274 15.2097655,21.589366 16.12688,22.97824 L17.41616,24.93344 C17.679601,25.3350042 17.8080173,25.8101612 17.78272,26.28976 L17.65264,28.65424 C17.5617547,30.3039867 18.4558129,31.8511463 19.93056,32.59616 L22.02656,33.65472 C22.4541128,33.8696069 22.8010222,34.2165724 23.01584,34.64416 L24.07456,36.74016 C24.819595,38.2146166 26.3664958,39.1085085 28.016,39.01776 L30.3808,38.88768 C30.8581062,38.8627178 31.330873,38.99117 31.72992,39.25424 L32.15984,39.54224 L32.15984,45.6 L26.72752,45.6 C24.40128,45.6 22.70096,46.54144 21.67344,48.464 C20.6612813,50.403274 18.9354478,51.8735942 16.86,52.5648 L16.8232,52.56864 C16.6585529,52.6206799 16.4886757,52.65443 16.31664,52.66928 L16.4648,51.38528 C16.4963002,51.1018554 16.4107079,50.8178576 16.22784,50.59904 C16.0494933,50.3845807 15.7896003,50.2544602 15.51104,50.24016 L4.26496,50.24016 C3.77054352,50.2565272 3.36374943,50.6346546 3.31136,51.12656 L0.12208,78.7656 C0.090568669,79.0380346 0.17662624,79.3109903 0.358693975,79.5160875 C0.54076171,79.7211848 0.801590956,79.8389932 1.07584,79.84 L12.32192,79.84 C12.8115127,79.8350905 13.220595,79.4658868 13.27552,78.97936 L13.76608,74.72 L16.40752,74.72 C19.3605278,74.7228781 22.2539554,75.5510442 24.76128,77.11104 C27.6176,78.88304 30.82144,79.04 34.128,79.04 L42.91504,79.04 C44.4302152,79.0437329 45.8141391,78.1808517 46.4776723,76.8186867 C47.1412056,75.4565216 46.9675224,73.8349041 46.03056,72.64416 C47.2411323,72.0565049 48.0715443,70.8955465 48.2365765,69.560036 C48.4016087,68.2245255 47.8787857,66.8963446 46.84768,66.03168 C47.738863,65.2682585 48.2561957,64.1566217 48.2663788,62.9832012 C48.2765619,61.8097807 47.7785996,60.689333 46.9008,59.91056 C47.7650026,59.2049239 48.2664242,58.1483319 48.26656,57.03264 C48.2643216,56.0329572 47.8641921,55.075294 47.1545513,54.3711771 C46.4449105,53.6670602 45.4841498,53.2744264 44.48448,53.28 L41.54416,53.28 C44.03616,52.48 45.6,50.01856 45.6,46.608 L45.6,46.49264 C45.6,45.9624 45.1344,45.59936 44.60416,45.59936 L40,45.59936 L40,39.35408 L40.18944,39.25408 C40.5980449,38.9908233 41.079057,38.8626504 41.56448,38.88768 L43.93856,39.01776 C45.5899469,39.1105355 47.1394204,38.2161929 47.88512,36.73984 L48.94624,34.64384 C49.1614413,34.2161464 49.5087379,33.8691864 49.93664,33.6544 L52.03264,32.59584 C53.5075115,31.8509187 54.4017066,30.3037395 54.31088,28.65392 L54.18096,26.28944 C54.1556154,25.8098587 54.2839753,25.3347031 54.54736,24.93312 L55.83664,22.97792 C56.7539238,21.5890969 56.7539238,19.7869031 55.83664,18.39808 L54.54816,16.4432 Z M11.4664,77.92 L2.15296,77.92 L5.12,52.16 L14.43344,52.16 L11.4664,77.92 Z M44.48448,55.2 C44.9749093,55.1943241 45.4473084,55.3846834 45.7967809,55.7288084 C46.1462534,56.0729335 46.3438736,56.5423415 46.34576,57.0328 C46.3350309,58.0610758 45.4947078,58.887019 44.4664,58.88 L38.52192,58.88 C38.178945,58.88 37.862023,59.0629749 37.6905355,59.36 C37.519048,59.657025 37.519048,60.022975 37.6905355,60.32 C37.862023,60.6170251 38.178945,60.8 38.52192,60.8 L44.19632,60.8 C45.3892551,60.8 46.35632,61.7670649 46.35632,62.96 C46.35632,64.1529351 45.3892551,65.12 44.19632,65.12 L40.04272,65.12 C39.5125266,65.12 39.08272,65.5498066 39.08272,66.08 C39.08272,66.6101934 39.5125266,67.04 40.04272,67.04 L44.28992,67.04 C45.4386723,67.04 46.36992,67.9712477 46.36992,69.12 C46.36992,70.2687523 45.4386723,71.2 44.28992,71.2 L40.144,71.2 C39.6138066,71.2 39.184,71.6298066 39.184,72.16 C39.184,72.6901934 39.6138066,73.12 40.144,73.12 L42.91472,73.12 C44.0192895,73.12 44.91472,74.0154305 44.91472,75.12 C44.91472,76.2245695 44.0192895,77.12 42.91472,77.12 L34.128,77.12 C31.11072,77.12 28.20112,76.98512 25.77424,75.47952 C22.962771,73.7307827 19.7184765,72.8026934 16.40752,72.8 L13.98784,72.8 L16.0936,54.57952 C16.5442447,54.5820092 16.9924478,54.5132128 17.4216,54.37568 L17.45872,54.36784 C20.0028314,53.5311518 22.1217234,51.7376562 23.3672,49.36672 C23.83568,48.4904 24.6408,47.52 26.7272,47.52 L32.16,47.52 L32.16,51.76528 C31.9983792,51.3692973 31.5961151,51.1262479 31.1704,51.16736 C30.639918,51.2351884 30.2616456,51.7156101 30.32016,52.2472 C30.4980719,53.9205904 31.9059954,55.1924699 33.5888,55.2 L44.48448,55.2 Z M34.08,53.28 L34.08,40.77408 C34.6553425,41.0683731 35.2912301,41.2248665 35.93744,41.2312 C36.6958675,41.2338895 37.4392587,41.0197156 38.08,40.61392 L38.08,53.28 L34.08,53.28 Z M43.60752,47.52 C43.29456,50.85424 41.05904,51.43024 40,51.50896 L40,47.52 L43.60752,47.52 Z M54.2344,21.92128 L52.94496,23.87664 C52.4558442,24.6222779 52.2174008,25.5045297 52.26432,26.39504 L52.39456,28.75968 C52.4435248,29.6479616 51.9621833,30.4810309 51.16816,30.88224 L49.07216,31.9408 C48.2782045,32.3398919 47.6339936,32.984215 47.23504,33.77824 L46.17632,35.87424 C45.7745745,36.6677932 44.9419131,37.1490245 44.05376,37.10096 L41.68928,36.97072 C40.7986131,36.9232704 39.9160972,37.1617549 39.17056,37.65136 L37.21536,38.94048 C36.467546,39.4344628 35.497094,39.4344628 34.74928,38.94048 L32.79408,37.65136 C32.1122881,37.2041736 31.3148819,36.9655244 30.49952,36.96464 C30.4248533,36.96464 30.3501867,36.9666667 30.27552,36.97072 L27.91088,37.10096 C27.0223643,37.1505419 26.1889318,36.6688649 25.78832,35.87424 L24.7296,33.77824 C24.330713,32.984018 23.6863472,32.3395962 22.89216,31.94064 L20.79616,30.88208 C20.0020123,30.4809632 19.5205339,29.6478744 19.56944,28.75952 L19.69968,26.39472 C19.7466666,25.5042025 19.5082176,24.6219301 19.01904,23.87632 L17.72976,21.92112 C17.2358195,21.1732932 17.2358195,20.2028668 17.72976,19.45504 L19.01904,17.49984 C19.5082403,16.7541805 19.7466898,15.8718501 19.69968,14.98128 L19.56944,12.61648 C19.520599,11.7281822 20.0020676,10.8951731 20.79616,10.49408 L22.89216,9.43536 C23.6862448,9.03646827 24.3305483,8.39216481 24.72944,7.59808 L25.78816,5.50208 C26.1892768,4.70793225 27.0223656,4.22645387 27.91072,4.27536 L30.27536,4.4056 C31.1660005,4.45327472 32.0485346,4.21477016 32.79392,3.72496 L34.74912,2.43568 C35.4969722,1.94182414 36.4673478,1.94182414 37.2152,2.43568 L39.1704,3.7248 C39.9158623,4.21458562 40.7984213,4.45313778 41.68912,4.4056 L44.0536,4.27536 C44.9416585,4.22788074 45.7740257,4.70910378 46.176,5.5024 L47.23472,7.5984 C47.6337237,8.39236444 48.2780008,9.03658547 49.072,9.43552 L51.168,10.49424 C51.9620233,10.8954491 52.4433648,11.7285184 52.3944,12.6168 L52.26416,14.98144 C52.2172424,15.8720229 52.4557446,16.7543409 52.94496,17.5 L54.23408,19.45504 C54.7280187,20.2028905 54.7281446,21.1733013 54.2344,21.92128 L54.2344,21.92128 Z" id="Shape" fill="url(#linearGradient-4)"></path>
                        <path d="M7.28,71.14384 C6.00851898,71.1446352 4.97835017,72.1758782 4.97888,73.4473594 C4.97941023,74.7188406 6.01043846,75.7492244 7.2819197,75.7489596 C8.55340094,75.7486946 9.584,74.7178813 9.584,73.4464 C9.5825879,72.1747544 8.55164624,71.1444571 7.28,71.14384 L7.28,71.14384 Z M7.28,73.8288 C7.12525437,73.8288 6.985749,73.7355749 6.92654536,73.5926024 C6.86734173,73.4496299 6.90010128,73.2850715 7.00954585,73.1756727 C7.11899042,73.0662739 7.28356253,73.0335832 7.42651027,73.0928466 C7.56945801,73.15211 7.66262472,73.2916544 7.66256003,73.4464 C7.66229537,73.6575464 7.49114653,73.8286237 7.28,73.8288 Z" id="Shape" fill="url(#linearGradient-5)"></path>
                        <path d="M7.16656,57.11008 C7.69320769,57.1708368 8.16940928,56.7931991 8.23024,56.26656 L8.41264,54.68672 C8.45193923,54.3460029 8.30648282,54.0102015 8.03106281,53.8058089 C7.75564279,53.6014162 7.39210202,53.5594845 7.07738279,53.6958089 C6.76266356,53.8321333 6.5445792,54.1260029 6.50528,54.46672 L6.32288,56.0464 C6.2937054,56.2993318 6.36620288,56.5534937 6.52442372,56.7529726 C6.68264456,56.9524515 6.91362802,57.0809069 7.16656,57.11008 L7.16656,57.11008 Z" id="Path" fill="url(#linearGradient-6)"></path>
                        <path d="M5.97488,68.336 C6.01180038,68.3401812 6.04892371,68.3424 6.08608,68.3424 C6.57328571,68.3417877 6.98277529,67.9763219 7.03856,67.49232 L7.94704,59.62416 C8.00783551,59.0974571 7.63014292,58.6211955 7.10344,58.5604 C6.57673708,58.4996045 6.10047551,58.8772971 6.03968,59.404 L5.1312,67.27216 C5.10198,67.5251175 5.1744565,67.7793209 5.33268181,67.9788354 C5.49090713,68.1783499 5.72191694,68.3068282 5.97488,68.336 L5.97488,68.336 Z" id="Path" fill="url(#linearGradient-7)"></path>
                    </g>
                </g>
            </g>
        </g>
    </g>
</svg>