<?xml version="1.0" encoding="UTF-8"?>
<svg width="59px" height="80px" viewBox="0 0 59 80" version="1.1" xmlns="http://www.w3.org/2000/svg" xmlns:xlink="http://www.w3.org/1999/xlink">
    <title>retirement</title>
    <g id="Page-1" stroke="none" stroke-width="1" fill="none" fill-rule="evenodd">
        <g id="Agents-Final" transform="translate(-1166.000000, -2488.000000)" fill="#90B0D4" fill-rule="nonzero">
            <g id="GREAT-OPPORTUNITIES" transform="translate(0.000000, 2025.000000)">
                <g id="row-1" transform="translate(100.000000, 427.000000)">
                    <g id="opo-4" transform="translate(948.000000, 0.000000)">
                        <g id="retirement" transform="translate(118.000000, 36.000000)">
                            <path d="M47.8303384,3.04197571 C46.9135002,2.66065946 45.8572255,2.86944636 45.154413,3.57090837 C44.4516005,4.27237038 44.2407824,5.3282415 44.6203345,6.24581142 C44.9998866,7.16338135 45.894995,7.76178862 46.8879675,7.76178862 C48.2413519,7.76161214 49.3391717,6.66590188 49.3419603,5.31252033 C49.3438593,4.31954967 48.7471766,3.42329196 47.8303384,3.04197571 Z M46.394644,5.30940643 C46.3963722,5.03496367 46.619793,4.81363835 46.8942399,4.8144963 C47.1686867,4.81535426 47.3907194,5.03807212 47.3907317,5.31252033 C47.3891196,5.588757 47.1642071,5.81156007 46.8879675,5.81056911 C46.6135316,5.80797067 46.3929158,5.58384919 46.394644,5.30940643 Z" id="Shape"></path>
                            <path d="M35.7708943,67.1689431 C35.7708943,62.9357724 32.2147967,59.4918699 27.8435772,59.4918699 C23.4723577,59.4918699 19.9160976,62.9357724 19.9160976,67.1689431 C19.9160976,71.4021138 23.4723577,74.8455285 27.8435772,74.8455285 C32.2147967,74.8455285 35.7708943,71.4021138 35.7708943,67.1689431 Z M27.8435772,72.8943089 C24.5482927,72.8943089 21.8673171,70.3252033 21.8673171,67.1684553 C21.8673171,64.0117073 24.5482927,61.4426016 27.8435772,61.4426016 C31.1388618,61.4426016 33.8196748,64.0117073 33.8196748,67.1684553 C33.8196748,70.3252033 31.1382114,72.8943089 27.8435772,72.8943089 Z" id="Shape"></path>
                            <path d="M28.9255285,63.0325203 C28.9255285,62.4937059 28.4887331,62.0569106 27.9499187,62.0569106 C27.4111043,62.0569106 26.9743089,62.4937059 26.9743089,63.0325203 L26.9743089,63.0760976 C26.670124,63.1874411 26.3927834,63.3615685 26.1603252,63.5871545 C25.6593959,64.1013308 25.3868319,64.7956949 25.4042276,65.5133333 C25.4204878,66.6413008 26.2668293,67.5886179 27.4613008,67.8169106 L27.7377236,67.8699187 C27.7637398,67.875935 27.7954472,67.8861789 27.8217886,67.8934959 C27.8304065,67.8969106 27.8388618,67.9003252 27.8474797,67.9034146 L27.9627642,67.9466667 C28.0006504,67.9656911 28.0147967,67.9739837 28.042439,67.9897561 L28.1027642,68.024065 C28.1118699,68.0295935 28.1206504,68.035122 28.1289431,68.0403252 C28.3778862,68.1882927 28.6473171,68.458374 28.6562602,68.6673171 C28.6681301,68.9455285 28.5773984,69.0364228 28.543252,69.0705691 C28.3372825,69.2298144 28.080525,69.3089101 27.8206504,69.2931707 C27.6136585,69.2847154 27.1530081,69.0674797 27.1276423,68.8456911 C27.0924376,68.4958755 26.8717366,68.192059 26.5499422,68.0504305 C26.2281478,67.9088019 25.8550395,67.9512703 25.5733055,68.1615944 C25.2915714,68.3719185 25.1447941,68.7175625 25.1891057,69.0663415 C25.3104065,70.1331707 26.1630894,70.8037398 26.9754472,71.0876423 C27.005703,71.6086738 27.4406565,72.0136158 27.9625186,72.0066962 C28.4843808,71.9995973 28.9083016,71.5831196 28.9245528,71.0614634 C29.2994205,70.9351243 29.6409983,70.7259315 29.9239024,70.4494309 C30.4094878,69.9550942 30.6580148,69.2751865 30.6056911,68.5842276 C30.5530081,67.3484553 29.5295935,66.6105691 29.1593496,66.383252 L29.1453659,66.3746341 L29.124065,66.3619512 L29.0752846,66.3341463 L29.0102439,66.2962602 C28.9478049,66.2606504 28.9180488,66.2435772 28.8222764,66.1957724 C28.7686416,66.1690036 28.7136636,66.1450152 28.657561,66.1239024 L28.5461789,66.0821138 C28.4941463,66.0609756 28.4404878,66.0421138 28.3845528,66.0255285 C28.2869919,65.9965854 28.1977236,65.9713821 28.1081301,65.9543089 L27.8261789,65.9001626 C27.5030894,65.8385366 27.3560976,65.6468293 27.3546341,65.4843902 C27.3474822,65.3026861 27.4069875,65.124633 27.5219512,64.9837398 C27.6607292,64.8811659 27.834482,64.8377277 28.0052033,64.8629268 C28.5803252,64.8856911 28.7510569,65.2520325 28.7977236,65.4084553 L28.7920325,65.3866667 L30.6881301,64.9261789 C30.4442687,64.0522788 29.7846307,63.3551559 28.9255285,63.0634146 L28.9255285,63.0325203 Z" id="Path"></path>
                            <path d="M38.6886179,78.0487805 C39.9209241,77.2598141 41.0054081,76.2609617 41.8928455,75.097561 C44.1863146,72.1445542 44.9597301,68.2858464 43.9814634,64.6770732 C43.9537127,64.5747425 43.9247154,64.4720325 43.8944715,64.3689431 C42.6398374,60.0835772 39.8362602,56.7894309 35.9365854,54.9736585 C36.0085081,54.7639428 36.0454242,54.5438194 36.0458537,54.3221138 L36.0458537,53.0026016 C36.0454944,52.3235694 35.705422,51.6897483 35.1398374,51.3139837 C35.7103328,50.0798344 36.3818316,48.8949357 37.1474797,47.7713821 C38.0172358,46.5061789 38.8060163,45.8946341 39.6414634,45.2469919 C39.9666667,44.9943089 40.3045528,44.7330081 40.6453659,44.4328455 C41.194048,43.959663 41.4154927,43.2094343 41.2117073,42.5141463 C40.9622764,41.7011382 40.2206504,41.2237398 39.324065,41.2977236 C38.5302439,41.3627642 37.4665041,40.7456911 36.6899187,40.2952846 C36.3470236,40.0838727 35.9900344,39.8962238 35.6214634,39.7336585 C33.7177236,38.9733333 32.4886179,40.2613008 31.9629268,40.8115447 C31.7827642,41.0003252 31.1463415,41.3471545 30.8417886,41.4650407 C30.803252,41.48 30.7642276,41.4934959 30.7252033,41.5047154 C29.8165854,41.7686179 29.3430894,41.7273171 28.4923577,40.9694309 C26.6110569,39.2946341 24.9687805,40.1292683 24.5104065,40.4250407 C24.0295935,40.7352846 23.7858537,41.2695935 23.5499187,41.7861789 C23.4479521,42.0207836 23.333646,42.2498299 23.2074797,42.4723577 C23.1706209,42.5438649 23.1231449,42.6093774 23.0666667,42.6666667 C23.0530596,42.6713664 23.039,42.6746361 23.0247154,42.6764228 C22.8505691,42.7047154 22.8144715,42.7104065 22.4686179,42.4593496 L22.3333333,42.3598374 C21.5686242,41.7856594 20.7378139,41.3052645 19.8586992,40.9289431 C19.8226016,40.9126829 19.7817886,40.8933333 19.7372358,40.8721951 C19.603252,40.8089431 19.4365854,40.7299187 19.2494309,40.657561 C18.4637398,40.3547967 16.7357724,40.2868293 15.8873171,40.5253659 C15.6580487,40.5809045 15.4403582,40.6764021 15.2442276,40.8074797 C14.8677191,41.0833331 14.595439,41.4782882 14.4715447,41.9282927 C14.1890719,42.9293001 14.5910922,43.9976197 15.4634146,44.564065 C16.7123353,45.3843643 17.7993345,46.4278725 18.6699187,47.6422764 C19.4154013,48.6938488 20.0079181,49.8458706 20.4297561,51.0639024 C19.5808086,51.3279929 19.0020294,52.1132013 19.0009756,53.0022764 L19.0009756,54.3217886 C19.0009368,54.6513157 19.0816067,54.9758375 19.235935,55.2669919 C16.9627642,56.4052033 13.1606504,58.7001626 11.4377236,63.4086179 C11.3469919,63.6569106 11.2606504,63.9102439 11.181626,64.1614634 C10.0237343,67.819836 10.6983868,71.8119486 12.9941463,74.8866667 C13.9090678,76.1393263 15.0483231,77.2114855 16.3541463,78.0487805 L7.37853659,78.0487805 L7.37853659,33.0276423 C7.37853659,26.7635772 12.578374,21.6674797 18.9699187,21.6674797 C25.3614634,21.6674797 30.5611382,26.7635772 30.5611382,33.0276423 C30.5611382,33.5664567 30.9979336,34.003252 31.536748,34.003252 C32.0755624,34.003252 32.5123577,33.5664567 32.5123577,33.0276423 C32.5123577,28.0404878 29.7060163,23.6874797 25.5655285,21.4076423 L27.0117073,21.4076423 C27.9649566,21.4088751 28.9058039,21.6237925 29.7650407,22.0365854 L30.3978862,22.3417886 C34.1698,24.1705747 38.6479619,23.7345613 41.9962602,21.2125203 C42.017561,21.1962602 42.038374,21.18 42.058374,21.1617886 L43.5868293,19.8053659 C44.0618396,19.3851488 44.6122066,19.0587908 45.2087805,18.8435772 L45.9908943,21.4011382 C46.1163534,21.8112995 46.4949826,22.0914112 46.9239024,22.0913821 L54.3152846,22.0913821 C54.5946375,22.0913509 54.8605759,21.9715708 55.0457255,21.7623874 C55.2308752,21.553204 55.3174721,21.2746875 55.2835772,20.9973984 L52.8190244,0.857235772 C52.7592079,0.367884884 52.3437249,0 51.8507317,0 L40.7642276,0 C40.4548953,0 40.1638813,0.146655837 39.9798916,0.395320858 C39.795902,0.643985879 39.7407398,0.965171766 39.8312195,1.26097561 L41.223252,5.81268293 L36.8817886,8.54878049 C36.339146,8.84539656 35.704497,8.92612149 35.104878,8.77479675 C35.0847154,8.7699187 35.0643902,8.76536585 35.0439024,8.76162602 L25.8152846,7.06764228 C23.2478865,6.60969916 20.6013489,6.98226723 18.2601626,8.13121951 C18.2187566,8.1515767 18.1788703,8.17488902 18.140813,8.20097561 L2.1803252,19.1252033 C1.75358696,19.4173542 1.62896551,19.99174 1.89626016,20.4344715 C3.18508842,22.5700237 5.92375365,23.3171861 8.11853659,22.1320325 L8.19154472,22.0928455 C8.64972118,22.5850064 9.21607394,22.9638738 9.84585366,23.1995122 C7.03959932,25.6961373 5.43198238,29.2715574 5.42682927,33.0276423 L5.42682927,78.0487805 L1.05691057,78.0487805 C0.518096179,78.0487805 0.081300813,78.4855759 0.081300813,79.0243902 C0.081300813,79.5632046 0.518096179,80 1.05691057,80 L57.1544715,80 C57.6932859,80 58.1300813,79.5632046 58.1300813,79.0243902 C58.1300813,78.4855759 57.6932859,78.0487805 57.1544715,78.0487805 L38.6886179,78.0487805 Z M50.9871545,1.95121951 L53.2121951,20.1401626 L47.6450407,20.1401626 L42.0822764,1.95121951 L50.9871545,1.95121951 Z M19.1839024,9.85121951 C21.1348764,8.90980228 23.333015,8.60750347 25.4656911,8.98731707 L34.6622764,10.6756098 C35.7423647,10.9391999 36.8822012,10.7840265 37.8525203,10.2413008 C37.8678049,10.2328455 37.8827642,10.2239024 37.897561,10.2146341 L41.8141463,7.74634146 L44.636748,16.9756098 C43.7724999,17.2740904 42.9754141,17.7396786 42.2908943,18.3458537 L40.7933333,19.6747967 C38.0303168,21.7379573 34.3475374,22.088531 31.244878,20.5837398 L30.6120325,20.2786992 C29.4883252,19.7388298 28.2578848,19.4577371 27.0112195,19.4560976 L20.8726829,19.4560976 C19.2917894,19.4560012 17.8966441,18.4227436 17.4356098,16.9105691 L21.5006504,17.0939837 C23.1355452,17.1672583 24.7737165,17.0918262 26.3949593,16.8686179 C26.9287448,16.7949799 27.301768,16.3025659 27.2281301,15.7687805 C27.1544921,15.234995 26.6620781,14.8619718 26.1282927,14.9356098 C24.6247096,15.1428988 23.1053736,15.2128352 21.5891057,15.1445528 L16.3533333,14.9084553 C16.0872354,14.8964687 15.8278071,14.9938048 15.6352666,15.1778698 C15.442726,15.3619348 15.3338177,15.6167217 15.3338211,15.8830894 C15.3338211,15.9364228 15.3362602,15.9891057 15.3378862,16.0419512 L14.7793496,16.3346341 L7.19463415,20.4138211 C6.22202816,20.9392167 5.02847259,20.8255508 4.17252033,20.1260163 L19.1839024,9.85121951 Z M15.6947967,18.0573984 L15.7652033,18.0204878 C15.9136388,18.3711874 16.0980395,18.7055499 16.3154472,19.0182114 L11.9481301,21.364065 C11.377561,21.6468293 10.6182114,21.516748 10.0213008,21.1087805 L15.6947967,18.0573984 Z M21.2333333,54.4001626 L21.0302439,54.4001626 C20.9871759,54.4000732 20.9521951,54.3651819 20.9521951,54.3221138 L20.9521951,53.0026016 C20.9521951,52.9595336 20.9871759,52.9246423 21.0302439,52.9245528 L33.7944715,52.9245528 L33.7995122,52.9245528 L34.0162602,52.9245528 C34.0592647,52.9247316 34.0941463,52.9595968 34.0941463,53.0026016 L34.0941463,54.3221138 C34.0941463,54.3651186 34.0592647,54.3999839 34.0162602,54.4001626 L21.2333333,54.4001626 Z M16.3430894,42.479187 C16.3492899,42.4581761 16.3571185,42.4376805 16.3665041,42.4178862 C16.3801626,42.4136585 16.3962602,42.4089431 16.4152846,42.4035772 C16.8543089,42.2796748 18.1500813,42.3250407 18.5468293,42.4778862 C18.6674797,42.5243902 18.7925203,42.5837398 18.9029268,42.635935 C18.9603252,42.6630894 19.0128455,42.6878049 19.0590244,42.7086179 C19.8105641,43.0282634 20.5203931,43.438217 21.1728455,43.9294309 L21.321626,44.0386992 C21.8292683,44.4073171 22.4030894,44.7541463 23.3369106,44.6029268 C24.2026016,44.462439 24.6341463,43.8897561 24.8834146,43.4712195 C25.0465157,43.1881652 25.1937881,42.8962804 25.3245528,42.5969106 C25.4049268,42.4054401 25.4988225,42.2199311 25.6055285,42.0417886 C26.0717073,41.7642276 26.5918699,41.8908943 27.1939837,42.4269919 C28.4947967,43.5858537 29.637561,43.8526829 31.2695935,43.3788618 C31.3603252,43.3525203 31.4533333,43.320813 31.5460163,43.2850407 C31.7985366,43.1874797 32.8487805,42.7100813 33.3743089,42.159187 C34.044878,41.456748 34.3580488,41.3307317 34.8969106,41.5461789 C35.1761037,41.6763342 35.4475572,41.8224847 35.7099187,41.9839024 C36.6003252,42.5001626 37.7837398,43.1861789 39.0227642,43.2492683 C38.8347967,43.4026016 38.643252,43.5510569 38.444878,43.7045528 C37.5708943,44.3821138 36.5803252,45.1499187 35.538374,46.6656911 C34.6127413,48.0253811 33.8139394,49.4672086 33.1520325,50.9730081 L30.5013008,50.9730081 C30.5492683,50.180813 30.7660163,49.0172358 31.5484553,48.1252033 C31.8705428,47.76096 32.2546406,47.4566875 32.6829268,47.2265041 C33.1563651,46.9692202 33.3315928,46.3768529 33.0743089,45.9034146 C32.8170251,45.4299764 32.2246578,45.2547486 31.7512195,45.5120325 C31.1205218,45.8521151 30.5551289,46.3013465 30.0813008,46.8388618 C28.8960976,48.1899187 28.5993496,49.8717073 28.5471545,50.9733333 L27.5284553,50.9733333 C27.1190244,49.7518699 26.2884553,47.6674797 25.7723577,46.8536585 C25.5854759,46.5594227 25.255817,46.3872379 24.9075604,46.4019644 C24.5593038,46.416691 24.2453579,46.6160915 24.0839831,46.9250539 C23.9226084,47.2340162 23.9383214,47.6056016 24.1252033,47.8998374 C24.4639024,48.4331707 25.0674797,49.8988618 25.4635772,50.9730081 L22.4565854,50.9730081 C21.9653489,49.3727959 21.2204255,47.8618131 20.2502439,46.4977236 C19.2431921,45.0992271 17.9903711,43.8953862 16.5528455,42.944878 C16.3900331,42.8502401 16.3060758,42.6631167 16.3430894,42.479187 Z M13.0434146,64.7481301 C13.1136585,64.5250407 13.1897561,64.3 13.2710569,64.0795122 C14.9695935,59.4378862 19.0123577,57.5234146 20.955122,56.603252 C21.1557724,56.5082927 21.3268293,56.4268293 21.477561,56.3513821 L34.0162602,56.3513821 C34.0650407,56.3513821 34.1128455,56.3473171 34.1609756,56.3439024 C38.0943089,57.8260163 40.8123577,60.7876423 42.0214634,64.9170732 C42.0479675,65.0076423 42.0733333,65.0982114 42.0977236,65.1879675 C42.9145295,68.2104159 42.264232,71.4410099 40.341626,73.9120325 C38.3505885,76.530925 35.2452243,78.0627441 31.9554472,78.0487805 L23.0993496,78.0487805 C19.7263759,78.0679078 16.5506077,76.461473 14.5674797,73.7330081 C12.6429862,71.1582669 12.075396,67.8139151 13.0434146,64.7481301 Z" id="Shape"></path>
                        </g>
                    </g>
                </g>
            </g>
        </g>
    </g>
</svg>