<?xml version="1.0" encoding="UTF-8"?>
<svg width="64px" height="80px" viewBox="0 0 64 80" version="1.1" xmlns="http://www.w3.org/2000/svg" xmlns:xlink="http://www.w3.org/1999/xlink">
    <title>education</title>
    <defs>
        <linearGradient x1="50%" y1="307.0116%" x2="50%" y2="-1397.2956%" id="linearGradient-1">
            <stop stop-color="#90B0D4" offset="0%"></stop>
            <stop stop-color="#5683B6" offset="46.6%"></stop>
            <stop stop-color="#9ABADC" offset="75.2%"></stop>
            <stop stop-color="#FFFFFF" offset="100%"></stop>
        </linearGradient>
        <linearGradient x1="50%" y1="307.0116%" x2="50%" y2="-1397.2956%" id="linearGradient-2">
            <stop stop-color="#90B0D4" offset="0%"></stop>
            <stop stop-color="#5683B6" offset="46.6%"></stop>
            <stop stop-color="#9ABADC" offset="75.2%"></stop>
            <stop stop-color="#FFFFFF" offset="100%"></stop>
        </linearGradient>
        <linearGradient x1="50%" y1="307.0116%" x2="50%" y2="-1397.2956%" id="linearGradient-3">
            <stop stop-color="#90B0D4" offset="0%"></stop>
            <stop stop-color="#5683B6" offset="46.6%"></stop>
            <stop stop-color="#9ABADC" offset="75.2%"></stop>
            <stop stop-color="#FFFFFF" offset="100%"></stop>
        </linearGradient>
        <linearGradient x1="50%" y1="307.0116%" x2="50%" y2="-1397.2956%" id="linearGradient-4">
            <stop stop-color="#90B0D4" offset="0%"></stop>
            <stop stop-color="#5683B6" offset="46.6%"></stop>
            <stop stop-color="#9ABADC" offset="75.2%"></stop>
            <stop stop-color="#FFFFFF" offset="100%"></stop>
        </linearGradient>
        <linearGradient x1="50%" y1="307.0116%" x2="50%" y2="-1397.2956%" id="linearGradient-5">
            <stop stop-color="#90B0D4" offset="0%"></stop>
            <stop stop-color="#5683B6" offset="46.6%"></stop>
            <stop stop-color="#9ABADC" offset="75.2%"></stop>
            <stop stop-color="#FFFFFF" offset="100%"></stop>
        </linearGradient>
        <linearGradient x1="50%" y1="307.0116%" x2="50%" y2="-1397.2956%" id="linearGradient-6">
            <stop stop-color="#90B0D4" offset="0%"></stop>
            <stop stop-color="#5683B6" offset="46.6%"></stop>
            <stop stop-color="#9ABADC" offset="75.2%"></stop>
            <stop stop-color="#FFFFFF" offset="100%"></stop>
        </linearGradient>
        <linearGradient x1="50%" y1="307.0116%" x2="50%" y2="-1397.2956%" id="linearGradient-7">
            <stop stop-color="#90B0D4" offset="0%"></stop>
            <stop stop-color="#5683B6" offset="46.6%"></stop>
            <stop stop-color="#9ABADC" offset="75.2%"></stop>
            <stop stop-color="#FFFFFF" offset="100%"></stop>
        </linearGradient>
        <linearGradient x1="50%" y1="307.0116%" x2="50%" y2="-1397.2956%" id="linearGradient-8">
            <stop stop-color="#90B0D4" offset="0%"></stop>
            <stop stop-color="#5683B6" offset="46.6%"></stop>
            <stop stop-color="#9ABADC" offset="75.2%"></stop>
            <stop stop-color="#FFFFFF" offset="100%"></stop>
        </linearGradient>
        <linearGradient x1="50%" y1="307.0116%" x2="50%" y2="-1397.2956%" id="linearGradient-9">
            <stop stop-color="#90B0D4" offset="0%"></stop>
            <stop stop-color="#5683B6" offset="46.6%"></stop>
            <stop stop-color="#9ABADC" offset="75.2%"></stop>
            <stop stop-color="#FFFFFF" offset="100%"></stop>
        </linearGradient>
        <linearGradient x1="50%" y1="307.0116%" x2="50%" y2="-1397.2956%" id="linearGradient-10">
            <stop stop-color="#90B0D4" offset="0%"></stop>
            <stop stop-color="#5683B6" offset="46.6%"></stop>
            <stop stop-color="#9ABADC" offset="75.2%"></stop>
            <stop stop-color="#FFFFFF" offset="100%"></stop>
        </linearGradient>
        <linearGradient x1="50%" y1="307.0116%" x2="50%" y2="-1397.2956%" id="linearGradient-11">
            <stop stop-color="#90B0D4" offset="0%"></stop>
            <stop stop-color="#5683B6" offset="46.6%"></stop>
            <stop stop-color="#9ABADC" offset="75.2%"></stop>
            <stop stop-color="#FFFFFF" offset="100%"></stop>
        </linearGradient>
        <linearGradient x1="50%" y1="307.0116%" x2="50%" y2="-1397.2956%" id="linearGradient-12">
            <stop stop-color="#90B0D4" offset="0%"></stop>
            <stop stop-color="#5683B6" offset="46.6%"></stop>
            <stop stop-color="#9ABADC" offset="75.2%"></stop>
            <stop stop-color="#FFFFFF" offset="100%"></stop>
        </linearGradient>
        <linearGradient x1="50%" y1="307.0116%" x2="50%" y2="-1397.2956%" id="linearGradient-13">
            <stop stop-color="#90B0D4" offset="0%"></stop>
            <stop stop-color="#5683B6" offset="46.6%"></stop>
            <stop stop-color="#9ABADC" offset="75.2%"></stop>
            <stop stop-color="#FFFFFF" offset="100%"></stop>
        </linearGradient>
        <linearGradient x1="50%" y1="307.0116%" x2="50%" y2="-1397.2956%" id="linearGradient-14">
            <stop stop-color="#90B0D4" offset="0%"></stop>
            <stop stop-color="#5683B6" offset="46.6%"></stop>
            <stop stop-color="#9ABADC" offset="75.2%"></stop>
            <stop stop-color="#FFFFFF" offset="100%"></stop>
        </linearGradient>
        <linearGradient x1="50%" y1="307.0116%" x2="50%" y2="-1397.2956%" id="linearGradient-15">
            <stop stop-color="#90B0D4" offset="0%"></stop>
            <stop stop-color="#5683B6" offset="46.6%"></stop>
            <stop stop-color="#9ABADC" offset="75.2%"></stop>
            <stop stop-color="#FFFFFF" offset="100%"></stop>
        </linearGradient>
        <linearGradient x1="50%" y1="307.0116%" x2="50%" y2="-1397.2956%" id="linearGradient-16">
            <stop stop-color="#90B0D4" offset="0%"></stop>
            <stop stop-color="#5683B6" offset="46.6%"></stop>
            <stop stop-color="#9ABADC" offset="75.2%"></stop>
            <stop stop-color="#FFFFFF" offset="100%"></stop>
        </linearGradient>
        <linearGradient x1="50%" y1="307.0116%" x2="50%" y2="-1397.2956%" id="linearGradient-17">
            <stop stop-color="#90B0D4" offset="0%"></stop>
            <stop stop-color="#5683B6" offset="46.6%"></stop>
            <stop stop-color="#9ABADC" offset="75.2%"></stop>
            <stop stop-color="#FFFFFF" offset="100%"></stop>
        </linearGradient>
    </defs>
    <g id="Page-1" stroke="none" stroke-width="1" fill="none" fill-rule="evenodd">
        <g id="Agents-Final" transform="translate(-531.000000, -2486.000000)" fill-rule="nonzero">
            <g id="GREAT-OPPORTUNITIES" transform="translate(0.000000, 2025.000000)">
                <g id="row-1" transform="translate(100.000000, 427.000000)">
                    <g id="opo-2" transform="translate(316.000000, 0.000000)">
                        <g id="education" transform="translate(115.000000, 34.000000)">
                            <path d="M27.5323577,48.344878 L24.9492683,48.344878 C24.4104539,48.344878 23.9736585,48.7816734 23.9736585,49.3204878 C23.9736585,49.8593022 24.4104539,50.2960976 24.9492683,50.2960976 L27.5323577,50.2960976 C28.0711721,50.2960976 28.5079675,49.8593022 28.5079675,49.3204878 C28.5079675,48.7816734 28.0711721,48.344878 27.5323577,48.344878 L27.5323577,48.344878 Z" id="Path" fill="url(#linearGradient-1)"></path>
                            <path d="M12.5947967,50.2960976 L21.398374,50.2960976 C21.9371884,50.2960976 22.3739837,49.8593022 22.3739837,49.3204878 C22.3739837,48.7816734 21.9371884,48.344878 21.398374,48.344878 L12.5947967,48.344878 C12.0559824,48.344878 11.619187,48.7816734 11.619187,49.3204878 C11.619187,49.8593022 12.0559824,50.2960976 12.5947967,50.2960976 L12.5947967,50.2960976 Z" id="Path" fill="url(#linearGradient-2)"></path>
                            <path d="M27.5323577,55.322439 L18.7102439,55.322439 C18.1714295,55.322439 17.7346341,55.7592344 17.7346341,56.2980488 C17.7346341,56.8368632 18.1714295,57.2736585 18.7102439,57.2736585 L27.5323577,57.2736585 C28.0711721,57.2736585 28.5079675,56.8368632 28.5079675,56.2980488 C28.5079675,55.7592344 28.0711721,55.322439 27.5323577,55.322439 L27.5323577,55.322439 Z" id="Path" fill="url(#linearGradient-3)"></path>
                            <path d="M12.5947967,57.2736585 L15.1582114,57.2736585 C15.6970258,57.2736585 16.1338211,56.8368632 16.1338211,56.2980488 C16.1338211,55.7592344 15.6970258,55.322439 15.1582114,55.322439 L12.5947967,55.322439 C12.0559824,55.322439 11.619187,55.7592344 11.619187,56.2980488 C11.619187,56.8368632 12.0559824,57.2736585 12.5947967,57.2736585 L12.5947967,57.2736585 Z" id="Path" fill="url(#linearGradient-4)"></path>
                            <path d="M27.5323577,62.2998374 L20.2141463,62.2998374 C19.675332,62.2998374 19.2385366,62.7366328 19.2385366,63.2754472 C19.2385366,63.8142615 19.675332,64.2510569 20.2141463,64.2510569 L27.5323577,64.2510569 C28.0711721,64.2510569 28.5079675,63.8142615 28.5079675,63.2754472 C28.5079675,62.7366328 28.0711721,62.2998374 27.5323577,62.2998374 L27.5323577,62.2998374 Z" id="Path" fill="url(#linearGradient-5)"></path>
                            <path d="M12.5947967,64.2510569 L16.7736585,64.2510569 C17.3124729,64.2510569 17.7492683,63.8142615 17.7492683,63.2754472 C17.7492683,62.7366328 17.3124729,62.2998374 16.7736585,62.2998374 L12.5947967,62.2998374 C12.0559824,62.2998374 11.619187,62.7366328 11.619187,63.2754472 C11.619187,63.8142615 12.0559824,64.2510569 12.5947967,64.2510569 L12.5947967,64.2510569 Z" id="Path" fill="url(#linearGradient-6)"></path>
                            <path d="M27.5323577,69.2773984 L24.5328455,69.2773984 C23.9940311,69.2773984 23.5572358,69.7141937 23.5572358,70.2530081 C23.5572358,70.7918225 23.9940311,71.2286179 24.5328455,71.2286179 L27.5323577,71.2286179 C28.0711721,71.2286179 28.5079675,70.7918225 28.5079675,70.2530081 C28.5079675,69.7141937 28.0711721,69.2773984 27.5323577,69.2773984 L27.5323577,69.2773984 Z" id="Path" fill="url(#linearGradient-7)"></path>
                            <path d="M21.0549593,69.2773984 L12.5947967,69.2773984 C12.0559824,69.2773984 11.619187,69.7141937 11.619187,70.2530081 C11.619187,70.7918225 12.0559824,71.2286179 12.5947967,71.2286179 L21.0549593,71.2286179 C21.5937737,71.2286179 22.0305691,70.7918225 22.0305691,70.2530081 C22.0305691,69.7141937 21.5937737,69.2773984 21.0549593,69.2773984 L21.0549593,69.2773984 Z" id="Path" fill="url(#linearGradient-8)"></path>
                            <path d="M53.1721951,48.344878 L44.5663415,48.344878 C44.0275271,48.344878 43.5907317,48.7816734 43.5907317,49.3204878 C43.5907317,49.8593022 44.0275271,50.2960976 44.5663415,50.2960976 L53.1721951,50.2960976 C53.7110095,50.2960976 54.1478049,49.8593022 54.1478049,49.3204878 C54.1478049,48.7816734 53.7110095,48.344878 53.1721951,48.344878 L53.1721951,48.344878 Z" id="Path" fill="url(#linearGradient-9)"></path>
                            <path d="M38.2346341,50.2960976 L41.0884553,50.2960976 C41.6272697,50.2960976 42.064065,49.8593022 42.064065,49.3204878 C42.064065,48.7816734 41.6272697,48.344878 41.0884553,48.344878 L38.2346341,48.344878 C37.6958198,48.344878 37.2590244,48.7816734 37.2590244,49.3204878 C37.2590244,49.8593022 37.6958198,50.2960976 38.2346341,50.2960976 L38.2346341,50.2960976 Z" id="Path" fill="url(#linearGradient-10)"></path>
                            <path d="M53.1721951,55.322439 L49.3333333,55.322439 C48.7945189,55.322439 48.3577236,55.7592344 48.3577236,56.2980488 C48.3577236,56.8368632 48.7945189,57.2736585 49.3333333,57.2736585 L53.1721951,57.2736585 C53.7110095,57.2736585 54.1478049,56.8368632 54.1478049,56.2980488 C54.1478049,55.7592344 53.7110095,55.322439 53.1721951,55.322439 L53.1721951,55.322439 Z" id="Path" fill="url(#linearGradient-11)"></path>
                            <path d="M38.2346341,57.2736585 L45.703252,57.2736585 C46.2420664,57.2736585 46.6788618,56.8368632 46.6788618,56.2980488 C46.6788618,55.7592344 46.2420664,55.322439 45.703252,55.322439 L38.2346341,55.322439 C37.6958198,55.322439 37.2590244,55.7592344 37.2590244,56.2980488 C37.2590244,56.8368632 37.6958198,57.2736585 38.2346341,57.2736585 L38.2346341,57.2736585 Z" id="Path" fill="url(#linearGradient-12)"></path>
                            <path d="M53.1721951,62.2998374 L49.6502439,62.2998374 C49.1114295,62.2998374 48.6746341,62.7366328 48.6746341,63.2754472 C48.6746341,63.8142615 49.1114295,64.2510569 49.6502439,64.2510569 L53.1721951,64.2510569 C53.7110095,64.2510569 54.1478049,63.8142615 54.1478049,63.2754472 C54.1478049,62.7366328 53.7110095,62.2998374 53.1721951,62.2998374 Z" id="Path" fill="url(#linearGradient-13)"></path>
                            <path d="M38.2346341,64.2510569 L46.1777236,64.2510569 C46.716538,64.2510569 47.1533333,63.8142615 47.1533333,63.2754472 C47.1533333,62.7366328 46.716538,62.2998374 46.1777236,62.2998374 L38.2346341,62.2998374 C37.6958198,62.2998374 37.2590244,62.7366328 37.2590244,63.2754472 C37.2590244,63.8142615 37.6958198,64.2510569 38.2346341,64.2510569 L38.2346341,64.2510569 Z" id="Path" fill="url(#linearGradient-14)"></path>
                            <path d="M53.1721951,69.2773984 L44.5652033,69.2773984 C44.0263889,69.2773984 43.5895935,69.7141937 43.5895935,70.2530081 C43.5895935,70.7918225 44.0263889,71.2286179 44.5652033,71.2286179 L53.1721951,71.2286179 C53.7110095,71.2286179 54.1478049,70.7918225 54.1478049,70.2530081 C54.1478049,69.7141937 53.7110095,69.2773984 53.1721951,69.2773984 L53.1721951,69.2773984 Z" id="Path" fill="url(#linearGradient-15)"></path>
                            <path d="M40.9268293,69.2773984 L38.2346341,69.2773984 C37.6958198,69.2773984 37.2590244,69.7141937 37.2590244,70.2530081 C37.2590244,70.7918225 37.6958198,71.2286179 38.2346341,71.2286179 L40.9268293,71.2286179 C41.4656437,71.2286179 41.902439,70.7918225 41.902439,70.2530081 C41.902439,69.7141937 41.4656437,69.2773984 40.9268293,69.2773984 L40.9268293,69.2773984 Z" id="Path" fill="url(#linearGradient-16)"></path>
                            <path d="M60.2289431,18.1039024 C54.9964211,7.09526132 43.8962245,0.0801178261 31.7073171,0.078699187 C14.284065,0.078699187 0.109105691,14.2881301 0.109105691,31.7534959 C0.109105691,39.1811382 2.38113821,45.7639024 6.8598374,51.3271545 L6.8598374,73.9938211 C6.8605516,75.9492502 8.44408614,77.5350398 10.3995122,77.5385366 L30.1572358,77.5385366 L32.2,79.5313821 C32.7312928,80.0555244 33.58513,80.0555244 34.1164228,79.5313821 L36.1593496,77.5386992 L55.6634146,77.5386992 C57.6188407,77.5352024 59.2023752,75.9494128 59.2030894,73.9939837 L59.2030894,47.5523577 C61.8701296,42.7120764 63.2806376,37.280195 63.30564,31.7538211 C63.318109,27.0305375 62.2665533,22.3650891 60.2289431,18.1039024 Z M58.4666667,18.941626 C60.3793564,22.9415329 61.3663385,27.320957 61.3544176,31.7546341 C61.3544176,31.8213008 61.3513821,31.8887805 61.3508943,31.9556098 L60.1671545,32.0749593 C60.1064499,32.0811382 60.0456911,32.0855827 59.984878,32.0882927 L59.3995122,32.1149593 C57.9401889,32.1764459 56.6445868,33.0671328 56.0645528,34.4076423 L55.9146341,34.7491057 C55.3655935,36.0059196 54.124838,36.8187095 52.7533333,36.8200009 L50.2627642,36.8200009 C49.5374359,36.8207986 48.9306795,36.2694132 48.8622764,35.5473171 L48.7627642,34.5489431 C48.65049,33.3920393 48.0148872,32.3501539 47.037561,31.7209756 C46.5565538,31.4107436 46.266633,30.8769243 46.2682856,30.3045528 L46.2682856,29.3045528 C46.2680376,28.6704991 46.5394432,28.0667179 47.0138211,27.6460163 L51.2682856,23.8780488 C52.4185209,22.8552843 52.8708292,21.2580588 52.4276423,19.784065 C51.9672737,18.2596877 50.6514374,17.1500683 49.0712195,16.9536585 L48.641626,16.9006504 C48.0675917,16.8299145 47.5399325,16.5495811 47.16,16.1134959 C46.7576977,15.6516123 46.6886683,14.986887 46.9874797,14.4521951 L50.4650407,8.7104065 C51.1233604,9.24623306 51.7575068,9.80921409 52.3674797,10.3993496 C54.8966183,12.8577532 56.9626173,15.7513085 58.4666667,18.941626 L58.4666667,18.941626 Z M46.5260163,6.00357724 C47.3435772,6.47176152 48.1360434,6.97799458 48.9034146,7.52227642 L45.3113821,13.4539837 C45.3068293,13.4614634 45.302439,13.4689431 45.2982114,13.4764228 C44.5827938,14.7338527 44.7403531,16.30612 45.6910569,17.3965854 C46.3867915,18.1948477 47.3529291,18.7079128 48.4039024,18.8372358 L48.8333333,18.8902439 C49.6469633,18.9918161 50.3242008,19.563554 50.560813,20.3486179 C50.7848501,21.0933169 50.5564802,21.900351 49.9754472,22.4172358 L45.7203252,26.1852033 C44.827928,26.9762001 44.3170982,28.1115682 44.3170732,29.304065 L44.3170732,30.304065 C44.3140945,31.5387776 44.9400045,32.6900377 45.9778862,33.3588618 C46.455718,33.6667005 46.7663408,34.1763374 46.8209756,34.7421138 L46.9206504,35.7404878 C47.0858746,37.4616371 48.5337064,38.7743643 50.2627642,38.7707317 L52.7536585,38.7707317 C54.9000084,38.7694009 56.8421664,37.4980924 57.7021138,35.5315447 L57.8520325,35.1900813 C58.1364508,34.5318519 58.7722241,34.0942326 59.4886179,34.0635772 L60.0739837,34.0369106 C60.1704065,34.0326829 60.2669919,34.0255285 60.3630894,34.015935 L61.2673171,33.9247154 C60.9805352,37.5232271 60.0867755,41.0472475 58.6239024,44.3474797 C57.9712626,43.3472923 56.8580232,42.7439233 55.6637398,42.7430894 L36.2744715,42.7430894 C35.5148696,42.7422822 34.7681289,42.939138 34.1076423,43.3143089 C34.3545386,42.7314371 34.7479136,42.2222845 35.2495935,41.8362602 L38.6804878,39.1947967 C39.3329448,38.6919374 39.7511936,37.9439763 39.8379939,37.1248101 C39.9247942,36.3056438 39.6725838,35.4866397 39.14,34.8582114 L36.875935,32.1879675 C36.7733333,32.0668293 36.6747967,31.9403252 36.583252,31.8118699 L34.8027642,29.324065 C33.5653576,27.597671 31.6024841,26.5365691 29.4803252,26.4468293 L26.1652033,24.4528455 C24.5737096,23.5008905 22.5996838,23.4528188 20.9637398,24.3261789 L19.0996748,25.3273171 C18.2590105,25.7743503 17.2159029,25.4989087 16.7055285,24.695122 L14.8943089,21.8282927 C14.4478166,21.1212783 14.4617907,20.2171064 14.9299187,19.5242276 C15.4784658,18.7059839 16.4429151,18.2687602 17.4198374,18.3954472 L20.1601626,18.7442276 C21.8615302,18.9617981 23.5282813,18.1417686 24.3941463,16.6611382 C24.8887766,15.8147337 25.8414187,15.3459347 26.8138211,15.4704065 L28.000813,15.6222764 C29.4989197,15.8107382 30.9848632,15.1921363 31.9066667,13.9962602 L32.9531707,12.6352846 C34.3914487,10.7734302 34.4563393,8.19393079 33.1134959,6.26211382 L30.2118699,2.06699187 C30.7071545,2.04205962 31.2054201,2.02926671 31.7066667,2.02926671 C36.9100244,2.02756578 42.0217673,3.39845223 46.5260163,6.00357724 L46.5260163,6.00357724 Z M27.9762602,2.26455285 L31.5094309,7.37268293 C32.3679403,8.60749974 32.32641,10.2564695 31.4068293,11.4465041 L30.3604878,12.8074797 C29.8619986,13.4537262 29.0589673,13.788235 28.2491057,13.6869919 L27.0621138,13.5349593 C25.3142481,13.3100892 23.6013136,14.1521507 22.7118699,15.6734959 C22.2407017,16.4797313 21.3334951,16.9265501 20.4071545,16.8086179 L17.6666667,16.4598374 C15.9590186,16.2379461 14.2729205,17.001795 13.3136585,18.4318699 C12.4117237,19.7667946 12.3849227,21.5088561 13.2453659,22.8708943 L15.0569106,25.7364228 C16.1164074,27.403202 18.2804465,27.9734355 20.0237398,27.0452033 L21.8876423,26.0442276 C22.9169341,25.4948905 24.1588234,25.5251263 25.1601626,26.1239024 L28.6977236,28.2518699 C28.8496079,28.3431315 29.023457,28.3913573 29.2006504,28.3913821 C30.7941049,28.3939178 32.2889142,29.1633513 33.2169106,30.4586992 L34.9972358,32.9465041 C35.1198374,33.1178862 35.2515447,33.2868293 35.3887805,33.4487805 L37.6530081,36.119187 C37.8405852,36.3407097 37.9294233,36.6292998 37.8988989,36.9179618 C37.8683744,37.2066238 37.7211423,37.4702508 37.4913821,37.6476423 L34.0604878,40.2891057 C33.1316095,41.0015181 32.4483765,41.9862059 32.1061789,43.1056911 L31.9655285,43.5629268 C31.2197478,43.0282753 30.3249444,42.7412307 29.4073171,42.7422764 L22.3239024,42.7422764 L20.0229268,39.7178862 C19.6847375,39.2743075 19.4347992,38.7699598 19.2866667,38.2321951 L18.0193496,33.6484553 C17.5555376,31.9843856 16.2535114,30.6851362 14.5884553,30.224878 L14.3130081,30.1495935 C13.7702856,30.0005256 13.2723176,29.7208374 12.8626016,29.3349593 L10.4988618,27.1045528 C10.1285682,26.7554617 9.81089464,26.354481 9.55577236,25.9141463 C8.40966773,23.9334035 6.13142896,22.9000025 3.88617886,23.342439 L3.23219512,23.4725203 C6.48227642,12.2588618 16.155935,3.75934959 27.9762602,2.26455285 L27.9762602,2.26455285 Z M2.06032445,31.7538211 C2.05985862,29.673762 2.27714026,27.5993682 2.70861789,25.5645528 L4.26520325,25.2565854 C5.69234269,24.9755758 7.1402996,25.6327104 7.86845528,26.8918699 C8.21790553,27.4953391 8.65299988,28.0449579 9.1601626,28.5235772 L11.5239024,30.7538211 C12.1665138,31.3592728 12.9477359,31.797981 13.799187,32.0315447 L14.0746341,32.1068293 C15.0766186,32.3843669 15.859898,33.166659 16.1386992,34.1682927 L17.4060163,38.7520325 C17.6202662,39.5288805 17.9814143,40.257469 18.4699187,40.898374 L19.8720325,42.7414634 L10.3995122,42.7414634 C8.44408614,42.7449602 6.8605516,44.3307498 6.8598374,46.2861789 L6.8598374,48.0395122 C3.67479675,43.2892683 2.06032445,37.8245528 2.06032445,31.7538211 L2.06032445,31.7538211 Z M31.3508943,75.9769106 C31.0950632,75.7262474 30.7510092,75.5861032 30.3928455,75.5866667 L10.3995122,75.5866667 C9.52119448,75.5844248 8.81051597,74.8714911 8.81105649,73.9931707 L8.81105649,46.2858537 C8.81042643,45.4074963 9.52115722,44.6945101 10.3995122,44.6923577 L29.4076423,44.6923577 C30.7670616,44.6959453 31.8662538,45.8007426 31.8629268,47.1601626 L32.1586992,76.7645528 L31.3508943,75.9769106 Z M57.2520328,73.9944715 C57.2525735,74.872792 56.5418949,75.5857257 55.6635772,75.5879675 L35.9237398,75.5879675 C35.5655199,75.5873614 35.2213997,75.7275088 34.9655285,75.9782114 L34.1108943,76.8118699 L33.8146341,47.1533333 L33.818374,47.1533333 C33.8193587,45.7969601 34.9180996,44.6973464 36.2744715,44.6952846 L55.6634146,44.6952846 C56.5417696,44.6974369 57.2525004,45.4104231 57.2520328,46.2887805 L57.2520328,73.9944715 Z" id="Shape" fill="url(#linearGradient-17)"></path>
                        </g>
                    </g>
                </g>
            </g>
        </g>
    </g>
</svg>