<?xml version="1.0" encoding="UTF-8"?>
<svg width="78px" height="80px" viewBox="0 0 78 80" version="1.1" xmlns="http://www.w3.org/2000/svg" xmlns:xlink="http://www.w3.org/1999/xlink">
    <title>global</title>
    <g id="Page-1" stroke="none" stroke-width="1" fill="none" fill-rule="evenodd">
        <g id="Agents-Final" transform="translate(-840.000000, -2994.000000)" fill="#90B0D4" fill-rule="nonzero">
            <g id="GREAT-OPPORTUNITIES" transform="translate(0.000000, 2025.000000)">
                <g id="row-2" transform="translate(100.000000, 934.000000)">
                    <g id="opo-3" transform="translate(632.000000, 0.000000)">
                        <g id="global" transform="translate(108.000000, 35.000000)">
                            <path d="M73.4121951,3.74178862 C71.0286664,1.34660723 67.7889058,2.44422271e-05 64.4098374,2.44422271e-05 C61.030769,2.44422271e-05 57.7910084,1.34660723 55.4074797,3.74178862 C53.1113418,6.05651284 51.7316187,9.12477204 51.5237398,12.3785366 C51.5091057,12.5980488 51.5022764,12.817561 51.4998374,13.0386992 C36.1553178,5.25755941 17.4372781,9.65077574 7.15688666,23.4462087 C-3.1235048,37.2416416 -1.9817906,56.4343967 9.86160242,68.9137581 C21.7049954,81.3931194 40.8118613,83.5362559 55.1256808,73.9908386 C69.4395002,64.4454212 74.804888,45.9825403 67.8362602,30.2523577 L74.5821138,21.2341463 C76.5422764,18.620813 77.5060163,15.4754472 77.2960976,12.3801626 C77.088502,9.12581969 75.7087002,6.05693614 73.4121951,3.74178862 L73.4121951,3.74178862 Z M31.3354472,11.4146341 L35.3481301,17.2013008 C36.3419153,18.6268554 36.2938318,20.5328718 35.2294309,21.9065041 L34.0533333,23.4323577 C33.4654503,24.1914884 32.5205066,24.5839064 31.5678049,24.4645528 L30.2344715,24.2939837 C28.3192513,24.0482315 26.4421897,24.9691025 25.4643902,26.6341463 C24.9087009,27.5805002 23.8420847,28.1041479 22.7534959,27.9650407 L19.6730081,27.5738211 C17.8003602,27.3300753 15.9508871,28.16616 14.896748,29.7330081 C13.9090968,31.19048 13.8797218,33.0948738 14.8219512,34.5821138 L16.8569106,37.7954472 C18.0161208,39.6115454 20.3761007,40.2323096 22.2788618,39.221626 L24.3739837,38.0996748 C25.5694774,37.4634212 27.0105907,37.4983868 28.1738211,38.1918699 L32.1500813,40.5777236 C32.3017307,40.6686438 32.4752162,40.7166937 32.6520325,40.716748 C34.4810585,40.7189048 36.1975869,41.6000072 37.2655285,43.084878 L39.2666667,45.8744715 C39.403252,46.064878 39.5492683,46.2517073 39.7006504,46.4297561 L42.2458537,49.4239024 C42.477471,49.6965422 42.5871935,50.0522137 42.5494283,50.4079563 C42.5116631,50.7636989 42.3297123,51.0884068 42.0460163,51.3063415 L38.1887805,54.2681301 C37.1655217,55.0510468 36.4123971,56.1340614 36.0346341,57.3658537 L34.7500813,61.5344715 C34.6485558,61.8651419 34.4822359,62.1723003 34.260813,62.4380488 L33.0102439,63.9421138 C32.0805078,65.0581151 31.5047984,66.4260831 31.356748,67.8710569 C31.2821987,68.5936963 30.818973,69.217941 30.1489431,69.4986992 C29.8673864,69.6168229 29.5472665,69.5996816 29.2799337,69.4521669 C29.0126009,69.3046522 28.8274204,69.0429678 28.7772358,68.7417886 L27.599187,61.6734959 C27.4523372,60.7972876 27.0943892,59.9700003 26.5562602,59.2630894 L22.24,53.6045528 C21.8510974,53.0954797 21.5635111,52.5164982 21.3928455,51.8990244 L19.9684553,46.7595122 C19.4571651,44.9323 18.0255013,43.5068072 16.1960976,43.0034146 L15.8863415,42.9186992 C15.2572707,42.7466781 14.6798714,42.4232831 14.2045528,41.976748 L11.5476423,39.475935 C11.1234201,39.0768177 10.759405,38.6182112 10.4669919,38.1144715 C9.20194371,35.9366454 6.69413287,34.8017304 4.22308943,35.2887805 L3.29235772,35.4725203 C6.91056911,22.7395122 17.9013008,13.078374 31.3354472,11.4146341 L31.3354472,11.4146341 Z M35.4704065,78.0487805 C17.0287805,78.0487805 2.02536524,63.0453659 2.02536524,44.6037398 C2.02536524,42.237273 2.27563764,39.8774418 2.77333333,37.5639024 L4.60162602,37.203252 C6.25542063,36.8771017 7.93391099,37.6366676 8.7804878,39.0943089 C9.16772881,39.7612398 9.64971758,40.3684361 10.2113821,40.8969106 L12.8678049,43.398374 C13.5758952,44.0636962 14.4361158,44.5455291 15.3733333,44.8017886 L15.683252,44.8865041 C16.8492497,45.2075018 17.761753,46.1160559 18.0878049,47.2806504 L19.5121951,52.4195122 C19.7490323,53.2767435 20.1482956,54.0805141 20.6882927,54.7871545 L25.0043902,60.4456911 C25.350063,60.8996191 25.5799432,61.4309276 25.6741463,61.9936585 L26.8521951,69.0617886 C26.9988773,69.9521168 27.5455093,70.7261133 28.3355247,71.1620899 C29.1255401,71.5980665 30.071791,71.64793 30.903252,71.2973984 C32.2314464,70.7410566 33.1496676,69.5036441 33.2972358,68.0712195 C33.4059073,67.0112008 33.8282418,66.0076752 34.5102439,65.1889431 L35.760813,63.6850407 C36.1471282,63.2214016 36.4373165,62.6855206 36.6144715,62.1086179 L37.8990244,57.94 C38.1579886,57.0946414 38.6747096,56.3513682 39.3769106,55.8141463 L43.2339837,52.8523577 C43.9414767,52.309047 44.3952444,51.4993995 44.4894015,50.6123441 C44.5835586,49.7252887 44.3098681,48.8384247 43.7321951,48.1586992 L41.1869919,45.164878 C41.0700813,45.0273171 40.9573984,44.8830894 40.8518699,44.7360976 L38.8505691,41.9465041 C37.4731035,40.0308508 35.2883744,38.8584372 32.9305691,38.7695935 L29.1773984,36.517561 C27.4247497,35.4727712 25.2534892,35.4200468 23.4521951,36.3785366 L21.3570732,37.5004878 C20.3562251,38.0322021 19.1148047,37.70571 18.5050407,36.7504065 L16.4700813,33.5369106 C15.9432407,32.7055545 15.9596534,31.6409002 16.5118699,30.8261789 C17.1556466,29.8704087 18.2842492,29.3604979 19.4269919,29.5091057 L22.5073171,29.9004878 C24.3701791,30.1382642 26.1953229,29.2421333 27.1463415,27.6227642 C27.7284205,26.6312567 28.846136,26.0829253 29.9865041,26.2294309 L31.3206504,26.3998374 C32.9603239,26.6050687 34.5866003,25.9298333 35.5986992,24.6235772 L36.7747967,23.097561 C38.3602013,21.0516237 38.4318005,18.2126854 36.9515447,16.0894309 L33.5708943,11.2139837 C34.1998374,11.1785366 34.8326829,11.1588614 35.4704065,11.1588614 C41.146005,11.1579844 46.7284435,12.6016751 51.6920325,15.3539837 C51.9804584,16.9485891 52.5450884,18.4805901 53.3604878,19.8809756 L50.8525203,24.1682927 C50.072772,25.5346367 50.2442951,27.2449729 51.2798374,28.4292683 C52.0429377,29.3022317 53.101321,29.8629201 54.2521951,30.0039024 L54.7349593,30.0634146 C55.6958386,30.1819995 56.4965353,30.8557907 56.777561,31.7822764 C57.0424889,32.6613441 56.7720689,33.6142253 56.084878,34.2230894 L51.3022764,38.4476423 C50.3250323,39.3113713 49.7652836,40.5528363 49.7650407,41.8570732 L49.7650407,42.9780488 C49.7619837,44.3234482 50.4451784,45.577535 51.5772358,46.3045528 C52.1442907,46.6685726 52.5133672,47.2722763 52.5788618,47.9429268 L52.6907317,49.0621138 C52.8720622,50.9330292 54.4473183,52.3586701 56.3269919,52.3530081 L59.1268293,52.3530081 C61.4894852,52.3525839 63.6284266,50.9553753 64.5782114,48.7920325 L64.7463415,48.4091057 C65.0855488,47.6283865 65.8410541,47.1101489 66.6915447,47.0747967 L67.3505691,47.0447154 C67.4564228,47.0398374 67.5619512,47.0321951 67.6674797,47.021626 L68.8346341,46.9042276 C67.6484553,64.2764228 53.1382114,78.0487805 35.4704065,78.0487805 L35.4704065,78.0487805 Z M68.9153763,44.6037398 C68.9153763,44.7147967 68.9121951,44.8252033 68.9110569,44.935935 L67.4718699,45.0806504 C67.4013008,45.0878049 67.3304065,45.0928455 67.2604878,45.0969106 L66.6026016,45.1266667 C65.0096569,45.1930377 63.5946765,46.1637448 62.9593496,47.6260163 L62.7912195,48.0089431 C62.1526163,49.4631174 60.7147222,50.4024461 59.1265041,50.4024461 L56.3271545,50.4024461 C55.451215,50.4049445 54.7171663,49.7406241 54.6325203,48.8687805 L54.5204878,47.7494309 C54.3973736,46.4870959 53.7026837,45.35075 52.6352846,44.6656911 C52.0612066,44.2971196 51.7147269,43.6612326 51.7162551,42.9790244 L51.7162551,41.8580488 C51.7162551,41.1132083 52.036127,40.4042306 52.5943089,39.9110569 L57.3769106,35.6865041 C58.6349836,34.5715052 59.130083,32.8268513 58.6452033,31.2172358 C58.1397448,29.5520071 56.700472,28.3410344 54.9733333,28.1278049 L54.4905691,28.0684553 C53.8159894,27.9858387 53.1956405,27.657136 52.7484553,27.1453659 C52.2616278,26.5903098 52.1788066,25.7881833 52.5419512,25.1453659 L54.5691057,21.6782114 L63.6286179,33.7886179 C63.8128159,34.0348564 64.1023276,34.1798387 64.4098374,34.1798387 C64.7173472,34.1798387 65.0068589,34.0348564 65.1910569,33.7886179 L66.483252,32.0613008 C68.0993898,36.0449089 68.9253998,40.3047944 68.9153763,44.6037398 L68.9153763,44.6037398 Z M73.0204878,20.0650407 L64.4099187,31.5760976 L55.8063415,20.0746341 C54.1282927,17.7733333 53.2988618,15.0863415 53.4707317,12.5074797 C53.6476994,9.72384448 54.8274086,7.0986422 56.7913821,5.11804878 C58.8086578,3.09130683 61.5503586,1.95189591 64.4099187,1.95189591 C67.2694788,1.95189591 70.0111796,3.09130683 72.0284553,5.11804878 C73.9928124,7.09928473 75.1726897,9.72522643 75.3495935,12.5095935 C75.5284553,15.1411382 74.700813,17.8239024 73.0204878,20.0650407 Z" id="Shape"></path>
                            <path d="M64.261626,7.19918699 C60.965878,7.19918699 58.2941463,9.87091865 58.2941463,13.1666667 C58.2941463,16.4624147 60.965878,19.1341463 64.261626,19.1341463 C67.557374,19.1341463 70.2291057,16.4624147 70.2291057,13.1666667 C70.2253422,9.87247878 67.5558139,7.20295045 64.261626,7.19918699 L64.261626,7.19918699 Z M67.0874797,16.0097561 C65.7261561,17.3580827 63.6021481,17.557507 62.0136384,16.4861418 C60.4251286,15.4147765 59.8141906,13.3707769 60.5542263,11.6034248 C61.2942621,9.83607258 63.1793238,8.8372122 65.0572716,9.21734185 C66.9352195,9.59747151 68.2834309,11.2508032 68.2779032,13.1668293 C68.2774149,14.2355692 67.8486516,15.2595411 67.0874797,16.0097561 L67.0874797,16.0097561 Z" id="Shape"></path>
                        </g>
                    </g>
                </g>
            </g>
        </g>
    </g>
</svg>