<?xml version="1.0" encoding="UTF-8"?>
<svg width="83px" height="80px" viewBox="0 0 83 80" version="1.1" xmlns="http://www.w3.org/2000/svg" xmlns:xlink="http://www.w3.org/1999/xlink">
    <title>open-book</title>
    <g id="Page-1" stroke="none" stroke-width="1" fill="none" fill-rule="evenodd">
        <g id="Agents-Final" transform="translate(-1154.000000, -2995.000000)" fill="#90B0D4" fill-rule="nonzero">
            <g id="GREAT-OPPORTUNITIES" transform="translate(0.000000, 2025.000000)">
                <g id="row-2" transform="translate(100.000000, 934.000000)">
                    <g id="opo-4" transform="translate(948.000000, 0.000000)">
                        <g id="open-book" transform="translate(106.000000, 36.000000)">
                            <path d="M77.9492887,25.9479498 L75.7608368,25.9479498 L75.7608368,25.5705439 C75.7588248,23.1517832 73.80201,21.1896567 71.3832636,21.1810879 L60.5661925,21.0050209 L60.5661925,16.9462762 C60.5661593,16.4289815 60.1731564,15.9963523 59.6582427,15.9467782 L56.3266946,15.6261088 C55.9556458,14.2394377 55.3956427,12.9103877 54.6624268,11.676318 L56.7792469,9.12334728 C57.1086347,8.72599072 57.0831612,8.14364607 56.7203347,7.77656904 L52.9205021,3.93305439 C52.5548462,3.56310476 51.9672132,3.5336178 51.5663598,3.8651046 L49.0041841,5.98543933 C47.767698,5.25483444 46.4384987,4.6939835 45.0523849,4.31799163 L44.7312134,0.991464435 C44.6815772,0.476808335 44.2492616,0.0836820084 43.7322176,0.0836820084 L38.2761506,0.0836820084 C37.7589142,0.0836820084 37.3263074,0.476616951 37.2766527,0.991464435 L36.9558159,4.31799163 C35.5668484,4.68850806 34.2353539,5.24804662 32.9986611,5.9809205 L30.4410042,3.8651046 C30.0421079,3.5352475 29.4578348,3.56263869 29.0915481,3.9283682 L25.2435146,7.77138075 C24.8765305,8.13788892 24.8490413,8.72357516 25.1800837,9.12284519 L27.3019247,11.6820084 C26.5711437,12.9158408 26.0098378,14.2424612 25.6331381,15.6261088 L22.3012552,15.9469456 C21.7862752,15.996439 21.3931795,16.4290906 21.3931381,16.9464435 L21.3931381,21.1807531 L11.1914644,21.1807531 C8.76714056,21.1822267 6.80153257,23.145888 6.7976569,25.5702092 L6.7976569,25.9476151 L4.39380753,25.9476151 C1.9693532,25.9490889 0.00369128717,27.9129539 -4.28109431e-14,30.3374059 L-4.28109431e-14,69.0053556 C0.00378152858,71.4289318 1.96822134,73.3923235 4.39179916,73.3948117 L28.1276987,73.4440167 L28.1276987,78.6108787 C28.1283686,79.1323119 28.4392707,79.6033318 28.9184705,79.8089059 C29.3976702,80.01448 29.95324,79.9146718 30.3315481,79.556318 L32.3380753,77.6497071 L34.3444351,79.556318 C34.7227433,79.9146718 35.2783131,80.01448 35.7575128,79.8089059 C36.2367126,79.6033318 36.5476147,79.1323119 36.5482845,78.6108787 L36.5482845,73.3948117 L77.9492887,73.3948117 C80.3735744,73.3932461 82.3391286,71.4296386 82.3430962,69.0053556 L82.3430962,30.3374059 C82.3392206,27.9130846 80.3736126,25.9494233 77.9492887,25.9479498 L77.9492887,25.9479498 Z M73.7524686,25.5705439 L73.7524686,64.4721339 L44.9352301,64.4721339 C44.5368772,64.4712976 44.1540909,64.6267557 43.8691213,64.9051046 L42.2599163,66.4701255 L41.9872803,39.2567364 L43.7322176,39.2567364 C44.249454,39.2567116 44.6820608,38.8638015 44.7317155,38.348954 L45.0527197,35.0230962 C46.4416787,34.652477 47.7731669,34.0928848 49.0098745,33.36 L51.5675314,35.4751464 C51.9664132,35.8051506 52.5508016,35.7778299 52.9171548,35.4120502 L56.7650209,31.5690377 C57.1321056,31.2025074 57.1595969,30.6167034 56.8284519,30.2174059 L54.7062762,27.6590795 C55.437186,26.424995 55.9985502,25.0980881 56.3752301,23.7141423 L59.6594142,23.3939749 C59.9327461,23.3665589 60.1827092,23.2277443 60.3504603,23.0102092 L71.3670293,23.1894561 C72.6826592,23.1897302 73.7497924,24.2549167 73.7524686,25.5705439 L73.7524686,25.5705439 Z M23.4015063,17.8577406 L26.5364017,17.5564854 C26.9711234,17.5146668 27.3289722,17.1966692 27.42159,16.7698745 C27.788932,15.1212663 28.4517889,13.5528074 29.3780753,12.1404184 C29.6160321,11.7721191 29.5875074,11.2920094 29.3076151,10.954477 L27.3104603,8.54560669 L29.8646025,5.99464435 L32.2784937,7.99096234 C32.6199415,8.27337278 33.1061326,8.29860385 33.4749791,8.05305439 C34.8821851,7.12329001 36.450046,6.46336508 38.0985774,6.10694561 C38.5257123,6.0147288 38.8441792,5.65687642 38.8861925,5.22192469 L39.1882845,2.09221757 L42.8200837,2.09221757 L43.1221757,5.22192469 C43.164189,5.65687642 43.4826559,6.0147288 43.9097908,6.10694561 C45.5602738,6.47373699 47.1308557,7.13587616 48.5457741,8.06142259 C48.9136205,8.29838972 49.3925633,8.26988605 49.7297071,7.99096234 L52.1389121,5.99933054 L54.6527197,8.54192469 L52.6517155,10.9543096 C52.3682675,11.2961042 52.3429493,11.7834787 52.5894561,12.1528033 C53.5200882,13.5574209 54.1807962,15.1231756 54.5377406,16.7698745 C54.6303583,17.1966692 54.9882072,17.5146668 55.4229289,17.5564854 L58.5578243,17.8577406 L58.5578243,21.4828452 L55.4704603,21.7841004 C55.0361867,21.8264007 54.6789262,22.1442962 54.5864435,22.5707113 C54.2190556,24.2193048 53.5562021,25.7877557 52.6299582,27.2001674 C52.3920839,27.568429 52.4206069,28.0484413 52.7004184,28.3859414 L54.6977406,30.7949791 L52.143431,33.3459414 L49.7297071,31.3496234 C49.3882593,31.067213 48.9020682,31.0419819 48.5332218,31.2875314 C47.1259558,32.2172975 45.5580399,32.8772217 43.9094561,33.2336402 C43.4823212,33.325857 43.1638542,33.6837093 43.121841,34.1186611 L42.819749,37.2483682 L39.1879498,37.2483682 L38.8858577,34.1186611 C38.8438445,33.6837093 38.5253775,33.325857 38.0982427,33.2336402 C36.4477766,32.8668827 34.8771984,32.2048018 33.4622594,31.2793305 C33.0944488,31.0423163 32.6155077,31.0707522 32.2783264,31.3496234 L29.8644351,33.3459414 L27.3104603,30.7949791 L29.3076151,28.3862762 C29.591063,28.0444816 29.6163812,27.5571071 29.3698745,27.1877824 C28.4392891,25.7832007 27.7785841,24.2175098 27.42159,22.5708787 C27.3289722,22.144084 26.9711234,21.8260863 26.5364017,21.7842678 L23.4015063,21.4830126 L23.4015063,17.8577406 Z M8.8060251,25.5698745 C8.80870137,24.2542472 9.87583448,23.1887866 11.1914644,23.1887866 L21.7842678,23.1887866 C21.933777,23.3045251 22.113039,23.3754987 22.3012552,23.3934728 L25.632636,23.7141423 C26.0037711,25.1007837 26.5637694,26.4298221 27.2969038,27.6639331 L25.1800837,30.216569 C24.8489386,30.6158666 24.8764299,31.2016706 25.2435146,31.5682008 L29.0915481,35.4112134 C29.4578348,35.7769429 30.0421079,35.8043341 30.4410042,35.474477 L33.0041841,33.3556485 C34.2404661,34.0861875 35.5694353,34.6470363 36.9553138,35.0230962 L37.276318,38.3496234 C37.3259727,38.8644709 37.7585795,39.257381 38.2758159,39.2574059 L39.9782427,39.2574059 L40.2505439,66.4239331 L38.6888703,64.905272 C38.4039007,64.6269231 38.0211145,64.471465 37.6227615,64.4723013 L11.1914644,64.4723013 C9.87583448,64.4720271 8.80870137,63.4068406 8.8060251,62.0912134 L8.8060251,25.5698745 Z M4.39380753,71.3864435 C3.07817758,71.3861694 2.01104447,70.3209829 2.0083682,69.0053556 L2.0083682,30.3374059 C2.01113646,29.0218169 3.07821567,27.956318 4.39380753,27.956318 L6.7976569,27.956318 L6.7976569,62.091046 C6.80153257,64.5153673 8.76714056,66.4790286 11.1914644,66.4805021 L28.1276987,66.4805021 L28.1276987,71.4356485 L4.39380753,71.3864435 Z M33.2369874,75.7335565 C32.733166,75.2550525 31.9428173,75.2550525 31.4389958,75.7335565 L30.1360669,76.9720502 L30.1360669,66.4805021 L34.5399163,66.4805021 L34.5399163,76.9718828 L33.2369874,75.7335565 Z M80.334728,69.0053556 C80.3320518,70.3209829 79.2649187,71.3864435 77.9492887,71.3864435 L36.5482845,71.3864435 L36.5482845,66.4805021 L37.4287866,66.4805021 L40.212887,69.1882845 C40.8048324,69.769904 41.7536613,69.769904 42.3456067,69.1882845 L45.1297071,66.4805021 L74.4214226,66.4805021 C75.1605011,66.47958 75.7594126,65.8806684 75.7603347,65.14159 L75.7603347,27.956318 L77.9487866,27.956318 C79.2645745,27.956318 80.3319593,29.0216209 80.334728,30.3374059 L80.334728,69.0053556 Z" id="Shape"></path>
                            <path d="M28.9387448,41.7481172 L33.465272,41.7481172 C34.0198675,41.7481172 34.4694561,41.2985286 34.4694561,40.7439331 C34.4694561,40.1893375 34.0198675,39.739749 33.465272,39.739749 L28.9387448,39.739749 C28.3841492,39.739749 27.9345607,40.1893375 27.9345607,40.7439331 C27.9345607,41.2985286 28.3841492,41.7481172 28.9387448,41.7481172 L28.9387448,41.7481172 Z" id="Path"></path>
                            <path d="M14.3703766,41.7481172 L25.4225941,41.7481172 C25.9771897,41.7481172 26.4267782,41.2985286 26.4267782,40.7439331 C26.4267782,40.1893375 25.9771897,39.739749 25.4225941,39.739749 L14.3703766,39.739749 C13.815781,39.739749 13.3661925,40.1893375 13.3661925,40.7439331 C13.3661925,41.2985286 13.815781,41.7481172 14.3703766,41.7481172 Z" id="Path"></path>
                            <path d="M33.465272,48.2028452 L20.556318,48.2028452 C20.0017224,48.2028452 19.5521339,48.6524337 19.5521339,49.2070293 C19.5521339,49.7616249 20.0017224,50.2112134 20.556318,50.2112134 L33.465272,50.2112134 C34.0198675,50.2112134 34.4694561,49.7616249 34.4694561,49.2070293 C34.4694561,48.6524337 34.0198675,48.2028452 33.465272,48.2028452 L33.465272,48.2028452 Z" id="Path"></path>
                            <path d="M14.3703766,50.2112134 L16.9372385,50.2112134 C17.4918341,50.2112134 17.9414226,49.7616249 17.9414226,49.2070293 C17.9414226,48.6524337 17.4918341,48.2028452 16.9372385,48.2028452 L14.3703766,48.2028452 C13.815781,48.2028452 13.3661925,48.6524337 13.3661925,49.2070293 C13.3661925,49.7616249 13.815781,50.2112134 14.3703766,50.2112134 L14.3703766,50.2112134 Z" id="Path"></path>
                            <path d="M33.465272,56.6661088 L28.065272,56.6661088 C27.5106764,56.6661088 27.0610879,57.1156973 27.0610879,57.6702929 C27.0610879,58.2248885 27.5106764,58.674477 28.065272,58.674477 L33.465272,58.674477 C34.0198675,58.674477 34.4694561,58.2248885 34.4694561,57.6702929 C34.4694561,57.1156973 34.0198675,56.6661088 33.465272,56.6661088 L33.465272,56.6661088 Z" id="Path"></path>
                            <path d="M14.3703766,58.674477 L24.4769874,58.674477 C25.031583,58.674477 25.4811715,58.2248885 25.4811715,57.6702929 C25.4811715,57.1156973 25.031583,56.6661088 24.4769874,56.6661088 L14.3703766,56.6661088 C13.815781,56.6661088 13.3661925,57.1156973 13.3661925,57.6702929 C13.3661925,58.2248885 13.815781,58.674477 14.3703766,58.674477 Z" id="Path"></path>
                            <path d="M22.6945607,33.2848536 L23.2970711,33.2848536 C23.8516667,33.2848536 24.3012552,32.835265 24.3012552,32.2806695 C24.3012552,31.7260739 23.8516667,31.2764854 23.2970711,31.2764854 L22.6945607,31.2764854 C22.1399651,31.2764854 21.6903766,31.7260739 21.6903766,32.2806695 C21.6903766,32.835265 22.1399651,33.2848536 22.6945607,33.2848536 Z" id="Path"></path>
                            <path d="M14.3703766,33.2848536 L19.0585774,33.2848536 C19.613173,33.2848536 20.0627615,32.835265 20.0627615,32.2806695 C20.0627615,31.7260739 19.613173,31.2764854 19.0585774,31.2764854 L14.3703766,31.2764854 C13.815781,31.2764854 13.3661925,31.7260739 13.3661925,32.2806695 C13.3661925,32.835265 13.815781,33.2848536 14.3703766,33.2848536 Z" id="Path"></path>
                            <path d="M63.6940586,33.2848536 L67.0229289,33.2848536 C67.5775244,33.2848536 68.027113,32.835265 68.027113,32.2806695 C68.027113,31.7260739 67.5775244,31.2764854 67.0229289,31.2764854 L63.6940586,31.2764854 C63.139463,31.2764854 62.6898745,31.7260739 62.6898745,32.2806695 C62.6898745,32.835265 63.139463,33.2848536 63.6940586,33.2848536 Z" id="Path"></path>
                            <path d="M60.0533891,31.2764854 L58.0967364,31.2764854 C57.5421408,31.2764854 57.0925523,31.7260739 57.0925523,32.2806695 C57.0925523,32.835265 57.5421408,33.2848536 58.0967364,33.2848536 L60.0533891,33.2848536 C60.6079847,33.2848536 61.0575732,32.835265 61.0575732,32.2806695 C61.0575732,31.7260739 60.6079847,31.2764854 60.0533891,31.2764854 Z" id="Path"></path>
                            <path d="M64.598159,39.739749 C64.0435634,39.739749 63.5939749,40.1893375 63.5939749,40.7439331 C63.5939749,41.2985286 64.0435634,41.7481172 64.598159,41.7481172 L67.361841,41.7481172 C67.9164366,41.7481172 68.3660251,41.2985286 68.3660251,40.7439331 C68.3660251,40.1893375 67.9164366,39.739749 67.361841,39.739749 L64.598159,39.739749 Z" id="Path"></path>
                            <path d="M48.2667782,39.739749 C47.7121827,39.739749 47.2625941,40.1893375 47.2625941,40.7439331 C47.2625941,41.2985286 47.7121827,41.7481172 48.2667782,41.7481172 L60.9767364,41.7481172 C61.531332,41.7481172 61.9809205,41.2985286 61.9809205,40.7439331 C61.9809205,40.1893375 61.531332,39.739749 60.9767364,39.739749 L48.2667782,39.739749 Z" id="Path"></path>
                            <path d="M67.361841,48.2028452 L56.1407531,48.2028452 C55.5861576,48.2028452 55.136569,48.6524337 55.136569,49.2070293 C55.136569,49.7616249 55.5861576,50.2112134 56.1407531,50.2112134 L67.361841,50.2112134 C67.9164366,50.2112134 68.3660251,49.7616249 68.3660251,49.2070293 C68.3660251,48.6524337 67.9164366,48.2028452 67.361841,48.2028452 L67.361841,48.2028452 Z" id="Path"></path>
                            <path d="M48.2667782,50.2112134 L52.6085356,50.2112134 C53.1631311,50.2112134 53.6127197,49.7616249 53.6127197,49.2070293 C53.6127197,48.6524337 53.1631311,48.2028452 52.6085356,48.2028452 L48.2667782,48.2028452 C47.7121827,48.2028452 47.2625941,48.6524337 47.2625941,49.2070293 C47.2625941,49.7616249 47.7121827,50.2112134 48.2667782,50.2112134 Z" id="Path"></path>
                            <path d="M67.361841,56.6661088 L58.4413389,56.6661088 C57.8867433,56.6661088 57.4371548,57.1156973 57.4371548,57.6702929 C57.4371548,58.2248885 57.8867433,58.674477 58.4413389,58.674477 L67.361841,58.674477 C67.9164366,58.674477 68.3660251,58.2248885 68.3660251,57.6702929 C68.3660251,57.1156973 67.9164366,56.6661088 67.361841,56.6661088 L67.361841,56.6661088 Z" id="Path"></path>
                            <path d="M54.8182427,56.6661088 L48.2667782,56.6661088 C47.7121827,56.6661088 47.2625941,57.1156973 47.2625941,57.6702929 C47.2625941,58.2248885 47.7121827,58.674477 48.2667782,58.674477 L54.8182427,58.674477 C55.3728382,58.674477 55.8224268,58.2248885 55.8224268,57.6702929 C55.8224268,57.1156973 55.3728382,56.6661088 54.8182427,56.6661088 Z" id="Path"></path>
                            <path d="M41.0041841,30.3404184 C46.8954222,30.3335803 51.6663116,25.5534535 51.6617574,19.6622132 C51.6571967,13.7709729 46.8789173,8.99823334 40.9876756,9.00050926 C35.096434,9.00278681 30.321841,13.7792182 30.321841,19.6704603 C30.3318992,25.5639791 35.1106576,30.337197 41.0041841,30.3404184 L41.0041841,30.3404184 Z M41.0041841,11.0088703 C45.78623,11.015708 49.657942,14.8966565 49.6533892,19.6787051 C49.6488283,24.4607537 45.769727,28.3343164 40.9876768,28.3320414 C36.2056265,28.3297644 32.3302092,24.452511 32.3302092,19.6704603 C32.339068,14.8856354 36.2193515,11.0108923 41.0041841,11.0088703 L41.0041841,11.0088703 Z" id="Shape"></path>
                        </g>
                    </g>
                </g>
            </g>
        </g>
    </g>
</svg>