<?xml version="1.0" encoding="UTF-8"?>
<svg width="81px" height="80px" viewBox="0 0 81 80" version="1.1" xmlns="http://www.w3.org/2000/svg" xmlns:xlink="http://www.w3.org/1999/xlink">
    <title>molecules</title>
    <g id="Page-1" stroke="none" stroke-width="1" fill="none" fill-rule="evenodd">
        <g id="Agents-Final" transform="translate(-514.000000, -2996.000000)" fill="#90B0D4" fill-rule="nonzero">
            <g id="GREAT-OPPORTUNITIES" transform="translate(0.000000, 2025.000000)">
                <g id="row-2" transform="translate(100.000000, 934.000000)">
                    <g id="opo-2" transform="translate(316.000000, 0.000000)">
                        <g id="molecules" transform="translate(98.000000, 37.000000)">
                            <path d="M68.6829268,73.357561 C68.9226267,73.4553156 69.1913719,73.4536783 69.429863,73.3530106 C69.668354,73.2523428 69.8569895,73.0609184 69.9541463,72.8209756 L70.5528455,71.3479675 C70.749639,70.8502909 70.5087762,70.2869816 70.0130054,70.0854354 C69.5172346,69.8838891 68.9516465,70.119351 68.7453659,70.6131707 L68.1465041,72.0861789 C68.0490046,72.3259053 68.0507483,72.5945481 68.1513515,72.8329887 C68.2519546,73.0714293 68.4431731,73.2601287 68.6829268,73.357561 Z" id="Path"></path>
                            <path d="M40.6086179,40.462439 L28.5853659,25.1915447 C28.2963306,24.8249374 27.8331516,24.6411175 27.3713821,24.7097561 L8.2299187,27.5586992 C7.76997156,27.6280016 7.38171672,27.9369575 7.21089431,28.3695935 L0.0889430894,46.4912195 C-0.0790689189,46.9213919 -0.00728142108,47.4083226 0.277723577,47.7717073 L12.3006504,63.042439 C12.5896964,63.4088611 13.0526145,63.5927508 13.5143089,63.5245528 L32.6562602,60.6752846 C33.1161973,60.6060761 33.5044714,60.2971668 33.6752846,59.8645528 L40.7972358,41.7427642 C40.9652308,41.3126666 40.893508,40.8258175 40.6086179,40.462439 Z M31.9965854,58.800813 L13.6001626,61.5390244 L2.04113821,46.8577236 L8.88926829,29.4333333 L27.2858537,26.695122 L38.8455285,41.3762602 L31.9965854,58.800813 Z" id="Shape"></path>
                            <path d="M67.6993496,41.6523577 C67.4101623,41.2860623 66.9471852,41.1023599 66.4855285,41.1707317 L47.344065,44.0196748 C46.8841041,44.0889455 46.4958353,44.3979125 46.3250407,44.8305691 L39.203252,62.9521951 C39.0352621,63.382347 39.1069823,63.8692407 39.3918699,64.2326829 L51.4146341,79.5035772 C51.703686,79.8698837 52.1665202,80.0537026 52.6281301,79.9855285 L71.7700813,77.1364228 C72.2300284,77.0671204 72.6182833,76.7581644 72.7891057,76.3255285 L79.9110569,58.2039024 C80.0790468,57.7737506 80.0073266,57.2868569 79.722439,56.9234146 L67.6993496,41.6523577 Z M71.1107317,75.2621138 L52.7141463,78 L41.1552846,63.3186992 L48.0034146,45.8943089 L66.4,43.1560976 L77.9588618,57.8373984 L71.1107317,75.2621138 Z" id="Shape"></path>
                            <path d="M45.26,38.3476423 C45.5487442,38.7142535 46.0117477,38.8981023 46.4733333,38.8294309 L65.6152846,35.9803252 C66.0752179,35.9109911 66.4634588,35.6020463 66.6343089,35.1694309 L73.7562602,17.0479675 C73.9244814,16.6177883 73.8527459,16.1307293 73.5676423,15.7673171 L61.5447154,0.496585366 C61.2556587,0.130274248 60.7928519,-0.0535958121 60.3312195,0.0144715447 L41.1892683,2.86357724 C40.7292935,2.93281622 40.3410107,3.2417944 40.1702439,3.67447154 L33.0482927,21.795935 C32.8800936,22.2260936 32.9517618,22.7131156 33.236748,23.0765854 L45.26,38.3476423 Z M41.8486179,4.73821138 L60.2450407,2 L71.804878,16.6813008 L64.955935,34.1056911 L46.5593496,36.8439024 L35.0004878,22.1626016 L41.8486179,4.73821138 Z" id="Shape"></path>
                            <path d="M8.99186992,49.8790244 C8.77602923,49.6053241 8.43056682,49.4675642 8.08561504,49.5176376 C7.74066327,49.5677109 7.44862852,49.7980102 7.31951746,50.1217839 C7.1904064,50.4455576 7.24383407,50.8136168 7.4596748,51.0873171 L13.0269919,58.1463415 C13.2419766,58.4226232 13.5885079,58.5625421 13.9350546,58.5129899 C14.2816012,58.4634376 14.5750344,58.232011 14.7039769,57.9065516 C14.8329194,57.5810922 14.7776032,57.2114959 14.5590244,56.9380488 L8.99186992,49.8790244 Z" id="Path"></path>
                            <path d="M7.22764228,47.4154472 L6.71918699,46.6704065 C6.41385587,46.2296456 5.81005302,46.1178912 5.36719613,46.4201742 C4.92433923,46.7224572 4.80842176,47.3254747 5.10764228,47.7704065 L5.61609756,48.5154472 C5.92142868,48.956208 6.52523153,49.0679625 6.96808843,48.7656795 C7.41094533,48.4633965 7.52686279,47.860379 7.22764228,47.4154472 L7.22764228,47.4154472 Z" id="Path"></path>
                            <path d="M47.5058537,32.8017886 C47.9290834,32.4683473 48.0018818,31.8549488 47.6684553,31.4317073 L42.1011382,24.3721951 C41.7667996,23.9515442 41.1552625,23.8804287 40.7333166,24.2131315 C40.3113706,24.5458343 40.2378811,25.1570906 40.5689431,25.5803252 L46.1364228,32.6398374 C46.2965507,32.8431275 46.5308857,32.9744703 46.7878641,33.004965 C47.0448425,33.0354596 47.3034084,32.9626075 47.5066667,32.802439 L47.5058537,32.8017886 Z" id="Path"></path>
                            <path d="M40.3364228,21.9086179 L39.8279675,21.1635772 C39.5220509,20.7246087 38.9196609,20.6139325 38.4776881,20.9154924 C38.0357153,21.2170523 37.9190864,21.8183182 38.2162602,22.263252 L38.7245528,23.0082927 C39.0282197,23.4533982 39.6352196,23.568057 40.0803252,23.2643902 C40.5254307,22.9607234 40.6400895,22.3537235 40.3364228,21.9086179 L40.3364228,21.9086179 Z" id="Path"></path>
                            <path d="M70.4026016,69.1286179 C70.9017681,69.3314183 71.4708268,69.0911863 71.6736585,68.5920325 L75.398374,59.4308943 C75.5951674,58.9332178 75.3543047,58.3699085 74.8585339,58.1683622 C74.3627631,57.9668159 73.7971749,58.2022779 73.5908943,58.6960976 L69.8673171,67.8572358 C69.6641545,68.3561324 69.9037783,68.9252754 70.4026016,69.1286179 L70.4026016,69.1286179 Z" id="Path"></path>
                        </g>
                    </g>
                </g>
            </g>
        </g>
    </g>
</svg>