<?xml version="1.0" encoding="UTF-8"?>
<svg width="82px" height="80px" viewBox="0 0 82 80" version="1.1" xmlns="http://www.w3.org/2000/svg" xmlns:xlink="http://www.w3.org/1999/xlink">
    <title>rewards</title>
    <g id="Page-1" stroke="none" stroke-width="1" fill="none" fill-rule="evenodd">
        <g id="Agents-Final" transform="translate(-838.000000, -2488.000000)" fill="#7EA2CB" fill-rule="nonzero">
            <g id="GREAT-OPPORTUNITIES" transform="translate(0.000000, 2025.000000)">
                <g id="row-1" transform="translate(100.000000, 427.000000)">
                    <g id="opo-3" transform="translate(632.000000, 0.000000)">
                        <g id="rewards" transform="translate(106.000000, 36.000000)">
                            <path d="M59.7402449,53.9849796 C59.8072925,53.9866122 59.8741769,53.9872755 59.940898,53.9872755 C64.3240816,53.9872755 67.9435102,50.5884082 68.0519184,46.3229388 C68.1034549,44.2705957 67.3307529,42.283127 65.906449,40.8045714 C64.3987295,39.2233702 62.3204842,38.3119623 60.136,38.2739592 C55.6669388,38.1702857 51.9345306,41.605551 51.8243265,45.936 C51.772955,47.9883143 52.5456331,49.9757216 53.9697959,51.4543673 C55.4774941,53.0355991 57.5557527,53.9470129 59.7402449,53.9849796 L59.7402449,53.9849796 Z M53.7828571,45.9861224 C53.8644898,42.7828571 56.6097959,40.2311837 59.936,40.2311837 C59.987102,40.2311837 60.0383673,40.2311837 60.0897959,40.2329796 C61.7537596,40.2598039 63.337634,40.9520727 64.4875102,42.155102 C65.5519052,43.2577686 66.1302692,44.7408406 66.0933878,46.2729796 C66.0106122,49.525551 63.1836735,52.1085714 59.786449,52.0261224 C58.1224733,51.9992008 56.5386155,51.3068804 55.3887347,50.1038367 C54.3245058,49.00113 53.7461663,47.5181796 53.7828571,45.9861224 L53.7828571,45.9861224 Z" id="Shape"></path>
                            <path d="M76.4349388,0.0431020408 L5.5242449,0.0431020408 C2.47820408,0.0431020408 0,2.4475102 0,5.40277551 L0,54.0973061 C0,57.0524082 2.47820408,59.4569796 5.5242449,59.4569796 L48.2571429,59.4569796 L43.3358367,76.4471837 C43.2277657,76.8202925 43.3503659,77.2220114 43.648354,77.4711953 C43.9463421,77.7203793 44.3634173,77.7699485 44.7115102,77.597551 L50.4684082,74.7453061 L54.5100408,79.6037551 C54.7408213,79.8812662 55.1055079,80.0093903 55.4591473,79.9372016 C55.8127867,79.8650129 56.0980807,79.6042076 56.2016327,79.258449 L61.108898,62.8816327 L64.9167347,78.2612245 C65.0034225,78.6113774 65.2755346,78.8855556 65.6250218,78.9748895 C65.9745091,79.0642234 66.3448142,78.9542561 66.588898,78.6886531 L70.8742857,74.0244898 L76.4791837,77.1449796 C76.8328929,77.3415913 77.2710932,77.3004649 77.5820427,77.0414729 C77.8929921,76.782481 78.0126773,76.3589407 77.8832653,75.9755102 L72.2995918,59.4569796 L76.4341224,59.4569796 C79.4801633,59.4569796 81.9583675,57.0525714 81.9583675,54.0973061 L81.9583675,5.40277551 C81.9583675,2.4475102 79.4809796,0.0431020408 76.4349388,0.0431020408 L76.4349388,0.0431020408 Z M54.8488163,76.9469388 L51.4796735,72.8979592 C51.1896102,72.54931 50.6981498,72.4453577 50.2917551,72.6466939 L45.8372245,74.8538776 L50.835102,57.5993469 C51.0096327,58.2403265 51.3022041,58.827102 51.9012245,59.1740408 C52.8306939,59.7128163 53.9053061,59.3046531 54.8532245,58.944 C55.2710204,58.7853061 55.9697959,58.5195102 56.1957551,58.5823673 C56.3964082,58.6450612 56.8324898,59.2075102 57.0937143,59.5436735 C57.7237551,60.3554286 58.4378776,61.2742857 59.5338776,61.3116735 L54.8488163,76.9469388 Z M48.7719184,48.749551 C48.5642449,47.9361633 47.869551,47.3567347 47.1977143,46.7964082 C46.8741224,46.5265306 46.2754286,46.0272653 46.2228571,45.8053878 C46.2862041,45.5862857 46.9100408,45.1172245 47.2471837,44.8635102 C47.9466122,44.3373061 48.6700408,43.7931429 48.9188571,42.9906939 C49.1748571,42.1660408 48.8821224,41.2912653 48.5991837,40.4452245 C48.4724898,40.0662857 48.24,39.370449 48.2889796,39.1436735 C48.4747755,39.002449 49.2112653,38.9258776 49.6122449,38.8844082 C50.500898,38.792 51.4199184,38.6966531 52.0612245,38.1188571 C52.6979592,37.5446531 52.8852245,36.6434286 53.0656327,35.7719184 C53.1497143,35.3662041 53.3051429,34.6153469 53.4599184,34.4682449 C53.6837551,34.4355918 54.3578776,34.7294694 54.7245714,34.8884898 C55.5534694,35.2488163 56.4109388,35.6217143 57.2669388,35.426449 C58.0955102,35.237551 58.6899592,34.5430204 59.2649796,33.8713469 C59.544,33.5448163 60.0635102,32.9382857 60.2669388,32.9044898 C60.4829388,32.9485714 60.9720816,33.5789388 61.2349388,33.917551 C61.7768163,34.6155102 62.3369796,35.3379592 63.1552653,35.564898 C64.0006531,35.8001633 64.8742857,35.4682449 65.7185306,35.147102 C66.1137959,34.9970612 66.7684898,34.7485714 66.9939592,34.7862857 C67.1484082,34.9614694 67.2644898,35.7031837 67.3275102,36.106449 C67.4649796,36.9849796 67.6070204,37.893551 68.2150204,38.4977959 C68.8266122,39.1056327 69.739102,39.2457143 70.6217143,39.3812245 C71.0189388,39.4422857 71.7482449,39.5542857 71.9278367,39.7036735 C71.9645714,39.9332245 71.6974694,40.6140408 71.5523265,40.9848163 C71.2267755,41.8148571 70.8901224,42.6733061 71.1036735,43.5097143 C71.3115102,44.323102 72.0060408,44.9025306 72.6778776,45.4628571 C73.0014694,45.7327347 73.6001633,46.232 73.6525714,46.4537143 C73.5892245,46.6728163 72.965551,47.1420408 72.6284082,47.3957551 C71.9288163,47.9219592 71.205551,48.4661224 70.9565714,49.2685714 C70.7007347,50.0932245 70.9933061,50.968 71.2764082,51.8138776 C71.403102,52.1928163 71.6355918,52.8886531 71.5866122,53.1157551 C71.4006531,53.2568163 70.6643265,53.3332245 70.2633469,53.3748571 C69.3746939,53.467102 68.4556735,53.5626122 67.8143673,54.1402449 C67.1776327,54.7146122 66.9905306,55.6158367 66.8101224,56.4871837 C66.7260408,56.8930612 66.5706122,57.6439184 66.4158367,57.7910204 C66.1918367,57.8236735 65.5178776,57.5297959 65.1511837,57.3707755 C64.3221224,57.0102857 63.4644898,56.6378776 62.6086531,56.832 C61.7835102,57.0200816 61.1905306,57.7097143 60.6179592,58.3787755 C60.6086531,58.3856327 60.6,58.3928163 60.5910204,58.4 C60.5820408,58.4071837 60.5706122,58.4163265 60.5604898,58.4253061 C60.5473197,58.4361905 60.5344218,58.4477823 60.5217959,58.4600816 C60.5106939,58.4708571 60.4999184,58.4817959 60.4891429,58.4927347 C60.4783673,58.5036735 60.4684082,58.5147755 60.4586122,58.5262041 C60.4488163,58.5376327 60.4362449,58.5526531 60.4259592,58.5663673 C60.4174694,58.5773061 60.4096327,58.5882449 60.4013061,58.5990204 C60.3908571,58.613551 60.380898,58.6285714 60.3712653,58.6437551 C60.3637551,58.6556735 60.3565714,58.6675918 60.349551,58.6798367 C60.3446531,58.6881633 60.3392653,58.6961633 60.3346939,58.7048163 C60.0675918,59.0053878 59.7560816,59.3288163 59.6091429,59.3531429 C59.3933061,59.3090612 58.904,58.6786939 58.6411429,58.340898 C58.0992653,57.6429388 57.5389388,56.9213061 56.7208163,56.6937143 C56.524779,56.6399073 56.3223053,56.6131562 56.1190204,56.6142041 C55.4649796,56.6142041 54.802449,56.8659592 54.1567347,57.1113469 C53.7614694,57.2613878 53.107102,57.5100408 52.8811429,57.4721633 C52.7268571,57.2968163 52.6107755,56.5552653 52.5477551,56.152 C52.4102857,55.2733061 52.2680816,54.364898 51.6602449,53.7606531 C51.0486531,53.1529796 50.136,53.0127347 49.253551,52.8772245 C48.8563265,52.8163265 48.1270204,52.7041633 47.9474286,52.5547755 C47.9106939,52.3252245 48.1777959,51.6444082 48.3229388,51.2736327 C48.6488163,50.4442449 48.9854694,49.5859592 48.7719184,48.749551 L48.7719184,48.749551 Z M71.1523265,71.9369796 C70.7564575,71.7165218 70.2610542,71.7963319 69.954449,72.1299592 L66.3802449,76.0199184 L62.2786939,59.4545306 C62.547102,59.146449 62.8808163,58.7851429 63.044898,58.7430204 C63.2734694,58.6902857 63.9604898,58.9890612 64.3707755,59.1675102 C65.3013878,59.5720816 66.3552653,60.0306939 67.309551,59.5369796 C68.2840816,59.0333061 68.5203265,57.8917551 68.7289796,56.8844082 C68.7948647,56.5227838 68.8859716,56.1662124 69.0016327,55.8173061 L75.2145306,74.1988571 L71.1523265,71.9369796 Z M80,54.0973061 C80,55.9724082 78.4,57.4977959 76.4349388,57.4977959 L71.6382041,57.4977959 L70.8871837,55.2773878 C71.7902041,55.1699592 72.7239184,54.9730612 73.2362449,54.1805714 C73.8280816,53.2648163 73.4597551,52.1637551 73.1346939,51.1928163 C72.9942857,50.7733878 72.7591837,50.0710204 72.8280816,49.8496327 C72.8933878,49.6488163 73.4648163,49.2189388 73.8063673,48.9619592 C74.6398367,48.3348571 75.5844898,47.6243265 75.612898,46.5041633 C75.6413061,45.384 74.7338776,44.6266122 73.9330612,43.9586939 C73.605551,43.685551 73.0576327,43.2285714 73.002449,43.0254694 C72.9451429,42.8011429 73.2146939,42.1123265 73.3768163,41.7007347 C73.7506939,40.7472653 74.1745306,39.6667755 73.6293878,38.7229388 C73.0842449,37.779102 71.933551,37.6009796 70.9191837,37.4452245 C70.4837551,37.3782857 69.7549388,37.266449 69.5967347,37.1085714 C69.4440816,36.9570612 69.3312653,36.2354286 69.2638367,35.8040816 C69.1048163,34.7879184 68.9245714,33.6360816 67.9750204,33.0862041 C67.0453878,32.5474286 65.971102,32.9555918 65.0233469,33.3162449 C64.6053878,33.4749388 63.906449,33.7407347 63.6806531,33.6780408 C63.4798367,33.6151837 63.0439184,33.0527347 62.7826939,32.7165714 C62.1484082,31.9002449 61.4292245,30.9730612 60.3206531,30.9469388 C59.2114286,30.9273469 58.4494694,31.8122449 57.7764898,32.5978776 C57.4989388,32.9217959 57.0352653,33.464 56.8316735,33.5167347 C56.6014694,33.5693061 55.9159184,33.2705306 55.5057959,33.0922449 C54.5751837,32.6876735 53.5211429,32.2293878 52.5670204,32.7227755 C51.5924898,33.226449 51.3560816,34.368 51.1475918,35.3753469 C51.0589388,35.803102 50.9108571,36.5191837 50.7502041,36.6638367 C50.5833469,36.8142041 49.8491429,36.8906122 49.410449,36.9361633 C48.3898776,37.0421224 47.2329796,37.1622857 46.6403265,38.0790204 C46.0476735,38.9957551 46.4168163,40.0956735 46.7418776,41.0667755 C46.8821224,41.4863673 47.1173878,42.1885714 47.0483265,42.4101224 C46.9830204,42.6109388 46.4115918,43.0409796 46.0700408,43.2977959 C45.2365714,43.924898 44.2920816,44.6354286 44.2635102,45.7557551 C44.2349388,46.8760816 45.1426939,47.6333061 45.9435102,48.300898 C46.2700408,48.5740408 46.8189388,49.0311837 46.8741224,49.2342857 C46.9314286,49.4586122 46.6618776,50.1474286 46.4997551,50.5590204 C46.1258776,51.5124898 45.7018776,52.5929796 46.2471837,53.5368163 C46.7924898,54.4806531 47.9428571,54.6587755 48.9573878,54.8145306 C49.1469388,54.8435918 49.3921633,54.8813061 49.6217143,54.9276735 C49.5624766,55.0136954 49.5174404,55.1086738 49.4883265,55.2089796 L48.8253061,57.4977959 L5.5242449,57.4977959 C3.55918367,57.4977959 1.95918367,55.9724082 1.95918367,54.0973061 L1.95918367,5.40277551 C1.95918367,3.52783673 3.55918367,2.00228571 5.5242449,2.00228571 L76.4349388,2.00228571 C78.4,2.00228571 80,3.52783673 80,5.40277551 L80,54.0973061 Z" id="Shape"></path>
                            <path d="M31.0724898,30.7296327 C31.7935056,30.7288229 32.3778025,30.144526 32.3786122,29.4235102 L32.3786122,9.6357551 C32.3778025,8.91473928 31.7935056,8.33044243 31.0724898,8.32963265 L10.5162449,8.32963265 C9.79522907,8.33044243 9.21093223,8.91473928 9.21012245,9.6357551 L9.21012245,29.4235102 C9.21093223,30.144526 9.79522907,30.7288229 10.5162449,30.7296327 L31.0724898,30.7296327 Z M11.1693061,10.2888163 L30.4194286,10.2888163 L30.4194286,28.770449 L11.1693061,28.770449 L11.1693061,10.2888163 Z" id="Shape"></path>
                            <path d="M37.6347755,14.3874358 L37.6426122,14.3874358 L69.0669388,14.1425306 C69.6079524,14.1404567 70.0448494,13.7001973 70.0427829,13.1591837 C70.0407016,12.61817 69.6004422,12.1812731 69.0594286,12.1833396 L69.0515918,12.1833396 L37.6272653,12.4282449 C37.2772909,12.4295865 36.9546168,12.6175353 36.7807914,12.9212928 C36.606966,13.2250504 36.6083975,13.5984687 36.7845465,13.9008847 C36.9606956,14.2033007 37.2848011,14.3887701 37.6347755,14.3874358 L37.6347755,14.3874358 Z" id="Path"></path>
                            <path d="M69.0938776,24.2764008 L69.0862041,24.2764008 L37.6617143,24.5213061 C37.1207007,24.52338 36.6838037,24.9636394 36.6858702,25.5046531 C36.6879515,26.0456667 37.1282109,26.4825637 37.6692245,26.4804971 L37.676898,26.4804971 L69.1013878,26.2355918 C69.6424014,26.2335179 70.0792984,25.7932585 70.0772318,25.2522449 C70.0751506,24.7112313 69.6348912,24.2743343 69.0938776,24.2764008 Z" id="Path"></path>
                            <path d="M11.4148571,39.3969056 L11.4230204,39.3969056 L40.3789388,39.1629388 C40.7289132,39.1600223 41.0507471,38.9706183 41.2232086,38.6660733 C41.3956701,38.3615283 41.3925583,37.98811 41.2150453,37.6864814 C41.0375324,37.3848529 40.7125867,37.2008386 40.3626122,37.2037551 L11.4071837,37.4377143 C10.86617,37.4398333 10.4293096,37.8801292 10.4314209,38.4211429 C10.4335475,38.9621565 10.8738435,39.3990169 11.4148571,39.3969056 L11.4148571,39.3969056 Z" id="Path"></path>
                            <path d="M40.4060408,49.2961553 L40.3980408,49.2961553 L11.4419592,49.5301224 C10.9009456,49.5322414 10.4640851,49.9725374 10.4661964,50.513551 C10.4683231,51.0545647 10.908619,51.4914251 11.4496327,51.4893138 L11.4577959,51.4893138 L40.4138776,51.2553469 C40.9548912,51.2531829 41.391715,50.8128503 41.389559,50.2718367 C41.3873869,49.7308231 40.9470544,49.2939992 40.4060408,49.2961553 L40.4060408,49.2961553 Z" id="Path"></path>
                        </g>
                    </g>
                </g>
            </g>
        </g>
    </g>
</svg>