<?xml version="1.0" encoding="UTF-8"?>
<svg width="60px" height="54px" viewBox="0 0 60 54" version="1.1" xmlns="http://www.w3.org/2000/svg" xmlns:xlink="http://www.w3.org/1999/xlink">
    <title>imac</title>
    <g id="Page-1" stroke="none" stroke-width="1" fill="none" fill-rule="evenodd">
        <g id="Enterprise-(Final)" transform="translate(-1187.000000, -1100.000000)" fill="#00A3DA" fill-rule="nonzero">
            <g id="BUILDING" transform="translate(0.000000, 719.000000)">
                <g id="b---4" transform="translate(1089.000000, 343.000000)">
                    <g id="oval+icon" transform="translate(63.000000, 0.000000)">
                        <g id="imac" transform="translate(35.000000, 38.000000)">
                            <circle id="Oval" cx="56.5132075" cy="12.0754717" r="1.09379623"></circle>
                            <circle id="Oval" cx="12.0754717" cy="43.954717" r="1.09379623"></circle>
                            <path d="M25.6425057,44.3952302 C25.2652679,44.0179925 24.653766,44.0179925 24.2765283,44.3952302 L23.1849057,45.4868528 L22.093283,44.3952302 C21.7160453,44.0179925 21.1045434,44.0179925 20.7273057,44.3952302 C20.3500679,44.7724679 20.3500679,45.3839698 20.7273057,45.7612075 L21.8189283,46.8528302 L20.7273057,47.9444528 C20.3500679,48.3216906 20.3500679,48.9331925 20.7273057,49.3104302 C20.9159245,49.4990491 21.1632302,49.5934792 21.4102943,49.5934792 C21.6573585,49.5934792 21.9046642,49.4990491 22.093283,49.3104302 L23.1849057,48.2188075 L24.2765283,49.3104302 C24.4651472,49.4990491 24.7124528,49.5934792 24.959517,49.5934792 C25.2065811,49.5934792 25.4538868,49.4990491 25.6425057,49.3104302 C26.0197434,48.9331925 26.0197434,48.3216906 25.6425057,47.9444528 L24.550883,46.8528302 L25.6425057,45.7612075 C26.0197434,45.3839698 26.0197434,44.7727094 25.6425057,44.3952302 Z" id="Path"></path>
                            <path d="M58.9283019,31.8792453 L38.6415094,31.8792453 L38.6415094,28.9811321 L48.3018868,28.9811321 C49.3669434,28.9811321 50.2339623,28.1145962 50.2339623,27.0490566 L50.2339623,1.93207547 C50.2339623,0.866535849 49.3669434,0 48.3018868,0 L9.66037736,0 C8.59532075,0 7.72830189,0.866535849 7.72830189,1.93207547 L7.72830189,27.0490566 C7.72830189,28.1145962 8.59532075,28.9811321 9.66037736,28.9811321 L23.6915925,28.9811321 L23.3051774,31.8792453 L0.966037736,31.8792453 C0.432060377,31.8792453 0,32.3117887 0,32.845283 L0,36.709434 C0,37.2429283 0.432060377,37.6754717 0.966037736,37.6754717 L36.709434,37.6754717 L36.709434,45.259834 C36.709434,47.4696453 38.5074717,49.2679245 40.7170415,49.2679245 L42.6034717,49.2679245 C43.0521962,51.469766 45.0035925,53.1320755 47.3360906,53.1320755 C49.9992151,53.1320755 52.1662792,50.9650113 52.1662792,48.3018868 C52.1662792,45.6387623 49.9992151,43.4716981 47.3360906,43.4716981 C45.0035925,43.4716981 43.0524377,45.1340075 42.6034717,47.3358491 L40.7170415,47.3358491 C39.5727698,47.3358491 38.6415094,46.4048302 38.6415094,45.259834 L38.6415094,37.6754717 L58.9283019,37.6754717 C59.4622792,37.6754717 59.8943396,37.2429283 59.8943396,36.709434 L59.8943396,32.845283 C59.8943396,32.3117887 59.4622792,31.8792453 58.9283019,31.8792453 Z M47.3358491,45.4037736 C48.933917,45.4037736 50.2339623,46.7038189 50.2339623,48.3018868 C50.2339623,49.8999547 48.933917,51.2 47.3358491,51.2 C46.0780679,51.2 45.0159094,50.3899774 44.6157283,49.2679245 L46.3698113,49.2679245 C46.9037887,49.2679245 47.3358491,48.8353811 47.3358491,48.3018868 C47.3358491,47.7683925 46.9037887,47.3358491 46.3698113,47.3358491 L44.6157283,47.3358491 C45.0159094,46.2137962 46.0780679,45.4037736 47.3358491,45.4037736 Z M36.709434,31.8792453 L33.6910491,31.8792453 L33.304634,28.9811321 L36.709434,28.9811321 L36.709434,31.8792453 Z M36.709434,27.0490566 L33.0469434,27.0490566 L32.4028377,22.2188679 L34.6336604,22.2188679 C35.7779321,22.2188679 36.7091925,23.1498868 36.7091925,24.294883 L36.7091925,27.0490566 L36.709434,27.0490566 Z M9.66037736,27.0490566 L9.66037736,1.93207547 L48.3018868,1.93207547 L48.3018868,27.0490566 L38.6415094,27.0490566 L38.6415094,24.294883 C38.6415094,22.0850717 36.8434717,20.2867925 34.6339019,20.2867925 L32.1453887,20.2867925 L31.8707925,18.2269585 C31.8065509,17.7470792 31.3971925,17.3886792 30.9132075,17.3886792 L26.0830189,17.3886792 C25.599034,17.3886792 25.1896755,17.7470792 25.125434,18.2269585 L23.949283,27.0490566 L9.66037736,27.0490566 Z M26.9292679,19.3207547 L30.0669585,19.3207547 L31.7415849,31.8792453 L25.2546415,31.8792453 L26.9292679,19.3207547 Z M1.93207547,35.7433962 L1.93207547,33.8113208 L36.709434,33.8113208 L36.709434,35.7433962 L1.93207547,35.7433962 Z M57.9622642,35.7433962 L38.6415094,35.7433962 L38.6415094,33.8113208 L57.9622642,33.8113208 L57.9622642,35.7433962 Z" id="Shape"></path>
                            <path d="M26.0830189,16.4226415 L30.9132075,16.4226415 C31.4471849,16.4226415 31.8792453,15.9900981 31.8792453,15.4566038 C31.8792453,14.9231094 31.4471849,14.490566 30.9132075,14.490566 L26.0830189,14.490566 C25.5490415,14.490566 25.1169811,14.9231094 25.1169811,15.4566038 C25.1169811,15.9900981 25.5490415,16.4226415 26.0830189,16.4226415 Z" id="Path"></path>
                            <path d="M28.4981132,12.5584906 C30.3623245,12.5584906 31.8792453,11.0415698 31.8792453,9.17735849 C31.8792453,7.31314717 30.3623245,5.79622642 28.4981132,5.79622642 C26.6339019,5.79622642 25.1169811,7.31314717 25.1169811,9.17735849 C25.1169811,11.0415698 26.6339019,12.5584906 28.4981132,12.5584906 Z M28.4981132,7.72830189 C29.2972679,7.72830189 29.9471698,8.37820377 29.9471698,9.17735849 C29.9471698,9.97651321 29.2972679,10.6264151 28.4981132,10.6264151 C27.6989585,10.6264151 27.0490566,9.97651321 27.0490566,9.17735849 C27.0490566,8.37820377 27.6989585,7.72830189 28.4981132,7.72830189 Z" id="Shape"></path>
                        </g>
                    </g>
                </g>
            </g>
        </g>
    </g>
</svg>