<?xml version="1.0" encoding="UTF-8"?>
<svg width="62px" height="58px" viewBox="0 0 62 58" version="1.1" xmlns="http://www.w3.org/2000/svg" xmlns:xlink="http://www.w3.org/1999/xlink">
    <title>boy</title>
    <g id="Page-1" stroke="none" stroke-width="1" fill="none" fill-rule="evenodd">
        <g id="Enterprise-(Final)" transform="translate(-527.000000, -1093.000000)" fill="#84BF41" fill-rule="nonzero">
            <g id="BUILDING" transform="translate(0.000000, 719.000000)">
                <g id="b---2" transform="translate(429.666667, 343.000000)">
                    <g id="oval+icon" transform="translate(63.000000, 0.000000)">
                        <g id="boy" transform="translate(35.000000, 31.000000)">
                            <circle id="Oval" cx="52.8340426" cy="18.9352851" r="1.23370213"></circle>
                            <path d="M55.4158298,29.2362894 C54.990434,28.8108936 54.3008681,28.8108936 53.8754723,29.2362894 C53.4500766,29.6616851 53.4500766,30.3512511 53.8754723,30.7766468 L55.1064511,32.0076255 L53.8754723,33.2386043 C53.4500766,33.664 53.4500766,34.353566 53.8754723,34.7789617 C54.0881702,34.9916596 54.3670468,35.0981447 54.6456511,35.0981447 C54.9242553,35.0981447 55.2031319,34.9916596 55.4158298,34.7789617 L56.6468085,33.547983 L57.8777872,34.7789617 C58.0904851,34.9916596 58.3693617,35.0981447 58.647966,35.0981447 C58.9265702,35.0981447 59.2054468,34.9916596 59.4181447,34.7789617 C59.8435404,34.353566 59.8435404,33.664 59.4181447,33.2386043 L58.187166,32.0076255 L59.4181447,30.7766468 C59.8435404,30.3512511 59.8435404,29.6616851 59.4181447,29.2362894 C58.9927489,28.8108936 58.303183,28.8108936 57.8777872,29.2362894 L56.6468085,30.4672681 L55.4158298,29.2362894 Z" id="Path"></path>
                            <path d="M51.7446809,12.9437957 C53.8468766,12.9437957 55.5574468,11.2332255 55.5574468,9.13102979 C55.5574468,7.02883404 53.8468766,5.31826383 51.7446809,5.31826383 C49.6424851,5.31826383 47.9319149,7.02883404 47.9319149,9.13102979 C47.9319149,11.2332255 49.6424851,12.9437957 51.7446809,12.9437957 Z M51.7446809,7.49698723 C52.6458553,7.49698723 53.3787234,8.22985532 53.3787234,9.13102979 C53.3787234,10.0322043 52.6458553,10.7650723 51.7446809,10.7650723 C50.8435064,10.7650723 50.1106383,10.0322043 50.1106383,9.13102979 C50.1106383,8.22985532 50.8435064,7.49698723 51.7446809,7.49698723 Z" id="Shape"></path>
                            <circle id="Oval" cx="4.90212766" cy="22.2033702" r="1.23370213"></circle>
                            <circle id="Oval" cx="36.493617" cy="22.2033702" r="1.0893617"></circle>
                            <circle id="Oval" cx="23.4212766" cy="22.2033702" r="1.0893617"></circle>
                            <path d="M29.412766,48.8927319 C27.009634,48.8927319 25.0553191,50.8475915 25.0553191,53.2501787 C25.0553191,55.652766 27.009634,57.6076255 29.412766,57.6076255 C31.8158979,57.6076255 33.7702128,55.652766 33.7702128,53.2501787 C33.7702128,50.8475915 31.8158979,48.8927319 29.412766,48.8927319 Z M29.412766,55.4289021 C28.2117447,55.4289021 27.2340426,54.4517447 27.2340426,53.2501787 C27.2340426,52.0486128 28.2117447,51.0714553 29.412766,51.0714553 C30.6137872,51.0714553 31.5914894,52.0486128 31.5914894,53.2501787 C31.5914894,54.4517447 30.6137872,55.4289021 29.412766,55.4289021 Z" id="Shape"></path>
                            <path d="M59.2424242,55.1547088 L50.6092424,55.1547088 L52.6928788,34.0051528 C52.7185152,33.747901 52.6151515,33.4936486 52.4095152,33.3035361 C52.2027879,33.113885 51.9109697,33.0056777 51.6063333,33.0056777 L47.8094242,33.0056777 C47.7971515,32.9920653 47.7941515,32.9752228 47.7807879,32.9620718 C46.7133333,31.9058399 45.4200606,31.0812499 43.9369697,30.5116045 L41.2429697,29.4752145 C41.6894242,27.9619281 41.7941515,26.526394 41.7854242,25.4750072 C43.6317879,24.7129421 44.9760606,23.868741 45.3090606,23.5323526 C45.6330606,23.2051929 45.6873333,22.6666946 45.385697,22.323846 C45.1416061,22.0453681 44.6217879,21.8033438 43.9571515,22.0467524 C43.8333333,22.0915119 43.7171515,22.1265812 43.5974242,22.1660342 C43.6923333,21.9339308 43.7951515,21.7041346 43.8750606,21.468109 C44.5781515,21.4916423 45.2673333,21.3190645 45.9259697,20.972063 C46.9391515,20.4386405 47.6242424,19.5688296 47.7584242,18.6454918 C47.893697,17.7207698 47.5549697,16.7935098 46.831697,16.1008912 C46.3533333,15.6440674 45.7386061,15.3155234 45.0611515,15.1445606 L45.0611515,9.01089403 C45.0611515,3.34212638 37.8529697,0.139514912 31.0699697,0.00431353441 C23.7341515,-0.135040786 16.0896061,3.09548769 15.667697,10.6607661 C15.6207879,11.4985071 15.6191515,11.6549346 15.6139697,12.1311388 L15.6060606,15.1420227 C14.9828788,15.2979888 14.4150606,15.5886948 13.9495152,15.9963754 C13.2235152,16.6326986 12.8441515,17.470901 12.8809697,18.357093 C12.9229697,19.3438785 13.5851515,20.2974404 14.6526061,20.9072309 C15.3281515,21.2929932 16.0178788,21.488643 16.7384242,21.4699547 C16.8115152,21.695598 16.903697,21.9163962 16.9901515,22.1385786 C16.8963333,22.1069701 16.8066061,22.0806681 16.7103333,22.0458296 C16.2464242,21.8776354 15.5820606,21.9796132 15.2817879,22.3233846 C14.9804242,22.6662331 15.0341515,23.2047315 15.3589697,23.5318911 C15.6848788,23.8608965 16.9754242,24.6762577 18.7601515,25.4247104 C18.7484242,26.4414894 18.841697,27.7510508 19.2087879,29.1379032 L15.6393333,30.5104509 C14.1398788,31.0867872 12.8359697,31.922221 11.7625152,32.9934496 C11.7589697,32.9969104 11.7584242,33.0015248 11.7548788,33.0052163 L7.96969697,33.0052163 C7.66451515,33.0052163 7.37351515,33.1134235 7.16706061,33.3030746 C6.96033333,33.4931871 6.85751515,33.7474396 6.88260606,34.0046913 L8.9659697,55.1542474 L1.42424242,55.1542474 C0.821787879,55.1542474 0.333333333,55.5674653 0.333333333,56.0771237 C0.333333333,56.5867821 0.821787879,57 1.42424242,57 L59.2424242,57 C59.8454242,57 60.3333333,56.5867821 60.3333333,56.0771237 C60.3333333,55.5674653 59.8454242,55.1547088 59.2424242,55.1547088 L59.2424242,55.1547088 Z M40.0565254,31 L42.680798,32.099566 C43.2696038,32.345928 43.8204489,32.6482002 44.3333333,33 L34.3333333,33 C34.6256581,32.6096502 34.8653367,32.1815165 35.0285398,31.7130457 C35.6691604,32.1248404 36.4746467,32.3558846 37.3059019,32.3142711 C38.4394569,32.2749553 39.4372402,31.7817207 40.0565254,31 L40.0565254,31 Z M30.5096446,2.00484144 C36.2415018,2.12163161 42.3333333,4.72327394 42.3333333,9.31341021 L42.3333333,12.5665816 C39.0622977,14.6431391 35.3698419,15.4347692 31.8753177,14.7707606 C28.7932413,14.184926 26.2391636,12.524669 24.8658778,10.2150021 C24.7065539,9.94727944 24.4091128,9.76196923 24.0657234,9.71558281 C23.722334,9.6691964 23.373235,9.76856223 23.1285395,9.98189266 C21.7071302,11.217608 19.5910576,11.9880464 17.3333333,12.1213191 C17.338771,11.8783201 17.3493745,11.6299056 17.3792817,11.0862191 C17.7544816,4.19300889 24.6774623,1.87886817 30.5096446,2.00484144 L30.5096446,2.00484144 Z M17.9566785,20.5545264 C17.8932955,20.293644 17.6992717,20.0685371 17.4241509,19.9356567 C17.1490302,19.8027763 16.8202138,19.7751316 16.5190755,19.8603888 C16.0931088,19.9814215 15.6967578,19.9997738 15.1578642,19.6942882 C14.6671307,19.4157504 14.351323,18.9964336 14.3344393,18.6008123 C14.3181092,18.2175034 14.483071,17.8553345 14.7988787,17.5807459 C15.1152399,17.3056927 15.5395459,17.1546922 15.9940211,17.1546922 C16.6054313,17.1546922 17.101147,16.7386278 17.101147,16.2254584 L17.1058522,13.8872739 C19.4814676,13.7732104 21.7555042,13.1053236 23.5191558,12 C25.3124229,14.2468873 28.1336565,15.846331 31.4442397,16.4561407 C32.435671,16.6389675 33.4378967,16.7293355 34.4423366,16.7288708 C37.2095978,16.7288708 39.9837785,16.0324101 42.5653193,14.7063935 L42.5653193,16.2256907 C42.5653193,16.7388601 43.0604814,17.1549245 43.6724452,17.1549245 C44.1482326,17.1549245 44.6021542,17.3263682 44.9168547,17.6258138 C45.2368141,17.9294409 45.3796334,18.3213453 45.3201253,18.7302082 C45.2639387,19.1077094 44.9536667,19.4784737 44.4875667,19.7221652 C44.0225738,19.9658568 43.6270531,20.0048846 43.1241411,19.8550457 C42.8235564,19.7660715 42.4928026,19.7893024 42.2160211,19.9193951 C41.9392396,20.0494878 41.7413409,20.2732009 41.6732526,20.533851 C41.4537649,21.3836353 41.1047435,22.2069364 40.6699198,22.9979467 C38.6690665,23.0467315 37.3050874,22.2183196 35.8890734,21.3527383 C34.6640386,20.6040081 33.3980401,19.8299564 31.8001807,19.8299564 C31.0866381,19.8299564 30.4088002,20.0060462 29.8336483,20.3294195 C29.2584964,20.0058139 28.5806586,19.8299564 27.8671159,19.8299564 C26.2692565,19.8299564 25.0029813,20.6040081 23.7782232,21.3527383 C22.3378524,22.2324904 20.9528379,23.0729823 18.8971819,22.9930682 C18.4845008,22.2094918 18.16122,21.392463 17.9566785,20.5545264 L17.9566785,20.5545264 Z M39.3333333,24.2357376 C37.1476054,24.9899004 34.5037384,25.4134509 32.2783743,24.4057526 C31.7967269,24.1874097 31.4637833,23.9380874 31.2587688,23.6424199 C30.8594005,23.064468 29.8067194,23.064468 29.4073512,23.6424199 C29.2023367,23.9380874 28.8691198,24.1874097 28.3866523,24.4057526 C26.1601948,25.4144423 23.5176945,24.9899004 21.3333333,24.2357376 C23.1448415,23.8914944 24.5072312,22.9921001 25.6397313,22.244381 C26.6514095,21.5764649 27.5247713,21 28.3907526,21 C28.8103489,21 29.197963,21.1801763 29.4562813,21.4936879 C29.8684971,21.9960501 30.7973495,21.9960501 31.2095653,21.4936879 C31.4678836,21.1799284 31.8554977,21 32.275094,21 C33.1410753,21 34.0144371,21.5764649 35.0255686,22.244381 C36.1586154,22.9923479 37.5212785,23.8914944 39.3333333,24.2357376 Z M24.9310091,27.1952347 C26.2822524,27.1952347 27.6379453,26.9932418 28.9090984,26.4900198 C29.2806278,26.3434759 29.6076626,26.1810895 29.8954866,26 C30.1821983,26.1808695 30.5103455,26.3434759 30.8807625,26.4900198 C33.6043841,27.5675353 36.7062092,27.2601452 39.3333333,26.5492094 C39.2816084,27.5400308 39.0927848,28.7647503 38.5816538,29.9830887 C38.3327625,30.5756452 37.5899819,30.6431962 37.3672311,30.6500173 C36.8925301,30.6625593 36.2484717,30.5017131 35.9823388,29.9998114 L35.5259917,29.1390312 C35.3229854,28.7539685 34.8057365,28.5365731 34.2843162,28.6173263 C33.7662329,28.6985195 33.3913665,29.0587181 33.3880294,29.4767862 C33.3880294,29.4822871 33.3816333,30.0579009 33.1544331,31.0192374 C32.8371315,32.3566152 31.5837761,32.821991 30.8646332,32.9806368 C30.8465573,32.9845975 30.8343213,32.9953792 30.8165235,33 L28.4677683,33 C27.6348863,32.6954704 26.7447175,31.992896 26.5139021,31.0196775 C26.28698,30.0579009 26.2803058,29.4825072 26.2803058,29.4794266 C26.2803058,29.0604784 25.9059955,28.6993996 25.3868,28.6164461 C24.8676044,28.5330525 24.3472964,28.7522082 24.1417873,29.1385911 L23.6843279,29.9998114 C23.4181949,30.5017131 22.8077856,30.6654198 22.2994355,30.6500173 C22.0777971,30.6431962 21.3341822,30.5752051 21.0861252,29.9835287 C20.5727695,28.7603495 20.3831116,27.53497 20.3333333,26.5177443 C21.7660573,26.9144689 23.3442228,27.1952347 24.9310091,27.1952347 L24.9310091,27.1952347 Z M15.98726,32.2239692 L19.3844698,31 C19.9688943,31.8305662 21.0733621,32.3706432 22.3557103,32.4093458 C23.1915538,32.437713 23.9974268,32.2452996 24.6401271,31.8897196 C24.8027448,32.2840022 25.0427861,32.655635 25.3333333,33 L14.3333333,33 C14.8464391,32.6971963 15.3972855,32.4363936 15.98726,32.2239692 L15.98726,32.2239692 Z M9.33333333,35 L28.746713,35 C28.747526,35 28.7486099,35.0004545 28.7494228,35.0004545 C28.7505067,35.0004545 28.7518616,35 28.7529455,35 L50.3333333,35 L48.3465253,55 L11.3201413,55 L9.33333333,35 Z" id="Shape"></path>
                        </g>
                    </g>
                </g>
            </g>
        </g>
    </g>
</svg>