<?xml version="1.0" encoding="UTF-8"?>
<svg width="60px" height="58px" viewBox="0 0 60 58" version="1.1" xmlns="http://www.w3.org/2000/svg" xmlns:xlink="http://www.w3.org/1999/xlink">
    <title>create</title>
    <g id="Page-1" stroke="none" stroke-width="1" fill="none" fill-rule="evenodd">
        <g id="Enterprise-(Final)" transform="translate(-198.000000, -1098.000000)" fill="#164A84" fill-rule="nonzero">
            <g id="BUILDING" transform="translate(0.000000, 719.000000)">
                <g id="b---1" transform="translate(100.000000, 343.000000)">
                    <g id="oval+icon" transform="translate(63.000000, 0.000000)">
                        <g id="create" transform="translate(35.000000, 36.000000)">
                            <path d="M29.9707317,33.9668293 C27.7673834,33.9668293 25.9746341,35.7595785 25.9746341,37.9629268 C25.9746341,40.1662751 27.7673834,41.9590244 29.9707317,41.9590244 C32.17408,41.9590244 33.9668293,40.1662751 33.9668293,37.9629268 C33.9668293,35.7595785 32.17408,33.9668293 29.9707317,33.9668293 Z M29.9707317,39.9609756 C28.8688078,39.9609756 27.9726829,39.0648507 27.9726829,37.9629268 C27.9726829,36.8610029 28.8688078,35.964878 29.9707317,35.964878 C31.0726556,35.964878 31.9687805,36.8610029 31.9687805,37.9629268 C31.9687805,39.0648507 31.0726556,39.9609756 29.9707317,39.9609756 Z" id="Shape"></path>
                            <path d="M16.1052722,42.8371668 C15.7151532,42.4470478 15.0827707,42.4470478 14.6926517,42.8371668 L13.9863415,43.5434771 L13.2800312,42.8371668 C12.8899122,42.4470478 12.2575298,42.4470478 11.8674107,42.8371668 C11.4772917,43.2272859 11.4772917,43.8596683 11.8674107,44.2497873 L12.573721,44.9560976 L11.8674107,45.6624078 C11.4772917,46.0525268 11.4772917,46.6849093 11.8674107,47.0750283 C12.0624702,47.2700878 12.3182205,47.3677424 12.573721,47.3677424 C12.8292215,47.3677424 13.0849717,47.2700878 13.2800312,47.0750283 L13.9863415,46.368718 L14.6926517,47.0750283 C14.8877112,47.2700878 15.1434615,47.3677424 15.398962,47.3677424 C15.6544624,47.3677424 15.9102127,47.2700878 16.1052722,47.0750283 C16.4953912,46.6849093 16.4953912,46.0525268 16.1052722,45.6624078 L15.398962,44.9560976 L16.1052722,44.2497873 C16.495641,43.8594185 16.495641,43.2272859 16.1052722,42.8371668 Z" id="Path"></path>
                            <circle id="Oval" cx="51.9492683" cy="43.9570732" r="1"></circle>
                            <path d="M55.9453659,-1.24778237e-14 C54.0889288,-1.24778237e-14 52.5379434,1.27850146 52.0911298,2.99707317 L33.9668293,2.99707317 L33.9668293,1.81572683 C33.9668293,0.81470439 33.1521249,-1.24778237e-14 32.1511024,-1.24778237e-14 L27.790361,-1.24778237e-14 C26.7893385,-1.24778237e-14 25.9746341,0.81470439 25.9746341,1.81572683 L25.9746341,2.99707317 L7.85033366,2.99707317 C7.40352,1.27850146 5.85253463,-1.24778237e-14 3.99609756,-1.24778237e-14 C1.79274927,-1.24778237e-14 -8.3185491e-15,1.79274927 -8.3185491e-15,3.99609756 C-8.3185491e-15,6.19944585 1.79274927,7.99219512 3.99609756,7.99219512 C5.85253463,7.99219512 7.40352,6.71369366 7.85033366,4.99512195 L21.2847141,4.99512195 C15.7431259,7.67800195 11.63264,12.8379629 10.391602,19.0419044 C8.47272585,19.33312 6.99317073,20.9787629 6.99317073,22.977561 C6.99317073,24.9741112 8.46972878,26.6187551 10.3856078,26.912718 C11.5022673,32.502759 14.9441561,37.3415337 19.9020644,40.2392039 C19.9033132,40.2399532 19.904562,40.2399532 19.9058107,40.2407024 L21.9785366,46.1259551 L21.9785366,49.1225288 C20.8206673,49.5193912 19.9804878,50.607079 19.9804878,51.8975688 L19.9804878,56.9443902 C19.9804878,57.4961015 20.427801,57.9434146 20.9795122,57.9434146 C21.5312234,57.9434146 21.9785366,57.4961015 21.9785366,56.9443902 L21.9785366,51.8975688 C21.9785366,51.375079 22.4033717,50.9502439 22.9258615,50.9502439 L22.977561,50.9502439 L36.9639024,50.9502439 L37.015602,50.9502439 C37.5380917,50.9502439 37.9629268,51.375079 37.9629268,51.8975688 L37.9629268,56.9443902 C37.9629268,57.4961015 38.41024,57.9434146 38.9619512,57.9434146 C39.5136624,57.9434146 39.9609756,57.4961015 39.9609756,56.9443902 L39.9609756,51.8975688 C39.9609756,50.6068293 39.1207961,49.5193912 37.9629268,49.1225288 L37.9629268,46.1259551 L40.0426459,40.2204722 C40.0763629,40.2052371 40.1118283,40.1969951 40.1442966,40.1775141 C45.0337717,37.2788449 48.4416937,32.4533073 49.550361,26.9132176 C51.4689873,26.6217522 52.9482927,24.9761093 52.9482927,22.977561 C52.9482927,20.9780137 51.4674888,19.332121 49.5476137,19.0416546 C48.3068254,12.8339668 44.2130732,7.67725268 38.6632429,4.99512195 L52.09088,4.99512195 C52.5376937,6.71369366 54.088679,7.99219512 55.9451161,7.99219512 C58.1484644,7.99219512 59.9412137,6.19944585 59.9412137,3.99609756 C59.9412137,1.79274927 58.1487141,-1.24778237e-14 55.9453659,-1.24778237e-14 Z M27.9726829,1.99804878 L31.9687805,1.99804878 L31.9687805,5.99414634 L27.9726829,5.99414634 L27.9726829,1.99804878 Z M3.99609756,5.99414634 C2.89417366,5.99414634 1.99804878,5.09802146 1.99804878,3.99609756 C1.99804878,2.89417366 2.89417366,1.99804878 3.99609756,1.99804878 C5.09802146,1.99804878 5.99414634,2.89417366 5.99414634,3.99609756 C5.99414634,5.09802146 5.09802146,5.99414634 3.99609756,5.99414634 Z M8.99121951,22.977561 C8.99121951,21.8756371 9.88734439,20.9795122 10.9892683,20.9795122 C12.0911922,20.9795122 12.9873171,21.8756371 12.9873171,22.977561 C12.9873171,24.0794849 12.0911922,24.9756098 10.9892683,24.9756098 C9.88734439,24.9756098 8.99121951,24.0794849 8.99121951,22.977561 Z M23.9765854,48.9521951 L23.9765854,46.9541463 L35.964878,46.9541463 L35.964878,48.9521951 L23.9765854,48.9521951 Z M36.2563434,44.9560976 L23.6848702,44.9560976 L20.5968859,36.1884098 L23.8886712,31.6348566 C26.1164956,28.5526166 27.8173346,25.1973932 28.9717073,21.6223844 L28.9717073,29.9707317 C28.9717073,30.5224429 29.4190205,30.9697561 29.9707317,30.9697561 C30.5224429,30.9697561 30.9697561,30.5224429 30.9697561,29.9707317 L30.9697561,21.6403668 C32.1143883,25.1564332 33.7880039,28.4604566 35.974119,31.5004878 L39.3448273,36.1869112 L36.2563434,44.9560976 Z M50.9502439,22.977561 C50.9502439,24.0794849 50.054119,24.9756098 48.9521951,24.9756098 C47.8502712,24.9756098 46.9541463,24.0794849 46.9541463,22.977561 C46.9541463,21.8756371 47.8502712,20.9795122 48.9521951,20.9795122 C50.054119,20.9795122 50.9502439,21.8756371 50.9502439,22.977561 Z M47.552562,19.2479532 C46.040039,19.8178966 44.9560976,21.2682302 44.9560976,22.977561 C44.9560976,24.6848937 46.0375415,26.134478 47.5475668,26.7056702 C46.68416,30.7966751 44.4183727,34.4311259 41.1690459,37.0228449 L41.4030673,36.3584937 C41.5114615,36.0507941 41.4625093,35.7086283 41.2719454,35.4433873 L37.5967844,30.3336273 C34.7490654,26.3744937 32.817202,21.9428215 31.8553912,17.1624898 L30.9505249,12.665881 C30.8568663,12.2000859 30.4475161,11.8644137 29.97248,11.8639141 C29.5394029,11.8898888 29.0870946,12.1970888 28.9919376,12.6628839 L28.0383688,17.3278283 C27.0638205,22.0981698 25.1227161,26.5176039 22.2695024,30.464 L18.6715161,35.441639 C18.4797034,35.70688 18.430002,36.0500449 18.5388956,36.3587434 L18.7724176,37.0218459 C15.5188449,34.4298771 13.2635473,30.8024195 12.3993912,26.7041717 C13.9064195,26.131481 14.9853659,24.6831454 14.9853659,22.977561 C14.9853659,21.2682302 13.9014244,19.8178966 12.3889015,19.2479532 C13.8344898,12.402638 19.167282,6.99941463 25.9746341,5.45342439 L25.9746341,6.17646829 C25.9746341,7.17749073 26.7893385,7.99219512 27.790361,7.99219512 L32.1513522,7.99219512 C33.1523746,7.99219512 33.967079,7.17749073 33.967079,6.17646829 L33.967079,5.45417366 C40.7969093,7.00341073 46.1092215,12.3998907 47.552562,19.2479532 Z M55.9453659,5.99414634 C54.843442,5.99414634 53.9473171,5.09802146 53.9473171,3.99609756 C53.9473171,2.89417366 54.843442,1.99804878 55.9453659,1.99804878 C57.0472898,1.99804878 57.9434146,2.89417366 57.9434146,3.99609756 C57.9434146,5.09802146 57.0472898,5.99414634 55.9453659,5.99414634 Z" id="Shape"></path>
                        </g>
                    </g>
                </g>
            </g>
        </g>
    </g>
</svg>