<?xml version="1.0" encoding="UTF-8"?>
<svg width="61px" height="64px" viewBox="0 0 61 64" version="1.1" xmlns="http://www.w3.org/2000/svg" xmlns:xlink="http://www.w3.org/1999/xlink">
    <title>transfer</title>
    <g id="Page-1" stroke="none" stroke-width="1" fill="none" fill-rule="evenodd">
        <g id="Enterprise-(Final)" transform="translate(-857.000000, -1095.000000)" fill="#D8232A" fill-rule="nonzero">
            <g id="BUILDING" transform="translate(0.000000, 719.000000)">
                <g id="b---3" transform="translate(759.333333, 343.000000)">
                    <g id="oval+icon" transform="translate(63.000000, 0.000000)">
                        <g id="transfer" transform="translate(35.000000, 33.000000)">
                            <path d="M50.4472654,55.6229235 L47.3928274,55.6229235 L47.3928274,54.8826174 C49.9441815,53.6654354 51.7157826,51.0678797 51.7157826,48.057752 L51.7157826,42.8820939 C51.7157826,40.5295958 50.0419884,38.5645425 47.8329583,38.1344084 C47.4266005,36.9904464 46.3396475,36.1698955 45.0657266,36.1698955 L41.3790565,36.1698955 C38.7363799,36.1698955 36.5854396,38.3386681 36.5854396,41.0051208 L36.5854396,48.0580222 C36.5854396,51.0681499 38.3570406,53.6654354 40.9083947,54.8828876 L40.9083947,55.6231937 L37.8539567,55.6231937 C35.3663662,55.6231937 33.3432232,57.646877 33.3432232,60.1339272 L33.3432232,62.1076264 C33.3432232,62.7044644 33.8265836,63.1883652 34.423962,63.1883652 L53.8772602,63.1883652 C54.4746385,63.1883652 54.9579989,62.7044644 54.9579989,62.1076264 L54.9579989,60.1339272 C54.9579989,57.6466069 52.9348559,55.6229235 50.4472654,55.6229235 L50.4472654,55.6229235 Z M43.0698723,59.7464823 C43.4094945,59.8675251 43.7699208,59.9456084 44.1506111,59.9456084 C44.5313013,59.9456084 44.8917277,59.8675251 45.2313499,59.7464823 L45.2313499,61.0263472 L43.0698723,61.0263472 L43.0698723,59.7464823 Z M41.3790565,38.3311029 L45.0657266,38.3311029 C45.4931588,38.3311029 45.8414269,38.6882871 45.8414269,39.1273372 C45.8414269,39.7241752 46.3247873,40.208076 46.9221657,40.208076 C48.3733277,40.208076 49.554305,41.4074259 49.554305,42.8818237 L49.554305,43.1765953 L49.0582459,42.6586512 C48.7259187,42.3114639 48.2023008,42.2263557 47.7770301,42.4476369 C43.7347968,44.5583198 40.7616844,42.5994807 40.6414522,42.5189657 C40.2067251,42.2160887 39.6133995,42.2741784 39.2429763,42.6589214 L38.7469172,43.1768654 L38.7469172,41.0051208 C38.7469172,39.5304528 39.9278945,38.3311029 41.3790565,38.3311029 L41.3790565,38.3311029 Z M38.7469172,48.057752 L38.7469172,46.3026322 L40.232933,44.7506913 C41.5849372,45.385085 44.4745625,46.2783156 48.0377583,44.7190797 L49.554305,46.3026322 L49.554305,48.057752 C49.554305,51.0370786 47.1299377,53.4614459 44.1506111,53.4614459 C41.1712844,53.4614459 38.7469172,51.0370786 38.7469172,48.057752 Z M44.1506111,55.6229235 C44.5186026,55.6229235 44.8774079,55.5875293 45.2313499,55.5364644 L45.2313499,56.7036623 C45.2313499,57.2994195 44.7469087,57.7844011 44.1506111,57.7844011 C43.5543135,57.7844011 43.0698723,57.2994195 43.0698723,56.7036623 L43.0698723,55.5364644 C43.4238142,55.5875293 43.7826195,55.6229235 44.1506111,55.6229235 Z M35.5047008,60.133657 C35.5047008,58.8381214 36.5589615,57.7844011 37.8539567,57.7844011 L40.9083947,57.7844011 L40.9083947,61.0266174 L35.5047008,61.0266174 L35.5047008,60.133657 Z M52.7965214,61.0266174 L47.3928274,61.0266174 L47.3928274,57.7844011 L50.4472654,57.7844011 C51.7422607,57.7844011 52.7965214,58.8381214 52.7965214,60.133657 L52.7965214,61.0266174 Z" id="Shape"></path>
                            <path d="M23.4287958,55.6229235 L20.3743578,55.6229235 L20.3743578,54.8826174 C22.9257119,53.6654354 24.6973129,51.0678797 24.6973129,48.057752 L24.6973129,42.8820939 C24.6973129,40.5295958 23.0235187,38.5645425 20.8144887,38.1344084 C20.4081309,36.9904464 19.3211778,36.1698955 18.047257,36.1698955 L14.3605868,36.1698955 C11.7179103,36.1698955 9.56696992,38.3386681 9.56696992,41.0051208 L9.56696992,48.0580222 C9.56696992,51.0681499 11.338571,53.6654354 13.8899251,54.8828876 L13.8899251,55.6231937 L10.8354871,55.6231937 C8.34789657,55.6231937 6.32475356,57.646877 6.32475356,60.1339272 L6.32475356,62.1076264 C6.32475356,62.7044644 6.80811398,63.1883652 7.40549235,63.1883652 L26.8587905,63.1883652 C27.4561689,63.1883652 27.9395293,62.7044644 27.9395293,62.1076264 L27.9395293,60.1339272 C27.9395293,57.6466069 25.9163863,55.6229235 23.4287958,55.6229235 L23.4287958,55.6229235 Z M16.0514026,59.7464823 C16.3910248,59.8675251 16.7514512,59.9456084 17.1321414,59.9456084 C17.5128317,59.9456084 17.873258,59.8675251 18.2128802,59.7464823 L18.2128802,61.0263472 L16.0514026,61.0263472 L16.0514026,59.7464823 Z M14.3605868,38.3311029 L18.047257,38.3311029 C18.4746892,38.3311029 18.8229573,38.6882871 18.8229573,39.1273372 C18.8229573,39.7241752 19.3063177,40.208076 19.903696,40.208076 C21.354858,40.208076 22.5358354,41.4074259 22.5358354,42.8818237 L22.5358354,43.1765953 L22.0397763,42.6586512 C21.7074491,42.3114639 21.1849119,42.2263557 20.7585604,42.4476369 C16.7163272,44.5583198 13.742134,42.5994807 13.6229826,42.5189657 C13.1882554,42.2160887 12.5960106,42.2741784 12.2245066,42.6589214 L11.7284475,43.1768654 L11.7284475,41.0051208 C11.7284475,39.5304528 12.9094248,38.3311029 14.3605868,38.3311029 L14.3605868,38.3311029 Z M11.7284475,48.057752 L11.7284475,46.3026322 L13.2144633,44.7506913 C14.5664675,45.385085 17.4550121,46.2783156 21.0192887,44.7190797 L22.5358354,46.3026322 L22.5358354,48.057752 C22.5358354,51.0370786 20.1114681,53.4614459 17.1321414,53.4614459 C14.1528148,53.4614459 11.7284475,51.0370786 11.7284475,48.057752 Z M17.1321414,55.6229235 C17.500133,55.6229235 17.8589383,55.5875293 18.2128802,55.5364644 L18.2128802,56.7036623 C18.2128802,57.2994195 17.7284391,57.7844011 17.1321414,57.7844011 C16.5358438,57.7844011 16.0514026,57.2994195 16.0514026,56.7036623 L16.0514026,55.5364644 C16.4053446,55.5875293 16.7641499,55.6229235 17.1321414,55.6229235 Z M8.48623113,60.133657 C8.48623113,58.8381214 9.54049182,57.7844011 10.8354871,57.7844011 L13.8899251,57.7844011 L13.8899251,61.0266174 L8.48623113,61.0266174 L8.48623113,60.133657 Z M25.7780517,61.0266174 L20.3743578,61.0266174 L20.3743578,57.7844011 L23.4287958,57.7844011 C24.723791,57.7844011 25.7780517,58.8381214 25.7780517,60.133657 L25.7780517,61.0266174 Z" id="Shape"></path>
                            <path d="M13.1301657,18.6170765 C13.1301657,23.5284939 17.1259272,27.523715 22.0368042,27.523715 L41.4457921,27.523715 C45.3213214,27.523715 48.4738364,24.3706596 48.4738364,20.4951303 C48.4738364,16.8776274 45.7276792,13.8904654 42.2109551,13.5078839 C42.2120359,13.4365551 42.2131166,13.3660369 42.2131166,13.2957889 C42.2131166,7.17610554 37.2346934,2.19768232 31.1155504,2.19768232 C26.2922132,2.19768232 22.0622016,5.30318522 20.579428,9.83715462 C16.345904,10.539905 13.1301657,14.2587272 13.1301657,18.6170765 Z M21.5026491,11.8997446 C21.9638544,11.8632697 22.3512992,11.5371567 22.465047,11.0886501 C23.4739166,7.12612137 27.030628,4.35888971 31.1152802,4.35888971 C36.0429087,4.35888971 40.0513689,8.36789024 40.0513689,13.2955187 C40.0513689,13.6321689 40.0259715,13.993676 39.9700433,14.4321858 C39.9300559,14.7534354 40.0724433,15.073334 40.2950755,15.3081245 C40.5177077,15.5423747 40.8746216,15.664228 41.1931694,15.6404517 C41.2766565,15.6347778 41.3598734,15.627753 41.4455219,15.627753 C44.1295367,15.627753 46.3120887,17.8108454 46.3120887,20.4948602 C46.3120887,23.1788749 44.1295367,25.3619673 41.4455219,25.3619673 L22.036534,25.3619673 C18.3171715,25.3619673 15.2913731,22.3361689 15.2913731,18.6168063 C15.2913731,15.1235884 18.0196982,12.1731715 21.5026491,11.8997446 L21.5026491,11.8997446 Z" id="Shape"></path>
                            <path d="M58.7405847,6.30611082 C58.0645826,6.30611082 57.516648,6.85404538 57.516648,7.53004749 C57.516648,8.20577942 58.0645826,8.75398417 58.7405847,8.75398417 C59.4163166,8.75398417 59.9645214,8.2060496 59.9645214,7.53004749 C59.9645214,6.85404538 59.4165868,6.30611082 58.7405847,6.30611082 Z" id="Path"></path>
                            <path d="M35.1075293,33.4677784 C35.1075293,32.7917763 34.5595947,32.2438417 33.8835926,32.2438417 C33.2075905,32.2438417 32.6596559,32.7917763 32.6596559,33.4677784 C32.6596559,34.1435103 33.2075905,34.691715 33.8835926,34.691715 C34.5595947,34.6914449 35.1075293,34.1435103 35.1075293,33.4677784 Z" id="Path"></path>
                            <path d="M5.83193668,30.7183789 C5.40990818,30.2963504 4.72580053,30.2963504 4.30377203,30.7183789 L3.0825372,31.9396137 L1.86130237,30.7183789 C1.43927388,30.2963504 0.755166227,30.2963504 0.333137731,30.7183789 C-0.0888907652,31.1404074 -0.0888907652,31.824515 0.333137731,32.2465435 L1.55437256,33.4677784 L0.333137731,34.6890132 C-0.0888907652,35.1110417 -0.0888907652,35.7951493 0.333137731,36.2171778 C0.544151979,36.4281921 0.820821108,36.5338343 1.09722005,36.5338343 C1.373619,36.5338343 1.65028813,36.4281921 1.86130237,36.2171778 L3.0825372,34.995943 L4.30377203,36.2171778 C4.51478628,36.4281921 4.79145541,36.5338343 5.06785435,36.5338343 C5.3442533,36.5338343 5.62092243,36.4281921 5.83193668,36.2171778 C6.25396517,35.7951493 6.25396517,35.1110417 5.83193668,34.6890132 L4.61070185,33.4677784 L5.83193668,32.2465435 C6.25396517,31.824515 6.25396517,31.1404074 5.83193668,30.7183789 L5.83193668,30.7183789 Z" id="Path"></path>
                            <path d="M48.0439726,31.1274385 L48.1136802,28.4223493 C48.1285404,27.8260517 47.6576084,27.3299926 47.0605003,27.3145921 C47.0510438,27.3140517 47.0415873,27.3140517 47.0329414,27.3140517 C46.4482617,27.3140517 45.9681435,27.7801203 45.9522026,28.3672317 L45.8138681,33.7693045 C45.8000887,34.306972 46.1842913,34.7730406 46.7141235,34.8622016 L51.2353942,35.6262839 C51.2967261,35.6368211 51.3577879,35.6416844 51.4169583,35.6416844 C51.9351726,35.6416844 52.3920549,35.2685594 52.4817562,34.7408887 C52.580914,34.1524264 52.1840127,33.5947652 51.5963609,33.4956074 L49.1819905,33.0876285 C57.1721625,23.9713266 56.8452391,10.0603272 48.1525868,1.36686438 C47.7305583,0.944835884 47.0464507,0.944835884 46.6244222,1.36686438 C46.2023937,1.78889288 46.2023937,2.47300053 46.6244222,2.89502902 C54.3352232,10.607181 54.8072359,22.8576253 48.0439726,31.1274385 L48.0439726,31.1274385 Z" id="Path"></path>
                            <path d="M14.2109045,34.2269974 C14.4219187,34.4380116 14.6985879,34.5436538 14.9749868,34.5436538 C15.2513858,34.5436538 15.5280549,34.4380116 15.7390691,34.2269974 C16.1610976,33.8049689 16.1610976,33.1208612 15.7390691,32.6988327 C7.74106174,24.6992042 7.55301319,11.8294966 15.1281815,3.5715715 L15.5080612,5.81923799 C15.5977625,6.34690871 16.0546449,6.72003377 16.5728591,6.72003377 C16.6320296,6.72003377 16.6930913,6.71517045 16.7544232,6.70463325 C17.3423451,6.60547546 17.7392464,6.04754406 17.6398185,5.45935198 L16.8757361,0.938081266 C16.7849541,0.408249077 16.3531989,0.00081055409 15.7822987,0.0378258575 L10.3807662,0.176160422 C9.78338786,0.19156095 9.31272612,0.687620053 9.32758628,1.28391768 C9.34352718,1.87129921 9.82364538,2.33709763 10.4083251,2.33709763 C10.4167008,2.33709763 10.4261573,2.33709763 10.4358839,2.33655726 L13.4035926,2.26063536 C5.18781636,11.370723 5.43935831,25.4543704 14.2109045,34.2269974 L14.2109045,34.2269974 Z" id="Path"></path>
                        </g>
                    </g>
                </g>
            </g>
        </g>
    </g>
</svg>