<?xml version="1.0" encoding="UTF-8"?>
<svg width="23px" height="29px" viewBox="0 0 23 29" version="1.1" xmlns="http://www.w3.org/2000/svg" xmlns:xlink="http://www.w3.org/1999/xlink">
    <title>shield</title>
    <g id="Page-1" stroke="none" stroke-width="1" fill="none" fill-rule="evenodd">
        <g id="Degree-Programs-v1" transform="translate(-538.000000, -1952.000000)" fill-rule="nonzero">
            <g id="MIDMAIN" transform="translate(-71.000000, 719.000000)">
                <g id="prg---2" transform="translate(171.000000, 782.000000)">
                    <g id="accredited" transform="translate(438.000000, 445.000000)">
                        <g id="shield" transform="translate(0.000000, 6.000000)">
                            <path d="M23,4.41874878 C23.0220913,4.41874878 11.7874991,0.110456098 11.5,0 C11.2788726,0.0883536585 -0.0220915192,4.41874878 0,4.41874878 L0,12.5492488 C0,18.1831829 1.61446391,25.5404341 11.5,28.2800146 C21.3634119,25.540378 22.9778434,18.0505683 22.9778434,12.5492488 C23,9.76546341 23,4.41874878 23,4.41874878 Z" id="Path" fill="#F3F3F3"></path>
                            <path d="M20.9830442,5.9432561 C21.0056519,5.9432561 11.7401125,2.2977561 11.4915427,2.20940244 C11.2881308,2.27570976 1.97743341,5.78859512 2,5.76649268 L2,12.5934537 C2,17.3215244 2.94921995,23.7729122 11.4915427,26.0706683 C20.0113151,23.7729122 20.9830442,17.2110683 20.9830442,12.5934537 C21.0056519,10.2515488 21.0056519,5.9432561 20.9830442,5.9432561 Z" id="Path" fill="#84BF41"></path>
                            <path d="M12,2.20940244 C11.7856915,2.27570976 1.97622453,5.78859512 2,5.76649268 L2,12.5934537 C2,17.3215244 3.0000692,23.7729122 12,26.0706683 L12,2.20940244 Z" id="Path" fill="#71B12A"></path>
                            <path d="M15.9589397,11.9748659 C15.8912682,11.7539537 15.6883681,11.5992927 15.4403536,11.5550878 L13.0953227,11.2236634 L12.0806502,9.19102439 C11.9679216,8.9701122 11.742407,8.83749756 11.4943925,8.83749756 C11.246378,8.83749756 11.0208635,8.9700561 10.9081348,9.19102439 L9.89346238,11.2236634 L7.54843148,11.5550878 C7.30041699,11.5992927 7.0974596,11.7539537 7.02984531,11.9748659 C6.96223101,12.195778 7.00728813,12.4388488 7.18768833,12.5935098 L8.90134713,14.2505195 L8.49548961,16.5482756 C8.45037525,16.7691878 8.56316116,17.0122585 8.76606129,17.1448171 C8.87878995,17.2111244 9.01407579,17.2552732 9.14936163,17.2552732 C9.26209029,17.2552732 9.37481895,17.2331707 9.46504768,17.1889659 L11.5169497,16.1284415 L13.5688517,17.1889659 C13.6590232,17.2331707 13.7718091,17.2552732 13.8845378,17.2552732 C14.0198236,17.2552732 14.1551095,17.2110683 14.2678381,17.1448171 C14.4707955,17.0122585 14.5835242,16.7692439 14.5384098,16.5482756 L14.1325523,14.2505195 L15.8462111,12.5935098 C15.9814969,12.4167463 16.0491112,12.195778 15.9589397,11.9748659 Z" id="Path" fill="#F9F9F9"></path>
                        </g>
                    </g>
                </g>
            </g>
        </g>
    </g>
</svg>