<?xml version="1.0" encoding="UTF-8"?>
<svg width="1000px" height="770px" viewBox="0 0 1000 770" version="1.1" xmlns="http://www.w3.org/2000/svg" xmlns:xlink="http://www.w3.org/1999/xlink">
    <title>Group</title>
    <defs>
        <polygon id="path-1" points="0.06 0.648 999.992 0.648 999.992 468.103 0.06 468.103"></polygon>
        <polygon id="path-3" points="0.06 0.731 399.991 0.731 399.991 100.725 0.06 100.725"></polygon>
    </defs>
    <g id="Page-1" stroke="none" stroke-width="1" fill="none" fill-rule="evenodd">
        <g id="SMC_FC_Logo_293_294_SMC-logo_293" transform="translate(0.000000, -115.000000)">
            <g id="Group" transform="translate(0.000000, 115.744000)">
                <g id="Group-3" transform="translate(0.000000, 699.256000)" fill="#FFFFFF">
                    <path d="M42.762,47.492 C42.762,45.235 41.884,43.447 40.149,42.12 C38.403,40.803 35.592,40.145 31.724,40.145 L14.519,40.145 L14.519,55.039 L32.216,55.039 C35.508,55.039 38.09,54.443 39.95,53.252 C41.821,52.061 42.762,50.2 42.762,47.691 L42.762,47.492 Z M38.988,20.41 C38.988,18.152 38.152,16.427 36.47,15.235 C34.787,14.044 32.372,13.448 29.216,13.448 L14.519,13.448 L14.519,27.758 L28.243,27.758 C31.536,27.758 34.149,27.204 36.083,26.064 C38.017,24.946 38.988,23.117 38.988,20.608 L38.988,20.41 Z M0,0.393 L31.39,0.393 C39.166,0.393 45.061,2.39 49.055,6.382 C52.139,9.476 53.685,13.313 53.685,17.891 L53.685,18.089 C53.685,20.022 53.445,21.737 52.975,23.211 C52.494,24.695 51.846,26.033 51.041,27.235 C50.246,28.427 49.316,29.472 48.25,30.371 C47.204,31.28 46.055,32.043 44.842,32.691 C48.762,34.187 51.846,36.193 54.093,38.744 C56.34,41.283 57.459,44.816 57.459,49.332 L57.459,49.521 C57.459,52.625 56.873,55.332 55.671,57.652 C54.479,59.973 52.775,61.907 50.56,63.454 C48.333,65.001 45.657,66.161 42.543,66.935 C39.417,67.708 35.968,68.095 32.163,68.095 L0,68.095 L0,0.393 L0,0.393 Z" id="Fill-1"></path>
                </g>
                <path d="M101.763,768.415 C92.669,768.415 85.509,765.906 80.282,760.868 C75.056,755.841 72.453,748.335 72.453,738.343 L72.453,699.647 L87.349,699.647 L87.349,737.945 C87.349,743.496 88.634,747.666 91.216,750.479 C93.798,753.279 97.372,754.68 101.961,754.68 C106.529,754.68 110.114,753.332 112.696,750.614 C115.268,747.917 116.563,743.852 116.563,738.426 L116.563,699.647 L131.459,699.647 L131.459,737.852 C131.459,743.015 130.759,747.499 129.379,751.294 C127.988,755.109 126.003,758.277 123.421,760.826 C120.85,763.377 117.714,765.269 114.045,766.533 C110.365,767.788 106.278,768.415 101.763,768.415" id="Fill-4" fill="#FFFFFF"></path>
                <path d="M173.962,768.323 C168.809,768.323 163.739,767.435 158.784,765.657 C153.809,763.891 149.304,761.163 145.237,757.484 L154.039,746.947 C157.144,749.456 160.311,751.463 163.571,752.937 C166.822,754.421 170.387,755.163 174.255,755.163 C177.349,755.163 179.753,754.61 181.467,753.47 C183.171,752.341 184.027,750.783 184.027,748.777 L184.027,748.588 C184.027,747.627 183.84,746.759 183.495,746.027 C183.14,745.285 182.46,744.585 181.467,743.947 C180.463,743.299 179.073,742.652 177.296,742.014 C175.529,741.365 173.23,740.686 170.387,739.985 C166.969,739.139 163.875,738.209 161.104,737.174 C158.335,736.139 155.973,734.863 154.039,733.348 C152.105,731.843 150.61,729.951 149.544,727.694 C148.478,725.436 147.955,722.634 147.955,719.278 L147.955,719.091 C147.955,715.996 148.52,713.206 149.68,710.718 C150.83,708.24 152.439,706.087 154.53,704.289 C156.61,702.482 159.098,701.091 161.983,700.129 C164.878,699.157 168.066,698.676 171.558,698.676 C176.513,698.676 181.08,699.419 185.229,700.902 C189.4,702.387 193.216,704.52 196.696,707.289 L188.962,718.505 C185.93,716.446 182.962,714.816 180.056,713.624 C177.16,712.432 174.255,711.836 171.359,711.836 C168.453,711.836 166.279,712.391 164.826,713.52 C163.373,714.658 162.652,716.059 162.652,717.732 L162.652,717.931 C162.652,719.028 162.861,719.979 163.279,720.784 C163.697,721.589 164.46,722.31 165.547,722.958 C166.645,723.607 168.14,724.213 170.053,724.787 C171.955,725.373 174.349,726.052 177.254,726.826 C180.673,727.725 183.725,728.738 186.39,729.867 C189.066,730.996 191.324,732.356 193.163,733.934 C195.003,735.512 196.394,737.372 197.323,739.494 C198.254,741.627 198.725,744.167 198.725,747.136 L198.725,747.334 C198.725,750.69 198.129,753.668 196.896,756.281 C195.683,758.895 193.989,761.079 191.805,762.857 C189.631,764.623 187.027,765.982 184.007,766.923 C180.986,767.853 177.651,768.323 173.962,768.323" id="Fill-5" fill="#FFFFFF"></path>
                <polygon id="Fill-6" fill="#FFFFFF" points="215.694 767.356 230.6 767.356 230.6 699.644 215.694 699.644"></polygon>
                <polyline id="Fill-7" fill="#FFFFFF" points="251.082 699.646 264.817 699.646 296.552 741.331 296.552 699.646 311.248 699.646 311.248 767.359 298.579 767.359 265.789 724.304 265.789 767.359 251.082 767.359 251.082 699.646"></polyline>
                <polyline id="Fill-8" fill="#FFFFFF" points="331.479 699.646 382.456 699.646 382.456 712.9 346.175 712.9 346.175 726.635 378.098 726.635 378.098 739.889 346.175 739.889 346.175 754.105 382.938 754.105 382.938 767.359 331.479 767.359 331.479 699.646"></polyline>
                <path d="M424.073,768.323 C418.909,768.323 413.851,767.435 408.885,765.657 C403.92,763.891 399.415,761.163 395.349,757.484 L404.15,746.947 C407.244,749.456 410.411,751.463 413.673,752.937 C416.923,754.421 420.487,755.163 424.355,755.163 C427.46,755.163 429.863,754.61 431.567,753.47 C433.282,752.341 434.129,750.783 434.129,748.777 L434.129,748.588 C434.129,747.627 433.951,746.759 433.596,746.027 C433.25,745.285 432.561,744.585 431.567,743.947 C430.564,743.299 429.174,742.652 427.407,742.014 C425.63,741.365 423.331,740.686 420.487,739.985 C417.069,739.139 413.976,738.209 411.216,737.174 C408.436,736.139 406.073,734.863 404.15,733.348 C402.206,731.843 400.722,729.951 399.645,727.694 C398.589,725.436 398.056,722.634 398.056,719.278 L398.056,719.091 C398.056,715.996 398.62,713.206 399.78,710.718 C400.931,708.24 402.551,706.087 404.642,704.289 C406.722,702.482 409.198,701.091 412.094,700.129 C414.989,699.157 418.178,698.676 421.658,698.676 C426.613,698.676 431.181,699.419 435.341,700.902 C439.501,702.387 443.327,704.52 446.808,707.289 L439.072,718.505 C436.041,716.446 433.063,714.816 430.167,713.624 C427.271,712.432 424.355,711.836 421.46,711.836 C418.564,711.836 416.391,712.391 414.927,713.52 C413.474,714.658 412.753,716.059 412.753,717.732 L412.753,717.931 C412.753,719.028 412.972,719.979 413.391,720.784 C413.809,721.589 414.561,722.31 415.647,722.958 C416.756,723.607 418.251,724.213 420.153,724.787 C422.056,725.373 424.46,726.052 427.355,726.826 C430.783,727.725 433.825,728.738 436.501,729.867 C439.177,730.996 441.435,732.356 443.274,733.934 C445.114,735.512 446.505,737.372 447.424,739.494 C448.365,741.627 448.835,744.167 448.835,747.136 L448.835,747.334 C448.835,750.69 448.229,753.668 447.006,756.281 C445.794,758.895 444.09,761.079 441.916,762.857 C439.731,764.623 437.139,765.982 434.118,766.923 C431.097,767.853 427.752,768.323 424.073,768.323" id="Fill-9" fill="#FFFFFF"></path>
                <path d="M488.933,768.323 C483.779,768.323 478.709,767.435 473.755,765.657 C468.779,763.891 464.274,761.163 460.208,757.484 L469.009,746.947 C472.113,749.456 475.281,751.463 478.542,752.937 C481.793,754.421 485.357,755.163 489.225,755.163 C492.318,755.163 494.723,754.61 496.438,753.47 C498.141,752.341 498.998,750.783 498.998,748.777 L498.998,748.588 C498.998,747.627 498.81,746.759 498.465,746.027 C498.109,745.285 497.43,744.585 496.438,743.947 C495.434,743.299 494.044,742.652 492.267,742.014 C490.5,741.365 488.2,740.686 485.357,739.985 C481.939,739.139 478.845,738.209 476.075,737.174 C473.295,736.139 470.943,734.863 469.009,733.348 C467.075,731.843 465.581,729.951 464.515,727.694 C463.448,725.436 462.915,722.634 462.915,719.278 L462.915,719.091 C462.915,715.996 463.49,713.206 464.65,710.718 C465.8,708.24 467.41,706.087 469.5,704.289 C471.581,702.482 474.068,701.091 476.953,700.129 C479.849,699.157 483.037,698.676 486.528,698.676 C491.482,698.676 496.051,699.419 500.2,700.902 C504.371,702.387 508.187,704.52 511.667,707.289 L503.932,718.505 C500.9,716.446 497.932,714.816 495.026,713.624 C492.131,712.432 489.225,711.836 486.329,711.836 C483.424,711.836 481.249,712.391 479.797,713.52 C478.344,714.658 477.622,716.059 477.622,717.732 L477.622,717.931 C477.622,719.028 477.831,719.979 478.249,720.784 C478.668,721.589 479.42,722.31 480.518,722.958 C481.615,723.607 483.11,724.213 485.022,724.787 C486.925,725.373 489.318,726.052 492.225,726.826 C495.643,727.725 498.695,728.738 501.36,729.867 C504.036,730.996 506.294,732.356 508.134,733.934 C509.974,735.512 511.363,737.372 512.294,739.494 C513.225,741.627 513.694,744.167 513.694,747.136 L513.694,747.334 C513.694,750.69 513.099,753.668 511.865,756.281 C510.653,758.895 508.96,761.079 506.774,762.857 C504.601,764.623 501.998,765.982 498.978,766.923 C495.956,767.853 492.611,768.323 488.933,768.323" id="Fill-10" fill="#FFFFFF"></path>
                <path d="M589.53,768.323 C584.377,768.323 579.308,767.435 574.343,765.657 C569.377,763.891 564.872,761.163 560.807,757.484 L569.607,746.947 C572.701,749.456 575.868,751.463 579.141,752.937 C582.381,754.421 585.955,755.163 589.823,755.163 C592.917,755.163 595.321,754.61 597.035,753.47 C598.739,752.341 599.597,750.783 599.597,748.777 L599.597,748.588 C599.597,747.627 599.408,746.759 599.053,746.027 C598.708,745.285 598.018,744.585 597.035,743.947 C596.032,743.299 594.642,742.652 592.864,742.014 C591.088,741.365 588.788,740.686 585.955,739.985 C582.537,739.139 579.433,738.209 576.674,737.174 C573.894,736.139 571.541,734.863 569.607,733.348 C567.674,731.843 566.179,729.951 565.112,727.694 C564.047,725.436 563.514,722.634 563.514,719.278 L563.514,719.091 C563.514,715.996 564.089,713.206 565.249,710.718 C566.388,708.24 568.008,706.087 570.099,704.289 C572.179,702.482 574.666,701.091 577.552,700.129 C580.447,699.157 583.635,698.676 587.116,698.676 C592.081,698.676 596.648,699.419 600.799,700.902 C604.969,702.387 608.784,704.52 612.265,707.289 L604.53,718.505 C601.499,716.446 598.52,714.816 595.624,713.624 C592.729,712.432 589.823,711.836 586.917,711.836 C584.021,711.836 581.848,712.391 580.395,713.52 C578.941,714.658 578.221,716.059 578.221,717.732 L578.221,717.931 C578.221,719.028 578.43,719.979 578.848,720.784 C579.266,721.589 580.019,722.31 581.116,722.958 C582.213,723.607 583.708,724.213 585.61,724.787 C587.523,725.373 589.917,726.052 592.813,726.826 C596.241,727.725 599.293,728.738 601.959,729.867 C604.635,730.996 606.893,732.356 608.732,733.934 C610.571,735.512 611.962,737.372 612.893,739.494 C613.822,741.627 614.293,744.167 614.293,747.136 L614.293,747.334 C614.293,750.69 613.687,753.668 612.464,756.281 C611.251,758.895 609.558,761.079 607.373,762.857 C605.199,764.623 602.597,765.982 599.575,766.923 C596.555,767.853 593.21,768.323 589.53,768.323" id="Fill-11" fill="#FFFFFF"></path>
                <path d="M661.454,768.512 C656.488,768.512 651.879,767.613 647.624,765.805 C643.37,763.997 639.691,761.54 636.597,758.404 C633.503,755.279 631.088,751.589 629.343,747.335 C627.607,743.07 626.74,738.524 626.74,733.694 L626.74,733.495 C626.74,728.655 627.607,724.13 629.343,719.907 C631.088,715.684 633.503,711.973 636.597,708.785 C639.691,705.587 643.392,703.078 647.729,701.238 C652.046,699.399 656.823,698.479 662.039,698.479 C665.195,698.479 668.091,698.74 670.693,699.263 C673.307,699.775 675.669,700.485 677.802,701.385 C679.934,702.294 681.899,703.392 683.707,704.677 C685.516,705.963 687.188,707.385 688.735,708.932 L679.255,719.865 C676.61,717.472 673.913,715.601 671.186,714.252 C668.437,712.894 665.353,712.225 661.945,712.225 C659.102,712.225 656.468,712.768 654.053,713.865 C651.648,714.963 649.559,716.468 647.813,718.412 C646.077,720.346 644.719,722.583 643.757,725.133 C642.796,727.684 642.304,730.402 642.304,733.308 L642.304,733.495 C642.304,736.402 642.796,739.14 643.757,741.722 C644.719,744.304 646.057,746.551 647.771,748.485 C649.475,750.429 651.544,751.966 653.959,753.084 C656.384,754.213 659.05,754.777 661.945,754.777 C665.813,754.777 669.073,754.067 671.76,752.645 C674.436,751.234 677.091,749.3 679.735,746.844 L689.216,756.418 C687.471,758.289 685.662,759.973 683.802,761.456 C681.931,762.941 679.893,764.205 677.666,765.272 C675.439,766.338 672.993,767.143 670.359,767.687 C667.715,768.24 664.746,768.512 661.454,768.512" id="Fill-12" fill="#FFFFFF"></path>
                <polyline id="Fill-13" fill="#FFFFFF" points="703.663 699.646 718.558 699.646 718.558 726.436 746.027 726.436 746.027 699.646 760.923 699.646 760.923 767.359 746.027 767.359 746.027 740.171 718.558 740.171 718.558 767.359 703.663 767.359 703.663 699.646"></polyline>
                <path d="M813.805,754.777 C816.763,754.777 819.512,754.234 822.021,753.136 C824.528,752.038 826.672,750.524 828.448,748.589 C830.226,746.655 831.616,744.418 832.619,741.868 C833.612,739.318 834.114,736.59 834.114,733.694 L834.114,733.495 C834.114,730.6 833.612,727.851 832.619,725.279 C831.616,722.698 830.194,720.441 828.365,718.507 C826.525,716.572 824.351,715.036 821.832,713.907 C819.313,712.778 816.574,712.225 813.605,712.225 C810.574,712.225 807.825,712.768 805.338,713.865 C802.85,714.963 800.728,716.468 798.951,718.412 C797.174,720.346 795.794,722.583 794.801,725.133 C793.798,727.684 793.296,730.402 793.296,733.308 L793.296,733.495 C793.296,736.402 793.798,739.14 794.801,741.722 C795.794,744.304 797.216,746.551 799.056,748.485 C800.896,750.418 803.049,751.955 805.525,753.084 C808.014,754.213 810.773,754.777 813.805,754.777 M813.605,768.513 C808.379,768.513 803.571,767.592 799.202,765.753 C794.812,763.923 791.018,761.436 787.829,758.311 C784.641,755.185 782.153,751.506 780.387,747.282 C778.61,743.06 777.722,738.524 777.722,733.694 L777.722,733.495 C777.722,728.655 778.631,724.13 780.429,719.907 C782.227,715.684 784.735,711.974 787.923,708.785 C791.122,705.587 794.916,703.078 799.338,701.238 C803.759,699.399 808.578,698.479 813.805,698.479 C819.021,698.479 823.828,699.399 828.219,701.238 C832.599,703.078 836.382,705.566 839.581,708.692 C842.769,711.817 845.257,715.496 847.033,719.719 C848.8,723.942 849.688,728.468 849.688,733.308 L849.688,733.495 C849.688,738.335 848.789,742.861 846.981,747.095 C845.173,751.307 842.675,755.018 839.477,758.216 C836.288,761.404 832.483,763.923 828.062,765.753 C823.65,767.592 818.821,768.513 813.605,768.513" id="Fill-14" fill="#FFFFFF"></path>
                <path d="M898.865,754.777 C901.834,754.777 904.583,754.234 907.092,753.136 C909.601,752.038 911.743,750.524 913.521,748.589 C915.297,746.655 916.688,744.418 917.691,741.868 C918.684,739.318 919.176,736.59 919.176,733.694 L919.176,733.495 C919.176,730.6 918.684,727.851 917.691,725.279 C916.688,722.698 915.266,720.441 913.437,718.507 C911.597,716.572 909.412,715.036 906.904,713.907 C904.385,712.778 901.646,712.225 898.678,712.225 C895.646,712.225 892.897,712.768 890.398,713.865 C887.922,714.963 885.8,716.468 884.022,718.412 C882.246,720.346 880.855,722.583 879.862,725.133 C878.869,727.684 878.368,730.402 878.368,733.308 L878.368,733.495 C878.368,736.402 878.869,739.14 879.862,741.722 C880.855,744.304 882.277,746.551 884.117,748.485 C885.957,750.418 888.12,751.955 890.598,753.084 C893.075,754.213 895.845,754.777 898.865,754.777 M898.678,768.513 C893.451,768.513 888.643,767.592 884.273,765.753 C879.884,763.923 876.089,761.436 872.901,758.311 C869.713,755.185 867.226,751.506 865.459,747.282 C863.682,743.06 862.793,738.524 862.793,733.694 L862.793,733.495 C862.793,728.655 863.692,724.13 865.501,719.907 C867.299,715.684 869.807,711.974 872.995,708.785 C876.184,705.587 879.988,703.078 884.409,701.238 C888.831,699.399 893.649,698.479 898.865,698.479 C904.092,698.479 908.9,699.399 913.28,701.238 C917.67,703.078 921.454,705.566 924.652,708.692 C927.83,711.817 930.328,715.496 932.095,719.719 C933.872,723.942 934.761,728.468 934.761,733.308 L934.761,733.495 C934.761,738.335 933.861,742.861 932.053,747.095 C930.245,751.307 927.746,755.018 924.548,758.216 C921.36,761.404 917.555,763.923 913.134,765.753 C908.712,767.592 903.894,768.513 898.678,768.513" id="Fill-15" fill="#FFFFFF"></path>
                <g id="Group-19" transform="translate(0.000000, 299.256000)">
                    <mask id="mask-2" fill="white">
                        <use xlink:href="#path-1"></use>
                    </mask>
                    <g id="Clip-17"></g>
                    <polyline id="Fill-16" fill="#FFFFFF" mask="url(#mask-2)" points="951.334 400.39 966.229 400.39 966.229 454.556 999.992 454.556 999.992 468.103 951.334 468.103 951.334 400.39"></polyline>
                    <path d="M123.066,298.99 C100.97,298.99 79.29,295.196 58.009,287.597 C36.737,280.009 17.421,268.333 0.006,252.591 L37.72,207.414 C50.984,218.191 64.573,226.752 78.527,233.107 C92.472,239.462 107.743,242.64 124.311,242.64 C137.575,242.64 147.86,240.226 155.188,235.386 C162.494,230.557 166.163,223.867 166.163,215.296 L166.163,214.47 C166.163,210.32 165.4,206.661 163.885,203.483 C162.369,200.307 159.463,197.338 155.188,194.578 C150.902,191.818 144.965,189.049 137.366,186.289 C129.767,183.529 119.889,180.634 107.743,177.582 C93.099,173.997 79.834,169.993 67.97,165.572 C56.085,161.15 45.998,155.694 37.72,149.203 C29.431,142.712 23.013,134.632 18.445,124.963 C13.898,115.294 11.608,103.273 11.608,88.911 L11.608,88.086 C11.608,74.821 14.076,62.884 19.02,52.243 C23.964,41.613 30.894,32.425 39.8,24.69 C48.737,16.955 59.378,11.018 71.765,6.868 C84.141,2.728 97.802,0.648 112.718,0.648 C133.979,0.648 153.525,3.836 171.337,10.182 C189.159,16.547 205.538,25.662 220.444,37.536 L187.309,85.598 C174.306,76.755 161.616,69.793 149.178,64.671 C136.749,59.56 124.311,57.01 111.882,57.01 C99.454,57.01 90.141,59.424 83.91,64.253 C77.701,69.093 74.587,75.103 74.587,82.284 L74.587,83.11 C74.587,87.814 75.485,91.891 77.283,95.34 C79.081,98.8 82.332,101.904 87.025,104.664 C91.719,107.423 98.137,110.047 106.29,112.534 C114.433,115.012 124.729,117.918 137.167,121.231 C151.801,125.099 164.846,129.457 176.323,134.287 C187.769,139.126 197.448,144.917 205.319,151.69 C213.2,158.464 219.127,166.397 223.141,175.513 C227.145,184.627 229.141,195.55 229.141,208.25 L229.141,209.076 C229.141,223.438 226.538,236.222 221.322,247.406 C216.106,258.591 208.842,267.988 199.507,275.576 C190.173,283.176 179.03,288.977 166.101,292.98 C153.16,296.983 138.818,298.99 123.066,298.99" id="Fill-18" fill="#FFFFFF" mask="url(#mask-2)"></path>
                </g>
                <path d="M881.063,599.078 C859.792,599.078 840.047,595.2 821.807,587.476 C803.577,579.741 787.836,569.173 774.571,555.773 C761.316,542.383 750.958,526.568 743.495,508.328 C736.042,490.098 732.311,470.625 732.311,449.907 L732.311,449.082 C732.311,428.354 736.042,408.964 743.495,390.859 C750.958,372.776 761.316,356.888 774.571,343.206 C787.836,329.534 803.724,318.767 822.225,310.897 C840.737,303.015 861.183,299.085 883.551,299.085 C897.077,299.085 909.453,300.192 920.638,302.398 C931.822,304.614 941.982,307.646 951.097,311.513 C960.201,315.38 968.637,320.074 976.361,325.603 C984.096,331.133 991.288,337.206 997.925,343.833 L957.306,390.661 C945.975,380.439 934.445,372.421 922.707,366.62 C910.958,360.819 897.788,357.923 883.133,357.923 C870.977,357.923 859.729,360.265 849.371,364.968 C839.012,369.662 830.106,376.153 822.644,384.442 C815.18,392.731 809.389,402.326 805.239,413.239 C801.1,424.151 799.02,435.817 799.02,448.245 L799.02,449.082 C799.02,461.51 801.1,473.259 805.239,484.297 C809.389,495.356 815.106,505.014 822.434,513.303 C829.751,521.592 838.594,528.156 848.963,532.985 C859.312,537.825 870.705,540.24 883.133,540.24 C899.711,540.24 913.729,537.198 925.205,531.125 C936.651,525.042 948.045,516.763 959.375,506.258 L999.984,547.285 C992.531,555.303 984.797,562.484 976.779,568.828 C968.772,575.184 960.003,580.64 950.47,585.197 C940.947,589.754 930.505,593.215 919.185,595.556 C907.854,597.898 895.164,599.078 881.063,599.078" id="Fill-20" fill="#FFFFFF"></path>
                <polygon id="Fill-21" fill="#FFFFFF" points="404.308 304.054 480.435 426.707 556.573 304.054 625.258 304.054 625.258 594.108 562.28 594.108 562.28 404.745 480.863 528.631 479.191 528.631 398.601 405.989 398.601 594.108 335.623 594.108 335.623 304.054"></polygon>
                <path d="M900.009,150.004 C872.352,150.004 850.014,127.604 850.014,100.008 C850.014,72.413 872.352,50.013 900.009,50.013 C927.614,50.013 949.952,72.413 949.952,100.008 C949.952,127.604 927.614,150.004 900.009,150.004 M900.009,0.007 C844.756,0.007 800.019,44.755 800.019,100.008 C800.019,155.209 844.756,200.01 900.009,200.01 C955.199,200.01 1000,155.209 1000,100.008 C1000,44.755 955.199,0.007 900.009,0.007 M900.009,150.004 C872.352,150.004 850.014,127.604 850.014,100.008 C850.014,72.413 872.352,50.013 900.009,50.013 C927.614,50.013 949.952,72.413 949.952,100.008 C949.952,127.604 927.614,150.004 900.009,150.004 M900.009,0.007 C844.756,0.007 800.019,44.755 800.019,100.008 C800.019,155.209 844.756,200.01 900.009,200.01 C955.199,200.01 1000,155.209 1000,100.008 C1000,44.755 955.199,0.007 900.009,0.007" id="Fill-22" fill="#D8232A"></path>
                <path d="M649.98,99.99 C649.98,127.617 627.602,149.997 600.006,149.997 C572.38,149.997 550,127.617 550,99.99 C550,72.385 572.38,50.006 600.006,50.006 L600.006,0 C544.784,0 499.983,44.769 499.983,99.99 C499.983,155.213 544.784,199.981 600.006,199.981 C655.228,199.981 699.986,155.213 699.986,99.99 L649.98,99.99" id="Fill-23" fill="#84BF41"></path>
                <g id="Group-27" transform="translate(0.000000, 99.256000)">
                    <mask id="mask-4" fill="white">
                        <use xlink:href="#path-3"></use>
                    </mask>
                    <g id="Clip-25"></g>
                    <path d="M349.985,0.734 C349.985,28.361 327.605,50.741 300.011,50.741 C272.384,50.741 250.005,28.361 250.005,0.734 L199.988,0.734 C199.988,55.957 244.788,100.725 300.011,100.725 C355.232,100.725 399.991,55.957 399.991,0.734 L349.985,0.734" id="Fill-24" fill="#00A3DA" mask="url(#mask-4)"></path>
                    <path d="M100.007,50.737 C72.38,50.737 50.001,28.358 50.001,0.731 L0.005,0.731 C0.005,55.964 44.785,100.723 100.007,100.723 L100.007,50.737" id="Fill-26" fill="#FFFFFF" mask="url(#mask-4)"></path>
                </g>
                <circle id="Oval" stroke="#D8232A" stroke-width="50" cx="899" cy="100.256" r="75"></circle>
            </g>
        </g>
    </g>
</svg>