<?xml version="1.0" encoding="UTF-8"?>
<svg width="1000px" height="390px" viewBox="0 0 1000 390" version="1.1" xmlns="http://www.w3.org/2000/svg" xmlns:xlink="http://www.w3.org/1999/xlink">
    <title>Group</title>
    <defs>
        <polygon id="path-1" points="0.06 0.115 277.777 0.115 277.777 277.883 0.06 277.883"></polygon>
    </defs>
    <g id="Page-1" stroke="none" stroke-width="1" fill="none" fill-rule="evenodd">
        <g id="SMC_FC_Logo_293_294_SMC-logo_293_square" transform="translate(0.000000, -305.000000)">
            <g id="Group" transform="translate(0.000000, 305.556000)">
                <path d="M468.194,320.527 C468.194,319.273 467.711,318.279 466.744,317.545 C465.776,316.811 464.218,316.443 462.068,316.443 L452.503,316.443 L452.503,324.718 L462.337,324.718 C464.164,324.718 465.597,324.388 466.636,323.724 C467.675,323.062 468.194,322.032 468.194,320.634 L468.194,320.527 Z M466.099,305.481 C466.099,304.227 465.633,303.269 464.702,302.606 C463.77,301.943 462.426,301.612 460.671,301.612 L452.503,301.612 L452.503,309.565 L460.134,309.565 C461.96,309.565 463.412,309.252 464.487,308.625 C465.562,307.998 466.099,306.985 466.099,305.588 L466.099,305.481 Z M444.442,294.357 L461.876,294.357 C466.203,294.357 469.475,295.468 471.692,297.688 C473.409,299.409 474.267,301.54 474.267,304.084 L474.267,304.191 C474.267,305.265 474.133,306.215 473.866,307.04 C473.6,307.864 473.243,308.606 472.798,309.269 C472.354,309.932 471.838,310.514 471.25,311.016 C470.662,311.518 470.031,311.948 469.354,312.305 C471.53,313.13 473.242,314.25 474.49,315.664 C475.738,317.08 476.362,319.042 476.362,321.548 L476.362,321.656 C476.362,323.376 476.032,324.881 475.37,326.17 C474.708,327.46 473.76,328.534 472.526,329.394 C471.292,330.254 469.809,330.899 468.073,331.329 C466.338,331.758 464.417,331.973 462.307,331.973 L444.442,331.973 L444.442,294.357 L444.442,294.357 Z" id="Fill-1" fill="#164A84"></path>
                <path d="M500.974,332.564 C495.922,332.564 491.945,331.168 489.043,328.373 C486.142,325.579 484.691,321.406 484.691,315.852 L484.691,294.357 L492.967,294.357 L492.967,315.637 C492.967,318.718 493.683,321.038 495.116,322.596 C496.549,324.154 498.537,324.933 501.081,324.933 C503.624,324.933 505.613,324.181 507.046,322.676 C508.479,321.171 509.195,318.915 509.195,315.906 L509.195,294.357 L517.471,294.357 L517.471,315.584 C517.471,318.45 517.085,320.94 516.316,323.053 C515.545,325.168 514.443,326.931 513.011,328.346 C511.578,329.761 509.84,330.818 507.798,331.516 C505.756,332.215 503.48,332.564 500.974,332.564" id="Fill-2" fill="#164A84"></path>
                <path d="M541.089,332.511 C538.222,332.511 535.411,332.018 532.652,331.033 C529.893,330.048 527.386,328.534 525.129,326.492 L530.019,320.634 C531.738,322.032 533.502,323.142 535.312,323.966 C537.121,324.791 539.101,325.203 541.25,325.203 C542.97,325.203 544.304,324.889 545.254,324.261 C546.202,323.635 546.677,322.766 546.677,321.656 L546.677,321.548 C546.677,321.011 546.578,320.536 546.382,320.125 C546.185,319.712 545.809,319.328 545.254,318.969 C544.698,318.611 543.928,318.253 542.943,317.894 C541.958,317.537 540.677,317.16 539.101,316.765 C537.202,316.3 535.482,315.781 533.942,315.208 C532.401,314.634 531.094,313.926 530.019,313.085 C528.944,312.243 528.111,311.196 527.521,309.941 C526.929,308.687 526.634,307.129 526.634,305.265 L526.634,305.158 C526.634,303.438 526.953,301.889 527.594,300.509 C528.234,299.131 529.133,297.94 530.29,296.936 C531.447,295.934 532.828,295.163 534.435,294.626 C536.04,294.088 537.811,293.819 539.746,293.819 C542.504,293.819 545.039,294.232 547.349,295.055 C549.66,295.879 551.783,297.062 553.717,298.602 L549.418,304.836 C547.734,303.69 546.086,302.786 544.475,302.122 C542.862,301.46 541.25,301.129 539.638,301.129 C538.026,301.129 536.817,301.442 536.011,302.068 C535.205,302.695 534.802,303.474 534.802,304.406 L534.802,304.513 C534.802,305.123 534.917,305.651 535.151,306.098 C535.383,306.547 535.804,306.95 536.414,307.307 C537.022,307.667 537.855,308.006 538.913,308.329 C539.969,308.651 541.304,309.027 542.916,309.458 C544.814,309.96 546.507,310.524 547.994,311.15 C549.48,311.777 550.735,312.53 551.756,313.407 C552.777,314.285 553.547,315.315 554.067,316.497 C554.585,317.679 554.846,319.094 554.846,320.742 L554.846,320.849 C554.846,322.713 554.507,324.37 553.832,325.82 C553.154,327.271 552.212,328.49 551.002,329.474 C549.791,330.46 548.347,331.213 546.669,331.732 C544.991,332.251 543.131,332.511 541.089,332.511" id="Fill-3" fill="#164A84"></path>
                <polygon id="Fill-4" fill="#164A84" points="564.271 331.973 572.547 331.973 572.547 294.357 564.271 294.357"></polygon>
                <polyline id="Fill-5" fill="#164A84" points="583.934 294.357 591.564 294.357 609.19 317.518 609.19 294.357 617.358 294.357 617.358 331.973 610.319 331.973 592.102 308.06 592.102 331.973 583.934 331.973 583.934 294.357"></polyline>
                <polyline id="Fill-6" fill="#164A84" points="628.595 294.357 656.915 294.357 656.915 301.719 636.763 301.719 636.763 309.349 654.497 309.349 654.497 316.712 636.763 316.712 636.763 324.611 657.184 324.611 657.184 331.973 628.595 331.973 628.595 294.357"></polyline>
                <path d="M680.038,332.511 C677.171,332.511 674.359,332.018 671.601,331.033 C668.842,330.048 666.334,328.534 664.078,326.492 L668.968,320.634 C670.688,322.032 672.452,323.142 674.261,323.966 C676.07,324.791 678.049,325.203 680.199,325.203 C681.918,325.203 683.252,324.889 684.203,324.261 C685.151,323.635 685.626,322.766 685.626,321.656 L685.626,321.548 C685.626,321.011 685.527,320.536 685.331,320.125 C685.134,319.712 684.757,319.328 684.203,318.969 C683.646,318.611 682.876,318.253 681.892,317.894 C680.906,317.537 679.625,317.16 678.049,316.765 C676.15,316.3 674.431,315.781 672.891,315.208 C671.35,314.634 670.043,313.926 668.968,313.085 C667.893,312.243 667.06,311.196 666.469,309.941 C665.878,308.687 665.583,307.129 665.583,305.265 L665.583,305.158 C665.583,303.438 665.902,301.889 666.543,300.509 C667.184,299.131 668.082,297.94 669.239,296.936 C670.396,295.934 671.777,295.163 673.384,294.626 C674.989,294.088 676.76,293.819 678.694,293.819 C681.453,293.819 683.987,294.232 686.298,295.055 C688.609,295.879 690.731,297.062 692.666,298.602 L688.367,304.836 C686.683,303.69 685.035,302.786 683.423,302.122 C681.811,301.46 680.199,301.129 678.587,301.129 C676.975,301.129 675.766,301.442 674.959,302.068 C674.153,302.695 673.75,303.474 673.75,304.406 L673.75,304.513 C673.75,305.123 673.866,305.651 674.1,306.098 C674.332,306.547 674.753,306.95 675.362,307.307 C675.971,307.667 676.804,308.006 677.861,308.329 C678.917,308.651 680.253,309.027 681.865,309.458 C683.764,309.96 685.456,310.524 686.943,311.15 C688.429,311.777 689.684,312.53 690.705,313.407 C691.726,314.285 692.496,315.315 693.016,316.497 C693.534,317.679 693.795,319.094 693.795,320.742 L693.795,320.849 C693.795,322.713 693.457,324.37 692.78,325.82 C692.104,327.271 691.161,328.49 689.951,329.474 C688.74,330.46 687.296,331.213 685.618,331.732 C683.939,332.251 682.08,332.511 680.038,332.511" id="Fill-7" fill="#164A84"></path>
                <path d="M716.074,332.511 C713.208,332.511 710.396,332.018 707.638,331.033 C704.878,330.048 702.371,328.534 700.114,326.492 L705.004,320.634 C706.724,322.032 708.488,323.142 710.297,323.966 C712.106,324.791 714.086,325.203 716.235,325.203 C717.955,325.203 719.289,324.889 720.239,324.261 C721.188,323.635 721.663,322.766 721.663,321.656 L721.663,321.548 C721.663,321.011 721.564,320.536 721.367,320.125 C721.17,319.712 720.794,319.328 720.239,318.969 C719.683,318.611 718.913,318.253 717.928,317.894 C716.943,317.537 715.662,317.16 714.086,316.765 C712.187,316.3 710.467,315.781 708.927,315.208 C707.387,314.634 706.079,313.926 705.004,313.085 C703.929,312.243 703.097,311.196 702.506,309.941 C701.915,308.687 701.619,307.129 701.619,305.265 L701.619,305.158 C701.619,303.438 701.938,301.889 702.58,300.509 C703.22,299.131 704.119,297.94 705.275,296.936 C706.433,295.934 707.813,295.163 709.42,294.626 C711.025,294.088 712.796,293.819 714.731,293.819 C717.489,293.819 720.024,294.232 722.334,295.055 C724.646,295.879 726.768,297.062 728.703,298.602 L724.404,304.836 C722.719,303.69 721.072,302.786 719.46,302.122 C717.848,301.46 716.235,301.129 714.624,301.129 C713.011,301.129 711.802,301.442 710.996,302.068 C710.19,302.695 709.787,303.474 709.787,304.406 L709.787,304.513 C709.787,305.123 709.903,305.651 710.136,306.098 C710.369,306.547 710.79,306.95 711.399,307.307 C712.008,307.667 712.841,308.006 713.898,308.329 C714.954,308.651 716.289,309.027 717.901,309.458 C719.8,309.96 721.493,310.524 722.979,311.15 C724.466,311.777 725.72,312.53 726.741,313.407 C727.762,314.285 728.532,315.315 729.052,316.497 C729.571,317.679 729.831,319.094 729.831,320.742 L729.831,320.849 C729.831,322.713 729.493,324.37 728.817,325.82 C728.14,327.271 727.197,328.49 725.987,329.474 C724.776,330.46 723.332,331.213 721.654,331.732 C719.976,332.251 718.116,332.511 716.074,332.511" id="Fill-8" fill="#164A84"></path>
                <path d="M771.961,332.511 C769.094,332.511 766.283,332.018 763.524,331.033 C760.765,330.048 758.258,328.534 756.001,326.492 L760.891,320.634 C762.611,322.032 764.375,323.142 766.184,323.966 C767.993,324.791 769.973,325.203 772.122,325.203 C773.842,325.203 775.176,324.889 776.126,324.261 C777.074,323.635 777.55,322.766 777.55,321.656 L777.55,321.548 C777.55,321.011 777.451,320.536 777.254,320.125 C777.057,319.712 776.681,319.328 776.126,318.969 C775.57,318.611 774.8,318.253 773.815,317.894 C772.83,317.537 771.549,317.16 769.973,316.765 C768.074,316.3 766.354,315.781 764.814,315.208 C763.273,314.634 761.966,313.926 760.891,313.085 C759.816,312.243 758.983,311.196 758.393,309.941 C757.801,308.687 757.506,307.129 757.506,305.265 L757.506,305.158 C757.506,303.438 757.826,301.889 758.466,300.509 C759.106,299.131 760.005,297.94 761.162,296.936 C762.319,295.934 763.701,295.163 765.307,294.626 C766.912,294.088 768.683,293.819 770.618,293.819 C773.376,293.819 775.911,294.232 778.221,295.055 C780.532,295.879 782.655,297.062 784.589,298.602 L780.291,304.836 C778.606,303.69 776.958,302.786 775.347,302.122 C773.734,301.46 772.122,301.129 770.51,301.129 C768.898,301.129 767.689,301.442 766.883,302.068 C766.077,302.695 765.674,303.474 765.674,304.406 L765.674,304.513 C765.674,305.123 765.79,305.651 766.023,306.098 C766.255,306.547 766.676,306.95 767.286,307.307 C767.895,307.667 768.728,308.006 769.785,308.329 C770.841,308.651 772.176,309.027 773.789,309.458 C775.687,309.96 777.379,310.524 778.866,311.15 C780.353,311.777 781.607,312.53 782.628,313.407 C783.649,314.285 784.419,315.315 784.939,316.497 C785.458,317.679 785.718,319.094 785.718,320.742 L785.718,320.849 C785.718,322.713 785.379,324.37 784.704,325.82 C784.027,327.271 783.084,328.49 781.874,329.474 C780.663,330.46 779.219,331.213 777.541,331.732 C775.863,332.251 774.003,332.511 771.961,332.511" id="Fill-9" fill="#164A84"></path>
                <path d="M811.921,332.619 C809.162,332.619 806.601,332.116 804.236,331.114 C801.872,330.111 799.83,328.741 798.11,327.003 C796.39,325.265 795.047,323.215 794.08,320.849 C793.112,318.485 792.628,315.96 792.628,313.273 L792.628,313.166 C792.628,310.478 793.112,307.962 794.08,305.615 C795.047,303.269 796.39,301.209 798.11,299.435 C799.83,297.662 801.889,296.264 804.29,295.244 C806.689,294.222 809.341,293.712 812.243,293.712 C813.998,293.712 815.602,293.856 817.053,294.141 C818.504,294.429 819.82,294.823 821.002,295.325 C822.185,295.827 823.277,296.435 824.28,297.152 C825.283,297.869 826.215,298.656 827.075,299.516 L821.809,305.588 C820.339,304.263 818.843,303.223 817.321,302.471 C815.798,301.719 814.087,301.343 812.189,301.343 C810.612,301.343 809.153,301.647 807.81,302.256 C806.466,302.866 805.311,303.708 804.343,304.782 C803.376,305.857 802.624,307.102 802.086,308.517 C801.549,309.932 801.281,311.446 801.281,313.058 L801.281,313.166 C801.281,314.777 801.549,316.3 802.086,317.733 C802.624,319.166 803.367,320.42 804.317,321.495 C805.266,322.569 806.413,323.421 807.756,324.047 C809.099,324.674 810.577,324.988 812.189,324.988 C814.339,324.988 816.157,324.593 817.644,323.805 C819.13,323.018 820.607,321.943 822.077,320.581 L827.343,325.901 C826.376,326.94 825.373,327.872 824.334,328.695 C823.294,329.52 822.158,330.227 820.921,330.818 C819.686,331.409 818.333,331.858 816.865,332.162 C815.395,332.465 813.748,332.619 811.921,332.619" id="Fill-10" fill="#164A84"></path>
                <polyline id="Fill-11" fill="#164A84" points="835.366 294.357 843.642 294.357 843.642 309.242 858.903 309.242 858.903 294.357 867.179 294.357 867.179 331.973 858.903 331.973 858.903 316.873 843.642 316.873 843.642 331.973 835.366 331.973 835.366 294.357"></polyline>
                <path d="M896.557,324.988 C898.204,324.988 899.727,324.683 901.124,324.074 C902.521,323.465 903.712,322.623 904.698,321.548 C905.683,320.473 906.453,319.229 907.008,317.813 C907.563,316.399 907.842,314.885 907.842,313.273 L907.842,313.166 C907.842,311.553 907.563,310.031 907.008,308.597 C906.453,307.165 905.665,305.911 904.644,304.836 C903.623,303.761 902.414,302.911 901.017,302.284 C899.62,301.657 898.097,301.343 896.449,301.343 C894.765,301.343 893.233,301.647 891.854,302.256 C890.475,302.866 889.293,303.708 888.308,304.782 C887.322,305.857 886.552,307.102 885.997,308.517 C885.441,309.932 885.165,311.446 885.165,313.058 L885.165,313.166 C885.165,314.777 885.441,316.3 885.997,317.733 C886.552,319.166 887.34,320.42 888.362,321.495 C889.382,322.569 890.583,323.421 891.962,324.047 C893.341,324.674 894.873,324.988 896.557,324.988 Z M896.449,332.619 C893.547,332.619 890.878,332.107 888.442,331.087 C886.005,330.065 883.901,328.687 882.128,326.949 C880.354,325.212 878.975,323.17 877.99,320.823 C877.004,318.477 876.512,315.96 876.512,313.273 L876.512,313.166 C876.512,310.478 877.014,307.962 878.017,305.615 C879.02,303.269 880.409,301.209 882.182,299.435 C883.955,297.662 886.069,296.264 888.522,295.244 C890.977,294.222 893.655,293.712 896.557,293.712 C899.458,293.712 902.127,294.222 904.563,295.244 C907,296.264 909.104,297.644 910.877,299.381 C912.651,301.12 914.03,303.162 915.016,305.507 C916,307.854 916.493,310.371 916.493,313.058 L916.493,313.166 C916.493,315.852 915.991,318.37 914.989,320.715 C913.985,323.062 912.597,325.122 910.824,326.895 C909.05,328.669 906.936,330.065 904.483,331.087 C902.028,332.107 899.351,332.619 896.449,332.619 L896.449,332.619 Z" id="Fill-12" fill="#164A84"></path>
                <path d="M943.818,324.988 C945.466,324.988 946.989,324.683 948.386,324.074 C949.784,323.465 950.974,322.623 951.959,321.548 C952.945,320.473 953.714,319.229 954.271,317.813 C954.825,316.399 955.104,314.885 955.104,313.273 L955.104,313.166 C955.104,311.553 954.825,310.031 954.271,308.597 C953.714,307.165 952.927,305.911 951.906,304.836 C950.885,303.761 949.676,302.911 948.279,302.284 C946.882,301.657 945.358,301.343 943.711,301.343 C942.027,301.343 940.495,301.647 939.117,302.256 C937.737,302.866 936.555,303.708 935.57,304.782 C934.584,305.857 933.814,307.102 933.259,308.517 C932.704,309.932 932.426,311.446 932.426,313.058 L932.426,313.166 C932.426,314.777 932.704,316.3 933.259,317.733 C933.814,319.166 934.603,320.42 935.624,321.495 C936.645,322.569 937.844,323.421 939.224,324.047 C940.603,324.674 942.134,324.988 943.818,324.988 Z M943.711,332.619 C940.809,332.619 938.14,332.107 935.705,331.087 C933.267,330.065 931.164,328.687 929.39,326.949 C927.617,325.212 926.237,323.17 925.252,320.823 C924.266,318.477 923.774,315.96 923.774,313.273 L923.774,313.166 C923.774,310.478 924.275,307.962 925.279,305.615 C926.281,303.269 927.67,301.209 929.444,299.435 C931.217,297.662 933.331,296.264 935.785,295.244 C938.238,294.222 940.917,293.712 943.818,293.712 C946.72,293.712 949.389,294.222 951.826,295.244 C954.262,296.264 956.366,297.644 958.14,299.381 C959.913,301.12 961.292,303.162 962.277,305.507 C963.263,307.854 963.755,310.371 963.755,313.058 L963.755,313.166 C963.755,315.852 963.253,318.37 962.251,320.715 C961.248,323.062 959.859,325.122 958.086,326.895 C956.313,328.669 954.198,330.065 951.745,331.087 C949.291,332.107 946.613,332.619 943.711,332.619 L943.711,332.619 Z" id="Fill-13" fill="#164A84"></path>
                <polyline id="Fill-14" fill="#164A84" points="972.966 294.357 981.241 294.357 981.241 324.45 999.996 324.45 999.996 331.973 972.966 331.973 972.966 294.357"></polyline>
                <path d="M522.247,244.19 C508.275,244.19 494.565,241.789 481.118,236.987 C467.668,232.185 455.448,224.805 444.443,214.85 L468.284,186.296 C476.667,193.106 485.265,198.521 494.087,202.539 C502.904,206.556 512.555,208.562 523.035,208.562 C531.417,208.562 537.921,207.037 542.552,203.978 C547.177,200.925 549.492,196.689 549.492,191.274 L549.492,190.749 C549.492,188.13 549.009,185.818 548.053,183.806 C547.091,181.8 545.257,179.921 542.552,178.175 C539.841,176.432 536.086,174.683 531.288,172.934 C526.48,171.191 520.238,169.359 512.555,167.433 C503.296,165.167 494.914,162.633 487.407,159.838 C479.894,157.044 473.523,153.593 468.284,149.49 C463.043,145.387 458.984,140.279 456.103,134.164 C453.221,128.053 451.778,120.455 451.778,111.373 L451.778,110.848 C451.778,102.465 453.339,94.914 456.462,88.189 C459.584,81.467 463.966,75.659 469.605,70.769 C475.247,65.882 481.98,62.124 489.81,59.505 C497.635,56.882 506.269,55.573 515.699,55.573 C529.146,55.573 541.502,57.584 552.767,61.599 C564.031,65.619 574.381,71.382 583.811,78.889 L562.854,109.276 C554.643,103.689 546.61,99.282 538.753,96.047 C530.892,92.817 523.035,91.201 515.174,91.201 C507.316,91.201 501.423,92.732 497.491,95.784 C493.563,98.843 491.598,102.642 491.598,107.182 L491.598,107.707 C491.598,110.677 492.162,113.252 493.3,115.434 C494.436,117.62 496.485,119.584 499.456,121.328 C502.426,123.074 506.484,124.732 511.637,126.304 C516.788,127.876 523.297,129.711 531.155,131.805 C540.411,134.253 548.661,137.005 555.911,140.058 C563.155,143.116 569.272,146.783 574.248,151.06 C579.227,155.342 582.979,160.359 585.513,166.123 C588.043,171.887 589.312,178.788 589.312,186.82 L589.312,187.342 C589.312,196.427 587.662,204.503 584.366,211.576 C581.067,218.649 576.472,224.587 570.573,229.388 C564.672,234.193 557.629,237.863 549.451,240.39 C541.27,242.921 532.202,244.19 522.247,244.19" id="Fill-15" fill="#164A84"></path>
                <path d="M924.815,244.714 C911.365,244.714 898.879,242.267 887.353,237.379 C875.826,232.492 865.871,225.811 857.488,217.339 C849.105,208.869 842.557,198.87 837.841,187.342 C833.127,175.816 830.768,163.504 830.768,150.405 L830.768,149.882 C830.768,136.784 833.127,124.516 837.841,113.075 C842.557,101.639 849.105,91.593 857.488,82.948 C865.871,74.305 875.911,67.492 887.615,62.516 C899.313,57.537 912.241,55.05 926.387,55.05 C934.941,55.05 942.76,55.75 949.833,57.145 C956.907,58.546 963.325,60.466 969.088,62.908 C974.849,65.356 980.176,68.324 985.066,71.816 C989.954,75.311 994.499,79.151 998.69,83.343 L973.017,112.945 C965.853,106.485 958.564,101.418 951.143,97.752 C943.716,94.083 935.38,92.248 926.125,92.248 C918.438,92.248 911.324,93.734 904.773,96.702 C898.225,99.674 892.594,103.775 887.877,109.016 C883.161,114.255 879.495,120.325 876.875,127.221 C874.253,134.123 872.944,141.5 872.944,149.358 L872.944,149.882 C872.944,157.74 874.253,165.167 876.875,172.149 C879.495,179.136 883.117,185.248 887.745,190.486 C892.373,195.725 897.962,199.878 904.513,202.931 C911.061,205.987 918.264,207.514 926.125,207.514 C936.602,207.514 945.465,205.594 952.715,201.752 C959.959,197.911 967.163,192.672 974.327,186.033 L1000,211.968 C995.284,217.036 990.393,221.575 985.329,225.589 C980.262,229.61 974.719,233.058 968.693,235.937 C962.67,238.819 956.075,241.006 948.916,242.488 C941.752,243.968 933.723,244.714 924.815,244.714" id="Fill-16" fill="#164A84"></path>
                <polyline id="Fill-17" fill="#164A84" points="618.298 58.192 661.726 58.192 709.856 135.736 757.989 58.192 801.414 58.192 801.414 241.571 761.595 241.571 761.595 121.853 710.119 200.179 709.071 200.179 658.117 122.637 658.117 241.571 618.298 241.571 618.298 58.192"></polyline>
                <line x1="361.109" y1="0" x2="361.109" y2="388.887" id="Stroke-18" stroke="#4B4D4E" stroke-width="2.778"></line>
                <path d="M216.049,302.47 C198.999,302.47 185.182,288.654 185.182,271.603 C185.182,254.563 198.999,240.747 216.049,240.747 C233.089,240.747 246.906,254.563 246.906,271.603 C246.906,288.654 233.089,302.47 216.049,302.47 Z M216.049,209.879 C181.959,209.879 154.315,237.513 154.315,271.603 C154.315,305.693 181.959,333.327 216.049,333.327 C250.14,333.327 277.773,305.693 277.773,271.603 C277.773,237.513 250.14,209.879 216.049,209.879 L216.049,209.879 Z" id="Fill-19" fill="#D8232A"></path>
                <g id="Group-24" transform="translate(0.000000, 55.444000)">
                    <mask id="mask-2" fill="white">
                        <use xlink:href="#path-1"></use>
                    </mask>
                    <g id="Clip-21"></g>
                    <path d="M277.777,0.115 C277.777,34.206 250.132,61.839 216.042,61.839 C181.952,61.839 154.319,34.206 154.319,0.115 L185.186,0.115 C185.186,17.166 199.003,30.982 216.042,30.982 C233.093,30.982 246.91,17.166 246.91,0.115 L277.777,0.115" id="Fill-20" fill="#00A3DA" mask="url(#mask-2)"></path>
                    <path d="M123.458,216.159 C123.458,250.249 95.825,277.883 61.724,277.883 C27.633,277.883 0,250.249 0,216.159 C0,182.069 27.633,154.435 61.724,154.435 L61.724,185.303 C44.684,185.303 30.867,199.119 30.867,216.159 C30.867,233.21 44.684,247.026 61.724,247.026 C78.774,247.026 92.591,233.21 92.591,216.159 L123.458,216.159" id="Fill-22" fill="#84BF41" mask="url(#mask-2)"></path>
                    <path d="M61.724,30.982 L61.724,61.839 C27.634,61.839 0,34.206 0,0.115 L30.868,0.115 C30.868,17.166 44.685,30.982 61.724,30.982" id="Fill-23" fill="#4A4D4D" mask="url(#mask-2)"></path>
                </g>
            </g>
        </g>
    </g>
</svg>