<?xml version="1.0" encoding="UTF-8"?>
<svg width="22px" height="22px" viewBox="0 0 22 22" version="1.1" xmlns="http://www.w3.org/2000/svg" xmlns:xlink="http://www.w3.org/1999/xlink">
    <title>coins</title>
    <g id="Page-1" stroke="none" stroke-width="1" fill="none" fill-rule="evenodd">
        <g id="Masterclasses-Final" transform="translate(-826.000000, -1674.000000)" fill="#FFFFFF" fill-rule="nonzero">
            <g id="MIDMAIN" transform="translate(-71.000000, 719.000000)">
                <g id="prg---2" transform="translate(171.000000, 794.500000)">
                    <g id="Keyss" transform="translate(435.000000, 129.000000)">
                        <g id="keys" transform="translate(0.000000, 23.000000)">
                            <g id="key-2" transform="translate(282.500000, 0.000000)">
                                <g id="coins" transform="translate(9.000000, 9.000000)">
                                    <path d="M16.4008264,-6.16586672e-16 C13.860773,-6.16586672e-16 11.8016529,2.05912014 11.8016529,4.59917355 C11.8016529,7.13922697 13.860773,9.19834711 16.4008264,9.19834711 C18.9408799,9.19834711 21,7.13922697 21,4.59917355 C20.9971068,2.0603195 18.9396805,0.0028931748 16.4008264,-6.16586672e-16 Z M16.4008264,8.67768595 C14.1483262,8.67768595 12.322314,6.85167375 12.322314,4.59917355 C12.322314,2.34667336 14.1483262,0.520661157 16.4008264,0.520661157 C18.6533266,0.520661157 20.4793388,2.34667336 20.4793388,4.59917355 C20.4768043,6.85062306 18.652276,8.67515137 16.4008264,8.67768595 Z" id="Shape"></path>
                                    <path d="M16.9210103,2.4731405 L17.8143781,2.4731405 C17.9581547,2.4731405 18.0747087,2.35658653 18.0747087,2.21280992 C18.0747087,2.06903331 17.9581547,1.95247934 17.8143781,1.95247934 L16.9210103,1.95247934 C15.7913058,1.95247934 14.8253492,2.69008264 14.4478698,3.68801653 L13.6568554,3.68801653 C13.5130788,3.68801653 13.3965248,3.8045705 13.3965248,3.94834711 C13.3965248,4.09212372 13.5130788,4.20867769 13.6568554,4.20867769 L14.3103285,4.20867769 C14.2677538,4.46726758 14.2677538,4.73107952 14.3103285,4.98966942 L13.6568554,4.98966942 C13.5130788,4.98966942 13.3965248,5.10622339 13.3965248,5.25 C13.3965248,5.39377661 13.5130788,5.51033058 13.6568554,5.51033058 L14.4480434,5.51033058 C14.8253058,6.50826446 15.7913058,7.24586777 16.9211839,7.24586777 L17.8145517,7.24586777 C17.9583283,7.24586777 18.0748822,7.1293138 18.0748822,6.98553719 C18.0748822,6.84176058 17.9583283,6.72520661 17.8145517,6.72520661 L16.9211839,6.72520661 C16.1025312,6.72878452 15.3572314,6.25386605 15.0146529,5.51033058 L17.1846384,5.51033058 C17.328415,5.51033058 17.444969,5.39377661 17.444969,5.25 C17.444969,5.10622339 17.328415,4.98966942 17.1846384,4.98966942 L14.8391901,4.98966942 C14.7856773,4.73208882 14.7856773,4.46625829 14.8391901,4.20867769 L17.1844649,4.20867769 C17.3282415,4.20867769 17.4447955,4.09212372 17.4447955,3.94834711 C17.4447955,3.8045705 17.3282415,3.68801653 17.1844649,3.68801653 L15.0144793,3.68801653 C15.3570579,2.94448106 16.1023576,2.46956259 16.9210103,2.4731405 L16.9210103,2.4731405 Z" id="Path"></path>
                                    <path d="M15.2377562,11.591219 C14.3142769,11.2218533 13.0886839,11.0184917 11.7927149,11.0184917 C11.1854091,11.0169794 10.578947,11.0638279 9.97907851,11.158593 L9.97907851,4.09300413 C9.97907851,3.47389463 9.43004132,2.91283884 8.43102273,2.51331818 C7.50758678,2.14390909 6.28585537,1.94059091 4.98992975,1.94059091 C3.69400413,1.94059091 2.47209917,2.14399587 1.54861983,2.51331818 C0.54986157,2.91292562 0,3.47389463 0,4.09300413 L0,15.446281 C0,16.0653905 0.550165289,16.6264463 1.54896694,17.0259669 C2.47244628,17.395376 3.70020868,17.5986942 4.99609091,17.5986942 C5.60418068,17.6006097 6.2114384,17.5535839 6.81198347,17.4580723 L6.81198347,18.8475 C6.81198347,19.4665661 7.35663843,20.0276653 8.35561364,20.427186 C9.27909298,20.796595 10.4986116,20.9999132 11.7944938,20.9999132 C13.090376,20.9999132 14.3156219,20.7965083 15.2391446,20.427186 C16.2381632,20.0275785 16.7913223,19.4665661 16.7913223,18.8475 L16.7913223,13.1709483 C16.7913223,12.5518388 16.2367748,11.9908264 15.2377562,11.591219 Z M4.99075413,2.46116529 C7.62508264,2.46116529 9.46093388,3.32116736 9.46093388,4.09300413 C9.46093388,4.86484091 7.62508264,5.72484298 4.99075413,5.72484298 C2.35642562,5.72484298 0.520661157,4.86484091 0.520661157,4.09300413 C0.520661157,3.32116736 2.35646901,2.46116529 4.99075413,2.46116529 Z M0.520661157,5.07835537 C0.775915289,5.3006343 1.12120041,5.50152273 1.54896694,5.67277686 C2.47244628,6.04218595 3.69469835,6.24550413 4.99058058,6.24550413 C6.28646281,6.24550413 7.50763017,6.04209917 8.43128306,5.67277686 C8.85922314,5.5016095 9.19834711,5.30072107 9.45867769,5.07835537 L9.45867769,5.98517355 C9.45867769,6.75701033 7.62395455,7.61705579 4.98966942,7.61705579 C2.3553843,7.61705579 0.520661157,6.75701033 0.520661157,5.98517355 L0.520661157,5.07835537 Z M0.520661157,6.97052479 C0.775915289,7.19284711 1.12120041,7.39369215 1.54896694,7.56494628 C2.47244628,7.93431198 3.69469835,8.13767355 4.99058058,8.13767355 C6.28646281,8.13767355 7.50763017,7.93422521 8.43128306,7.56494628 C8.85922314,7.39373554 9.19834711,7.19284711 9.45867769,6.97052479 L9.45867769,7.87734298 C9.45867769,8.64917975 7.62395455,9.50918182 4.98966942,9.50918182 C2.3553843,9.50918182 0.520661157,8.64922314 0.520661157,7.87738636 L0.520661157,6.97052479 Z M0.520661157,8.86269421 C0.775915289,9.08501653 1.12120041,9.28590496 1.54896694,9.4571157 C2.47244628,9.82652479 3.69469835,10.029843 4.99058058,10.029843 C6.28646281,10.029843 7.50763017,9.82643802 8.43128306,9.4571157 C8.85922314,9.28594835 9.19834711,9.08505992 9.45867769,8.86269421 L9.45867769,9.7695124 C9.45867769,10.5413492 7.62395455,11.4013512 4.98966942,11.4013512 C2.3553843,11.4013512 0.520661157,10.5413926 0.520661157,9.76955579 L0.520661157,8.86269421 Z M0.520661157,10.754907 C0.775915289,10.977186 1.12120041,11.1780744 1.54896694,11.3493285 C2.47244628,11.7187376 3.69469835,11.9220558 4.99058058,11.9220558 C6.28646281,11.9220558 7.50763017,11.7186508 8.43128306,11.3493285 C8.85922314,11.1780744 9.19834711,10.9772727 9.45867769,10.754907 L9.45867769,11.2573017 C9.08074105,11.3399828 8.70974098,11.4516774 8.34897521,11.5913926 C7.36340702,11.9856632 6.81567149,12.537 6.80109298,13.1462169 C6.2027943,13.2463164 5.59710528,13.2956656 4.9904938,13.2937376 C2.35599174,13.293564 0.520661157,12.433562 0.520661157,11.6617252 L0.520661157,10.754907 Z M0.520661157,12.6470764 C0.775915289,12.8693554 1.12120041,13.0702438 1.54896694,13.2414979 C2.47244628,13.6108636 3.70020868,13.8142252 4.99609091,13.8142252 C5.60417911,13.8161898 6.21143846,13.769193 6.81198347,13.6736901 L6.81198347,15.0384298 C6.21199339,15.1387715 5.60458333,15.1881214 4.99626446,15.1859504 C2.36197934,15.1859504 0.520661157,14.3257314 0.520661157,13.5538946 L0.520661157,12.6470764 Z M0.520661157,15.446281 L0.520661157,14.5394628 C0.775915289,14.7617851 1.12120041,14.9626736 1.54896694,15.1338843 C2.47244628,15.5032934 3.70020868,15.7066116 4.99609091,15.7066116 C5.60418495,15.7085045 6.21144433,15.661435 6.81198347,15.5658595 L6.81198347,16.9305558 C6.21199112,17.0308792 5.60458262,17.0802289 4.99626446,17.0780764 C2.36197934,17.0779029 0.520661157,16.2179008 0.520661157,15.446281 Z M11.8016529,20.4793388 C9.16732438,20.4793388 7.33264463,19.6193368 7.33264463,18.8475 L7.33264463,17.9406818 C7.59297521,18.1630041 7.92767355,18.3638492 8.35561364,18.5351033 C9.27909298,18.904469 10.4986116,19.1078306 11.7944938,19.1078306 C13.090376,19.1078306 14.3156219,18.9043822 15.2391446,18.5351033 C15.6670847,18.3638926 16.0103306,18.1630041 16.2706612,17.9406818 L16.2706612,18.8475 C16.2706612,19.6193368 14.435938,20.4793388 11.8016529,20.4793388 Z M11.8016529,18.5871694 C9.16732438,18.5871694 7.33264463,17.727124 7.33264463,16.9552872 L7.33264463,16.048469 C7.59297521,16.2707479 7.92767355,16.4716364 8.35561364,16.6428905 C9.27909298,17.0122996 10.4986116,17.2156178 11.7944938,17.2156178 C13.090376,17.2156178 14.3156653,17.0122128 15.2391446,16.6428905 C15.6670847,16.4716364 16.0103306,16.2706612 16.2706612,16.048469 L16.2706612,16.9552872 C16.2706612,17.727124 14.435938,18.5871694 11.8016529,18.5871694 Z M11.8016529,16.6949566 C9.16732438,16.6949566 7.33264463,15.8349545 7.33264463,15.0631178 L7.33264463,14.1562996 C7.59297521,14.3786219 7.92767355,14.5794669 8.35561364,14.7507211 C9.27909298,15.1200868 10.4986116,15.3234483 11.7944938,15.3234483 C13.090376,15.3234483 14.3156653,15.12 15.2391446,14.7507211 C15.6670847,14.5795103 16.0103306,14.3786653 16.2706612,14.1562996 L16.2706612,15.0631178 C16.2706612,15.8349545 14.435938,16.6949566 11.8016529,16.6949566 Z M11.7917169,14.8027872 C9.15743182,14.8027872 7.32162397,13.9427851 7.32162397,13.1709483 C7.32162397,12.3991116 9.15743182,11.5390661 11.7917169,11.5390661 C14.4260021,11.5390661 16.2619835,12.3991116 16.2619835,13.1709483 C16.2619835,13.9427851 14.4260455,14.8027872 11.7917169,14.8027872 Z" id="Shape"></path>
                                </g>
                            </g>
                        </g>
                    </g>
                </g>
            </g>
        </g>
    </g>
</svg>