<?xml version="1.0" encoding="UTF-8"?>
<svg width="80px" height="42px" viewBox="0 0 80 42" version="1.1" xmlns="http://www.w3.org/2000/svg" xmlns:xlink="http://www.w3.org/1999/xlink">
    <title>FC_Logo</title>
    <g id="Page-1" stroke="none" stroke-width="1" fill="none" fill-rule="evenodd">
        <g id="Star-Manager-Circle-(Final)" transform="translate(-260.000000, -1334.000000)" fill="#FFFFFF">
            <g id="PRE-INFO" transform="translate(0.000000, 715.000000)">
                <g id="p-boxes" transform="translate(102.000000, 592.000000)">
                    <g id="FC_Logo" transform="translate(158.000000, 27.000000)">
                        <path d="M3.24991875,39.4037753 C3.24991875,39.2223141 3.17609003,39.0784765 3.02827972,38.9722624 C2.88031656,38.8660482 2.64216924,38.8127965 2.31353205,38.8127965 L0.851478713,38.8127965 L0.851478713,40.0102376 L2.35464992,40.0102376 C2.6339151,40.0102376 2.8529556,39.9624847 3.01177143,39.8664 C3.17058726,39.7706047 3.24991875,39.6215576 3.24991875,39.4192588 L3.24991875,39.4037753 Z M2.45043874,37.2265306 C2.45043874,37.0450694 2.39563473,36.9064412 2.2861443,36.8105012 C2.17653628,36.7145612 2.01847491,36.6666635 1.81207782,36.6666635 L0.851478713,36.6666635 L0.851478713,37.8175094 L1.74892384,37.8175094 C1.9636709,37.8175094 2.13443362,37.7722165 2.26085919,37.6814859 C2.38728476,37.5907553 2.45043874,37.4441682 2.45043874,37.2420141 L2.45043874,37.2265306 Z M0.0519987,35.6168224 L2.23529045,35.6168224 C2.77716859,35.6168224 3.18692714,35.7775906 3.46456611,36.0988376 C3.67958917,36.3478765 3.78703808,36.6562447 3.78703808,37.0243765 L3.78703808,37.03986 C3.78703808,37.1952741 3.77025701,37.3327447 3.73682011,37.4521271 C3.70350845,37.5713647 3.65880068,37.6787365 3.60307252,37.7746765 C3.54746958,37.8706165 3.48284996,37.9548353 3.40921364,38.0274776 C3.33557732,38.10012 3.25655604,38.1623435 3.17177409,38.2140035 C3.44427855,38.3333859 3.65867545,38.4954565 3.81496478,38.7000706 C3.9712541,38.9049741 4.04939877,39.1888871 4.04939877,39.55152 L4.04939877,39.5671482 C4.04939877,39.8160424 4.00807226,40.0338247 3.92516879,40.2203506 C3.84226532,40.4070212 3.72354554,40.5624353 3.56900946,40.6868824 C3.41447338,40.8113294 3.22875457,40.9046647 3.01135211,40.9668882 C2.79407488,41.0289671 2.55350454,41.0600788 2.28926537,41.0600788 L0.0519987,41.0600788 L0.0519987,35.6168224 L0.0519987,35.6168224 Z" id="Fill-1"></path>
                        <path d="M8.03114092,41.1456 C7.29185361,41.1456 6.70987704,40.9435906 6.2852112,40.5391376 C5.86069171,40.1348294 5.64835879,39.5309718 5.64835879,38.7272753 L5.64835879,35.6168224 L6.85943199,35.6168224 L6.85943199,38.6961635 C6.85943199,39.1420024 6.96420826,39.47772 7.17390714,39.7031718 C7.38360601,39.9286235 7.67452113,40.0413494 8.04679883,40.0413494 C8.41893019,40.0413494 8.70999165,39.9325306 8.91969052,39.7147482 C9.1293894,39.4969659 9.23416567,39.1705094 9.23416567,38.7350894 L9.23416567,35.6168224 L10.4452389,35.6168224 L10.4452389,38.6884941 C10.4452389,39.1032212 10.3887533,39.4635388 10.2762213,39.7693024 C10.1633966,40.0753553 10.0021348,40.3304718 9.79258221,40.5352306 C9.58288334,40.7399894 9.32855211,40.8929435 9.02973487,40.9939482 C8.73091763,41.0950976 8.39785787,41.1456 8.03114092,41.1456" id="Fill-2"></path>
                        <path d="M13.3915878,41.1379306 C13.0059316,41.1379306 12.6278083,41.0665906 12.2566797,40.9240553 C11.8855512,40.78152 11.5483206,40.5624353 11.2447189,40.2669459 L11.9025002,39.4192588 C12.1337325,39.6215576 12.371018,39.7821812 12.6144912,39.9014188 C12.8578299,40.0208012 13.1241708,40.08042 13.4132449,40.08042 C13.6446117,40.08042 13.8240555,40.0349824 13.9518453,39.9441071 C14.0793661,39.8535212 14.143261,39.7277718 14.143261,39.5671482 L14.143261,39.55152 C14.143261,39.4738129 14.129944,39.4050776 14.1035789,39.3456035 C14.0770793,39.28584 14.0265015,39.2302729 13.9518453,39.1783235 C13.8770546,39.1265188 13.7734776,39.0747141 13.6409798,39.0227647 C13.5084819,38.9711047 13.3361674,38.9165506 13.1241708,38.8593918 C12.8687257,38.7921035 12.6373589,38.7170012 12.4302049,38.6340847 C12.2229163,38.5510235 12.0471044,38.4485718 11.9025002,38.3268741 C11.7578959,38.2050318 11.6458444,38.0535247 11.5664802,37.8719188 C11.486847,37.6904576 11.4471649,37.4650059 11.4471649,37.1952741 L11.4471649,37.1797906 C11.4471649,36.9308965 11.4900753,36.7067471 11.5762998,36.5070529 C11.6623898,36.3076482 11.7833193,36.1353035 11.9389539,35.9900188 C12.0945884,35.8450235 12.2803545,35.7334553 12.496521,35.6557482 C12.7124186,35.5778965 12.9506457,35.5389706 13.2109334,35.5389706 C13.5819274,35.5389706 13.9229245,35.5987341 14.2336555,35.7178271 C14.544521,35.8370647 14.8300977,36.0082518 15.0902508,36.2310988 L14.5119683,37.1331953 C14.285444,36.9673624 14.0637623,36.8365482 13.8470577,36.7404635 C13.630084,36.6446682 13.4132449,36.5967706 13.1964057,36.5967706 C12.9795666,36.5967706 12.8169372,36.6420635 12.7085176,36.7326494 C12.6000981,36.82338 12.5458883,36.9361059 12.5458883,37.0709718 L12.5458883,37.0864553 C12.5458883,37.1747259 12.5613576,37.2511306 12.5928342,37.3158141 C12.6240418,37.3807871 12.6806729,37.4391035 12.7627274,37.4907635 C12.8445129,37.5428576 12.9565644,37.5919129 13.0988819,37.6386529 C13.2409304,37.6852482 13.4205087,37.7396576 13.6373478,37.8020259 C13.8926585,37.8746682 14.1203934,37.9562824 14.3204181,38.0468682 C14.5203082,38.1375988 14.6891253,38.2465624 14.8264657,38.3734694 C14.9638062,38.5005212 15.0673832,38.6495682 15.1373313,38.8206106 C15.2070104,38.9916529 15.2421189,39.1964118 15.2421189,39.4348871 L15.2421189,39.4503706 C15.2421189,39.7201024 15.1965182,39.95988 15.1057201,40.1697035 C15.0145186,40.3796718 14.8878049,40.5560682 14.725041,40.6984588 C14.5621426,40.8411388 14.3679021,40.9501024 14.1421849,41.0252047 C13.9164677,41.1003071 13.6662687,41.1379306 13.3915878,41.1379306" id="Fill-3"></path>
                        <polygon id="Fill-4" points="16.841079 41.0600788 18.440039 41.0600788 18.440039 35.6168224 16.841079 35.6168224"></polygon>
                        <polyline id="Fill-5" points="20.038999 35.6168224 21.1340264 35.6168224 23.6636401 38.9683553 23.6636401 35.6168224 24.8358791 35.6168224 24.8358791 41.0600788 23.8256697 41.0600788 21.211238 37.5997271 21.211238 41.0600788 20.038999 41.0600788 20.038999 35.6168224"></polyline>
                        <polyline id="Fill-6" points="26.4348391 35.6168224 30.3946268 35.6168224 30.3946268 36.6821471 27.5769135 36.6821471 27.5769135 37.7862529 30.0565348 37.7862529 30.0565348 38.8517224 27.5769135 38.8517224 27.5769135 39.9947541 30.4322392 39.9947541 30.4322392 41.0600788 26.4348391 41.0600788 26.4348391 35.6168224"></polyline>
                        <path d="M33.3785882,41.1379306 C32.9929319,41.1379306 32.6146741,41.0665906 32.2436801,40.9240553 C31.8725515,40.78152 31.5351864,40.5624353 31.2317192,40.2669459 L31.8895005,39.4192588 C32.1208673,39.6215576 32.3581528,39.7821812 32.6014916,39.9014188 C32.8448303,40.0208012 33.1110366,40.08042 33.4002452,40.08042 C33.6314775,40.08042 33.8109213,40.0349824 33.9388456,39.9441071 C34.0663664,39.8535212 34.1302613,39.7277718 34.1302613,39.5671482 L34.1302613,39.55152 C34.1302613,39.4738129 34.1169443,39.4050776 34.0905792,39.3456035 C34.0640797,39.28584 34.0133673,39.2302729 33.9388456,39.1783235 C33.8639205,39.1265188 33.7603434,39.0747141 33.6279801,39.0227647 C33.4953477,38.9711047 33.3230332,38.9165506 33.1110366,38.8593918 C32.8555915,38.7921035 32.6243592,38.7170012 32.4172052,38.6340847 C32.2099166,38.5510235 32.0341048,38.4485718 31.8895005,38.3268741 C31.7448962,38.2050318 31.6328447,38.0535247 31.553346,37.8719188 C31.4738473,37.6904576 31.4341652,37.4650059 31.4341652,37.1952741 L31.4341652,37.1797906 C31.4341652,36.9308965 31.4770757,36.7067471 31.5633002,36.5070529 C31.6495247,36.3076482 31.7703197,36.1353035 31.9259542,35.9900188 C32.0815888,35.8450235 32.2673548,35.7334553 32.4835214,35.6557482 C32.6994189,35.5778965 32.937646,35.5389706 33.1977992,35.5389706 C33.5689277,35.5389706 33.9097903,35.5987341 34.2206558,35.7178271 C34.5315214,35.8370647 34.8169635,36.0082518 35.0772512,36.2310988 L34.4989686,37.1331953 C34.2724443,36.9673624 34.0507626,36.8365482 33.8339235,36.7404635 C33.6170843,36.6446682 33.4002452,36.5967706 33.183406,36.5967706 C32.9665669,36.5967706 32.8039375,36.6420635 32.6953834,36.7326494 C32.5869639,36.82338 32.5327541,36.9361059 32.5327541,37.0709718 L32.5327541,37.0864553 C32.5327541,37.1747259 32.5483579,37.2511306 32.5798345,37.3158141 C32.6110422,37.3807871 32.6676732,37.4391035 32.7495932,37.4907635 C32.8315132,37.5428576 32.9435647,37.5919129 33.0857477,37.6386529 C33.2277962,37.6852482 33.407509,37.7396576 33.6243482,37.8020259 C33.8797933,37.8746682 34.1073937,37.9562824 34.3074184,38.0468682 C34.5073086,38.1375988 34.6761256,38.2465624 34.8134661,38.3734694 C34.9508065,38.5005212 35.0543835,38.6495682 35.1243316,38.8206106 C35.1940107,38.9916529 35.2291193,39.1964118 35.2291193,39.4348871 L35.2291193,39.4503706 C35.2291193,39.7201024 35.183653,39.95988 35.0925859,40.1697035 C35.0016534,40.3796718 34.8748052,40.5560682 34.7120413,40.6984588 C34.5491429,40.8411388 34.3549024,40.9501024 34.1291852,41.0252047 C33.9033335,41.1003071 33.653269,41.1379306 33.3785882,41.1379306" id="Fill-7"></path>
                        <path d="M38.9749483,41.1379306 C38.5894266,41.1379306 38.2111687,41.0665906 37.8401747,40.9240553 C37.4689116,40.78152 37.131681,40.5624353 36.8280793,40.2669459 L37.4858606,39.4192588 C37.7172274,39.6215576 37.9545129,39.7821812 38.1978516,39.9014188 C38.4411904,40.0208012 38.7075313,40.08042 38.9966053,40.08042 C39.2279721,40.08042 39.4074159,40.0349824 39.5352057,39.9441071 C39.662861,39.8535212 39.7267559,39.7277718 39.7267559,39.5671482 L39.7267559,39.55152 C39.7267559,39.4738129 39.7134389,39.4050776 39.6869393,39.3456035 C39.6604398,39.28584 39.6098619,39.2302729 39.5352057,39.1783235 C39.4604151,39.1265188 39.356838,39.0747141 39.2243402,39.0227647 C39.0918423,38.9711047 38.9195278,38.9165506 38.7075313,38.8593918 C38.4520861,38.7921035 38.2207193,38.7170012 38.0135653,38.6340847 C37.8064113,38.5510235 37.6304648,38.4485718 37.4858606,38.3268741 C37.3412563,38.2050318 37.2293393,38.0535247 37.1498406,37.8719188 C37.0703419,37.6904576 37.0305253,37.4650059 37.0305253,37.1952741 L37.0305253,37.1797906 C37.0305253,36.9308965 37.0734358,36.7067471 37.1597948,36.5070529 C37.2458847,36.3076482 37.3668143,36.1353035 37.5223143,35.9900188 C37.6780834,35.8450235 37.8637149,35.7334553 38.0798815,35.6557482 C38.295779,35.5778965 38.5340061,35.5389706 38.7942938,35.5389706 C39.1652878,35.5389706 39.5062849,35.5987341 39.8170159,35.7178271 C40.128016,35.8370647 40.4134581,36.0082518 40.6737458,36.2310988 L40.0954632,37.1331953 C39.8688044,36.9673624 39.6472572,36.8365482 39.4304181,36.7404635 C39.2135789,36.6446682 38.9966053,36.5967706 38.7799006,36.5967706 C38.562927,36.5967706 38.4002976,36.6420635 38.291878,36.7326494 C38.1834585,36.82338 38.1292487,36.9361059 38.1292487,37.0709718 L38.1292487,37.0864553 C38.1292487,37.1747259 38.1448525,37.2511306 38.1761946,37.3158141 C38.2075368,37.3807871 38.2641678,37.4391035 38.3460878,37.4907635 C38.4280078,37.5428576 38.5400593,37.5919129 38.6822423,37.6386529 C38.8242908,37.6852482 39.0038691,37.7396576 39.2207083,37.8020259 C39.4761534,37.8746682 39.7038883,37.9562824 39.9037785,38.0468682 C40.1038032,38.1375988 40.2724857,38.2465624 40.4098262,38.3734694 C40.5471666,38.5005212 40.6507436,38.6495682 40.7206917,38.8206106 C40.7905053,38.9916529 40.8254794,39.1964118 40.8254794,39.4348871 L40.8254794,39.4503706 C40.8254794,39.7201024 40.7800131,39.95988 40.6890805,40.1697035 C40.5980135,40.3796718 40.4711653,40.5560682 40.3084014,40.6984588 C40.145503,40.8411388 39.9512625,40.9501024 39.7255453,41.0252047 C39.4998281,41.1003071 39.2496291,41.1379306 38.9749483,41.1379306" id="Fill-8"></path>
                        <path d="M46.9697484,41.1379306 C46.5840922,41.1379306 46.2059688,41.0665906 45.8348403,40.9240553 C45.4637117,40.78152 45.1264811,40.5624353 44.8228794,40.2669459 L45.4806607,39.4192588 C45.7120275,39.6215576 45.9493131,39.7821812 46.1926518,39.9014188 C46.4359905,40.0208012 46.7023314,40.08042 46.9914054,40.08042 C47.2227722,40.08042 47.402216,40.0349824 47.5300059,39.9441071 C47.6575267,39.8535212 47.7215561,39.7277718 47.7215561,39.5671482 L47.7215561,39.55152 C47.7215561,39.4738129 47.708239,39.4050776 47.6817395,39.3456035 C47.6552399,39.28584 47.604662,39.2302729 47.5300059,39.1783235 C47.4552152,39.1265188 47.3516382,39.0747141 47.2191403,39.0227647 C47.0866424,38.9711047 46.914328,38.9165506 46.7023314,38.8593918 C46.4468863,38.7921035 46.2155194,38.7170012 46.0083654,38.6340847 C45.8010769,38.5510235 45.625265,38.4485718 45.4806607,38.3268741 C45.3360564,38.2050318 45.2240049,38.0535247 45.1446407,37.8719188 C45.0650075,37.6904576 45.0253254,37.4650059 45.0253254,37.1952741 L45.0253254,37.1797906 C45.0253254,36.9308965 45.0683704,36.7067471 45.1544604,36.5070529 C45.2405504,36.3076482 45.3614799,36.1353035 45.5171144,35.9900188 C45.672749,35.8450235 45.8586495,35.7334553 46.0746816,35.6557482 C46.2905791,35.5778965 46.5288063,35.5389706 46.7890939,35.5389706 C47.160088,35.5389706 47.501085,35.5987341 47.811816,35.7178271 C48.1226816,35.8370647 48.4082582,36.0082518 48.6684114,36.2310988 L48.0902633,37.1331953 C47.8636046,36.9673624 47.6419228,36.8365482 47.4252182,36.7404635 C47.2082446,36.6446682 46.9914054,36.5967706 46.7745663,36.5967706 C46.5577271,36.5967706 46.3950978,36.6420635 46.2866782,36.7326494 C46.1782586,36.82338 46.1240488,36.9361059 46.1240488,37.0709718 L46.1240488,37.0864553 C46.1240488,37.1747259 46.1396526,37.2511306 46.1709948,37.3158141 C46.2022024,37.3807871 46.2588335,37.4391035 46.340888,37.4907635 C46.422808,37.5428576 46.5348595,37.5919129 46.6770424,37.6386529 C46.8190909,37.6852482 46.9986692,37.7396576 47.2156429,37.8020259 C47.4709535,37.8746682 47.6985539,37.9562824 47.8985786,38.0468682 C48.0986033,38.1375988 48.2672859,38.2465624 48.4046263,38.3734694 C48.5419667,38.5005212 48.6455437,38.6495682 48.7154918,38.8206106 C48.7853054,38.9916529 48.8202795,39.1964118 48.8202795,39.4348871 L48.8202795,39.4503706 C48.8202795,39.7201024 48.7746787,39.95988 48.6838807,40.1697035 C48.5928136,40.3796718 48.4659654,40.5560682 48.3032015,40.6984588 C48.1403031,40.8411388 47.9460626,40.9501024 47.7203454,41.0252047 C47.4946283,41.1003071 47.2444292,41.1379306 46.9697484,41.1379306" id="Fill-9"></path>
                        <path d="M53.0851248,41.1535588 C52.7038892,41.1535588 52.3500131,41.0807718 52.02322,40.9357765 C51.6965652,40.7906365 51.4144039,40.5923894 51.1767362,40.3408906 C50.9390685,40.0893918 50.7534942,39.7927447 50.6198753,39.4503706 C50.4861181,39.1082859 50.4192395,38.7429035 50.4192395,38.3540788 L50.4192395,38.3385953 C50.4192395,37.9496259 50.4861181,37.5855459 50.6198753,37.2459212 C50.7534942,36.9064412 50.9390685,36.6083471 51.1767362,36.3516388 C51.4144039,36.0950753 51.6989142,35.8927765 52.0306817,35.7451765 C52.3621729,35.5972871 52.7286233,35.5234871 53.1296184,35.5234871 C53.3721223,35.5234871 53.5937613,35.5443247 53.7942588,35.5855659 C53.9947564,35.6272412 54.1765998,35.6842553 54.3399273,35.7568976 C54.5033929,35.82954 54.6542842,35.9175212 54.7928777,36.0212753 C54.9314711,36.1250294 55.0602538,36.2389129 55.1790877,36.36336 L54.4514376,37.2420141 C54.2483147,37.0502788 54.0415991,36.8997847 53.8312908,36.7909659 C53.6208443,36.6821471 53.3844203,36.6277376 53.1221567,36.6277376 C52.9042486,36.6277376 52.7026456,36.6717282 52.5170714,36.7598541 C52.331359,36.8481247 52.1717623,36.9699671 52.0380052,37.1253812 C51.9043862,37.28094 51.8004757,37.4610988 51.7261354,37.6658576 C51.6519334,37.8706165 51.6149014,38.0897012 51.6149014,38.3229671 L51.6149014,38.3385953 C51.6149014,38.5717165 51.6519334,38.7921035 51.7261354,38.9994671 C51.8004757,39.2068306 51.9031426,39.3882918 52.0344125,39.5438506 C52.1655443,39.6992647 52.3240355,39.8225541 52.5096097,39.91314 C52.695184,40.0038706 52.8994124,40.0493082 53.1221567,40.0493082 C53.4192395,40.0493082 53.6704506,39.9921494 53.8759226,39.8781212 C54.0812564,39.7642376 54.2853466,39.6086788 54.4884696,39.4115894 L55.2161196,40.1814247 C55.0825006,40.3317741 54.9439072,40.46664 54.8003393,40.5857329 C54.6566333,40.7051153 54.4996621,40.8074224 54.3287348,40.8929435 C54.1580839,40.9784647 53.9711278,41.0434376 53.7682812,41.0874282 C53.5651582,41.1312741 53.3375776,41.1535588 53.0851248,41.1535588" id="Fill-10"></path>
                        <polyline id="Fill-11" points="56.0155996 35.6168224 57.2634851 35.6168224 57.2634851 37.7707694 59.5645942 37.7707694 59.5645942 35.6168224 60.8124797 35.6168224 60.8124797 41.0600788 59.5645942 41.0600788 59.5645942 38.87502 57.2634851 38.87502 57.2634851 41.0600788 56.0155996 41.0600788 56.0155996 35.6168224"></polyline>
                        <path d="M65.2190505,40.0493082 C65.5093763,40.0493082 65.7778439,40.0051729 66.0241008,39.9170471 C66.2703577,39.8289212 66.4803019,39.7070788 66.6541095,39.55152 C66.8277409,39.3959612 66.9634731,39.2159471 67.061306,39.0110435 C67.1591389,38.8064294 67.2083198,38.5873447 67.2083198,38.3540788 L67.2083198,38.3385953 C67.2083198,38.1051847 67.1591389,37.8849424 67.061306,37.6774341 C66.9634731,37.4702153 66.824568,37.2887541 66.6445907,37.1331953 C66.4646134,36.9776365 66.2514962,36.8546365 66.0052393,36.7639059 C65.7589824,36.6731753 65.4905148,36.6277376 65.2000127,36.6277376 C64.9031648,36.6277376 64.6331107,36.6717282 64.3900267,36.7598541 C64.1469428,36.8481247 63.9385851,36.9699671 63.7649537,37.1253812 C63.591146,37.28094 63.4554139,37.4610988 63.357581,37.6658576 C63.2595718,37.8706165 63.2109197,38.0897012 63.2109197,38.3229671 L63.2109197,38.3385953 C63.2109197,38.5717165 63.2595718,38.7921035 63.357581,38.9994671 C63.4554139,39.2068306 63.594319,39.3882918 63.7744726,39.5438506 C63.9542736,39.6992647 64.1659805,39.8225541 64.4090645,39.91314 C64.6521484,40.0038706 64.9222025,40.0493082 65.2190505,40.0493082 Z M64.8013213,41.1535588 C64.3370825,41.1535588 63.9101173,41.0794694 63.5204255,40.9318694 C63.1305738,40.78398 62.7939927,40.5845753 62.5103624,40.3330765 C62.2265721,40.0817224 62.0059707,39.7862329 61.8483983,39.4466082 C61.6906659,39.1071282 61.6119597,38.7429035 61.6119597,38.3540788 L61.6119597,38.3385953 C61.6119597,37.9496259 61.6922656,37.5855459 61.8527175,37.2459212 C62.0131695,36.9064412 62.2353705,36.6083471 62.5190009,36.3516388 C62.8026312,36.0950753 63.140812,35.8927765 63.5332233,35.7451765 C63.9259545,35.5972871 64.3543595,35.5234871 64.8185982,35.5234871 C65.282677,35.5234871 65.7096422,35.5972871 66.099334,35.7451765 C66.4891857,35.8927765 66.8257668,36.0924706 67.1093971,36.3438247 C67.3931874,36.5954682 67.6137888,36.8909576 67.7715212,37.2302929 C67.9289336,37.5699176 68.0077998,37.9341424 68.0077998,38.3229671 L68.0077998,38.3385953 C68.0077998,38.7272753 67.9274939,39.0916447 67.7672019,39.43098 C67.6065901,39.7706047 67.3845489,40.0686988 67.1009186,40.3252624 C66.8171283,40.5819706 66.4789475,40.78398 66.0865362,40.9318694 C65.693805,41.0794694 65.26556,41.1535588 64.8013213,41.1535588 L64.8013213,41.1535588 Z" id="Fill-12"></path>
                        <path d="M72.0126736,40.0493082 C72.245065,40.0493082 72.4598297,40.0051729 72.6568265,39.9170471 C72.8539643,39.8289212 73.0217712,39.7070788 73.1606702,39.55152 C73.2997102,39.3959612 73.4081502,39.2159471 73.4866951,39.0110435 C73.5648169,38.8064294 73.6041599,38.5873447 73.6041599,38.3540788 L73.6041599,38.3385953 C73.6041599,38.1051847 73.5648169,37.8849424 73.4866951,37.6774341 C73.4081502,37.4702153 73.297172,37.2887541 73.1531965,37.1331953 C73.009221,36.9776365 72.8387348,36.8546365 72.641738,36.7639059 C72.4447411,36.6731753 72.2298355,36.6277376 71.9975851,36.6277376 C71.7601172,36.6277376 71.5440834,36.6717282 71.3497659,36.7598541 C71.1551663,36.8481247 70.9884875,36.9699671 70.8495885,37.1253812 C70.7105485,37.28094 70.6019676,37.4610988 70.5237047,37.6658576 C70.4454418,37.8706165 70.4062398,38.0897012 70.4062398,38.3229671 L70.4062398,38.3385953 C70.4062398,38.5717165 70.4454418,38.7921035 70.5237047,38.9994671 C70.6019676,39.2068306 70.7132278,39.3882918 70.8572033,39.5438506 C71.0011788,39.6992647 71.1702548,39.8225541 71.3648544,39.91314 C71.559313,40.0038706 71.7752057,40.0493082 72.0126736,40.0493082 Z M71.9966414,41.1535588 C71.5324027,41.1535588 71.1054374,41.0794694 70.7159056,40.9318694 C70.3258939,40.78398 69.9894728,40.5845753 69.7056825,40.3330765 C69.4220522,40.0817224 69.2012908,39.7862329 69.0437184,39.4466082 C68.885986,39.1071282 68.8072798,38.7429035 68.8072798,38.3540788 L68.8072798,38.3385953 C68.8072798,37.9496259 68.8874258,37.5855459 69.0480377,37.2459212 C69.2083296,36.9064412 69.4305307,36.6083471 69.714321,36.3516388 C69.9979513,36.0950753 70.3361321,35.8927765 70.7287034,35.7451765 C71.1211147,35.5972871 71.5496796,35.5234871 72.0137584,35.5234871 C72.4779971,35.5234871 72.9049623,35.5972871 73.2948141,35.7451765 C73.6845058,35.8927765 74.0210869,36.0924706 74.3048772,36.3438247 C74.5885075,36.5954682 74.8091089,36.8909576 74.9666813,37.2302929 C75.1244137,37.5699176 75.2031199,37.9341424 75.2031199,38.3229671 L75.2031199,38.3385953 C75.2031199,38.7272753 75.122814,39.0916447 74.9625221,39.43098 C74.8020701,39.7706047 74.5798691,40.0686988 74.2962387,40.3252624 C74.0126084,40.5819706 73.6742676,40.78398 73.2818563,40.9318694 C72.8892851,41.0794694 72.4608801,41.1535588 71.9966414,41.1535588 L71.9966414,41.1535588 Z" id="Fill-13"></path>
                        <polyline id="Fill-14" points="76.0025999 35.6168224 77.2263693 35.6168224 77.2263693 39.9714565 80 39.9714565 80 41.0600788 76.0025999 41.0600788 76.0025999 35.6168224"></polyline>
                        <path d="M11.2156798,28.3573624 C9.21091201,28.3573624 7.24373722,28.0099235 5.31429889,27.3150459 C3.38443011,26.6201682 1.63104747,25.5522388 0.0519987,24.1116918 L3.47281666,19.97976 C4.67564863,20.9652071 5.90932981,21.7487894 7.17515155,22.3302176 C8.44025586,22.9115012 9.82502639,23.2017812 11.3287457,23.2017812 C12.5314342,23.2017812 13.4646585,22.9811047 14.129136,22.5384494 C14.7927526,22.0966624 15.1249196,21.4836882 15.1249196,20.7001059 L15.1249196,20.6241353 C15.1249196,20.2451506 15.0556165,19.9105906 14.9184451,19.6194424 C14.7804129,19.3291624 14.517262,19.05726 14.129136,18.8046035 C13.740149,18.5523812 13.2013641,18.2992906 12.5129247,18.0462 C11.8230504,17.7939776 10.9274191,17.5288765 9.82502639,17.2501729 C8.49650185,16.9222694 7.29381337,16.5555847 6.21667397,16.1511318 C5.13867366,15.7468235 4.22453284,15.2474435 3.47281666,14.6537153 C2.72081352,14.0599871 2.13840925,13.3208294 1.72502993,12.4359529 C1.31150711,11.5516553 1.10445874,10.45218 1.10445874,9.13796118 L1.10445874,9.06199059 C1.10445874,7.84892118 1.3284383,6.75624706 1.77654092,5.7831 C2.22450006,4.81038706 2.85324987,3.96993529 3.66235991,3.26232353 C4.47190041,2.55514588 5.43798267,2.01134118 6.56146762,1.63235647 C7.68423515,1.25279294 8.92308177,1.06337294 10.2761422,1.06337294 C12.2055805,1.06337294 13.9784771,1.35437647 15.5948319,1.93537059 C17.2110432,2.51708824 18.6961095,3.35102824 20.0491699,4.43733529 L17.0421617,8.83451294 C15.8640091,8.02604118 14.7113968,7.38832235 13.5840377,6.92019882 C12.4561047,6.45279882 11.3287457,6.21895412 10.2008127,6.21895412 C9.07331022,6.21895412 8.22775507,6.44049882 7.66357336,6.88214118 C7.09996558,7.32479647 6.81801821,7.87453412 6.81801821,8.53149882 L6.81801821,8.60746941 C6.81801821,9.03724588 6.89894356,9.40986353 7.06222911,9.72561176 C7.2252277,10.0419388 7.51922778,10.3261412 7.94552073,10.5785082 C8.37167019,10.8311647 8.95393097,11.0710871 9.69330747,11.2985647 C10.432397,11.5260424 11.3663387,11.7915776 12.4938412,12.0945918 C13.8219353,12.4488318 15.0056838,12.8470624 16.0459476,13.2888494 C17.0853506,13.73136 17.9630463,14.2619965 18.677026,14.8809035 C19.3914362,15.5005341 19.9297906,16.2265235 20.2933808,17.0606082 C20.656397,17.8946929 20.838479,18.8933082 20.838479,20.0555859 L20.838479,20.1311224 C20.838479,21.4457753 20.6017293,22.61442 20.1288039,23.6379247 C19.655448,24.6614294 18.9961359,25.5206929 18.1497198,26.2154259 C17.3030168,26.9107376 16.2924543,27.4418082 15.1190367,27.80748 C13.9451886,28.1737306 12.6440697,28.3573624 11.2156798,28.3573624" id="Fill-15"></path>
                        <path d="M68.9892216,28.4331882 C67.0194807,28.4331882 65.1909168,28.0790929 63.502944,27.3717706 C61.8148248,26.6645929 60.3569237,25.6978129 59.1292405,24.4718647 C57.9015574,23.2462059 56.9426085,21.7992918 56.2519543,20.1311224 C55.5615931,18.4632424 55.2161196,16.6816235 55.2161196,14.7861212 L55.2161196,14.71044 C55.2161196,12.8150824 55.5615931,11.0398306 56.2519543,9.38425059 C56.9426085,7.72939412 57.9015574,6.27567882 59.1292405,5.02469647 C60.3569237,3.77400353 61.827273,2.78812235 63.5413137,2.06806588 C65.2544757,1.34757529 67.1477702,0.987691765 69.2194397,0.987691765 C70.4721656,0.987691765 71.6172514,1.08898588 72.6530861,1.29085059 C73.6890673,1.49358353 74.6289779,1.77141882 75.4729643,2.12479059 C76.3166577,2.47903059 77.0967923,2.90851765 77.8129286,3.41383059 C78.528772,3.91957765 79.1943833,4.47524824 79.8081516,5.08185529 L76.0483629,9.36543882 C74.9992013,8.43063882 73.9317335,7.69741412 72.8449345,7.16692235 C71.7572568,6.63599647 70.5364567,6.37046118 69.18107,6.37046118 C68.0553155,6.37046118 67.0134763,6.58549412 66.054088,7.01498118 C65.0951391,7.44504706 64.270484,8.03848588 63.5796834,8.79688941 C62.8890292,9.55500353 62.3521467,10.4333682 61.96845,11.43126 C61.5844603,12.43002 61.3927584,13.4975153 61.3927584,14.6346141 L61.3927584,14.71044 C61.3927584,15.8475388 61.5844603,16.9222694 61.96845,17.9326059 C62.3521467,18.9436659 62.8825855,19.8281082 63.5603521,20.5860776 C64.2381187,21.3441918 65.0566229,21.9451553 66.0160112,22.3869424 C66.9749602,22.8291635 68.0298333,23.0501294 69.18107,23.0501294 C70.7154176,23.0501294 72.0133963,22.7722941 73.0751525,22.2163341 C74.1360301,21.6605188 75.1910497,20.9024047 76.2402113,19.9417024 L80,23.6946494 C79.3093459,24.4280188 78.5930631,25.0848388 77.8514447,25.6656882 C77.1093869,26.2475506 76.2976194,26.7464965 75.4151169,27.1631047 C74.5330537,27.5801471 73.5672216,27.8966188 72.5187923,28.1110729 C71.4696307,28.3252376 70.2937905,28.4331882 68.9892216,28.4331882" id="Fill-16"></path>
                        <polyline id="Fill-17" points="24.8358791 1.44235765 31.0928637 1.44235765 38.0272993 12.6634306 44.9621672 1.44235765 51.2187195 1.44235765 51.2187195 27.9783776 45.4817095 27.9783776 45.4817095 10.6544788 38.0651916 21.9887118 37.9141987 21.9887118 30.5728891 10.7679282 30.5728891 27.9783776 24.8358791 27.9783776 24.8358791 1.44235765"></polyline>
                    </g>
                </g>
            </g>
        </g>
    </g>
</svg>